G04 #@! TF.GenerationSoftware,KiCad,Pcbnew,(5.1.5)-2*
G04 #@! TF.CreationDate,2021-06-18T18:05:22+02:00*
G04 #@! TF.ProjectId,IMX_MULTIPROTOCOL,494d585f-4d55-44c5-9449-50524f544f43,rev?*
G04 #@! TF.SameCoordinates,Original*
G04 #@! TF.FileFunction,Soldermask,Bot*
G04 #@! TF.FilePolarity,Negative*
%FSLAX46Y46*%
G04 Gerber Fmt 4.6, Leading zero omitted, Abs format (unit mm)*
G04 Created by KiCad (PCBNEW (5.1.5)-2) date 2021-06-18 18:05:22*
%MOMM*%
%LPD*%
G04 APERTURE LIST*
%ADD10C,0.050000*%
%ADD11C,0.100000*%
G04 APERTURE END LIST*
D10*
X100000000Y-46700000D02*
X168600000Y-46700000D01*
X168600000Y-100000000D02*
X168600000Y-46700000D01*
X100000000Y-100000000D02*
X100000000Y-46700000D01*
X100000000Y-100000000D02*
X168600000Y-100000000D01*
D11*
G36*
X120453512Y-96563927D02*
G01*
X120602812Y-96593624D01*
X120766784Y-96661544D01*
X120914354Y-96760147D01*
X121039853Y-96885646D01*
X121138456Y-97033216D01*
X121206376Y-97197188D01*
X121241000Y-97371259D01*
X121241000Y-97548741D01*
X121206376Y-97722812D01*
X121138456Y-97886784D01*
X121039853Y-98034354D01*
X120914354Y-98159853D01*
X120766784Y-98258456D01*
X120602812Y-98326376D01*
X120453512Y-98356073D01*
X120428742Y-98361000D01*
X120251258Y-98361000D01*
X120226488Y-98356073D01*
X120077188Y-98326376D01*
X119913216Y-98258456D01*
X119765646Y-98159853D01*
X119640147Y-98034354D01*
X119541544Y-97886784D01*
X119473624Y-97722812D01*
X119439000Y-97548741D01*
X119439000Y-97371259D01*
X119473624Y-97197188D01*
X119541544Y-97033216D01*
X119640147Y-96885646D01*
X119765646Y-96760147D01*
X119913216Y-96661544D01*
X120077188Y-96593624D01*
X120226488Y-96563927D01*
X120251258Y-96559000D01*
X120428742Y-96559000D01*
X120453512Y-96563927D01*
G37*
G36*
X127845000Y-98361000D02*
G01*
X126043000Y-98361000D01*
X126043000Y-96559000D01*
X127845000Y-96559000D01*
X127845000Y-98361000D01*
G37*
G36*
X106001000Y-98361000D02*
G01*
X104199000Y-98361000D01*
X104199000Y-96559000D01*
X106001000Y-96559000D01*
X106001000Y-98361000D01*
G37*
G36*
X107753512Y-96563927D02*
G01*
X107902812Y-96593624D01*
X108066784Y-96661544D01*
X108214354Y-96760147D01*
X108339853Y-96885646D01*
X108438456Y-97033216D01*
X108506376Y-97197188D01*
X108541000Y-97371259D01*
X108541000Y-97548741D01*
X108506376Y-97722812D01*
X108438456Y-97886784D01*
X108339853Y-98034354D01*
X108214354Y-98159853D01*
X108066784Y-98258456D01*
X107902812Y-98326376D01*
X107753512Y-98356073D01*
X107728742Y-98361000D01*
X107551258Y-98361000D01*
X107526488Y-98356073D01*
X107377188Y-98326376D01*
X107213216Y-98258456D01*
X107065646Y-98159853D01*
X106940147Y-98034354D01*
X106841544Y-97886784D01*
X106773624Y-97722812D01*
X106739000Y-97548741D01*
X106739000Y-97371259D01*
X106773624Y-97197188D01*
X106841544Y-97033216D01*
X106940147Y-96885646D01*
X107065646Y-96760147D01*
X107213216Y-96661544D01*
X107377188Y-96593624D01*
X107526488Y-96563927D01*
X107551258Y-96559000D01*
X107728742Y-96559000D01*
X107753512Y-96563927D01*
G37*
G36*
X110293512Y-96563927D02*
G01*
X110442812Y-96593624D01*
X110606784Y-96661544D01*
X110754354Y-96760147D01*
X110879853Y-96885646D01*
X110978456Y-97033216D01*
X111046376Y-97197188D01*
X111081000Y-97371259D01*
X111081000Y-97548741D01*
X111046376Y-97722812D01*
X110978456Y-97886784D01*
X110879853Y-98034354D01*
X110754354Y-98159853D01*
X110606784Y-98258456D01*
X110442812Y-98326376D01*
X110293512Y-98356073D01*
X110268742Y-98361000D01*
X110091258Y-98361000D01*
X110066488Y-98356073D01*
X109917188Y-98326376D01*
X109753216Y-98258456D01*
X109605646Y-98159853D01*
X109480147Y-98034354D01*
X109381544Y-97886784D01*
X109313624Y-97722812D01*
X109279000Y-97548741D01*
X109279000Y-97371259D01*
X109313624Y-97197188D01*
X109381544Y-97033216D01*
X109480147Y-96885646D01*
X109605646Y-96760147D01*
X109753216Y-96661544D01*
X109917188Y-96593624D01*
X110066488Y-96563927D01*
X110091258Y-96559000D01*
X110268742Y-96559000D01*
X110293512Y-96563927D01*
G37*
G36*
X112833512Y-96563927D02*
G01*
X112982812Y-96593624D01*
X113146784Y-96661544D01*
X113294354Y-96760147D01*
X113419853Y-96885646D01*
X113518456Y-97033216D01*
X113586376Y-97197188D01*
X113621000Y-97371259D01*
X113621000Y-97548741D01*
X113586376Y-97722812D01*
X113518456Y-97886784D01*
X113419853Y-98034354D01*
X113294354Y-98159853D01*
X113146784Y-98258456D01*
X112982812Y-98326376D01*
X112833512Y-98356073D01*
X112808742Y-98361000D01*
X112631258Y-98361000D01*
X112606488Y-98356073D01*
X112457188Y-98326376D01*
X112293216Y-98258456D01*
X112145646Y-98159853D01*
X112020147Y-98034354D01*
X111921544Y-97886784D01*
X111853624Y-97722812D01*
X111819000Y-97548741D01*
X111819000Y-97371259D01*
X111853624Y-97197188D01*
X111921544Y-97033216D01*
X112020147Y-96885646D01*
X112145646Y-96760147D01*
X112293216Y-96661544D01*
X112457188Y-96593624D01*
X112606488Y-96563927D01*
X112631258Y-96559000D01*
X112808742Y-96559000D01*
X112833512Y-96563927D01*
G37*
G36*
X115373512Y-96563927D02*
G01*
X115522812Y-96593624D01*
X115686784Y-96661544D01*
X115834354Y-96760147D01*
X115959853Y-96885646D01*
X116058456Y-97033216D01*
X116126376Y-97197188D01*
X116161000Y-97371259D01*
X116161000Y-97548741D01*
X116126376Y-97722812D01*
X116058456Y-97886784D01*
X115959853Y-98034354D01*
X115834354Y-98159853D01*
X115686784Y-98258456D01*
X115522812Y-98326376D01*
X115373512Y-98356073D01*
X115348742Y-98361000D01*
X115171258Y-98361000D01*
X115146488Y-98356073D01*
X114997188Y-98326376D01*
X114833216Y-98258456D01*
X114685646Y-98159853D01*
X114560147Y-98034354D01*
X114461544Y-97886784D01*
X114393624Y-97722812D01*
X114359000Y-97548741D01*
X114359000Y-97371259D01*
X114393624Y-97197188D01*
X114461544Y-97033216D01*
X114560147Y-96885646D01*
X114685646Y-96760147D01*
X114833216Y-96661544D01*
X114997188Y-96593624D01*
X115146488Y-96563927D01*
X115171258Y-96559000D01*
X115348742Y-96559000D01*
X115373512Y-96563927D01*
G37*
G36*
X117913512Y-96563927D02*
G01*
X118062812Y-96593624D01*
X118226784Y-96661544D01*
X118374354Y-96760147D01*
X118499853Y-96885646D01*
X118598456Y-97033216D01*
X118666376Y-97197188D01*
X118701000Y-97371259D01*
X118701000Y-97548741D01*
X118666376Y-97722812D01*
X118598456Y-97886784D01*
X118499853Y-98034354D01*
X118374354Y-98159853D01*
X118226784Y-98258456D01*
X118062812Y-98326376D01*
X117913512Y-98356073D01*
X117888742Y-98361000D01*
X117711258Y-98361000D01*
X117686488Y-98356073D01*
X117537188Y-98326376D01*
X117373216Y-98258456D01*
X117225646Y-98159853D01*
X117100147Y-98034354D01*
X117001544Y-97886784D01*
X116933624Y-97722812D01*
X116899000Y-97548741D01*
X116899000Y-97371259D01*
X116933624Y-97197188D01*
X117001544Y-97033216D01*
X117100147Y-96885646D01*
X117225646Y-96760147D01*
X117373216Y-96661544D01*
X117537188Y-96593624D01*
X117686488Y-96563927D01*
X117711258Y-96559000D01*
X117888742Y-96559000D01*
X117913512Y-96563927D01*
G37*
G36*
X122993512Y-96563927D02*
G01*
X123142812Y-96593624D01*
X123306784Y-96661544D01*
X123454354Y-96760147D01*
X123579853Y-96885646D01*
X123678456Y-97033216D01*
X123746376Y-97197188D01*
X123781000Y-97371259D01*
X123781000Y-97548741D01*
X123746376Y-97722812D01*
X123678456Y-97886784D01*
X123579853Y-98034354D01*
X123454354Y-98159853D01*
X123306784Y-98258456D01*
X123142812Y-98326376D01*
X122993512Y-98356073D01*
X122968742Y-98361000D01*
X122791258Y-98361000D01*
X122766488Y-98356073D01*
X122617188Y-98326376D01*
X122453216Y-98258456D01*
X122305646Y-98159853D01*
X122180147Y-98034354D01*
X122081544Y-97886784D01*
X122013624Y-97722812D01*
X121979000Y-97548741D01*
X121979000Y-97371259D01*
X122013624Y-97197188D01*
X122081544Y-97033216D01*
X122180147Y-96885646D01*
X122305646Y-96760147D01*
X122453216Y-96661544D01*
X122617188Y-96593624D01*
X122766488Y-96563927D01*
X122791258Y-96559000D01*
X122968742Y-96559000D01*
X122993512Y-96563927D01*
G37*
G36*
X129597512Y-96563927D02*
G01*
X129746812Y-96593624D01*
X129910784Y-96661544D01*
X130058354Y-96760147D01*
X130183853Y-96885646D01*
X130282456Y-97033216D01*
X130350376Y-97197188D01*
X130385000Y-97371259D01*
X130385000Y-97548741D01*
X130350376Y-97722812D01*
X130282456Y-97886784D01*
X130183853Y-98034354D01*
X130058354Y-98159853D01*
X129910784Y-98258456D01*
X129746812Y-98326376D01*
X129597512Y-98356073D01*
X129572742Y-98361000D01*
X129395258Y-98361000D01*
X129370488Y-98356073D01*
X129221188Y-98326376D01*
X129057216Y-98258456D01*
X128909646Y-98159853D01*
X128784147Y-98034354D01*
X128685544Y-97886784D01*
X128617624Y-97722812D01*
X128583000Y-97548741D01*
X128583000Y-97371259D01*
X128617624Y-97197188D01*
X128685544Y-97033216D01*
X128784147Y-96885646D01*
X128909646Y-96760147D01*
X129057216Y-96661544D01*
X129221188Y-96593624D01*
X129370488Y-96563927D01*
X129395258Y-96559000D01*
X129572742Y-96559000D01*
X129597512Y-96563927D01*
G37*
G36*
X132137512Y-96563927D02*
G01*
X132286812Y-96593624D01*
X132450784Y-96661544D01*
X132598354Y-96760147D01*
X132723853Y-96885646D01*
X132822456Y-97033216D01*
X132890376Y-97197188D01*
X132925000Y-97371259D01*
X132925000Y-97548741D01*
X132890376Y-97722812D01*
X132822456Y-97886784D01*
X132723853Y-98034354D01*
X132598354Y-98159853D01*
X132450784Y-98258456D01*
X132286812Y-98326376D01*
X132137512Y-98356073D01*
X132112742Y-98361000D01*
X131935258Y-98361000D01*
X131910488Y-98356073D01*
X131761188Y-98326376D01*
X131597216Y-98258456D01*
X131449646Y-98159853D01*
X131324147Y-98034354D01*
X131225544Y-97886784D01*
X131157624Y-97722812D01*
X131123000Y-97548741D01*
X131123000Y-97371259D01*
X131157624Y-97197188D01*
X131225544Y-97033216D01*
X131324147Y-96885646D01*
X131449646Y-96760147D01*
X131597216Y-96661544D01*
X131761188Y-96593624D01*
X131910488Y-96563927D01*
X131935258Y-96559000D01*
X132112742Y-96559000D01*
X132137512Y-96563927D01*
G37*
G36*
X134677512Y-96563927D02*
G01*
X134826812Y-96593624D01*
X134990784Y-96661544D01*
X135138354Y-96760147D01*
X135263853Y-96885646D01*
X135362456Y-97033216D01*
X135430376Y-97197188D01*
X135465000Y-97371259D01*
X135465000Y-97548741D01*
X135430376Y-97722812D01*
X135362456Y-97886784D01*
X135263853Y-98034354D01*
X135138354Y-98159853D01*
X134990784Y-98258456D01*
X134826812Y-98326376D01*
X134677512Y-98356073D01*
X134652742Y-98361000D01*
X134475258Y-98361000D01*
X134450488Y-98356073D01*
X134301188Y-98326376D01*
X134137216Y-98258456D01*
X133989646Y-98159853D01*
X133864147Y-98034354D01*
X133765544Y-97886784D01*
X133697624Y-97722812D01*
X133663000Y-97548741D01*
X133663000Y-97371259D01*
X133697624Y-97197188D01*
X133765544Y-97033216D01*
X133864147Y-96885646D01*
X133989646Y-96760147D01*
X134137216Y-96661544D01*
X134301188Y-96593624D01*
X134450488Y-96563927D01*
X134475258Y-96559000D01*
X134652742Y-96559000D01*
X134677512Y-96563927D01*
G37*
G36*
X137217512Y-96563927D02*
G01*
X137366812Y-96593624D01*
X137530784Y-96661544D01*
X137678354Y-96760147D01*
X137803853Y-96885646D01*
X137902456Y-97033216D01*
X137970376Y-97197188D01*
X138005000Y-97371259D01*
X138005000Y-97548741D01*
X137970376Y-97722812D01*
X137902456Y-97886784D01*
X137803853Y-98034354D01*
X137678354Y-98159853D01*
X137530784Y-98258456D01*
X137366812Y-98326376D01*
X137217512Y-98356073D01*
X137192742Y-98361000D01*
X137015258Y-98361000D01*
X136990488Y-98356073D01*
X136841188Y-98326376D01*
X136677216Y-98258456D01*
X136529646Y-98159853D01*
X136404147Y-98034354D01*
X136305544Y-97886784D01*
X136237624Y-97722812D01*
X136203000Y-97548741D01*
X136203000Y-97371259D01*
X136237624Y-97197188D01*
X136305544Y-97033216D01*
X136404147Y-96885646D01*
X136529646Y-96760147D01*
X136677216Y-96661544D01*
X136841188Y-96593624D01*
X136990488Y-96563927D01*
X137015258Y-96559000D01*
X137192742Y-96559000D01*
X137217512Y-96563927D01*
G37*
G36*
X139757512Y-96563927D02*
G01*
X139906812Y-96593624D01*
X140070784Y-96661544D01*
X140218354Y-96760147D01*
X140343853Y-96885646D01*
X140442456Y-97033216D01*
X140510376Y-97197188D01*
X140545000Y-97371259D01*
X140545000Y-97548741D01*
X140510376Y-97722812D01*
X140442456Y-97886784D01*
X140343853Y-98034354D01*
X140218354Y-98159853D01*
X140070784Y-98258456D01*
X139906812Y-98326376D01*
X139757512Y-98356073D01*
X139732742Y-98361000D01*
X139555258Y-98361000D01*
X139530488Y-98356073D01*
X139381188Y-98326376D01*
X139217216Y-98258456D01*
X139069646Y-98159853D01*
X138944147Y-98034354D01*
X138845544Y-97886784D01*
X138777624Y-97722812D01*
X138743000Y-97548741D01*
X138743000Y-97371259D01*
X138777624Y-97197188D01*
X138845544Y-97033216D01*
X138944147Y-96885646D01*
X139069646Y-96760147D01*
X139217216Y-96661544D01*
X139381188Y-96593624D01*
X139530488Y-96563927D01*
X139555258Y-96559000D01*
X139732742Y-96559000D01*
X139757512Y-96563927D01*
G37*
G36*
X142297512Y-96563927D02*
G01*
X142446812Y-96593624D01*
X142610784Y-96661544D01*
X142758354Y-96760147D01*
X142883853Y-96885646D01*
X142982456Y-97033216D01*
X143050376Y-97197188D01*
X143085000Y-97371259D01*
X143085000Y-97548741D01*
X143050376Y-97722812D01*
X142982456Y-97886784D01*
X142883853Y-98034354D01*
X142758354Y-98159853D01*
X142610784Y-98258456D01*
X142446812Y-98326376D01*
X142297512Y-98356073D01*
X142272742Y-98361000D01*
X142095258Y-98361000D01*
X142070488Y-98356073D01*
X141921188Y-98326376D01*
X141757216Y-98258456D01*
X141609646Y-98159853D01*
X141484147Y-98034354D01*
X141385544Y-97886784D01*
X141317624Y-97722812D01*
X141283000Y-97548741D01*
X141283000Y-97371259D01*
X141317624Y-97197188D01*
X141385544Y-97033216D01*
X141484147Y-96885646D01*
X141609646Y-96760147D01*
X141757216Y-96661544D01*
X141921188Y-96593624D01*
X142070488Y-96563927D01*
X142095258Y-96559000D01*
X142272742Y-96559000D01*
X142297512Y-96563927D01*
G37*
G36*
X144837512Y-96563927D02*
G01*
X144986812Y-96593624D01*
X145150784Y-96661544D01*
X145298354Y-96760147D01*
X145423853Y-96885646D01*
X145522456Y-97033216D01*
X145590376Y-97197188D01*
X145625000Y-97371259D01*
X145625000Y-97548741D01*
X145590376Y-97722812D01*
X145522456Y-97886784D01*
X145423853Y-98034354D01*
X145298354Y-98159853D01*
X145150784Y-98258456D01*
X144986812Y-98326376D01*
X144837512Y-98356073D01*
X144812742Y-98361000D01*
X144635258Y-98361000D01*
X144610488Y-98356073D01*
X144461188Y-98326376D01*
X144297216Y-98258456D01*
X144149646Y-98159853D01*
X144024147Y-98034354D01*
X143925544Y-97886784D01*
X143857624Y-97722812D01*
X143823000Y-97548741D01*
X143823000Y-97371259D01*
X143857624Y-97197188D01*
X143925544Y-97033216D01*
X144024147Y-96885646D01*
X144149646Y-96760147D01*
X144297216Y-96661544D01*
X144461188Y-96593624D01*
X144610488Y-96563927D01*
X144635258Y-96559000D01*
X144812742Y-96559000D01*
X144837512Y-96563927D01*
G37*
G36*
X147377512Y-96563927D02*
G01*
X147526812Y-96593624D01*
X147690784Y-96661544D01*
X147838354Y-96760147D01*
X147963853Y-96885646D01*
X148062456Y-97033216D01*
X148130376Y-97197188D01*
X148165000Y-97371259D01*
X148165000Y-97548741D01*
X148130376Y-97722812D01*
X148062456Y-97886784D01*
X147963853Y-98034354D01*
X147838354Y-98159853D01*
X147690784Y-98258456D01*
X147526812Y-98326376D01*
X147377512Y-98356073D01*
X147352742Y-98361000D01*
X147175258Y-98361000D01*
X147150488Y-98356073D01*
X147001188Y-98326376D01*
X146837216Y-98258456D01*
X146689646Y-98159853D01*
X146564147Y-98034354D01*
X146465544Y-97886784D01*
X146397624Y-97722812D01*
X146363000Y-97548741D01*
X146363000Y-97371259D01*
X146397624Y-97197188D01*
X146465544Y-97033216D01*
X146564147Y-96885646D01*
X146689646Y-96760147D01*
X146837216Y-96661544D01*
X147001188Y-96593624D01*
X147150488Y-96563927D01*
X147175258Y-96559000D01*
X147352742Y-96559000D01*
X147377512Y-96563927D01*
G37*
G36*
X149917512Y-96563927D02*
G01*
X150066812Y-96593624D01*
X150230784Y-96661544D01*
X150378354Y-96760147D01*
X150503853Y-96885646D01*
X150602456Y-97033216D01*
X150670376Y-97197188D01*
X150705000Y-97371259D01*
X150705000Y-97548741D01*
X150670376Y-97722812D01*
X150602456Y-97886784D01*
X150503853Y-98034354D01*
X150378354Y-98159853D01*
X150230784Y-98258456D01*
X150066812Y-98326376D01*
X149917512Y-98356073D01*
X149892742Y-98361000D01*
X149715258Y-98361000D01*
X149690488Y-98356073D01*
X149541188Y-98326376D01*
X149377216Y-98258456D01*
X149229646Y-98159853D01*
X149104147Y-98034354D01*
X149005544Y-97886784D01*
X148937624Y-97722812D01*
X148903000Y-97548741D01*
X148903000Y-97371259D01*
X148937624Y-97197188D01*
X149005544Y-97033216D01*
X149104147Y-96885646D01*
X149229646Y-96760147D01*
X149377216Y-96661544D01*
X149541188Y-96593624D01*
X149690488Y-96563927D01*
X149715258Y-96559000D01*
X149892742Y-96559000D01*
X149917512Y-96563927D01*
G37*
G36*
X162363512Y-90213927D02*
G01*
X162512812Y-90243624D01*
X162676784Y-90311544D01*
X162824354Y-90410147D01*
X162949853Y-90535646D01*
X163048456Y-90683216D01*
X163116376Y-90847188D01*
X163151000Y-91021259D01*
X163151000Y-91198741D01*
X163116376Y-91372812D01*
X163048456Y-91536784D01*
X162949853Y-91684354D01*
X162824354Y-91809853D01*
X162676784Y-91908456D01*
X162512812Y-91976376D01*
X162363512Y-92006073D01*
X162338742Y-92011000D01*
X162161258Y-92011000D01*
X162136488Y-92006073D01*
X161987188Y-91976376D01*
X161823216Y-91908456D01*
X161675646Y-91809853D01*
X161550147Y-91684354D01*
X161451544Y-91536784D01*
X161383624Y-91372812D01*
X161349000Y-91198741D01*
X161349000Y-91021259D01*
X161383624Y-90847188D01*
X161451544Y-90683216D01*
X161550147Y-90535646D01*
X161675646Y-90410147D01*
X161823216Y-90311544D01*
X161987188Y-90243624D01*
X162136488Y-90213927D01*
X162161258Y-90209000D01*
X162338742Y-90209000D01*
X162363512Y-90213927D01*
G37*
G36*
X162363512Y-87673927D02*
G01*
X162512812Y-87703624D01*
X162676784Y-87771544D01*
X162824354Y-87870147D01*
X162949853Y-87995646D01*
X163048456Y-88143216D01*
X163116376Y-88307188D01*
X163151000Y-88481259D01*
X163151000Y-88658741D01*
X163116376Y-88832812D01*
X163048456Y-88996784D01*
X162949853Y-89144354D01*
X162824354Y-89269853D01*
X162676784Y-89368456D01*
X162512812Y-89436376D01*
X162363512Y-89466073D01*
X162338742Y-89471000D01*
X162161258Y-89471000D01*
X162136488Y-89466073D01*
X161987188Y-89436376D01*
X161823216Y-89368456D01*
X161675646Y-89269853D01*
X161550147Y-89144354D01*
X161451544Y-88996784D01*
X161383624Y-88832812D01*
X161349000Y-88658741D01*
X161349000Y-88481259D01*
X161383624Y-88307188D01*
X161451544Y-88143216D01*
X161550147Y-87995646D01*
X161675646Y-87870147D01*
X161823216Y-87771544D01*
X161987188Y-87703624D01*
X162136488Y-87673927D01*
X162161258Y-87669000D01*
X162338742Y-87669000D01*
X162363512Y-87673927D01*
G37*
G36*
X162363512Y-85133927D02*
G01*
X162512812Y-85163624D01*
X162676784Y-85231544D01*
X162824354Y-85330147D01*
X162949853Y-85455646D01*
X163048456Y-85603216D01*
X163116376Y-85767188D01*
X163151000Y-85941259D01*
X163151000Y-86118741D01*
X163116376Y-86292812D01*
X163048456Y-86456784D01*
X162949853Y-86604354D01*
X162824354Y-86729853D01*
X162676784Y-86828456D01*
X162512812Y-86896376D01*
X162363512Y-86926073D01*
X162338742Y-86931000D01*
X162161258Y-86931000D01*
X162136488Y-86926073D01*
X161987188Y-86896376D01*
X161823216Y-86828456D01*
X161675646Y-86729853D01*
X161550147Y-86604354D01*
X161451544Y-86456784D01*
X161383624Y-86292812D01*
X161349000Y-86118741D01*
X161349000Y-85941259D01*
X161383624Y-85767188D01*
X161451544Y-85603216D01*
X161550147Y-85455646D01*
X161675646Y-85330147D01*
X161823216Y-85231544D01*
X161987188Y-85163624D01*
X162136488Y-85133927D01*
X162161258Y-85129000D01*
X162338742Y-85129000D01*
X162363512Y-85133927D01*
G37*
G36*
X163151000Y-84391000D02*
G01*
X161349000Y-84391000D01*
X161349000Y-82589000D01*
X163151000Y-82589000D01*
X163151000Y-84391000D01*
G37*
G36*
X162363512Y-73449927D02*
G01*
X162512812Y-73479624D01*
X162676784Y-73547544D01*
X162824354Y-73646147D01*
X162949853Y-73771646D01*
X163048456Y-73919216D01*
X163116376Y-74083188D01*
X163151000Y-74257259D01*
X163151000Y-74434741D01*
X163116376Y-74608812D01*
X163048456Y-74772784D01*
X162949853Y-74920354D01*
X162824354Y-75045853D01*
X162676784Y-75144456D01*
X162512812Y-75212376D01*
X162363512Y-75242073D01*
X162338742Y-75247000D01*
X162161258Y-75247000D01*
X162136488Y-75242073D01*
X161987188Y-75212376D01*
X161823216Y-75144456D01*
X161675646Y-75045853D01*
X161550147Y-74920354D01*
X161451544Y-74772784D01*
X161383624Y-74608812D01*
X161349000Y-74434741D01*
X161349000Y-74257259D01*
X161383624Y-74083188D01*
X161451544Y-73919216D01*
X161550147Y-73771646D01*
X161675646Y-73646147D01*
X161823216Y-73547544D01*
X161987188Y-73479624D01*
X162136488Y-73449927D01*
X162161258Y-73445000D01*
X162338742Y-73445000D01*
X162363512Y-73449927D01*
G37*
G36*
X163151000Y-72707000D02*
G01*
X161349000Y-72707000D01*
X161349000Y-70905000D01*
X163151000Y-70905000D01*
X163151000Y-72707000D01*
G37*
G36*
X137725512Y-61257927D02*
G01*
X137874812Y-61287624D01*
X138038784Y-61355544D01*
X138186354Y-61454147D01*
X138311853Y-61579646D01*
X138410456Y-61727216D01*
X138478376Y-61891188D01*
X138513000Y-62065259D01*
X138513000Y-62242741D01*
X138478376Y-62416812D01*
X138410456Y-62580784D01*
X138311853Y-62728354D01*
X138186354Y-62853853D01*
X138038784Y-62952456D01*
X137874812Y-63020376D01*
X137725512Y-63050073D01*
X137700742Y-63055000D01*
X137523258Y-63055000D01*
X137498488Y-63050073D01*
X137349188Y-63020376D01*
X137185216Y-62952456D01*
X137037646Y-62853853D01*
X136912147Y-62728354D01*
X136813544Y-62580784D01*
X136745624Y-62416812D01*
X136711000Y-62242741D01*
X136711000Y-62065259D01*
X136745624Y-61891188D01*
X136813544Y-61727216D01*
X136912147Y-61579646D01*
X137037646Y-61454147D01*
X137185216Y-61355544D01*
X137349188Y-61287624D01*
X137498488Y-61257927D01*
X137523258Y-61253000D01*
X137700742Y-61253000D01*
X137725512Y-61257927D01*
G37*
G36*
X141053000Y-63055000D02*
G01*
X139251000Y-63055000D01*
X139251000Y-61253000D01*
X141053000Y-61253000D01*
X141053000Y-63055000D01*
G37*
G36*
X162363512Y-59733927D02*
G01*
X162512812Y-59763624D01*
X162676784Y-59831544D01*
X162824354Y-59930147D01*
X162949853Y-60055646D01*
X163048456Y-60203216D01*
X163116376Y-60367188D01*
X163151000Y-60541259D01*
X163151000Y-60718741D01*
X163116376Y-60892812D01*
X163048456Y-61056784D01*
X162949853Y-61204354D01*
X162824354Y-61329853D01*
X162676784Y-61428456D01*
X162512812Y-61496376D01*
X162363512Y-61526073D01*
X162338742Y-61531000D01*
X162161258Y-61531000D01*
X162136488Y-61526073D01*
X161987188Y-61496376D01*
X161823216Y-61428456D01*
X161675646Y-61329853D01*
X161550147Y-61204354D01*
X161451544Y-61056784D01*
X161383624Y-60892812D01*
X161349000Y-60718741D01*
X161349000Y-60541259D01*
X161383624Y-60367188D01*
X161451544Y-60203216D01*
X161550147Y-60055646D01*
X161675646Y-59930147D01*
X161823216Y-59831544D01*
X161987188Y-59763624D01*
X162136488Y-59733927D01*
X162161258Y-59729000D01*
X162338742Y-59729000D01*
X162363512Y-59733927D01*
G37*
G36*
X163151000Y-58991000D02*
G01*
X161349000Y-58991000D01*
X161349000Y-57189000D01*
X163151000Y-57189000D01*
X163151000Y-58991000D01*
G37*
G36*
X130613512Y-48303927D02*
G01*
X130762812Y-48333624D01*
X130926784Y-48401544D01*
X131074354Y-48500147D01*
X131199853Y-48625646D01*
X131298456Y-48773216D01*
X131366376Y-48937188D01*
X131401000Y-49111259D01*
X131401000Y-49288741D01*
X131366376Y-49462812D01*
X131298456Y-49626784D01*
X131199853Y-49774354D01*
X131074354Y-49899853D01*
X130926784Y-49998456D01*
X130762812Y-50066376D01*
X130613512Y-50096073D01*
X130588742Y-50101000D01*
X130411258Y-50101000D01*
X130386488Y-50096073D01*
X130237188Y-50066376D01*
X130073216Y-49998456D01*
X129925646Y-49899853D01*
X129800147Y-49774354D01*
X129701544Y-49626784D01*
X129633624Y-49462812D01*
X129599000Y-49288741D01*
X129599000Y-49111259D01*
X129633624Y-48937188D01*
X129701544Y-48773216D01*
X129800147Y-48625646D01*
X129925646Y-48500147D01*
X130073216Y-48401544D01*
X130237188Y-48333624D01*
X130386488Y-48303927D01*
X130411258Y-48299000D01*
X130588742Y-48299000D01*
X130613512Y-48303927D01*
G37*
G36*
X128073512Y-48303927D02*
G01*
X128222812Y-48333624D01*
X128386784Y-48401544D01*
X128534354Y-48500147D01*
X128659853Y-48625646D01*
X128758456Y-48773216D01*
X128826376Y-48937188D01*
X128861000Y-49111259D01*
X128861000Y-49288741D01*
X128826376Y-49462812D01*
X128758456Y-49626784D01*
X128659853Y-49774354D01*
X128534354Y-49899853D01*
X128386784Y-49998456D01*
X128222812Y-50066376D01*
X128073512Y-50096073D01*
X128048742Y-50101000D01*
X127871258Y-50101000D01*
X127846488Y-50096073D01*
X127697188Y-50066376D01*
X127533216Y-49998456D01*
X127385646Y-49899853D01*
X127260147Y-49774354D01*
X127161544Y-49626784D01*
X127093624Y-49462812D01*
X127059000Y-49288741D01*
X127059000Y-49111259D01*
X127093624Y-48937188D01*
X127161544Y-48773216D01*
X127260147Y-48625646D01*
X127385646Y-48500147D01*
X127533216Y-48401544D01*
X127697188Y-48333624D01*
X127846488Y-48303927D01*
X127871258Y-48299000D01*
X128048742Y-48299000D01*
X128073512Y-48303927D01*
G37*
G36*
X125533512Y-48303927D02*
G01*
X125682812Y-48333624D01*
X125846784Y-48401544D01*
X125994354Y-48500147D01*
X126119853Y-48625646D01*
X126218456Y-48773216D01*
X126286376Y-48937188D01*
X126321000Y-49111259D01*
X126321000Y-49288741D01*
X126286376Y-49462812D01*
X126218456Y-49626784D01*
X126119853Y-49774354D01*
X125994354Y-49899853D01*
X125846784Y-49998456D01*
X125682812Y-50066376D01*
X125533512Y-50096073D01*
X125508742Y-50101000D01*
X125331258Y-50101000D01*
X125306488Y-50096073D01*
X125157188Y-50066376D01*
X124993216Y-49998456D01*
X124845646Y-49899853D01*
X124720147Y-49774354D01*
X124621544Y-49626784D01*
X124553624Y-49462812D01*
X124519000Y-49288741D01*
X124519000Y-49111259D01*
X124553624Y-48937188D01*
X124621544Y-48773216D01*
X124720147Y-48625646D01*
X124845646Y-48500147D01*
X124993216Y-48401544D01*
X125157188Y-48333624D01*
X125306488Y-48303927D01*
X125331258Y-48299000D01*
X125508742Y-48299000D01*
X125533512Y-48303927D01*
G37*
G36*
X122993512Y-48303927D02*
G01*
X123142812Y-48333624D01*
X123306784Y-48401544D01*
X123454354Y-48500147D01*
X123579853Y-48625646D01*
X123678456Y-48773216D01*
X123746376Y-48937188D01*
X123781000Y-49111259D01*
X123781000Y-49288741D01*
X123746376Y-49462812D01*
X123678456Y-49626784D01*
X123579853Y-49774354D01*
X123454354Y-49899853D01*
X123306784Y-49998456D01*
X123142812Y-50066376D01*
X122993512Y-50096073D01*
X122968742Y-50101000D01*
X122791258Y-50101000D01*
X122766488Y-50096073D01*
X122617188Y-50066376D01*
X122453216Y-49998456D01*
X122305646Y-49899853D01*
X122180147Y-49774354D01*
X122081544Y-49626784D01*
X122013624Y-49462812D01*
X121979000Y-49288741D01*
X121979000Y-49111259D01*
X122013624Y-48937188D01*
X122081544Y-48773216D01*
X122180147Y-48625646D01*
X122305646Y-48500147D01*
X122453216Y-48401544D01*
X122617188Y-48333624D01*
X122766488Y-48303927D01*
X122791258Y-48299000D01*
X122968742Y-48299000D01*
X122993512Y-48303927D01*
G37*
G36*
X141561000Y-50101000D02*
G01*
X139759000Y-50101000D01*
X139759000Y-48299000D01*
X141561000Y-48299000D01*
X141561000Y-50101000D01*
G37*
G36*
X118701000Y-50101000D02*
G01*
X116899000Y-50101000D01*
X116899000Y-48299000D01*
X118701000Y-48299000D01*
X118701000Y-50101000D01*
G37*
G36*
X115373512Y-48303927D02*
G01*
X115522812Y-48333624D01*
X115686784Y-48401544D01*
X115834354Y-48500147D01*
X115959853Y-48625646D01*
X116058456Y-48773216D01*
X116126376Y-48937188D01*
X116161000Y-49111259D01*
X116161000Y-49288741D01*
X116126376Y-49462812D01*
X116058456Y-49626784D01*
X115959853Y-49774354D01*
X115834354Y-49899853D01*
X115686784Y-49998456D01*
X115522812Y-50066376D01*
X115373512Y-50096073D01*
X115348742Y-50101000D01*
X115171258Y-50101000D01*
X115146488Y-50096073D01*
X114997188Y-50066376D01*
X114833216Y-49998456D01*
X114685646Y-49899853D01*
X114560147Y-49774354D01*
X114461544Y-49626784D01*
X114393624Y-49462812D01*
X114359000Y-49288741D01*
X114359000Y-49111259D01*
X114393624Y-48937188D01*
X114461544Y-48773216D01*
X114560147Y-48625646D01*
X114685646Y-48500147D01*
X114833216Y-48401544D01*
X114997188Y-48333624D01*
X115146488Y-48303927D01*
X115171258Y-48299000D01*
X115348742Y-48299000D01*
X115373512Y-48303927D01*
G37*
G36*
X112833512Y-48303927D02*
G01*
X112982812Y-48333624D01*
X113146784Y-48401544D01*
X113294354Y-48500147D01*
X113419853Y-48625646D01*
X113518456Y-48773216D01*
X113586376Y-48937188D01*
X113621000Y-49111259D01*
X113621000Y-49288741D01*
X113586376Y-49462812D01*
X113518456Y-49626784D01*
X113419853Y-49774354D01*
X113294354Y-49899853D01*
X113146784Y-49998456D01*
X112982812Y-50066376D01*
X112833512Y-50096073D01*
X112808742Y-50101000D01*
X112631258Y-50101000D01*
X112606488Y-50096073D01*
X112457188Y-50066376D01*
X112293216Y-49998456D01*
X112145646Y-49899853D01*
X112020147Y-49774354D01*
X111921544Y-49626784D01*
X111853624Y-49462812D01*
X111819000Y-49288741D01*
X111819000Y-49111259D01*
X111853624Y-48937188D01*
X111921544Y-48773216D01*
X112020147Y-48625646D01*
X112145646Y-48500147D01*
X112293216Y-48401544D01*
X112457188Y-48333624D01*
X112606488Y-48303927D01*
X112631258Y-48299000D01*
X112808742Y-48299000D01*
X112833512Y-48303927D01*
G37*
G36*
X110293512Y-48303927D02*
G01*
X110442812Y-48333624D01*
X110606784Y-48401544D01*
X110754354Y-48500147D01*
X110879853Y-48625646D01*
X110978456Y-48773216D01*
X111046376Y-48937188D01*
X111081000Y-49111259D01*
X111081000Y-49288741D01*
X111046376Y-49462812D01*
X110978456Y-49626784D01*
X110879853Y-49774354D01*
X110754354Y-49899853D01*
X110606784Y-49998456D01*
X110442812Y-50066376D01*
X110293512Y-50096073D01*
X110268742Y-50101000D01*
X110091258Y-50101000D01*
X110066488Y-50096073D01*
X109917188Y-50066376D01*
X109753216Y-49998456D01*
X109605646Y-49899853D01*
X109480147Y-49774354D01*
X109381544Y-49626784D01*
X109313624Y-49462812D01*
X109279000Y-49288741D01*
X109279000Y-49111259D01*
X109313624Y-48937188D01*
X109381544Y-48773216D01*
X109480147Y-48625646D01*
X109605646Y-48500147D01*
X109753216Y-48401544D01*
X109917188Y-48333624D01*
X110066488Y-48303927D01*
X110091258Y-48299000D01*
X110268742Y-48299000D01*
X110293512Y-48303927D01*
G37*
G36*
X107753512Y-48303927D02*
G01*
X107902812Y-48333624D01*
X108066784Y-48401544D01*
X108214354Y-48500147D01*
X108339853Y-48625646D01*
X108438456Y-48773216D01*
X108506376Y-48937188D01*
X108541000Y-49111259D01*
X108541000Y-49288741D01*
X108506376Y-49462812D01*
X108438456Y-49626784D01*
X108339853Y-49774354D01*
X108214354Y-49899853D01*
X108066784Y-49998456D01*
X107902812Y-50066376D01*
X107753512Y-50096073D01*
X107728742Y-50101000D01*
X107551258Y-50101000D01*
X107526488Y-50096073D01*
X107377188Y-50066376D01*
X107213216Y-49998456D01*
X107065646Y-49899853D01*
X106940147Y-49774354D01*
X106841544Y-49626784D01*
X106773624Y-49462812D01*
X106739000Y-49288741D01*
X106739000Y-49111259D01*
X106773624Y-48937188D01*
X106841544Y-48773216D01*
X106940147Y-48625646D01*
X107065646Y-48500147D01*
X107213216Y-48401544D01*
X107377188Y-48333624D01*
X107526488Y-48303927D01*
X107551258Y-48299000D01*
X107728742Y-48299000D01*
X107753512Y-48303927D01*
G37*
G36*
X105213512Y-48303927D02*
G01*
X105362812Y-48333624D01*
X105526784Y-48401544D01*
X105674354Y-48500147D01*
X105799853Y-48625646D01*
X105898456Y-48773216D01*
X105966376Y-48937188D01*
X106001000Y-49111259D01*
X106001000Y-49288741D01*
X105966376Y-49462812D01*
X105898456Y-49626784D01*
X105799853Y-49774354D01*
X105674354Y-49899853D01*
X105526784Y-49998456D01*
X105362812Y-50066376D01*
X105213512Y-50096073D01*
X105188742Y-50101000D01*
X105011258Y-50101000D01*
X104986488Y-50096073D01*
X104837188Y-50066376D01*
X104673216Y-49998456D01*
X104525646Y-49899853D01*
X104400147Y-49774354D01*
X104301544Y-49626784D01*
X104233624Y-49462812D01*
X104199000Y-49288741D01*
X104199000Y-49111259D01*
X104233624Y-48937188D01*
X104301544Y-48773216D01*
X104400147Y-48625646D01*
X104525646Y-48500147D01*
X104673216Y-48401544D01*
X104837188Y-48333624D01*
X104986488Y-48303927D01*
X105011258Y-48299000D01*
X105188742Y-48299000D01*
X105213512Y-48303927D01*
G37*
G36*
X138233512Y-48303927D02*
G01*
X138382812Y-48333624D01*
X138546784Y-48401544D01*
X138694354Y-48500147D01*
X138819853Y-48625646D01*
X138918456Y-48773216D01*
X138986376Y-48937188D01*
X139021000Y-49111259D01*
X139021000Y-49288741D01*
X138986376Y-49462812D01*
X138918456Y-49626784D01*
X138819853Y-49774354D01*
X138694354Y-49899853D01*
X138546784Y-49998456D01*
X138382812Y-50066376D01*
X138233512Y-50096073D01*
X138208742Y-50101000D01*
X138031258Y-50101000D01*
X138006488Y-50096073D01*
X137857188Y-50066376D01*
X137693216Y-49998456D01*
X137545646Y-49899853D01*
X137420147Y-49774354D01*
X137321544Y-49626784D01*
X137253624Y-49462812D01*
X137219000Y-49288741D01*
X137219000Y-49111259D01*
X137253624Y-48937188D01*
X137321544Y-48773216D01*
X137420147Y-48625646D01*
X137545646Y-48500147D01*
X137693216Y-48401544D01*
X137857188Y-48333624D01*
X138006488Y-48303927D01*
X138031258Y-48299000D01*
X138208742Y-48299000D01*
X138233512Y-48303927D01*
G37*
G36*
X135693512Y-48303927D02*
G01*
X135842812Y-48333624D01*
X136006784Y-48401544D01*
X136154354Y-48500147D01*
X136279853Y-48625646D01*
X136378456Y-48773216D01*
X136446376Y-48937188D01*
X136481000Y-49111259D01*
X136481000Y-49288741D01*
X136446376Y-49462812D01*
X136378456Y-49626784D01*
X136279853Y-49774354D01*
X136154354Y-49899853D01*
X136006784Y-49998456D01*
X135842812Y-50066376D01*
X135693512Y-50096073D01*
X135668742Y-50101000D01*
X135491258Y-50101000D01*
X135466488Y-50096073D01*
X135317188Y-50066376D01*
X135153216Y-49998456D01*
X135005646Y-49899853D01*
X134880147Y-49774354D01*
X134781544Y-49626784D01*
X134713624Y-49462812D01*
X134679000Y-49288741D01*
X134679000Y-49111259D01*
X134713624Y-48937188D01*
X134781544Y-48773216D01*
X134880147Y-48625646D01*
X135005646Y-48500147D01*
X135153216Y-48401544D01*
X135317188Y-48333624D01*
X135466488Y-48303927D01*
X135491258Y-48299000D01*
X135668742Y-48299000D01*
X135693512Y-48303927D01*
G37*
G36*
X133153512Y-48303927D02*
G01*
X133302812Y-48333624D01*
X133466784Y-48401544D01*
X133614354Y-48500147D01*
X133739853Y-48625646D01*
X133838456Y-48773216D01*
X133906376Y-48937188D01*
X133941000Y-49111259D01*
X133941000Y-49288741D01*
X133906376Y-49462812D01*
X133838456Y-49626784D01*
X133739853Y-49774354D01*
X133614354Y-49899853D01*
X133466784Y-49998456D01*
X133302812Y-50066376D01*
X133153512Y-50096073D01*
X133128742Y-50101000D01*
X132951258Y-50101000D01*
X132926488Y-50096073D01*
X132777188Y-50066376D01*
X132613216Y-49998456D01*
X132465646Y-49899853D01*
X132340147Y-49774354D01*
X132241544Y-49626784D01*
X132173624Y-49462812D01*
X132139000Y-49288741D01*
X132139000Y-49111259D01*
X132173624Y-48937188D01*
X132241544Y-48773216D01*
X132340147Y-48625646D01*
X132465646Y-48500147D01*
X132613216Y-48401544D01*
X132777188Y-48333624D01*
X132926488Y-48303927D01*
X132951258Y-48299000D01*
X133128742Y-48299000D01*
X133153512Y-48303927D01*
G37*
M02*
