M48
; DRILL file {KiCad (5.1.5)-2} date 18/06/2021 18:05:30
; FORMAT={3:3/ absolute / metric / suppress leading zeros}
; #@! TF.CreationDate,2021-06-18T18:05:30+02:00
; #@! TF.GenerationSoftware,Kicad,Pcbnew,(5.1.5)-2
; #@! TF.FileFunction,Plated,1,2,PTH
FMAT,2
METRIC,TZ
T1C0.400
T2C1.000
%
G90
G05
T1
X103600Y-65000
X103600Y-70000
X103600Y-95000
X104846Y-58090
X104846Y-62662
X105100Y-75870
X105100Y-80950
X105100Y-86030
X105100Y-88062
X107640Y-89078
X108600Y-65000
X108600Y-70000
X113600Y-65000
X113600Y-70000
X113600Y-95000
X117292Y-52502
X117292Y-54026
X118600Y-65000
X118600Y-70000
X118600Y-95000
X123600Y-60000
X123600Y-65000
X123600Y-70000
X123600Y-75000
X123600Y-80000
X123600Y-85000
X123600Y-95000
X128600Y-60000
X128600Y-65000
X128600Y-70000
X128600Y-75000
X128600Y-80000
X128600Y-85000
X128600Y-90000
X128600Y-95000
X133600Y-65000
X133600Y-70000
X133600Y-75000
X133600Y-80000
X133600Y-85000
X136088Y-56312
X138600Y-65000
X138600Y-70000
X138600Y-75000
X138600Y-80000
X140152Y-55296
X143600Y-70000
X143600Y-80000
X143600Y-85000
X143600Y-95000
X148026Y-71806
X148026Y-74346
X148026Y-83490
X148026Y-86030
X148026Y-88570
X148026Y-91110
X148600Y-50000
X148600Y-65000
X148600Y-70000
X148600Y-80000
X148600Y-95000
X153600Y-50000
X153600Y-55000
X153600Y-65000
X153600Y-80000
X153600Y-95000
X158600Y-50000
X158600Y-55000
X158600Y-65000
X158600Y-80000
X158600Y-95000
X163600Y-50000
X163600Y-55000
X163600Y-65000
X163600Y-80000
X163600Y-95000
T2
X105100Y-49200
X107640Y-49200
X110180Y-49200
X112720Y-49200
X115260Y-49200
X117800Y-49200
X162250Y-71806
X162250Y-74346
X162250Y-58090
X162250Y-60630
X162250Y-83490
X162250Y-86030
X162250Y-88570
X162250Y-91110
X105100Y-97460
X107640Y-97460
X110180Y-97460
X112720Y-97460
X115260Y-97460
X117800Y-97460
X120340Y-97460
X122880Y-97460
X137612Y-62154
X140152Y-62154
X126944Y-97460
X129484Y-97460
X132024Y-97460
X134564Y-97460
X137104Y-97460
X139644Y-97460
X142184Y-97460
X144724Y-97460
X147264Y-97460
X149804Y-97460
X122880Y-49200
X125420Y-49200
X127960Y-49200
X130500Y-49200
X133040Y-49200
X135580Y-49200
X138120Y-49200
X140660Y-49200
T0
M30
