G04 #@! TF.GenerationSoftware,KiCad,Pcbnew,(5.1.5)-2*
G04 #@! TF.CreationDate,2021-06-18T18:05:22+02:00*
G04 #@! TF.ProjectId,IMX_MULTIPROTOCOL,494d585f-4d55-44c5-9449-50524f544f43,rev?*
G04 #@! TF.SameCoordinates,Original*
G04 #@! TF.FileFunction,Copper,L1,Top*
G04 #@! TF.FilePolarity,Positive*
%FSLAX46Y46*%
G04 Gerber Fmt 4.6, Leading zero omitted, Abs format (unit mm)*
G04 Created by KiCad (PCBNEW (5.1.5)-2) date 2021-06-18 18:05:22*
%MOMM*%
%LPD*%
G04 APERTURE LIST*
%ADD10C,0.050000*%
%ADD11C,1.500000*%
%ADD12O,1.700000X1.700000*%
%ADD13R,1.700000X1.700000*%
%ADD14C,0.100000*%
%ADD15C,0.800000*%
%ADD16C,0.250000*%
%ADD17C,0.254000*%
G04 APERTURE END LIST*
D10*
X100000000Y-46700000D02*
X168600000Y-46700000D01*
X168600000Y-100000000D02*
X168600000Y-46700000D01*
X100000000Y-100000000D02*
X100000000Y-46700000D01*
X100000000Y-100000000D02*
X168600000Y-100000000D01*
D11*
X156600000Y-60630000D03*
X156600000Y-58090000D03*
X156662000Y-91110000D03*
X156662000Y-88570000D03*
X156662000Y-86030000D03*
X156662000Y-74346000D03*
X156662000Y-71806000D03*
X156662000Y-83490000D03*
D12*
X162250000Y-91110000D03*
X162250000Y-88570000D03*
X162250000Y-86030000D03*
D13*
X162250000Y-83490000D03*
D12*
X162250000Y-74346000D03*
D13*
X162250000Y-71806000D03*
G04 #@! TA.AperFunction,SMDPad,CuDef*
D14*
G36*
X138340505Y-56237204D02*
G01*
X138364773Y-56240804D01*
X138388572Y-56246765D01*
X138411671Y-56255030D01*
X138433850Y-56265520D01*
X138454893Y-56278132D01*
X138474599Y-56292747D01*
X138492777Y-56309223D01*
X138509253Y-56327401D01*
X138523868Y-56347107D01*
X138536480Y-56368150D01*
X138546970Y-56390329D01*
X138555235Y-56413428D01*
X138561196Y-56437227D01*
X138564796Y-56461495D01*
X138566000Y-56485999D01*
X138566000Y-57136001D01*
X138564796Y-57160505D01*
X138561196Y-57184773D01*
X138555235Y-57208572D01*
X138546970Y-57231671D01*
X138536480Y-57253850D01*
X138523868Y-57274893D01*
X138509253Y-57294599D01*
X138492777Y-57312777D01*
X138474599Y-57329253D01*
X138454893Y-57343868D01*
X138433850Y-57356480D01*
X138411671Y-57366970D01*
X138388572Y-57375235D01*
X138364773Y-57381196D01*
X138340505Y-57384796D01*
X138316001Y-57386000D01*
X137415999Y-57386000D01*
X137391495Y-57384796D01*
X137367227Y-57381196D01*
X137343428Y-57375235D01*
X137320329Y-57366970D01*
X137298150Y-57356480D01*
X137277107Y-57343868D01*
X137257401Y-57329253D01*
X137239223Y-57312777D01*
X137222747Y-57294599D01*
X137208132Y-57274893D01*
X137195520Y-57253850D01*
X137185030Y-57231671D01*
X137176765Y-57208572D01*
X137170804Y-57184773D01*
X137167204Y-57160505D01*
X137166000Y-57136001D01*
X137166000Y-56485999D01*
X137167204Y-56461495D01*
X137170804Y-56437227D01*
X137176765Y-56413428D01*
X137185030Y-56390329D01*
X137195520Y-56368150D01*
X137208132Y-56347107D01*
X137222747Y-56327401D01*
X137239223Y-56309223D01*
X137257401Y-56292747D01*
X137277107Y-56278132D01*
X137298150Y-56265520D01*
X137320329Y-56255030D01*
X137343428Y-56246765D01*
X137367227Y-56240804D01*
X137391495Y-56237204D01*
X137415999Y-56236000D01*
X138316001Y-56236000D01*
X138340505Y-56237204D01*
G37*
G04 #@! TD.AperFunction*
G04 #@! TA.AperFunction,SMDPad,CuDef*
G36*
X138340505Y-58287204D02*
G01*
X138364773Y-58290804D01*
X138388572Y-58296765D01*
X138411671Y-58305030D01*
X138433850Y-58315520D01*
X138454893Y-58328132D01*
X138474599Y-58342747D01*
X138492777Y-58359223D01*
X138509253Y-58377401D01*
X138523868Y-58397107D01*
X138536480Y-58418150D01*
X138546970Y-58440329D01*
X138555235Y-58463428D01*
X138561196Y-58487227D01*
X138564796Y-58511495D01*
X138566000Y-58535999D01*
X138566000Y-59186001D01*
X138564796Y-59210505D01*
X138561196Y-59234773D01*
X138555235Y-59258572D01*
X138546970Y-59281671D01*
X138536480Y-59303850D01*
X138523868Y-59324893D01*
X138509253Y-59344599D01*
X138492777Y-59362777D01*
X138474599Y-59379253D01*
X138454893Y-59393868D01*
X138433850Y-59406480D01*
X138411671Y-59416970D01*
X138388572Y-59425235D01*
X138364773Y-59431196D01*
X138340505Y-59434796D01*
X138316001Y-59436000D01*
X137415999Y-59436000D01*
X137391495Y-59434796D01*
X137367227Y-59431196D01*
X137343428Y-59425235D01*
X137320329Y-59416970D01*
X137298150Y-59406480D01*
X137277107Y-59393868D01*
X137257401Y-59379253D01*
X137239223Y-59362777D01*
X137222747Y-59344599D01*
X137208132Y-59324893D01*
X137195520Y-59303850D01*
X137185030Y-59281671D01*
X137176765Y-59258572D01*
X137170804Y-59234773D01*
X137167204Y-59210505D01*
X137166000Y-59186001D01*
X137166000Y-58535999D01*
X137167204Y-58511495D01*
X137170804Y-58487227D01*
X137176765Y-58463428D01*
X137185030Y-58440329D01*
X137195520Y-58418150D01*
X137208132Y-58397107D01*
X137222747Y-58377401D01*
X137239223Y-58359223D01*
X137257401Y-58342747D01*
X137277107Y-58328132D01*
X137298150Y-58315520D01*
X137320329Y-58305030D01*
X137343428Y-58296765D01*
X137367227Y-58290804D01*
X137391495Y-58287204D01*
X137415999Y-58286000D01*
X138316001Y-58286000D01*
X138340505Y-58287204D01*
G37*
G04 #@! TD.AperFunction*
G04 #@! TA.AperFunction,SMDPad,CuDef*
G36*
X140626505Y-56237204D02*
G01*
X140650773Y-56240804D01*
X140674572Y-56246765D01*
X140697671Y-56255030D01*
X140719850Y-56265520D01*
X140740893Y-56278132D01*
X140760599Y-56292747D01*
X140778777Y-56309223D01*
X140795253Y-56327401D01*
X140809868Y-56347107D01*
X140822480Y-56368150D01*
X140832970Y-56390329D01*
X140841235Y-56413428D01*
X140847196Y-56437227D01*
X140850796Y-56461495D01*
X140852000Y-56485999D01*
X140852000Y-57136001D01*
X140850796Y-57160505D01*
X140847196Y-57184773D01*
X140841235Y-57208572D01*
X140832970Y-57231671D01*
X140822480Y-57253850D01*
X140809868Y-57274893D01*
X140795253Y-57294599D01*
X140778777Y-57312777D01*
X140760599Y-57329253D01*
X140740893Y-57343868D01*
X140719850Y-57356480D01*
X140697671Y-57366970D01*
X140674572Y-57375235D01*
X140650773Y-57381196D01*
X140626505Y-57384796D01*
X140602001Y-57386000D01*
X139701999Y-57386000D01*
X139677495Y-57384796D01*
X139653227Y-57381196D01*
X139629428Y-57375235D01*
X139606329Y-57366970D01*
X139584150Y-57356480D01*
X139563107Y-57343868D01*
X139543401Y-57329253D01*
X139525223Y-57312777D01*
X139508747Y-57294599D01*
X139494132Y-57274893D01*
X139481520Y-57253850D01*
X139471030Y-57231671D01*
X139462765Y-57208572D01*
X139456804Y-57184773D01*
X139453204Y-57160505D01*
X139452000Y-57136001D01*
X139452000Y-56485999D01*
X139453204Y-56461495D01*
X139456804Y-56437227D01*
X139462765Y-56413428D01*
X139471030Y-56390329D01*
X139481520Y-56368150D01*
X139494132Y-56347107D01*
X139508747Y-56327401D01*
X139525223Y-56309223D01*
X139543401Y-56292747D01*
X139563107Y-56278132D01*
X139584150Y-56265520D01*
X139606329Y-56255030D01*
X139629428Y-56246765D01*
X139653227Y-56240804D01*
X139677495Y-56237204D01*
X139701999Y-56236000D01*
X140602001Y-56236000D01*
X140626505Y-56237204D01*
G37*
G04 #@! TD.AperFunction*
G04 #@! TA.AperFunction,SMDPad,CuDef*
G36*
X140626505Y-58287204D02*
G01*
X140650773Y-58290804D01*
X140674572Y-58296765D01*
X140697671Y-58305030D01*
X140719850Y-58315520D01*
X140740893Y-58328132D01*
X140760599Y-58342747D01*
X140778777Y-58359223D01*
X140795253Y-58377401D01*
X140809868Y-58397107D01*
X140822480Y-58418150D01*
X140832970Y-58440329D01*
X140841235Y-58463428D01*
X140847196Y-58487227D01*
X140850796Y-58511495D01*
X140852000Y-58535999D01*
X140852000Y-59186001D01*
X140850796Y-59210505D01*
X140847196Y-59234773D01*
X140841235Y-59258572D01*
X140832970Y-59281671D01*
X140822480Y-59303850D01*
X140809868Y-59324893D01*
X140795253Y-59344599D01*
X140778777Y-59362777D01*
X140760599Y-59379253D01*
X140740893Y-59393868D01*
X140719850Y-59406480D01*
X140697671Y-59416970D01*
X140674572Y-59425235D01*
X140650773Y-59431196D01*
X140626505Y-59434796D01*
X140602001Y-59436000D01*
X139701999Y-59436000D01*
X139677495Y-59434796D01*
X139653227Y-59431196D01*
X139629428Y-59425235D01*
X139606329Y-59416970D01*
X139584150Y-59406480D01*
X139563107Y-59393868D01*
X139543401Y-59379253D01*
X139525223Y-59362777D01*
X139508747Y-59344599D01*
X139494132Y-59324893D01*
X139481520Y-59303850D01*
X139471030Y-59281671D01*
X139462765Y-59258572D01*
X139456804Y-59234773D01*
X139453204Y-59210505D01*
X139452000Y-59186001D01*
X139452000Y-58535999D01*
X139453204Y-58511495D01*
X139456804Y-58487227D01*
X139462765Y-58463428D01*
X139471030Y-58440329D01*
X139481520Y-58418150D01*
X139494132Y-58397107D01*
X139508747Y-58377401D01*
X139525223Y-58359223D01*
X139543401Y-58342747D01*
X139563107Y-58328132D01*
X139584150Y-58315520D01*
X139606329Y-58305030D01*
X139629428Y-58296765D01*
X139653227Y-58290804D01*
X139677495Y-58287204D01*
X139701999Y-58286000D01*
X140602001Y-58286000D01*
X140626505Y-58287204D01*
G37*
G04 #@! TD.AperFunction*
G04 #@! TA.AperFunction,SMDPad,CuDef*
G36*
X150144505Y-90411204D02*
G01*
X150168773Y-90414804D01*
X150192572Y-90420765D01*
X150215671Y-90429030D01*
X150237850Y-90439520D01*
X150258893Y-90452132D01*
X150278599Y-90466747D01*
X150296777Y-90483223D01*
X150313253Y-90501401D01*
X150327868Y-90521107D01*
X150340480Y-90542150D01*
X150350970Y-90564329D01*
X150359235Y-90587428D01*
X150365196Y-90611227D01*
X150368796Y-90635495D01*
X150370000Y-90659999D01*
X150370000Y-91560001D01*
X150368796Y-91584505D01*
X150365196Y-91608773D01*
X150359235Y-91632572D01*
X150350970Y-91655671D01*
X150340480Y-91677850D01*
X150327868Y-91698893D01*
X150313253Y-91718599D01*
X150296777Y-91736777D01*
X150278599Y-91753253D01*
X150258893Y-91767868D01*
X150237850Y-91780480D01*
X150215671Y-91790970D01*
X150192572Y-91799235D01*
X150168773Y-91805196D01*
X150144505Y-91808796D01*
X150120001Y-91810000D01*
X149469999Y-91810000D01*
X149445495Y-91808796D01*
X149421227Y-91805196D01*
X149397428Y-91799235D01*
X149374329Y-91790970D01*
X149352150Y-91780480D01*
X149331107Y-91767868D01*
X149311401Y-91753253D01*
X149293223Y-91736777D01*
X149276747Y-91718599D01*
X149262132Y-91698893D01*
X149249520Y-91677850D01*
X149239030Y-91655671D01*
X149230765Y-91632572D01*
X149224804Y-91608773D01*
X149221204Y-91584505D01*
X149220000Y-91560001D01*
X149220000Y-90659999D01*
X149221204Y-90635495D01*
X149224804Y-90611227D01*
X149230765Y-90587428D01*
X149239030Y-90564329D01*
X149249520Y-90542150D01*
X149262132Y-90521107D01*
X149276747Y-90501401D01*
X149293223Y-90483223D01*
X149311401Y-90466747D01*
X149331107Y-90452132D01*
X149352150Y-90439520D01*
X149374329Y-90429030D01*
X149397428Y-90420765D01*
X149421227Y-90414804D01*
X149445495Y-90411204D01*
X149469999Y-90410000D01*
X150120001Y-90410000D01*
X150144505Y-90411204D01*
G37*
G04 #@! TD.AperFunction*
G04 #@! TA.AperFunction,SMDPad,CuDef*
G36*
X152194505Y-90411204D02*
G01*
X152218773Y-90414804D01*
X152242572Y-90420765D01*
X152265671Y-90429030D01*
X152287850Y-90439520D01*
X152308893Y-90452132D01*
X152328599Y-90466747D01*
X152346777Y-90483223D01*
X152363253Y-90501401D01*
X152377868Y-90521107D01*
X152390480Y-90542150D01*
X152400970Y-90564329D01*
X152409235Y-90587428D01*
X152415196Y-90611227D01*
X152418796Y-90635495D01*
X152420000Y-90659999D01*
X152420000Y-91560001D01*
X152418796Y-91584505D01*
X152415196Y-91608773D01*
X152409235Y-91632572D01*
X152400970Y-91655671D01*
X152390480Y-91677850D01*
X152377868Y-91698893D01*
X152363253Y-91718599D01*
X152346777Y-91736777D01*
X152328599Y-91753253D01*
X152308893Y-91767868D01*
X152287850Y-91780480D01*
X152265671Y-91790970D01*
X152242572Y-91799235D01*
X152218773Y-91805196D01*
X152194505Y-91808796D01*
X152170001Y-91810000D01*
X151519999Y-91810000D01*
X151495495Y-91808796D01*
X151471227Y-91805196D01*
X151447428Y-91799235D01*
X151424329Y-91790970D01*
X151402150Y-91780480D01*
X151381107Y-91767868D01*
X151361401Y-91753253D01*
X151343223Y-91736777D01*
X151326747Y-91718599D01*
X151312132Y-91698893D01*
X151299520Y-91677850D01*
X151289030Y-91655671D01*
X151280765Y-91632572D01*
X151274804Y-91608773D01*
X151271204Y-91584505D01*
X151270000Y-91560001D01*
X151270000Y-90659999D01*
X151271204Y-90635495D01*
X151274804Y-90611227D01*
X151280765Y-90587428D01*
X151289030Y-90564329D01*
X151299520Y-90542150D01*
X151312132Y-90521107D01*
X151326747Y-90501401D01*
X151343223Y-90483223D01*
X151361401Y-90466747D01*
X151381107Y-90452132D01*
X151402150Y-90439520D01*
X151424329Y-90429030D01*
X151447428Y-90420765D01*
X151471227Y-90414804D01*
X151495495Y-90411204D01*
X151519999Y-90410000D01*
X152170001Y-90410000D01*
X152194505Y-90411204D01*
G37*
G04 #@! TD.AperFunction*
G04 #@! TA.AperFunction,SMDPad,CuDef*
G36*
X150144505Y-87871204D02*
G01*
X150168773Y-87874804D01*
X150192572Y-87880765D01*
X150215671Y-87889030D01*
X150237850Y-87899520D01*
X150258893Y-87912132D01*
X150278599Y-87926747D01*
X150296777Y-87943223D01*
X150313253Y-87961401D01*
X150327868Y-87981107D01*
X150340480Y-88002150D01*
X150350970Y-88024329D01*
X150359235Y-88047428D01*
X150365196Y-88071227D01*
X150368796Y-88095495D01*
X150370000Y-88119999D01*
X150370000Y-89020001D01*
X150368796Y-89044505D01*
X150365196Y-89068773D01*
X150359235Y-89092572D01*
X150350970Y-89115671D01*
X150340480Y-89137850D01*
X150327868Y-89158893D01*
X150313253Y-89178599D01*
X150296777Y-89196777D01*
X150278599Y-89213253D01*
X150258893Y-89227868D01*
X150237850Y-89240480D01*
X150215671Y-89250970D01*
X150192572Y-89259235D01*
X150168773Y-89265196D01*
X150144505Y-89268796D01*
X150120001Y-89270000D01*
X149469999Y-89270000D01*
X149445495Y-89268796D01*
X149421227Y-89265196D01*
X149397428Y-89259235D01*
X149374329Y-89250970D01*
X149352150Y-89240480D01*
X149331107Y-89227868D01*
X149311401Y-89213253D01*
X149293223Y-89196777D01*
X149276747Y-89178599D01*
X149262132Y-89158893D01*
X149249520Y-89137850D01*
X149239030Y-89115671D01*
X149230765Y-89092572D01*
X149224804Y-89068773D01*
X149221204Y-89044505D01*
X149220000Y-89020001D01*
X149220000Y-88119999D01*
X149221204Y-88095495D01*
X149224804Y-88071227D01*
X149230765Y-88047428D01*
X149239030Y-88024329D01*
X149249520Y-88002150D01*
X149262132Y-87981107D01*
X149276747Y-87961401D01*
X149293223Y-87943223D01*
X149311401Y-87926747D01*
X149331107Y-87912132D01*
X149352150Y-87899520D01*
X149374329Y-87889030D01*
X149397428Y-87880765D01*
X149421227Y-87874804D01*
X149445495Y-87871204D01*
X149469999Y-87870000D01*
X150120001Y-87870000D01*
X150144505Y-87871204D01*
G37*
G04 #@! TD.AperFunction*
G04 #@! TA.AperFunction,SMDPad,CuDef*
G36*
X152194505Y-87871204D02*
G01*
X152218773Y-87874804D01*
X152242572Y-87880765D01*
X152265671Y-87889030D01*
X152287850Y-87899520D01*
X152308893Y-87912132D01*
X152328599Y-87926747D01*
X152346777Y-87943223D01*
X152363253Y-87961401D01*
X152377868Y-87981107D01*
X152390480Y-88002150D01*
X152400970Y-88024329D01*
X152409235Y-88047428D01*
X152415196Y-88071227D01*
X152418796Y-88095495D01*
X152420000Y-88119999D01*
X152420000Y-89020001D01*
X152418796Y-89044505D01*
X152415196Y-89068773D01*
X152409235Y-89092572D01*
X152400970Y-89115671D01*
X152390480Y-89137850D01*
X152377868Y-89158893D01*
X152363253Y-89178599D01*
X152346777Y-89196777D01*
X152328599Y-89213253D01*
X152308893Y-89227868D01*
X152287850Y-89240480D01*
X152265671Y-89250970D01*
X152242572Y-89259235D01*
X152218773Y-89265196D01*
X152194505Y-89268796D01*
X152170001Y-89270000D01*
X151519999Y-89270000D01*
X151495495Y-89268796D01*
X151471227Y-89265196D01*
X151447428Y-89259235D01*
X151424329Y-89250970D01*
X151402150Y-89240480D01*
X151381107Y-89227868D01*
X151361401Y-89213253D01*
X151343223Y-89196777D01*
X151326747Y-89178599D01*
X151312132Y-89158893D01*
X151299520Y-89137850D01*
X151289030Y-89115671D01*
X151280765Y-89092572D01*
X151274804Y-89068773D01*
X151271204Y-89044505D01*
X151270000Y-89020001D01*
X151270000Y-88119999D01*
X151271204Y-88095495D01*
X151274804Y-88071227D01*
X151280765Y-88047428D01*
X151289030Y-88024329D01*
X151299520Y-88002150D01*
X151312132Y-87981107D01*
X151326747Y-87961401D01*
X151343223Y-87943223D01*
X151361401Y-87926747D01*
X151381107Y-87912132D01*
X151402150Y-87899520D01*
X151424329Y-87889030D01*
X151447428Y-87880765D01*
X151471227Y-87874804D01*
X151495495Y-87871204D01*
X151519999Y-87870000D01*
X152170001Y-87870000D01*
X152194505Y-87871204D01*
G37*
G04 #@! TD.AperFunction*
G04 #@! TA.AperFunction,SMDPad,CuDef*
G36*
X150144505Y-85331204D02*
G01*
X150168773Y-85334804D01*
X150192572Y-85340765D01*
X150215671Y-85349030D01*
X150237850Y-85359520D01*
X150258893Y-85372132D01*
X150278599Y-85386747D01*
X150296777Y-85403223D01*
X150313253Y-85421401D01*
X150327868Y-85441107D01*
X150340480Y-85462150D01*
X150350970Y-85484329D01*
X150359235Y-85507428D01*
X150365196Y-85531227D01*
X150368796Y-85555495D01*
X150370000Y-85579999D01*
X150370000Y-86480001D01*
X150368796Y-86504505D01*
X150365196Y-86528773D01*
X150359235Y-86552572D01*
X150350970Y-86575671D01*
X150340480Y-86597850D01*
X150327868Y-86618893D01*
X150313253Y-86638599D01*
X150296777Y-86656777D01*
X150278599Y-86673253D01*
X150258893Y-86687868D01*
X150237850Y-86700480D01*
X150215671Y-86710970D01*
X150192572Y-86719235D01*
X150168773Y-86725196D01*
X150144505Y-86728796D01*
X150120001Y-86730000D01*
X149469999Y-86730000D01*
X149445495Y-86728796D01*
X149421227Y-86725196D01*
X149397428Y-86719235D01*
X149374329Y-86710970D01*
X149352150Y-86700480D01*
X149331107Y-86687868D01*
X149311401Y-86673253D01*
X149293223Y-86656777D01*
X149276747Y-86638599D01*
X149262132Y-86618893D01*
X149249520Y-86597850D01*
X149239030Y-86575671D01*
X149230765Y-86552572D01*
X149224804Y-86528773D01*
X149221204Y-86504505D01*
X149220000Y-86480001D01*
X149220000Y-85579999D01*
X149221204Y-85555495D01*
X149224804Y-85531227D01*
X149230765Y-85507428D01*
X149239030Y-85484329D01*
X149249520Y-85462150D01*
X149262132Y-85441107D01*
X149276747Y-85421401D01*
X149293223Y-85403223D01*
X149311401Y-85386747D01*
X149331107Y-85372132D01*
X149352150Y-85359520D01*
X149374329Y-85349030D01*
X149397428Y-85340765D01*
X149421227Y-85334804D01*
X149445495Y-85331204D01*
X149469999Y-85330000D01*
X150120001Y-85330000D01*
X150144505Y-85331204D01*
G37*
G04 #@! TD.AperFunction*
G04 #@! TA.AperFunction,SMDPad,CuDef*
G36*
X152194505Y-85331204D02*
G01*
X152218773Y-85334804D01*
X152242572Y-85340765D01*
X152265671Y-85349030D01*
X152287850Y-85359520D01*
X152308893Y-85372132D01*
X152328599Y-85386747D01*
X152346777Y-85403223D01*
X152363253Y-85421401D01*
X152377868Y-85441107D01*
X152390480Y-85462150D01*
X152400970Y-85484329D01*
X152409235Y-85507428D01*
X152415196Y-85531227D01*
X152418796Y-85555495D01*
X152420000Y-85579999D01*
X152420000Y-86480001D01*
X152418796Y-86504505D01*
X152415196Y-86528773D01*
X152409235Y-86552572D01*
X152400970Y-86575671D01*
X152390480Y-86597850D01*
X152377868Y-86618893D01*
X152363253Y-86638599D01*
X152346777Y-86656777D01*
X152328599Y-86673253D01*
X152308893Y-86687868D01*
X152287850Y-86700480D01*
X152265671Y-86710970D01*
X152242572Y-86719235D01*
X152218773Y-86725196D01*
X152194505Y-86728796D01*
X152170001Y-86730000D01*
X151519999Y-86730000D01*
X151495495Y-86728796D01*
X151471227Y-86725196D01*
X151447428Y-86719235D01*
X151424329Y-86710970D01*
X151402150Y-86700480D01*
X151381107Y-86687868D01*
X151361401Y-86673253D01*
X151343223Y-86656777D01*
X151326747Y-86638599D01*
X151312132Y-86618893D01*
X151299520Y-86597850D01*
X151289030Y-86575671D01*
X151280765Y-86552572D01*
X151274804Y-86528773D01*
X151271204Y-86504505D01*
X151270000Y-86480001D01*
X151270000Y-85579999D01*
X151271204Y-85555495D01*
X151274804Y-85531227D01*
X151280765Y-85507428D01*
X151289030Y-85484329D01*
X151299520Y-85462150D01*
X151312132Y-85441107D01*
X151326747Y-85421401D01*
X151343223Y-85403223D01*
X151361401Y-85386747D01*
X151381107Y-85372132D01*
X151402150Y-85359520D01*
X151424329Y-85349030D01*
X151447428Y-85340765D01*
X151471227Y-85334804D01*
X151495495Y-85331204D01*
X151519999Y-85330000D01*
X152170001Y-85330000D01*
X152194505Y-85331204D01*
G37*
G04 #@! TD.AperFunction*
G04 #@! TA.AperFunction,SMDPad,CuDef*
G36*
X150144505Y-82791204D02*
G01*
X150168773Y-82794804D01*
X150192572Y-82800765D01*
X150215671Y-82809030D01*
X150237850Y-82819520D01*
X150258893Y-82832132D01*
X150278599Y-82846747D01*
X150296777Y-82863223D01*
X150313253Y-82881401D01*
X150327868Y-82901107D01*
X150340480Y-82922150D01*
X150350970Y-82944329D01*
X150359235Y-82967428D01*
X150365196Y-82991227D01*
X150368796Y-83015495D01*
X150370000Y-83039999D01*
X150370000Y-83940001D01*
X150368796Y-83964505D01*
X150365196Y-83988773D01*
X150359235Y-84012572D01*
X150350970Y-84035671D01*
X150340480Y-84057850D01*
X150327868Y-84078893D01*
X150313253Y-84098599D01*
X150296777Y-84116777D01*
X150278599Y-84133253D01*
X150258893Y-84147868D01*
X150237850Y-84160480D01*
X150215671Y-84170970D01*
X150192572Y-84179235D01*
X150168773Y-84185196D01*
X150144505Y-84188796D01*
X150120001Y-84190000D01*
X149469999Y-84190000D01*
X149445495Y-84188796D01*
X149421227Y-84185196D01*
X149397428Y-84179235D01*
X149374329Y-84170970D01*
X149352150Y-84160480D01*
X149331107Y-84147868D01*
X149311401Y-84133253D01*
X149293223Y-84116777D01*
X149276747Y-84098599D01*
X149262132Y-84078893D01*
X149249520Y-84057850D01*
X149239030Y-84035671D01*
X149230765Y-84012572D01*
X149224804Y-83988773D01*
X149221204Y-83964505D01*
X149220000Y-83940001D01*
X149220000Y-83039999D01*
X149221204Y-83015495D01*
X149224804Y-82991227D01*
X149230765Y-82967428D01*
X149239030Y-82944329D01*
X149249520Y-82922150D01*
X149262132Y-82901107D01*
X149276747Y-82881401D01*
X149293223Y-82863223D01*
X149311401Y-82846747D01*
X149331107Y-82832132D01*
X149352150Y-82819520D01*
X149374329Y-82809030D01*
X149397428Y-82800765D01*
X149421227Y-82794804D01*
X149445495Y-82791204D01*
X149469999Y-82790000D01*
X150120001Y-82790000D01*
X150144505Y-82791204D01*
G37*
G04 #@! TD.AperFunction*
G04 #@! TA.AperFunction,SMDPad,CuDef*
G36*
X152194505Y-82791204D02*
G01*
X152218773Y-82794804D01*
X152242572Y-82800765D01*
X152265671Y-82809030D01*
X152287850Y-82819520D01*
X152308893Y-82832132D01*
X152328599Y-82846747D01*
X152346777Y-82863223D01*
X152363253Y-82881401D01*
X152377868Y-82901107D01*
X152390480Y-82922150D01*
X152400970Y-82944329D01*
X152409235Y-82967428D01*
X152415196Y-82991227D01*
X152418796Y-83015495D01*
X152420000Y-83039999D01*
X152420000Y-83940001D01*
X152418796Y-83964505D01*
X152415196Y-83988773D01*
X152409235Y-84012572D01*
X152400970Y-84035671D01*
X152390480Y-84057850D01*
X152377868Y-84078893D01*
X152363253Y-84098599D01*
X152346777Y-84116777D01*
X152328599Y-84133253D01*
X152308893Y-84147868D01*
X152287850Y-84160480D01*
X152265671Y-84170970D01*
X152242572Y-84179235D01*
X152218773Y-84185196D01*
X152194505Y-84188796D01*
X152170001Y-84190000D01*
X151519999Y-84190000D01*
X151495495Y-84188796D01*
X151471227Y-84185196D01*
X151447428Y-84179235D01*
X151424329Y-84170970D01*
X151402150Y-84160480D01*
X151381107Y-84147868D01*
X151361401Y-84133253D01*
X151343223Y-84116777D01*
X151326747Y-84098599D01*
X151312132Y-84078893D01*
X151299520Y-84057850D01*
X151289030Y-84035671D01*
X151280765Y-84012572D01*
X151274804Y-83988773D01*
X151271204Y-83964505D01*
X151270000Y-83940001D01*
X151270000Y-83039999D01*
X151271204Y-83015495D01*
X151274804Y-82991227D01*
X151280765Y-82967428D01*
X151289030Y-82944329D01*
X151299520Y-82922150D01*
X151312132Y-82901107D01*
X151326747Y-82881401D01*
X151343223Y-82863223D01*
X151361401Y-82846747D01*
X151381107Y-82832132D01*
X151402150Y-82819520D01*
X151424329Y-82809030D01*
X151447428Y-82800765D01*
X151471227Y-82794804D01*
X151495495Y-82791204D01*
X151519999Y-82790000D01*
X152170001Y-82790000D01*
X152194505Y-82791204D01*
G37*
G04 #@! TD.AperFunction*
D12*
X137612000Y-62154000D03*
D13*
X140152000Y-62154000D03*
D12*
X162250000Y-60630000D03*
D13*
X162250000Y-58090000D03*
G04 #@! TA.AperFunction,SMDPad,CuDef*
D14*
G36*
X150144505Y-73647204D02*
G01*
X150168773Y-73650804D01*
X150192572Y-73656765D01*
X150215671Y-73665030D01*
X150237850Y-73675520D01*
X150258893Y-73688132D01*
X150278599Y-73702747D01*
X150296777Y-73719223D01*
X150313253Y-73737401D01*
X150327868Y-73757107D01*
X150340480Y-73778150D01*
X150350970Y-73800329D01*
X150359235Y-73823428D01*
X150365196Y-73847227D01*
X150368796Y-73871495D01*
X150370000Y-73895999D01*
X150370000Y-74796001D01*
X150368796Y-74820505D01*
X150365196Y-74844773D01*
X150359235Y-74868572D01*
X150350970Y-74891671D01*
X150340480Y-74913850D01*
X150327868Y-74934893D01*
X150313253Y-74954599D01*
X150296777Y-74972777D01*
X150278599Y-74989253D01*
X150258893Y-75003868D01*
X150237850Y-75016480D01*
X150215671Y-75026970D01*
X150192572Y-75035235D01*
X150168773Y-75041196D01*
X150144505Y-75044796D01*
X150120001Y-75046000D01*
X149469999Y-75046000D01*
X149445495Y-75044796D01*
X149421227Y-75041196D01*
X149397428Y-75035235D01*
X149374329Y-75026970D01*
X149352150Y-75016480D01*
X149331107Y-75003868D01*
X149311401Y-74989253D01*
X149293223Y-74972777D01*
X149276747Y-74954599D01*
X149262132Y-74934893D01*
X149249520Y-74913850D01*
X149239030Y-74891671D01*
X149230765Y-74868572D01*
X149224804Y-74844773D01*
X149221204Y-74820505D01*
X149220000Y-74796001D01*
X149220000Y-73895999D01*
X149221204Y-73871495D01*
X149224804Y-73847227D01*
X149230765Y-73823428D01*
X149239030Y-73800329D01*
X149249520Y-73778150D01*
X149262132Y-73757107D01*
X149276747Y-73737401D01*
X149293223Y-73719223D01*
X149311401Y-73702747D01*
X149331107Y-73688132D01*
X149352150Y-73675520D01*
X149374329Y-73665030D01*
X149397428Y-73656765D01*
X149421227Y-73650804D01*
X149445495Y-73647204D01*
X149469999Y-73646000D01*
X150120001Y-73646000D01*
X150144505Y-73647204D01*
G37*
G04 #@! TD.AperFunction*
G04 #@! TA.AperFunction,SMDPad,CuDef*
G36*
X152194505Y-73647204D02*
G01*
X152218773Y-73650804D01*
X152242572Y-73656765D01*
X152265671Y-73665030D01*
X152287850Y-73675520D01*
X152308893Y-73688132D01*
X152328599Y-73702747D01*
X152346777Y-73719223D01*
X152363253Y-73737401D01*
X152377868Y-73757107D01*
X152390480Y-73778150D01*
X152400970Y-73800329D01*
X152409235Y-73823428D01*
X152415196Y-73847227D01*
X152418796Y-73871495D01*
X152420000Y-73895999D01*
X152420000Y-74796001D01*
X152418796Y-74820505D01*
X152415196Y-74844773D01*
X152409235Y-74868572D01*
X152400970Y-74891671D01*
X152390480Y-74913850D01*
X152377868Y-74934893D01*
X152363253Y-74954599D01*
X152346777Y-74972777D01*
X152328599Y-74989253D01*
X152308893Y-75003868D01*
X152287850Y-75016480D01*
X152265671Y-75026970D01*
X152242572Y-75035235D01*
X152218773Y-75041196D01*
X152194505Y-75044796D01*
X152170001Y-75046000D01*
X151519999Y-75046000D01*
X151495495Y-75044796D01*
X151471227Y-75041196D01*
X151447428Y-75035235D01*
X151424329Y-75026970D01*
X151402150Y-75016480D01*
X151381107Y-75003868D01*
X151361401Y-74989253D01*
X151343223Y-74972777D01*
X151326747Y-74954599D01*
X151312132Y-74934893D01*
X151299520Y-74913850D01*
X151289030Y-74891671D01*
X151280765Y-74868572D01*
X151274804Y-74844773D01*
X151271204Y-74820505D01*
X151270000Y-74796001D01*
X151270000Y-73895999D01*
X151271204Y-73871495D01*
X151274804Y-73847227D01*
X151280765Y-73823428D01*
X151289030Y-73800329D01*
X151299520Y-73778150D01*
X151312132Y-73757107D01*
X151326747Y-73737401D01*
X151343223Y-73719223D01*
X151361401Y-73702747D01*
X151381107Y-73688132D01*
X151402150Y-73675520D01*
X151424329Y-73665030D01*
X151447428Y-73656765D01*
X151471227Y-73650804D01*
X151495495Y-73647204D01*
X151519999Y-73646000D01*
X152170001Y-73646000D01*
X152194505Y-73647204D01*
G37*
G04 #@! TD.AperFunction*
G04 #@! TA.AperFunction,SMDPad,CuDef*
G36*
X150144505Y-71107204D02*
G01*
X150168773Y-71110804D01*
X150192572Y-71116765D01*
X150215671Y-71125030D01*
X150237850Y-71135520D01*
X150258893Y-71148132D01*
X150278599Y-71162747D01*
X150296777Y-71179223D01*
X150313253Y-71197401D01*
X150327868Y-71217107D01*
X150340480Y-71238150D01*
X150350970Y-71260329D01*
X150359235Y-71283428D01*
X150365196Y-71307227D01*
X150368796Y-71331495D01*
X150370000Y-71355999D01*
X150370000Y-72256001D01*
X150368796Y-72280505D01*
X150365196Y-72304773D01*
X150359235Y-72328572D01*
X150350970Y-72351671D01*
X150340480Y-72373850D01*
X150327868Y-72394893D01*
X150313253Y-72414599D01*
X150296777Y-72432777D01*
X150278599Y-72449253D01*
X150258893Y-72463868D01*
X150237850Y-72476480D01*
X150215671Y-72486970D01*
X150192572Y-72495235D01*
X150168773Y-72501196D01*
X150144505Y-72504796D01*
X150120001Y-72506000D01*
X149469999Y-72506000D01*
X149445495Y-72504796D01*
X149421227Y-72501196D01*
X149397428Y-72495235D01*
X149374329Y-72486970D01*
X149352150Y-72476480D01*
X149331107Y-72463868D01*
X149311401Y-72449253D01*
X149293223Y-72432777D01*
X149276747Y-72414599D01*
X149262132Y-72394893D01*
X149249520Y-72373850D01*
X149239030Y-72351671D01*
X149230765Y-72328572D01*
X149224804Y-72304773D01*
X149221204Y-72280505D01*
X149220000Y-72256001D01*
X149220000Y-71355999D01*
X149221204Y-71331495D01*
X149224804Y-71307227D01*
X149230765Y-71283428D01*
X149239030Y-71260329D01*
X149249520Y-71238150D01*
X149262132Y-71217107D01*
X149276747Y-71197401D01*
X149293223Y-71179223D01*
X149311401Y-71162747D01*
X149331107Y-71148132D01*
X149352150Y-71135520D01*
X149374329Y-71125030D01*
X149397428Y-71116765D01*
X149421227Y-71110804D01*
X149445495Y-71107204D01*
X149469999Y-71106000D01*
X150120001Y-71106000D01*
X150144505Y-71107204D01*
G37*
G04 #@! TD.AperFunction*
G04 #@! TA.AperFunction,SMDPad,CuDef*
G36*
X152194505Y-71107204D02*
G01*
X152218773Y-71110804D01*
X152242572Y-71116765D01*
X152265671Y-71125030D01*
X152287850Y-71135520D01*
X152308893Y-71148132D01*
X152328599Y-71162747D01*
X152346777Y-71179223D01*
X152363253Y-71197401D01*
X152377868Y-71217107D01*
X152390480Y-71238150D01*
X152400970Y-71260329D01*
X152409235Y-71283428D01*
X152415196Y-71307227D01*
X152418796Y-71331495D01*
X152420000Y-71355999D01*
X152420000Y-72256001D01*
X152418796Y-72280505D01*
X152415196Y-72304773D01*
X152409235Y-72328572D01*
X152400970Y-72351671D01*
X152390480Y-72373850D01*
X152377868Y-72394893D01*
X152363253Y-72414599D01*
X152346777Y-72432777D01*
X152328599Y-72449253D01*
X152308893Y-72463868D01*
X152287850Y-72476480D01*
X152265671Y-72486970D01*
X152242572Y-72495235D01*
X152218773Y-72501196D01*
X152194505Y-72504796D01*
X152170001Y-72506000D01*
X151519999Y-72506000D01*
X151495495Y-72504796D01*
X151471227Y-72501196D01*
X151447428Y-72495235D01*
X151424329Y-72486970D01*
X151402150Y-72476480D01*
X151381107Y-72463868D01*
X151361401Y-72449253D01*
X151343223Y-72432777D01*
X151326747Y-72414599D01*
X151312132Y-72394893D01*
X151299520Y-72373850D01*
X151289030Y-72351671D01*
X151280765Y-72328572D01*
X151274804Y-72304773D01*
X151271204Y-72280505D01*
X151270000Y-72256001D01*
X151270000Y-71355999D01*
X151271204Y-71331495D01*
X151274804Y-71307227D01*
X151280765Y-71283428D01*
X151289030Y-71260329D01*
X151299520Y-71238150D01*
X151312132Y-71217107D01*
X151326747Y-71197401D01*
X151343223Y-71179223D01*
X151361401Y-71162747D01*
X151381107Y-71148132D01*
X151402150Y-71135520D01*
X151424329Y-71125030D01*
X151447428Y-71116765D01*
X151471227Y-71110804D01*
X151495495Y-71107204D01*
X151519999Y-71106000D01*
X152170001Y-71106000D01*
X152194505Y-71107204D01*
G37*
G04 #@! TD.AperFunction*
G04 #@! TA.AperFunction,SMDPad,CuDef*
G36*
X114584505Y-57391204D02*
G01*
X114608773Y-57394804D01*
X114632572Y-57400765D01*
X114655671Y-57409030D01*
X114677850Y-57419520D01*
X114698893Y-57432132D01*
X114718599Y-57446747D01*
X114736777Y-57463223D01*
X114753253Y-57481401D01*
X114767868Y-57501107D01*
X114780480Y-57522150D01*
X114790970Y-57544329D01*
X114799235Y-57567428D01*
X114805196Y-57591227D01*
X114808796Y-57615495D01*
X114810000Y-57639999D01*
X114810000Y-58540001D01*
X114808796Y-58564505D01*
X114805196Y-58588773D01*
X114799235Y-58612572D01*
X114790970Y-58635671D01*
X114780480Y-58657850D01*
X114767868Y-58678893D01*
X114753253Y-58698599D01*
X114736777Y-58716777D01*
X114718599Y-58733253D01*
X114698893Y-58747868D01*
X114677850Y-58760480D01*
X114655671Y-58770970D01*
X114632572Y-58779235D01*
X114608773Y-58785196D01*
X114584505Y-58788796D01*
X114560001Y-58790000D01*
X113909999Y-58790000D01*
X113885495Y-58788796D01*
X113861227Y-58785196D01*
X113837428Y-58779235D01*
X113814329Y-58770970D01*
X113792150Y-58760480D01*
X113771107Y-58747868D01*
X113751401Y-58733253D01*
X113733223Y-58716777D01*
X113716747Y-58698599D01*
X113702132Y-58678893D01*
X113689520Y-58657850D01*
X113679030Y-58635671D01*
X113670765Y-58612572D01*
X113664804Y-58588773D01*
X113661204Y-58564505D01*
X113660000Y-58540001D01*
X113660000Y-57639999D01*
X113661204Y-57615495D01*
X113664804Y-57591227D01*
X113670765Y-57567428D01*
X113679030Y-57544329D01*
X113689520Y-57522150D01*
X113702132Y-57501107D01*
X113716747Y-57481401D01*
X113733223Y-57463223D01*
X113751401Y-57446747D01*
X113771107Y-57432132D01*
X113792150Y-57419520D01*
X113814329Y-57409030D01*
X113837428Y-57400765D01*
X113861227Y-57394804D01*
X113885495Y-57391204D01*
X113909999Y-57390000D01*
X114560001Y-57390000D01*
X114584505Y-57391204D01*
G37*
G04 #@! TD.AperFunction*
G04 #@! TA.AperFunction,SMDPad,CuDef*
G36*
X116634505Y-57391204D02*
G01*
X116658773Y-57394804D01*
X116682572Y-57400765D01*
X116705671Y-57409030D01*
X116727850Y-57419520D01*
X116748893Y-57432132D01*
X116768599Y-57446747D01*
X116786777Y-57463223D01*
X116803253Y-57481401D01*
X116817868Y-57501107D01*
X116830480Y-57522150D01*
X116840970Y-57544329D01*
X116849235Y-57567428D01*
X116855196Y-57591227D01*
X116858796Y-57615495D01*
X116860000Y-57639999D01*
X116860000Y-58540001D01*
X116858796Y-58564505D01*
X116855196Y-58588773D01*
X116849235Y-58612572D01*
X116840970Y-58635671D01*
X116830480Y-58657850D01*
X116817868Y-58678893D01*
X116803253Y-58698599D01*
X116786777Y-58716777D01*
X116768599Y-58733253D01*
X116748893Y-58747868D01*
X116727850Y-58760480D01*
X116705671Y-58770970D01*
X116682572Y-58779235D01*
X116658773Y-58785196D01*
X116634505Y-58788796D01*
X116610001Y-58790000D01*
X115959999Y-58790000D01*
X115935495Y-58788796D01*
X115911227Y-58785196D01*
X115887428Y-58779235D01*
X115864329Y-58770970D01*
X115842150Y-58760480D01*
X115821107Y-58747868D01*
X115801401Y-58733253D01*
X115783223Y-58716777D01*
X115766747Y-58698599D01*
X115752132Y-58678893D01*
X115739520Y-58657850D01*
X115729030Y-58635671D01*
X115720765Y-58612572D01*
X115714804Y-58588773D01*
X115711204Y-58564505D01*
X115710000Y-58540001D01*
X115710000Y-57639999D01*
X115711204Y-57615495D01*
X115714804Y-57591227D01*
X115720765Y-57567428D01*
X115729030Y-57544329D01*
X115739520Y-57522150D01*
X115752132Y-57501107D01*
X115766747Y-57481401D01*
X115783223Y-57463223D01*
X115801401Y-57446747D01*
X115821107Y-57432132D01*
X115842150Y-57419520D01*
X115864329Y-57409030D01*
X115887428Y-57400765D01*
X115911227Y-57394804D01*
X115935495Y-57391204D01*
X115959999Y-57390000D01*
X116610001Y-57390000D01*
X116634505Y-57391204D01*
G37*
G04 #@! TD.AperFunction*
G04 #@! TA.AperFunction,SMDPad,CuDef*
G36*
X114584505Y-61963204D02*
G01*
X114608773Y-61966804D01*
X114632572Y-61972765D01*
X114655671Y-61981030D01*
X114677850Y-61991520D01*
X114698893Y-62004132D01*
X114718599Y-62018747D01*
X114736777Y-62035223D01*
X114753253Y-62053401D01*
X114767868Y-62073107D01*
X114780480Y-62094150D01*
X114790970Y-62116329D01*
X114799235Y-62139428D01*
X114805196Y-62163227D01*
X114808796Y-62187495D01*
X114810000Y-62211999D01*
X114810000Y-63112001D01*
X114808796Y-63136505D01*
X114805196Y-63160773D01*
X114799235Y-63184572D01*
X114790970Y-63207671D01*
X114780480Y-63229850D01*
X114767868Y-63250893D01*
X114753253Y-63270599D01*
X114736777Y-63288777D01*
X114718599Y-63305253D01*
X114698893Y-63319868D01*
X114677850Y-63332480D01*
X114655671Y-63342970D01*
X114632572Y-63351235D01*
X114608773Y-63357196D01*
X114584505Y-63360796D01*
X114560001Y-63362000D01*
X113909999Y-63362000D01*
X113885495Y-63360796D01*
X113861227Y-63357196D01*
X113837428Y-63351235D01*
X113814329Y-63342970D01*
X113792150Y-63332480D01*
X113771107Y-63319868D01*
X113751401Y-63305253D01*
X113733223Y-63288777D01*
X113716747Y-63270599D01*
X113702132Y-63250893D01*
X113689520Y-63229850D01*
X113679030Y-63207671D01*
X113670765Y-63184572D01*
X113664804Y-63160773D01*
X113661204Y-63136505D01*
X113660000Y-63112001D01*
X113660000Y-62211999D01*
X113661204Y-62187495D01*
X113664804Y-62163227D01*
X113670765Y-62139428D01*
X113679030Y-62116329D01*
X113689520Y-62094150D01*
X113702132Y-62073107D01*
X113716747Y-62053401D01*
X113733223Y-62035223D01*
X113751401Y-62018747D01*
X113771107Y-62004132D01*
X113792150Y-61991520D01*
X113814329Y-61981030D01*
X113837428Y-61972765D01*
X113861227Y-61966804D01*
X113885495Y-61963204D01*
X113909999Y-61962000D01*
X114560001Y-61962000D01*
X114584505Y-61963204D01*
G37*
G04 #@! TD.AperFunction*
G04 #@! TA.AperFunction,SMDPad,CuDef*
G36*
X116634505Y-61963204D02*
G01*
X116658773Y-61966804D01*
X116682572Y-61972765D01*
X116705671Y-61981030D01*
X116727850Y-61991520D01*
X116748893Y-62004132D01*
X116768599Y-62018747D01*
X116786777Y-62035223D01*
X116803253Y-62053401D01*
X116817868Y-62073107D01*
X116830480Y-62094150D01*
X116840970Y-62116329D01*
X116849235Y-62139428D01*
X116855196Y-62163227D01*
X116858796Y-62187495D01*
X116860000Y-62211999D01*
X116860000Y-63112001D01*
X116858796Y-63136505D01*
X116855196Y-63160773D01*
X116849235Y-63184572D01*
X116840970Y-63207671D01*
X116830480Y-63229850D01*
X116817868Y-63250893D01*
X116803253Y-63270599D01*
X116786777Y-63288777D01*
X116768599Y-63305253D01*
X116748893Y-63319868D01*
X116727850Y-63332480D01*
X116705671Y-63342970D01*
X116682572Y-63351235D01*
X116658773Y-63357196D01*
X116634505Y-63360796D01*
X116610001Y-63362000D01*
X115959999Y-63362000D01*
X115935495Y-63360796D01*
X115911227Y-63357196D01*
X115887428Y-63351235D01*
X115864329Y-63342970D01*
X115842150Y-63332480D01*
X115821107Y-63319868D01*
X115801401Y-63305253D01*
X115783223Y-63288777D01*
X115766747Y-63270599D01*
X115752132Y-63250893D01*
X115739520Y-63229850D01*
X115729030Y-63207671D01*
X115720765Y-63184572D01*
X115714804Y-63160773D01*
X115711204Y-63136505D01*
X115710000Y-63112001D01*
X115710000Y-62211999D01*
X115711204Y-62187495D01*
X115714804Y-62163227D01*
X115720765Y-62139428D01*
X115729030Y-62116329D01*
X115739520Y-62094150D01*
X115752132Y-62073107D01*
X115766747Y-62053401D01*
X115783223Y-62035223D01*
X115801401Y-62018747D01*
X115821107Y-62004132D01*
X115842150Y-61991520D01*
X115864329Y-61981030D01*
X115887428Y-61972765D01*
X115911227Y-61966804D01*
X115935495Y-61963204D01*
X115959999Y-61962000D01*
X116610001Y-61962000D01*
X116634505Y-61963204D01*
G37*
G04 #@! TD.AperFunction*
G04 #@! TA.AperFunction,SMDPad,CuDef*
G36*
X114584505Y-75171204D02*
G01*
X114608773Y-75174804D01*
X114632572Y-75180765D01*
X114655671Y-75189030D01*
X114677850Y-75199520D01*
X114698893Y-75212132D01*
X114718599Y-75226747D01*
X114736777Y-75243223D01*
X114753253Y-75261401D01*
X114767868Y-75281107D01*
X114780480Y-75302150D01*
X114790970Y-75324329D01*
X114799235Y-75347428D01*
X114805196Y-75371227D01*
X114808796Y-75395495D01*
X114810000Y-75419999D01*
X114810000Y-76320001D01*
X114808796Y-76344505D01*
X114805196Y-76368773D01*
X114799235Y-76392572D01*
X114790970Y-76415671D01*
X114780480Y-76437850D01*
X114767868Y-76458893D01*
X114753253Y-76478599D01*
X114736777Y-76496777D01*
X114718599Y-76513253D01*
X114698893Y-76527868D01*
X114677850Y-76540480D01*
X114655671Y-76550970D01*
X114632572Y-76559235D01*
X114608773Y-76565196D01*
X114584505Y-76568796D01*
X114560001Y-76570000D01*
X113909999Y-76570000D01*
X113885495Y-76568796D01*
X113861227Y-76565196D01*
X113837428Y-76559235D01*
X113814329Y-76550970D01*
X113792150Y-76540480D01*
X113771107Y-76527868D01*
X113751401Y-76513253D01*
X113733223Y-76496777D01*
X113716747Y-76478599D01*
X113702132Y-76458893D01*
X113689520Y-76437850D01*
X113679030Y-76415671D01*
X113670765Y-76392572D01*
X113664804Y-76368773D01*
X113661204Y-76344505D01*
X113660000Y-76320001D01*
X113660000Y-75419999D01*
X113661204Y-75395495D01*
X113664804Y-75371227D01*
X113670765Y-75347428D01*
X113679030Y-75324329D01*
X113689520Y-75302150D01*
X113702132Y-75281107D01*
X113716747Y-75261401D01*
X113733223Y-75243223D01*
X113751401Y-75226747D01*
X113771107Y-75212132D01*
X113792150Y-75199520D01*
X113814329Y-75189030D01*
X113837428Y-75180765D01*
X113861227Y-75174804D01*
X113885495Y-75171204D01*
X113909999Y-75170000D01*
X114560001Y-75170000D01*
X114584505Y-75171204D01*
G37*
G04 #@! TD.AperFunction*
G04 #@! TA.AperFunction,SMDPad,CuDef*
G36*
X116634505Y-75171204D02*
G01*
X116658773Y-75174804D01*
X116682572Y-75180765D01*
X116705671Y-75189030D01*
X116727850Y-75199520D01*
X116748893Y-75212132D01*
X116768599Y-75226747D01*
X116786777Y-75243223D01*
X116803253Y-75261401D01*
X116817868Y-75281107D01*
X116830480Y-75302150D01*
X116840970Y-75324329D01*
X116849235Y-75347428D01*
X116855196Y-75371227D01*
X116858796Y-75395495D01*
X116860000Y-75419999D01*
X116860000Y-76320001D01*
X116858796Y-76344505D01*
X116855196Y-76368773D01*
X116849235Y-76392572D01*
X116840970Y-76415671D01*
X116830480Y-76437850D01*
X116817868Y-76458893D01*
X116803253Y-76478599D01*
X116786777Y-76496777D01*
X116768599Y-76513253D01*
X116748893Y-76527868D01*
X116727850Y-76540480D01*
X116705671Y-76550970D01*
X116682572Y-76559235D01*
X116658773Y-76565196D01*
X116634505Y-76568796D01*
X116610001Y-76570000D01*
X115959999Y-76570000D01*
X115935495Y-76568796D01*
X115911227Y-76565196D01*
X115887428Y-76559235D01*
X115864329Y-76550970D01*
X115842150Y-76540480D01*
X115821107Y-76527868D01*
X115801401Y-76513253D01*
X115783223Y-76496777D01*
X115766747Y-76478599D01*
X115752132Y-76458893D01*
X115739520Y-76437850D01*
X115729030Y-76415671D01*
X115720765Y-76392572D01*
X115714804Y-76368773D01*
X115711204Y-76344505D01*
X115710000Y-76320001D01*
X115710000Y-75419999D01*
X115711204Y-75395495D01*
X115714804Y-75371227D01*
X115720765Y-75347428D01*
X115729030Y-75324329D01*
X115739520Y-75302150D01*
X115752132Y-75281107D01*
X115766747Y-75261401D01*
X115783223Y-75243223D01*
X115801401Y-75226747D01*
X115821107Y-75212132D01*
X115842150Y-75199520D01*
X115864329Y-75189030D01*
X115887428Y-75180765D01*
X115911227Y-75174804D01*
X115935495Y-75171204D01*
X115959999Y-75170000D01*
X116610001Y-75170000D01*
X116634505Y-75171204D01*
G37*
G04 #@! TD.AperFunction*
G04 #@! TA.AperFunction,SMDPad,CuDef*
G36*
X114584505Y-85331204D02*
G01*
X114608773Y-85334804D01*
X114632572Y-85340765D01*
X114655671Y-85349030D01*
X114677850Y-85359520D01*
X114698893Y-85372132D01*
X114718599Y-85386747D01*
X114736777Y-85403223D01*
X114753253Y-85421401D01*
X114767868Y-85441107D01*
X114780480Y-85462150D01*
X114790970Y-85484329D01*
X114799235Y-85507428D01*
X114805196Y-85531227D01*
X114808796Y-85555495D01*
X114810000Y-85579999D01*
X114810000Y-86480001D01*
X114808796Y-86504505D01*
X114805196Y-86528773D01*
X114799235Y-86552572D01*
X114790970Y-86575671D01*
X114780480Y-86597850D01*
X114767868Y-86618893D01*
X114753253Y-86638599D01*
X114736777Y-86656777D01*
X114718599Y-86673253D01*
X114698893Y-86687868D01*
X114677850Y-86700480D01*
X114655671Y-86710970D01*
X114632572Y-86719235D01*
X114608773Y-86725196D01*
X114584505Y-86728796D01*
X114560001Y-86730000D01*
X113909999Y-86730000D01*
X113885495Y-86728796D01*
X113861227Y-86725196D01*
X113837428Y-86719235D01*
X113814329Y-86710970D01*
X113792150Y-86700480D01*
X113771107Y-86687868D01*
X113751401Y-86673253D01*
X113733223Y-86656777D01*
X113716747Y-86638599D01*
X113702132Y-86618893D01*
X113689520Y-86597850D01*
X113679030Y-86575671D01*
X113670765Y-86552572D01*
X113664804Y-86528773D01*
X113661204Y-86504505D01*
X113660000Y-86480001D01*
X113660000Y-85579999D01*
X113661204Y-85555495D01*
X113664804Y-85531227D01*
X113670765Y-85507428D01*
X113679030Y-85484329D01*
X113689520Y-85462150D01*
X113702132Y-85441107D01*
X113716747Y-85421401D01*
X113733223Y-85403223D01*
X113751401Y-85386747D01*
X113771107Y-85372132D01*
X113792150Y-85359520D01*
X113814329Y-85349030D01*
X113837428Y-85340765D01*
X113861227Y-85334804D01*
X113885495Y-85331204D01*
X113909999Y-85330000D01*
X114560001Y-85330000D01*
X114584505Y-85331204D01*
G37*
G04 #@! TD.AperFunction*
G04 #@! TA.AperFunction,SMDPad,CuDef*
G36*
X116634505Y-85331204D02*
G01*
X116658773Y-85334804D01*
X116682572Y-85340765D01*
X116705671Y-85349030D01*
X116727850Y-85359520D01*
X116748893Y-85372132D01*
X116768599Y-85386747D01*
X116786777Y-85403223D01*
X116803253Y-85421401D01*
X116817868Y-85441107D01*
X116830480Y-85462150D01*
X116840970Y-85484329D01*
X116849235Y-85507428D01*
X116855196Y-85531227D01*
X116858796Y-85555495D01*
X116860000Y-85579999D01*
X116860000Y-86480001D01*
X116858796Y-86504505D01*
X116855196Y-86528773D01*
X116849235Y-86552572D01*
X116840970Y-86575671D01*
X116830480Y-86597850D01*
X116817868Y-86618893D01*
X116803253Y-86638599D01*
X116786777Y-86656777D01*
X116768599Y-86673253D01*
X116748893Y-86687868D01*
X116727850Y-86700480D01*
X116705671Y-86710970D01*
X116682572Y-86719235D01*
X116658773Y-86725196D01*
X116634505Y-86728796D01*
X116610001Y-86730000D01*
X115959999Y-86730000D01*
X115935495Y-86728796D01*
X115911227Y-86725196D01*
X115887428Y-86719235D01*
X115864329Y-86710970D01*
X115842150Y-86700480D01*
X115821107Y-86687868D01*
X115801401Y-86673253D01*
X115783223Y-86656777D01*
X115766747Y-86638599D01*
X115752132Y-86618893D01*
X115739520Y-86597850D01*
X115729030Y-86575671D01*
X115720765Y-86552572D01*
X115714804Y-86528773D01*
X115711204Y-86504505D01*
X115710000Y-86480001D01*
X115710000Y-85579999D01*
X115711204Y-85555495D01*
X115714804Y-85531227D01*
X115720765Y-85507428D01*
X115729030Y-85484329D01*
X115739520Y-85462150D01*
X115752132Y-85441107D01*
X115766747Y-85421401D01*
X115783223Y-85403223D01*
X115801401Y-85386747D01*
X115821107Y-85372132D01*
X115842150Y-85359520D01*
X115864329Y-85349030D01*
X115887428Y-85340765D01*
X115911227Y-85334804D01*
X115935495Y-85331204D01*
X115959999Y-85330000D01*
X116610001Y-85330000D01*
X116634505Y-85331204D01*
G37*
G04 #@! TD.AperFunction*
G04 #@! TA.AperFunction,SMDPad,CuDef*
G36*
X114584505Y-80251204D02*
G01*
X114608773Y-80254804D01*
X114632572Y-80260765D01*
X114655671Y-80269030D01*
X114677850Y-80279520D01*
X114698893Y-80292132D01*
X114718599Y-80306747D01*
X114736777Y-80323223D01*
X114753253Y-80341401D01*
X114767868Y-80361107D01*
X114780480Y-80382150D01*
X114790970Y-80404329D01*
X114799235Y-80427428D01*
X114805196Y-80451227D01*
X114808796Y-80475495D01*
X114810000Y-80499999D01*
X114810000Y-81400001D01*
X114808796Y-81424505D01*
X114805196Y-81448773D01*
X114799235Y-81472572D01*
X114790970Y-81495671D01*
X114780480Y-81517850D01*
X114767868Y-81538893D01*
X114753253Y-81558599D01*
X114736777Y-81576777D01*
X114718599Y-81593253D01*
X114698893Y-81607868D01*
X114677850Y-81620480D01*
X114655671Y-81630970D01*
X114632572Y-81639235D01*
X114608773Y-81645196D01*
X114584505Y-81648796D01*
X114560001Y-81650000D01*
X113909999Y-81650000D01*
X113885495Y-81648796D01*
X113861227Y-81645196D01*
X113837428Y-81639235D01*
X113814329Y-81630970D01*
X113792150Y-81620480D01*
X113771107Y-81607868D01*
X113751401Y-81593253D01*
X113733223Y-81576777D01*
X113716747Y-81558599D01*
X113702132Y-81538893D01*
X113689520Y-81517850D01*
X113679030Y-81495671D01*
X113670765Y-81472572D01*
X113664804Y-81448773D01*
X113661204Y-81424505D01*
X113660000Y-81400001D01*
X113660000Y-80499999D01*
X113661204Y-80475495D01*
X113664804Y-80451227D01*
X113670765Y-80427428D01*
X113679030Y-80404329D01*
X113689520Y-80382150D01*
X113702132Y-80361107D01*
X113716747Y-80341401D01*
X113733223Y-80323223D01*
X113751401Y-80306747D01*
X113771107Y-80292132D01*
X113792150Y-80279520D01*
X113814329Y-80269030D01*
X113837428Y-80260765D01*
X113861227Y-80254804D01*
X113885495Y-80251204D01*
X113909999Y-80250000D01*
X114560001Y-80250000D01*
X114584505Y-80251204D01*
G37*
G04 #@! TD.AperFunction*
G04 #@! TA.AperFunction,SMDPad,CuDef*
G36*
X116634505Y-80251204D02*
G01*
X116658773Y-80254804D01*
X116682572Y-80260765D01*
X116705671Y-80269030D01*
X116727850Y-80279520D01*
X116748893Y-80292132D01*
X116768599Y-80306747D01*
X116786777Y-80323223D01*
X116803253Y-80341401D01*
X116817868Y-80361107D01*
X116830480Y-80382150D01*
X116840970Y-80404329D01*
X116849235Y-80427428D01*
X116855196Y-80451227D01*
X116858796Y-80475495D01*
X116860000Y-80499999D01*
X116860000Y-81400001D01*
X116858796Y-81424505D01*
X116855196Y-81448773D01*
X116849235Y-81472572D01*
X116840970Y-81495671D01*
X116830480Y-81517850D01*
X116817868Y-81538893D01*
X116803253Y-81558599D01*
X116786777Y-81576777D01*
X116768599Y-81593253D01*
X116748893Y-81607868D01*
X116727850Y-81620480D01*
X116705671Y-81630970D01*
X116682572Y-81639235D01*
X116658773Y-81645196D01*
X116634505Y-81648796D01*
X116610001Y-81650000D01*
X115959999Y-81650000D01*
X115935495Y-81648796D01*
X115911227Y-81645196D01*
X115887428Y-81639235D01*
X115864329Y-81630970D01*
X115842150Y-81620480D01*
X115821107Y-81607868D01*
X115801401Y-81593253D01*
X115783223Y-81576777D01*
X115766747Y-81558599D01*
X115752132Y-81538893D01*
X115739520Y-81517850D01*
X115729030Y-81495671D01*
X115720765Y-81472572D01*
X115714804Y-81448773D01*
X115711204Y-81424505D01*
X115710000Y-81400001D01*
X115710000Y-80499999D01*
X115711204Y-80475495D01*
X115714804Y-80451227D01*
X115720765Y-80427428D01*
X115729030Y-80404329D01*
X115739520Y-80382150D01*
X115752132Y-80361107D01*
X115766747Y-80341401D01*
X115783223Y-80323223D01*
X115801401Y-80306747D01*
X115821107Y-80292132D01*
X115842150Y-80279520D01*
X115864329Y-80269030D01*
X115887428Y-80260765D01*
X115911227Y-80254804D01*
X115935495Y-80251204D01*
X115959999Y-80250000D01*
X116610001Y-80250000D01*
X116634505Y-80251204D01*
G37*
G04 #@! TD.AperFunction*
D12*
X122880000Y-49200000D03*
X125420000Y-49200000D03*
X127960000Y-49200000D03*
X130500000Y-49200000D03*
X133040000Y-49200000D03*
X135580000Y-49200000D03*
X138120000Y-49200000D03*
D13*
X140660000Y-49200000D03*
D12*
X149804000Y-97460000D03*
X147264000Y-97460000D03*
X144724000Y-97460000D03*
X142184000Y-97460000D03*
X139644000Y-97460000D03*
X137104000Y-97460000D03*
X134564000Y-97460000D03*
X132024000Y-97460000D03*
X129484000Y-97460000D03*
D13*
X126944000Y-97460000D03*
D12*
X105100000Y-49200000D03*
X107640000Y-49200000D03*
X110180000Y-49200000D03*
X112720000Y-49200000D03*
X115260000Y-49200000D03*
D13*
X117800000Y-49200000D03*
D12*
X122880000Y-97460000D03*
X120340000Y-97460000D03*
X117800000Y-97460000D03*
X115260000Y-97460000D03*
X112720000Y-97460000D03*
X110180000Y-97460000D03*
X107640000Y-97460000D03*
D13*
X105100000Y-97460000D03*
G04 #@! TA.AperFunction,SMDPad,CuDef*
D14*
G36*
X106964505Y-57391204D02*
G01*
X106988773Y-57394804D01*
X107012572Y-57400765D01*
X107035671Y-57409030D01*
X107057850Y-57419520D01*
X107078893Y-57432132D01*
X107098599Y-57446747D01*
X107116777Y-57463223D01*
X107133253Y-57481401D01*
X107147868Y-57501107D01*
X107160480Y-57522150D01*
X107170970Y-57544329D01*
X107179235Y-57567428D01*
X107185196Y-57591227D01*
X107188796Y-57615495D01*
X107190000Y-57639999D01*
X107190000Y-58540001D01*
X107188796Y-58564505D01*
X107185196Y-58588773D01*
X107179235Y-58612572D01*
X107170970Y-58635671D01*
X107160480Y-58657850D01*
X107147868Y-58678893D01*
X107133253Y-58698599D01*
X107116777Y-58716777D01*
X107098599Y-58733253D01*
X107078893Y-58747868D01*
X107057850Y-58760480D01*
X107035671Y-58770970D01*
X107012572Y-58779235D01*
X106988773Y-58785196D01*
X106964505Y-58788796D01*
X106940001Y-58790000D01*
X106289999Y-58790000D01*
X106265495Y-58788796D01*
X106241227Y-58785196D01*
X106217428Y-58779235D01*
X106194329Y-58770970D01*
X106172150Y-58760480D01*
X106151107Y-58747868D01*
X106131401Y-58733253D01*
X106113223Y-58716777D01*
X106096747Y-58698599D01*
X106082132Y-58678893D01*
X106069520Y-58657850D01*
X106059030Y-58635671D01*
X106050765Y-58612572D01*
X106044804Y-58588773D01*
X106041204Y-58564505D01*
X106040000Y-58540001D01*
X106040000Y-57639999D01*
X106041204Y-57615495D01*
X106044804Y-57591227D01*
X106050765Y-57567428D01*
X106059030Y-57544329D01*
X106069520Y-57522150D01*
X106082132Y-57501107D01*
X106096747Y-57481401D01*
X106113223Y-57463223D01*
X106131401Y-57446747D01*
X106151107Y-57432132D01*
X106172150Y-57419520D01*
X106194329Y-57409030D01*
X106217428Y-57400765D01*
X106241227Y-57394804D01*
X106265495Y-57391204D01*
X106289999Y-57390000D01*
X106940001Y-57390000D01*
X106964505Y-57391204D01*
G37*
G04 #@! TD.AperFunction*
G04 #@! TA.AperFunction,SMDPad,CuDef*
G36*
X109014505Y-57391204D02*
G01*
X109038773Y-57394804D01*
X109062572Y-57400765D01*
X109085671Y-57409030D01*
X109107850Y-57419520D01*
X109128893Y-57432132D01*
X109148599Y-57446747D01*
X109166777Y-57463223D01*
X109183253Y-57481401D01*
X109197868Y-57501107D01*
X109210480Y-57522150D01*
X109220970Y-57544329D01*
X109229235Y-57567428D01*
X109235196Y-57591227D01*
X109238796Y-57615495D01*
X109240000Y-57639999D01*
X109240000Y-58540001D01*
X109238796Y-58564505D01*
X109235196Y-58588773D01*
X109229235Y-58612572D01*
X109220970Y-58635671D01*
X109210480Y-58657850D01*
X109197868Y-58678893D01*
X109183253Y-58698599D01*
X109166777Y-58716777D01*
X109148599Y-58733253D01*
X109128893Y-58747868D01*
X109107850Y-58760480D01*
X109085671Y-58770970D01*
X109062572Y-58779235D01*
X109038773Y-58785196D01*
X109014505Y-58788796D01*
X108990001Y-58790000D01*
X108339999Y-58790000D01*
X108315495Y-58788796D01*
X108291227Y-58785196D01*
X108267428Y-58779235D01*
X108244329Y-58770970D01*
X108222150Y-58760480D01*
X108201107Y-58747868D01*
X108181401Y-58733253D01*
X108163223Y-58716777D01*
X108146747Y-58698599D01*
X108132132Y-58678893D01*
X108119520Y-58657850D01*
X108109030Y-58635671D01*
X108100765Y-58612572D01*
X108094804Y-58588773D01*
X108091204Y-58564505D01*
X108090000Y-58540001D01*
X108090000Y-57639999D01*
X108091204Y-57615495D01*
X108094804Y-57591227D01*
X108100765Y-57567428D01*
X108109030Y-57544329D01*
X108119520Y-57522150D01*
X108132132Y-57501107D01*
X108146747Y-57481401D01*
X108163223Y-57463223D01*
X108181401Y-57446747D01*
X108201107Y-57432132D01*
X108222150Y-57419520D01*
X108244329Y-57409030D01*
X108267428Y-57400765D01*
X108291227Y-57394804D01*
X108315495Y-57391204D01*
X108339999Y-57390000D01*
X108990001Y-57390000D01*
X109014505Y-57391204D01*
G37*
G04 #@! TD.AperFunction*
G04 #@! TA.AperFunction,SMDPad,CuDef*
G36*
X106964505Y-61963204D02*
G01*
X106988773Y-61966804D01*
X107012572Y-61972765D01*
X107035671Y-61981030D01*
X107057850Y-61991520D01*
X107078893Y-62004132D01*
X107098599Y-62018747D01*
X107116777Y-62035223D01*
X107133253Y-62053401D01*
X107147868Y-62073107D01*
X107160480Y-62094150D01*
X107170970Y-62116329D01*
X107179235Y-62139428D01*
X107185196Y-62163227D01*
X107188796Y-62187495D01*
X107190000Y-62211999D01*
X107190000Y-63112001D01*
X107188796Y-63136505D01*
X107185196Y-63160773D01*
X107179235Y-63184572D01*
X107170970Y-63207671D01*
X107160480Y-63229850D01*
X107147868Y-63250893D01*
X107133253Y-63270599D01*
X107116777Y-63288777D01*
X107098599Y-63305253D01*
X107078893Y-63319868D01*
X107057850Y-63332480D01*
X107035671Y-63342970D01*
X107012572Y-63351235D01*
X106988773Y-63357196D01*
X106964505Y-63360796D01*
X106940001Y-63362000D01*
X106289999Y-63362000D01*
X106265495Y-63360796D01*
X106241227Y-63357196D01*
X106217428Y-63351235D01*
X106194329Y-63342970D01*
X106172150Y-63332480D01*
X106151107Y-63319868D01*
X106131401Y-63305253D01*
X106113223Y-63288777D01*
X106096747Y-63270599D01*
X106082132Y-63250893D01*
X106069520Y-63229850D01*
X106059030Y-63207671D01*
X106050765Y-63184572D01*
X106044804Y-63160773D01*
X106041204Y-63136505D01*
X106040000Y-63112001D01*
X106040000Y-62211999D01*
X106041204Y-62187495D01*
X106044804Y-62163227D01*
X106050765Y-62139428D01*
X106059030Y-62116329D01*
X106069520Y-62094150D01*
X106082132Y-62073107D01*
X106096747Y-62053401D01*
X106113223Y-62035223D01*
X106131401Y-62018747D01*
X106151107Y-62004132D01*
X106172150Y-61991520D01*
X106194329Y-61981030D01*
X106217428Y-61972765D01*
X106241227Y-61966804D01*
X106265495Y-61963204D01*
X106289999Y-61962000D01*
X106940001Y-61962000D01*
X106964505Y-61963204D01*
G37*
G04 #@! TD.AperFunction*
G04 #@! TA.AperFunction,SMDPad,CuDef*
G36*
X109014505Y-61963204D02*
G01*
X109038773Y-61966804D01*
X109062572Y-61972765D01*
X109085671Y-61981030D01*
X109107850Y-61991520D01*
X109128893Y-62004132D01*
X109148599Y-62018747D01*
X109166777Y-62035223D01*
X109183253Y-62053401D01*
X109197868Y-62073107D01*
X109210480Y-62094150D01*
X109220970Y-62116329D01*
X109229235Y-62139428D01*
X109235196Y-62163227D01*
X109238796Y-62187495D01*
X109240000Y-62211999D01*
X109240000Y-63112001D01*
X109238796Y-63136505D01*
X109235196Y-63160773D01*
X109229235Y-63184572D01*
X109220970Y-63207671D01*
X109210480Y-63229850D01*
X109197868Y-63250893D01*
X109183253Y-63270599D01*
X109166777Y-63288777D01*
X109148599Y-63305253D01*
X109128893Y-63319868D01*
X109107850Y-63332480D01*
X109085671Y-63342970D01*
X109062572Y-63351235D01*
X109038773Y-63357196D01*
X109014505Y-63360796D01*
X108990001Y-63362000D01*
X108339999Y-63362000D01*
X108315495Y-63360796D01*
X108291227Y-63357196D01*
X108267428Y-63351235D01*
X108244329Y-63342970D01*
X108222150Y-63332480D01*
X108201107Y-63319868D01*
X108181401Y-63305253D01*
X108163223Y-63288777D01*
X108146747Y-63270599D01*
X108132132Y-63250893D01*
X108119520Y-63229850D01*
X108109030Y-63207671D01*
X108100765Y-63184572D01*
X108094804Y-63160773D01*
X108091204Y-63136505D01*
X108090000Y-63112001D01*
X108090000Y-62211999D01*
X108091204Y-62187495D01*
X108094804Y-62163227D01*
X108100765Y-62139428D01*
X108109030Y-62116329D01*
X108119520Y-62094150D01*
X108132132Y-62073107D01*
X108146747Y-62053401D01*
X108163223Y-62035223D01*
X108181401Y-62018747D01*
X108201107Y-62004132D01*
X108222150Y-61991520D01*
X108244329Y-61981030D01*
X108267428Y-61972765D01*
X108291227Y-61966804D01*
X108315495Y-61963204D01*
X108339999Y-61962000D01*
X108990001Y-61962000D01*
X109014505Y-61963204D01*
G37*
G04 #@! TD.AperFunction*
G04 #@! TA.AperFunction,SMDPad,CuDef*
G36*
X106964505Y-75171204D02*
G01*
X106988773Y-75174804D01*
X107012572Y-75180765D01*
X107035671Y-75189030D01*
X107057850Y-75199520D01*
X107078893Y-75212132D01*
X107098599Y-75226747D01*
X107116777Y-75243223D01*
X107133253Y-75261401D01*
X107147868Y-75281107D01*
X107160480Y-75302150D01*
X107170970Y-75324329D01*
X107179235Y-75347428D01*
X107185196Y-75371227D01*
X107188796Y-75395495D01*
X107190000Y-75419999D01*
X107190000Y-76320001D01*
X107188796Y-76344505D01*
X107185196Y-76368773D01*
X107179235Y-76392572D01*
X107170970Y-76415671D01*
X107160480Y-76437850D01*
X107147868Y-76458893D01*
X107133253Y-76478599D01*
X107116777Y-76496777D01*
X107098599Y-76513253D01*
X107078893Y-76527868D01*
X107057850Y-76540480D01*
X107035671Y-76550970D01*
X107012572Y-76559235D01*
X106988773Y-76565196D01*
X106964505Y-76568796D01*
X106940001Y-76570000D01*
X106289999Y-76570000D01*
X106265495Y-76568796D01*
X106241227Y-76565196D01*
X106217428Y-76559235D01*
X106194329Y-76550970D01*
X106172150Y-76540480D01*
X106151107Y-76527868D01*
X106131401Y-76513253D01*
X106113223Y-76496777D01*
X106096747Y-76478599D01*
X106082132Y-76458893D01*
X106069520Y-76437850D01*
X106059030Y-76415671D01*
X106050765Y-76392572D01*
X106044804Y-76368773D01*
X106041204Y-76344505D01*
X106040000Y-76320001D01*
X106040000Y-75419999D01*
X106041204Y-75395495D01*
X106044804Y-75371227D01*
X106050765Y-75347428D01*
X106059030Y-75324329D01*
X106069520Y-75302150D01*
X106082132Y-75281107D01*
X106096747Y-75261401D01*
X106113223Y-75243223D01*
X106131401Y-75226747D01*
X106151107Y-75212132D01*
X106172150Y-75199520D01*
X106194329Y-75189030D01*
X106217428Y-75180765D01*
X106241227Y-75174804D01*
X106265495Y-75171204D01*
X106289999Y-75170000D01*
X106940001Y-75170000D01*
X106964505Y-75171204D01*
G37*
G04 #@! TD.AperFunction*
G04 #@! TA.AperFunction,SMDPad,CuDef*
G36*
X109014505Y-75171204D02*
G01*
X109038773Y-75174804D01*
X109062572Y-75180765D01*
X109085671Y-75189030D01*
X109107850Y-75199520D01*
X109128893Y-75212132D01*
X109148599Y-75226747D01*
X109166777Y-75243223D01*
X109183253Y-75261401D01*
X109197868Y-75281107D01*
X109210480Y-75302150D01*
X109220970Y-75324329D01*
X109229235Y-75347428D01*
X109235196Y-75371227D01*
X109238796Y-75395495D01*
X109240000Y-75419999D01*
X109240000Y-76320001D01*
X109238796Y-76344505D01*
X109235196Y-76368773D01*
X109229235Y-76392572D01*
X109220970Y-76415671D01*
X109210480Y-76437850D01*
X109197868Y-76458893D01*
X109183253Y-76478599D01*
X109166777Y-76496777D01*
X109148599Y-76513253D01*
X109128893Y-76527868D01*
X109107850Y-76540480D01*
X109085671Y-76550970D01*
X109062572Y-76559235D01*
X109038773Y-76565196D01*
X109014505Y-76568796D01*
X108990001Y-76570000D01*
X108339999Y-76570000D01*
X108315495Y-76568796D01*
X108291227Y-76565196D01*
X108267428Y-76559235D01*
X108244329Y-76550970D01*
X108222150Y-76540480D01*
X108201107Y-76527868D01*
X108181401Y-76513253D01*
X108163223Y-76496777D01*
X108146747Y-76478599D01*
X108132132Y-76458893D01*
X108119520Y-76437850D01*
X108109030Y-76415671D01*
X108100765Y-76392572D01*
X108094804Y-76368773D01*
X108091204Y-76344505D01*
X108090000Y-76320001D01*
X108090000Y-75419999D01*
X108091204Y-75395495D01*
X108094804Y-75371227D01*
X108100765Y-75347428D01*
X108109030Y-75324329D01*
X108119520Y-75302150D01*
X108132132Y-75281107D01*
X108146747Y-75261401D01*
X108163223Y-75243223D01*
X108181401Y-75226747D01*
X108201107Y-75212132D01*
X108222150Y-75199520D01*
X108244329Y-75189030D01*
X108267428Y-75180765D01*
X108291227Y-75174804D01*
X108315495Y-75171204D01*
X108339999Y-75170000D01*
X108990001Y-75170000D01*
X109014505Y-75171204D01*
G37*
G04 #@! TD.AperFunction*
G04 #@! TA.AperFunction,SMDPad,CuDef*
G36*
X106964505Y-85331204D02*
G01*
X106988773Y-85334804D01*
X107012572Y-85340765D01*
X107035671Y-85349030D01*
X107057850Y-85359520D01*
X107078893Y-85372132D01*
X107098599Y-85386747D01*
X107116777Y-85403223D01*
X107133253Y-85421401D01*
X107147868Y-85441107D01*
X107160480Y-85462150D01*
X107170970Y-85484329D01*
X107179235Y-85507428D01*
X107185196Y-85531227D01*
X107188796Y-85555495D01*
X107190000Y-85579999D01*
X107190000Y-86480001D01*
X107188796Y-86504505D01*
X107185196Y-86528773D01*
X107179235Y-86552572D01*
X107170970Y-86575671D01*
X107160480Y-86597850D01*
X107147868Y-86618893D01*
X107133253Y-86638599D01*
X107116777Y-86656777D01*
X107098599Y-86673253D01*
X107078893Y-86687868D01*
X107057850Y-86700480D01*
X107035671Y-86710970D01*
X107012572Y-86719235D01*
X106988773Y-86725196D01*
X106964505Y-86728796D01*
X106940001Y-86730000D01*
X106289999Y-86730000D01*
X106265495Y-86728796D01*
X106241227Y-86725196D01*
X106217428Y-86719235D01*
X106194329Y-86710970D01*
X106172150Y-86700480D01*
X106151107Y-86687868D01*
X106131401Y-86673253D01*
X106113223Y-86656777D01*
X106096747Y-86638599D01*
X106082132Y-86618893D01*
X106069520Y-86597850D01*
X106059030Y-86575671D01*
X106050765Y-86552572D01*
X106044804Y-86528773D01*
X106041204Y-86504505D01*
X106040000Y-86480001D01*
X106040000Y-85579999D01*
X106041204Y-85555495D01*
X106044804Y-85531227D01*
X106050765Y-85507428D01*
X106059030Y-85484329D01*
X106069520Y-85462150D01*
X106082132Y-85441107D01*
X106096747Y-85421401D01*
X106113223Y-85403223D01*
X106131401Y-85386747D01*
X106151107Y-85372132D01*
X106172150Y-85359520D01*
X106194329Y-85349030D01*
X106217428Y-85340765D01*
X106241227Y-85334804D01*
X106265495Y-85331204D01*
X106289999Y-85330000D01*
X106940001Y-85330000D01*
X106964505Y-85331204D01*
G37*
G04 #@! TD.AperFunction*
G04 #@! TA.AperFunction,SMDPad,CuDef*
G36*
X109014505Y-85331204D02*
G01*
X109038773Y-85334804D01*
X109062572Y-85340765D01*
X109085671Y-85349030D01*
X109107850Y-85359520D01*
X109128893Y-85372132D01*
X109148599Y-85386747D01*
X109166777Y-85403223D01*
X109183253Y-85421401D01*
X109197868Y-85441107D01*
X109210480Y-85462150D01*
X109220970Y-85484329D01*
X109229235Y-85507428D01*
X109235196Y-85531227D01*
X109238796Y-85555495D01*
X109240000Y-85579999D01*
X109240000Y-86480001D01*
X109238796Y-86504505D01*
X109235196Y-86528773D01*
X109229235Y-86552572D01*
X109220970Y-86575671D01*
X109210480Y-86597850D01*
X109197868Y-86618893D01*
X109183253Y-86638599D01*
X109166777Y-86656777D01*
X109148599Y-86673253D01*
X109128893Y-86687868D01*
X109107850Y-86700480D01*
X109085671Y-86710970D01*
X109062572Y-86719235D01*
X109038773Y-86725196D01*
X109014505Y-86728796D01*
X108990001Y-86730000D01*
X108339999Y-86730000D01*
X108315495Y-86728796D01*
X108291227Y-86725196D01*
X108267428Y-86719235D01*
X108244329Y-86710970D01*
X108222150Y-86700480D01*
X108201107Y-86687868D01*
X108181401Y-86673253D01*
X108163223Y-86656777D01*
X108146747Y-86638599D01*
X108132132Y-86618893D01*
X108119520Y-86597850D01*
X108109030Y-86575671D01*
X108100765Y-86552572D01*
X108094804Y-86528773D01*
X108091204Y-86504505D01*
X108090000Y-86480001D01*
X108090000Y-85579999D01*
X108091204Y-85555495D01*
X108094804Y-85531227D01*
X108100765Y-85507428D01*
X108109030Y-85484329D01*
X108119520Y-85462150D01*
X108132132Y-85441107D01*
X108146747Y-85421401D01*
X108163223Y-85403223D01*
X108181401Y-85386747D01*
X108201107Y-85372132D01*
X108222150Y-85359520D01*
X108244329Y-85349030D01*
X108267428Y-85340765D01*
X108291227Y-85334804D01*
X108315495Y-85331204D01*
X108339999Y-85330000D01*
X108990001Y-85330000D01*
X109014505Y-85331204D01*
G37*
G04 #@! TD.AperFunction*
G04 #@! TA.AperFunction,SMDPad,CuDef*
G36*
X106964505Y-80251204D02*
G01*
X106988773Y-80254804D01*
X107012572Y-80260765D01*
X107035671Y-80269030D01*
X107057850Y-80279520D01*
X107078893Y-80292132D01*
X107098599Y-80306747D01*
X107116777Y-80323223D01*
X107133253Y-80341401D01*
X107147868Y-80361107D01*
X107160480Y-80382150D01*
X107170970Y-80404329D01*
X107179235Y-80427428D01*
X107185196Y-80451227D01*
X107188796Y-80475495D01*
X107190000Y-80499999D01*
X107190000Y-81400001D01*
X107188796Y-81424505D01*
X107185196Y-81448773D01*
X107179235Y-81472572D01*
X107170970Y-81495671D01*
X107160480Y-81517850D01*
X107147868Y-81538893D01*
X107133253Y-81558599D01*
X107116777Y-81576777D01*
X107098599Y-81593253D01*
X107078893Y-81607868D01*
X107057850Y-81620480D01*
X107035671Y-81630970D01*
X107012572Y-81639235D01*
X106988773Y-81645196D01*
X106964505Y-81648796D01*
X106940001Y-81650000D01*
X106289999Y-81650000D01*
X106265495Y-81648796D01*
X106241227Y-81645196D01*
X106217428Y-81639235D01*
X106194329Y-81630970D01*
X106172150Y-81620480D01*
X106151107Y-81607868D01*
X106131401Y-81593253D01*
X106113223Y-81576777D01*
X106096747Y-81558599D01*
X106082132Y-81538893D01*
X106069520Y-81517850D01*
X106059030Y-81495671D01*
X106050765Y-81472572D01*
X106044804Y-81448773D01*
X106041204Y-81424505D01*
X106040000Y-81400001D01*
X106040000Y-80499999D01*
X106041204Y-80475495D01*
X106044804Y-80451227D01*
X106050765Y-80427428D01*
X106059030Y-80404329D01*
X106069520Y-80382150D01*
X106082132Y-80361107D01*
X106096747Y-80341401D01*
X106113223Y-80323223D01*
X106131401Y-80306747D01*
X106151107Y-80292132D01*
X106172150Y-80279520D01*
X106194329Y-80269030D01*
X106217428Y-80260765D01*
X106241227Y-80254804D01*
X106265495Y-80251204D01*
X106289999Y-80250000D01*
X106940001Y-80250000D01*
X106964505Y-80251204D01*
G37*
G04 #@! TD.AperFunction*
G04 #@! TA.AperFunction,SMDPad,CuDef*
G36*
X109014505Y-80251204D02*
G01*
X109038773Y-80254804D01*
X109062572Y-80260765D01*
X109085671Y-80269030D01*
X109107850Y-80279520D01*
X109128893Y-80292132D01*
X109148599Y-80306747D01*
X109166777Y-80323223D01*
X109183253Y-80341401D01*
X109197868Y-80361107D01*
X109210480Y-80382150D01*
X109220970Y-80404329D01*
X109229235Y-80427428D01*
X109235196Y-80451227D01*
X109238796Y-80475495D01*
X109240000Y-80499999D01*
X109240000Y-81400001D01*
X109238796Y-81424505D01*
X109235196Y-81448773D01*
X109229235Y-81472572D01*
X109220970Y-81495671D01*
X109210480Y-81517850D01*
X109197868Y-81538893D01*
X109183253Y-81558599D01*
X109166777Y-81576777D01*
X109148599Y-81593253D01*
X109128893Y-81607868D01*
X109107850Y-81620480D01*
X109085671Y-81630970D01*
X109062572Y-81639235D01*
X109038773Y-81645196D01*
X109014505Y-81648796D01*
X108990001Y-81650000D01*
X108339999Y-81650000D01*
X108315495Y-81648796D01*
X108291227Y-81645196D01*
X108267428Y-81639235D01*
X108244329Y-81630970D01*
X108222150Y-81620480D01*
X108201107Y-81607868D01*
X108181401Y-81593253D01*
X108163223Y-81576777D01*
X108146747Y-81558599D01*
X108132132Y-81538893D01*
X108119520Y-81517850D01*
X108109030Y-81495671D01*
X108100765Y-81472572D01*
X108094804Y-81448773D01*
X108091204Y-81424505D01*
X108090000Y-81400001D01*
X108090000Y-80499999D01*
X108091204Y-80475495D01*
X108094804Y-80451227D01*
X108100765Y-80427428D01*
X108109030Y-80404329D01*
X108119520Y-80382150D01*
X108132132Y-80361107D01*
X108146747Y-80341401D01*
X108163223Y-80323223D01*
X108181401Y-80306747D01*
X108201107Y-80292132D01*
X108222150Y-80279520D01*
X108244329Y-80269030D01*
X108267428Y-80260765D01*
X108291227Y-80254804D01*
X108315495Y-80251204D01*
X108339999Y-80250000D01*
X108990001Y-80250000D01*
X109014505Y-80251204D01*
G37*
G04 #@! TD.AperFunction*
D15*
X105100000Y-80950000D03*
X105100000Y-86030000D03*
X105100000Y-75870000D03*
X104846000Y-62662000D03*
X104846000Y-58090000D03*
X107640000Y-89078000D03*
X148026000Y-74346000D03*
X105100000Y-88062000D03*
X148026000Y-71806000D03*
X136088000Y-56312000D03*
X117292000Y-54026000D03*
X140152000Y-55296000D03*
X117292000Y-52502000D03*
X163600000Y-50000000D03*
X158600000Y-50000000D03*
X153600000Y-50000000D03*
X148600000Y-50000000D03*
X153600000Y-55000000D03*
X158600000Y-55000000D03*
X163600000Y-55000000D03*
X163600000Y-65000000D03*
X158600000Y-65000000D03*
X153600000Y-65000000D03*
X148600000Y-65000000D03*
X148600000Y-70000000D03*
X143600000Y-70000000D03*
X138600000Y-70000000D03*
X138600000Y-65000000D03*
X133600000Y-65000000D03*
X128600000Y-65000000D03*
X128600000Y-60000000D03*
X123600000Y-60000000D03*
X123600000Y-65000000D03*
X123600000Y-70000000D03*
X128600000Y-70000000D03*
X133600000Y-70000000D03*
X133600000Y-75000000D03*
X128600000Y-75000000D03*
X123600000Y-75000000D03*
X138600000Y-75000000D03*
X143600000Y-80000000D03*
X138600000Y-80000000D03*
X133600000Y-80000000D03*
X128600000Y-80000000D03*
X123600000Y-80000000D03*
X123600000Y-85000000D03*
X128600000Y-85000000D03*
X133600000Y-85000000D03*
X143600000Y-85000000D03*
X148600000Y-80000000D03*
X153600000Y-80000000D03*
X158600000Y-80000000D03*
X163600000Y-80000000D03*
X163600000Y-95000000D03*
X158600000Y-95000000D03*
X153600000Y-95000000D03*
X148600000Y-95000000D03*
X143600000Y-95000000D03*
X128600000Y-95000000D03*
X123600000Y-95000000D03*
X118600000Y-95000000D03*
X113600000Y-95000000D03*
X128600000Y-90000000D03*
X118600000Y-70000000D03*
X118600000Y-65000000D03*
X113600000Y-65000000D03*
X108600000Y-65000000D03*
X103600000Y-65000000D03*
X103600000Y-70000000D03*
X108600000Y-70000000D03*
X113600000Y-70000000D03*
X103600000Y-95000000D03*
X148026000Y-91110000D03*
X148026000Y-88570000D03*
X148026000Y-86030000D03*
X148026000Y-83490000D03*
D16*
X105100000Y-80950000D02*
X106615000Y-80950000D01*
X109240000Y-80950000D02*
X114235000Y-80950000D01*
X108665000Y-80950000D02*
X109240000Y-80950000D01*
X105100000Y-86030000D02*
X106615000Y-86030000D01*
X108665000Y-86030000D02*
X114235000Y-86030000D01*
X105100000Y-75870000D02*
X106615000Y-75870000D01*
X108665000Y-75870000D02*
X114235000Y-75870000D01*
X104846000Y-62662000D02*
X106615000Y-62662000D01*
X114235000Y-62662000D02*
X108665000Y-62662000D01*
X104846000Y-58090000D02*
X106615000Y-58090000D01*
X108665000Y-58090000D02*
X114235000Y-58090000D01*
X148026000Y-74346000D02*
X149795000Y-74346000D01*
X107640000Y-97460000D02*
X107640000Y-89078000D01*
X148026000Y-71806000D02*
X149795000Y-71806000D01*
X105100000Y-88062000D02*
X105100000Y-97460000D01*
X116726315Y-54026000D02*
X117292000Y-54026000D01*
X105100000Y-49200000D02*
X105100000Y-50402081D01*
X108723919Y-54026000D02*
X116726315Y-54026000D01*
X105100000Y-50402081D02*
X108723919Y-54026000D01*
X137367000Y-56312000D02*
X137866000Y-56811000D01*
X136088000Y-56312000D02*
X137367000Y-56312000D01*
X162250000Y-60630000D02*
X156600000Y-60630000D01*
X110942000Y-52502000D02*
X117292000Y-52502000D01*
X107640000Y-49200000D02*
X110942000Y-52502000D01*
X140152000Y-55296000D02*
X140152000Y-56811000D01*
X161150000Y-58090000D02*
X156600000Y-58090000D01*
X162250000Y-58090000D02*
X161150000Y-58090000D01*
X133040000Y-50402081D02*
X133040000Y-49200000D01*
X133040000Y-58784081D02*
X133040000Y-50402081D01*
X137612000Y-62154000D02*
X136409919Y-62154000D01*
X136409919Y-62154000D02*
X133040000Y-58784081D01*
X149795000Y-91110000D02*
X148026000Y-91110000D01*
X149795000Y-88570000D02*
X148026000Y-88570000D01*
X149795000Y-86030000D02*
X148026000Y-86030000D01*
X148026000Y-83490000D02*
X149795000Y-83490000D01*
X151845000Y-71806000D02*
X156662000Y-71806000D01*
X156662000Y-71806000D02*
X162250000Y-71806000D01*
X151845000Y-74346000D02*
X156662000Y-74346000D01*
X162250000Y-74346000D02*
X156662000Y-74346000D01*
X140152000Y-58861000D02*
X140152000Y-62154000D01*
X140152000Y-58861000D02*
X137866000Y-58861000D01*
X156662000Y-83490000D02*
X151845000Y-83490000D01*
X156662000Y-83490000D02*
X162250000Y-83490000D01*
X152420000Y-86030000D02*
X156662000Y-86030000D01*
X151845000Y-86030000D02*
X152420000Y-86030000D01*
X162250000Y-86030000D02*
X156662000Y-86030000D01*
X151845000Y-88570000D02*
X156662000Y-88570000D01*
X162250000Y-88570000D02*
X156662000Y-88570000D01*
X151845000Y-91110000D02*
X156662000Y-91110000D01*
X162250000Y-91110000D02*
X156662000Y-91110000D01*
D17*
G36*
X167940000Y-99340000D02*
G01*
X100660000Y-99340000D01*
X100660000Y-96610000D01*
X103611928Y-96610000D01*
X103611928Y-98310000D01*
X103624188Y-98434482D01*
X103660498Y-98554180D01*
X103719463Y-98664494D01*
X103798815Y-98761185D01*
X103895506Y-98840537D01*
X104005820Y-98899502D01*
X104125518Y-98935812D01*
X104250000Y-98948072D01*
X105950000Y-98948072D01*
X106074482Y-98935812D01*
X106194180Y-98899502D01*
X106304494Y-98840537D01*
X106401185Y-98761185D01*
X106480537Y-98664494D01*
X106539502Y-98554180D01*
X106561513Y-98481620D01*
X106693368Y-98613475D01*
X106936589Y-98775990D01*
X107206842Y-98887932D01*
X107493740Y-98945000D01*
X107786260Y-98945000D01*
X108073158Y-98887932D01*
X108343411Y-98775990D01*
X108586632Y-98613475D01*
X108793475Y-98406632D01*
X108910000Y-98232240D01*
X109026525Y-98406632D01*
X109233368Y-98613475D01*
X109476589Y-98775990D01*
X109746842Y-98887932D01*
X110033740Y-98945000D01*
X110326260Y-98945000D01*
X110613158Y-98887932D01*
X110883411Y-98775990D01*
X111126632Y-98613475D01*
X111333475Y-98406632D01*
X111450000Y-98232240D01*
X111566525Y-98406632D01*
X111773368Y-98613475D01*
X112016589Y-98775990D01*
X112286842Y-98887932D01*
X112573740Y-98945000D01*
X112866260Y-98945000D01*
X113153158Y-98887932D01*
X113423411Y-98775990D01*
X113666632Y-98613475D01*
X113873475Y-98406632D01*
X113990000Y-98232240D01*
X114106525Y-98406632D01*
X114313368Y-98613475D01*
X114556589Y-98775990D01*
X114826842Y-98887932D01*
X115113740Y-98945000D01*
X115406260Y-98945000D01*
X115693158Y-98887932D01*
X115963411Y-98775990D01*
X116206632Y-98613475D01*
X116413475Y-98406632D01*
X116530000Y-98232240D01*
X116646525Y-98406632D01*
X116853368Y-98613475D01*
X117096589Y-98775990D01*
X117366842Y-98887932D01*
X117653740Y-98945000D01*
X117946260Y-98945000D01*
X118233158Y-98887932D01*
X118503411Y-98775990D01*
X118746632Y-98613475D01*
X118953475Y-98406632D01*
X119070000Y-98232240D01*
X119186525Y-98406632D01*
X119393368Y-98613475D01*
X119636589Y-98775990D01*
X119906842Y-98887932D01*
X120193740Y-98945000D01*
X120486260Y-98945000D01*
X120773158Y-98887932D01*
X121043411Y-98775990D01*
X121286632Y-98613475D01*
X121493475Y-98406632D01*
X121610000Y-98232240D01*
X121726525Y-98406632D01*
X121933368Y-98613475D01*
X122176589Y-98775990D01*
X122446842Y-98887932D01*
X122733740Y-98945000D01*
X123026260Y-98945000D01*
X123313158Y-98887932D01*
X123583411Y-98775990D01*
X123826632Y-98613475D01*
X124033475Y-98406632D01*
X124195990Y-98163411D01*
X124307932Y-97893158D01*
X124365000Y-97606260D01*
X124365000Y-97313740D01*
X124307932Y-97026842D01*
X124195990Y-96756589D01*
X124098043Y-96610000D01*
X125455928Y-96610000D01*
X125455928Y-98310000D01*
X125468188Y-98434482D01*
X125504498Y-98554180D01*
X125563463Y-98664494D01*
X125642815Y-98761185D01*
X125739506Y-98840537D01*
X125849820Y-98899502D01*
X125969518Y-98935812D01*
X126094000Y-98948072D01*
X127794000Y-98948072D01*
X127918482Y-98935812D01*
X128038180Y-98899502D01*
X128148494Y-98840537D01*
X128245185Y-98761185D01*
X128324537Y-98664494D01*
X128383502Y-98554180D01*
X128405513Y-98481620D01*
X128537368Y-98613475D01*
X128780589Y-98775990D01*
X129050842Y-98887932D01*
X129337740Y-98945000D01*
X129630260Y-98945000D01*
X129917158Y-98887932D01*
X130187411Y-98775990D01*
X130430632Y-98613475D01*
X130637475Y-98406632D01*
X130754000Y-98232240D01*
X130870525Y-98406632D01*
X131077368Y-98613475D01*
X131320589Y-98775990D01*
X131590842Y-98887932D01*
X131877740Y-98945000D01*
X132170260Y-98945000D01*
X132457158Y-98887932D01*
X132727411Y-98775990D01*
X132970632Y-98613475D01*
X133177475Y-98406632D01*
X133294000Y-98232240D01*
X133410525Y-98406632D01*
X133617368Y-98613475D01*
X133860589Y-98775990D01*
X134130842Y-98887932D01*
X134417740Y-98945000D01*
X134710260Y-98945000D01*
X134997158Y-98887932D01*
X135267411Y-98775990D01*
X135510632Y-98613475D01*
X135717475Y-98406632D01*
X135834000Y-98232240D01*
X135950525Y-98406632D01*
X136157368Y-98613475D01*
X136400589Y-98775990D01*
X136670842Y-98887932D01*
X136957740Y-98945000D01*
X137250260Y-98945000D01*
X137537158Y-98887932D01*
X137807411Y-98775990D01*
X138050632Y-98613475D01*
X138257475Y-98406632D01*
X138374000Y-98232240D01*
X138490525Y-98406632D01*
X138697368Y-98613475D01*
X138940589Y-98775990D01*
X139210842Y-98887932D01*
X139497740Y-98945000D01*
X139790260Y-98945000D01*
X140077158Y-98887932D01*
X140347411Y-98775990D01*
X140590632Y-98613475D01*
X140797475Y-98406632D01*
X140919195Y-98224466D01*
X140988822Y-98341355D01*
X141183731Y-98557588D01*
X141417080Y-98731641D01*
X141679901Y-98856825D01*
X141827110Y-98901476D01*
X142057000Y-98780155D01*
X142057000Y-97587000D01*
X142037000Y-97587000D01*
X142037000Y-97333000D01*
X142057000Y-97333000D01*
X142057000Y-96139845D01*
X142311000Y-96139845D01*
X142311000Y-97333000D01*
X142331000Y-97333000D01*
X142331000Y-97587000D01*
X142311000Y-97587000D01*
X142311000Y-98780155D01*
X142540890Y-98901476D01*
X142688099Y-98856825D01*
X142950920Y-98731641D01*
X143184269Y-98557588D01*
X143379178Y-98341355D01*
X143448805Y-98224466D01*
X143570525Y-98406632D01*
X143777368Y-98613475D01*
X144020589Y-98775990D01*
X144290842Y-98887932D01*
X144577740Y-98945000D01*
X144870260Y-98945000D01*
X145157158Y-98887932D01*
X145427411Y-98775990D01*
X145670632Y-98613475D01*
X145877475Y-98406632D01*
X145994000Y-98232240D01*
X146110525Y-98406632D01*
X146317368Y-98613475D01*
X146560589Y-98775990D01*
X146830842Y-98887932D01*
X147117740Y-98945000D01*
X147410260Y-98945000D01*
X147697158Y-98887932D01*
X147967411Y-98775990D01*
X148210632Y-98613475D01*
X148417475Y-98406632D01*
X148534000Y-98232240D01*
X148650525Y-98406632D01*
X148857368Y-98613475D01*
X149100589Y-98775990D01*
X149370842Y-98887932D01*
X149657740Y-98945000D01*
X149950260Y-98945000D01*
X150237158Y-98887932D01*
X150507411Y-98775990D01*
X150750632Y-98613475D01*
X150957475Y-98406632D01*
X151119990Y-98163411D01*
X151231932Y-97893158D01*
X151289000Y-97606260D01*
X151289000Y-97313740D01*
X151231932Y-97026842D01*
X151119990Y-96756589D01*
X150957475Y-96513368D01*
X150750632Y-96306525D01*
X150507411Y-96144010D01*
X150237158Y-96032068D01*
X149950260Y-95975000D01*
X149657740Y-95975000D01*
X149370842Y-96032068D01*
X149100589Y-96144010D01*
X148857368Y-96306525D01*
X148650525Y-96513368D01*
X148534000Y-96687760D01*
X148417475Y-96513368D01*
X148210632Y-96306525D01*
X147967411Y-96144010D01*
X147697158Y-96032068D01*
X147410260Y-95975000D01*
X147117740Y-95975000D01*
X146830842Y-96032068D01*
X146560589Y-96144010D01*
X146317368Y-96306525D01*
X146110525Y-96513368D01*
X145994000Y-96687760D01*
X145877475Y-96513368D01*
X145670632Y-96306525D01*
X145427411Y-96144010D01*
X145157158Y-96032068D01*
X144870260Y-95975000D01*
X144577740Y-95975000D01*
X144290842Y-96032068D01*
X144020589Y-96144010D01*
X143777368Y-96306525D01*
X143570525Y-96513368D01*
X143448805Y-96695534D01*
X143379178Y-96578645D01*
X143184269Y-96362412D01*
X142950920Y-96188359D01*
X142688099Y-96063175D01*
X142540890Y-96018524D01*
X142311000Y-96139845D01*
X142057000Y-96139845D01*
X141827110Y-96018524D01*
X141679901Y-96063175D01*
X141417080Y-96188359D01*
X141183731Y-96362412D01*
X140988822Y-96578645D01*
X140919195Y-96695534D01*
X140797475Y-96513368D01*
X140590632Y-96306525D01*
X140347411Y-96144010D01*
X140077158Y-96032068D01*
X139790260Y-95975000D01*
X139497740Y-95975000D01*
X139210842Y-96032068D01*
X138940589Y-96144010D01*
X138697368Y-96306525D01*
X138490525Y-96513368D01*
X138374000Y-96687760D01*
X138257475Y-96513368D01*
X138050632Y-96306525D01*
X137807411Y-96144010D01*
X137537158Y-96032068D01*
X137250260Y-95975000D01*
X136957740Y-95975000D01*
X136670842Y-96032068D01*
X136400589Y-96144010D01*
X136157368Y-96306525D01*
X135950525Y-96513368D01*
X135834000Y-96687760D01*
X135717475Y-96513368D01*
X135510632Y-96306525D01*
X135267411Y-96144010D01*
X134997158Y-96032068D01*
X134710260Y-95975000D01*
X134417740Y-95975000D01*
X134130842Y-96032068D01*
X133860589Y-96144010D01*
X133617368Y-96306525D01*
X133410525Y-96513368D01*
X133294000Y-96687760D01*
X133177475Y-96513368D01*
X132970632Y-96306525D01*
X132727411Y-96144010D01*
X132457158Y-96032068D01*
X132170260Y-95975000D01*
X131877740Y-95975000D01*
X131590842Y-96032068D01*
X131320589Y-96144010D01*
X131077368Y-96306525D01*
X130870525Y-96513368D01*
X130754000Y-96687760D01*
X130637475Y-96513368D01*
X130430632Y-96306525D01*
X130187411Y-96144010D01*
X129917158Y-96032068D01*
X129630260Y-95975000D01*
X129337740Y-95975000D01*
X129050842Y-96032068D01*
X128780589Y-96144010D01*
X128537368Y-96306525D01*
X128405513Y-96438380D01*
X128383502Y-96365820D01*
X128324537Y-96255506D01*
X128245185Y-96158815D01*
X128148494Y-96079463D01*
X128038180Y-96020498D01*
X127918482Y-95984188D01*
X127794000Y-95971928D01*
X126094000Y-95971928D01*
X125969518Y-95984188D01*
X125849820Y-96020498D01*
X125739506Y-96079463D01*
X125642815Y-96158815D01*
X125563463Y-96255506D01*
X125504498Y-96365820D01*
X125468188Y-96485518D01*
X125455928Y-96610000D01*
X124098043Y-96610000D01*
X124033475Y-96513368D01*
X123826632Y-96306525D01*
X123583411Y-96144010D01*
X123313158Y-96032068D01*
X123026260Y-95975000D01*
X122733740Y-95975000D01*
X122446842Y-96032068D01*
X122176589Y-96144010D01*
X121933368Y-96306525D01*
X121726525Y-96513368D01*
X121610000Y-96687760D01*
X121493475Y-96513368D01*
X121286632Y-96306525D01*
X121043411Y-96144010D01*
X120773158Y-96032068D01*
X120486260Y-95975000D01*
X120193740Y-95975000D01*
X119906842Y-96032068D01*
X119636589Y-96144010D01*
X119393368Y-96306525D01*
X119186525Y-96513368D01*
X119070000Y-96687760D01*
X118953475Y-96513368D01*
X118746632Y-96306525D01*
X118503411Y-96144010D01*
X118233158Y-96032068D01*
X117946260Y-95975000D01*
X117653740Y-95975000D01*
X117366842Y-96032068D01*
X117096589Y-96144010D01*
X116853368Y-96306525D01*
X116646525Y-96513368D01*
X116530000Y-96687760D01*
X116413475Y-96513368D01*
X116206632Y-96306525D01*
X115963411Y-96144010D01*
X115693158Y-96032068D01*
X115406260Y-95975000D01*
X115113740Y-95975000D01*
X114826842Y-96032068D01*
X114556589Y-96144010D01*
X114313368Y-96306525D01*
X114106525Y-96513368D01*
X113990000Y-96687760D01*
X113873475Y-96513368D01*
X113666632Y-96306525D01*
X113423411Y-96144010D01*
X113153158Y-96032068D01*
X112866260Y-95975000D01*
X112573740Y-95975000D01*
X112286842Y-96032068D01*
X112016589Y-96144010D01*
X111773368Y-96306525D01*
X111566525Y-96513368D01*
X111450000Y-96687760D01*
X111333475Y-96513368D01*
X111126632Y-96306525D01*
X110883411Y-96144010D01*
X110613158Y-96032068D01*
X110326260Y-95975000D01*
X110033740Y-95975000D01*
X109746842Y-96032068D01*
X109476589Y-96144010D01*
X109233368Y-96306525D01*
X109026525Y-96513368D01*
X108910000Y-96687760D01*
X108793475Y-96513368D01*
X108586632Y-96306525D01*
X108400000Y-96181822D01*
X108400000Y-89781711D01*
X108443937Y-89737774D01*
X108557205Y-89568256D01*
X108635226Y-89379898D01*
X108675000Y-89179939D01*
X108675000Y-88976061D01*
X108635226Y-88776102D01*
X108557205Y-88587744D01*
X108443937Y-88418226D01*
X108299774Y-88274063D01*
X108130256Y-88160795D01*
X107941898Y-88082774D01*
X107741939Y-88043000D01*
X107538061Y-88043000D01*
X107338102Y-88082774D01*
X107149744Y-88160795D01*
X106980226Y-88274063D01*
X106836063Y-88418226D01*
X106722795Y-88587744D01*
X106644774Y-88776102D01*
X106605000Y-88976061D01*
X106605000Y-89179939D01*
X106644774Y-89379898D01*
X106722795Y-89568256D01*
X106836063Y-89737774D01*
X106880001Y-89781712D01*
X106880000Y-96181821D01*
X106693368Y-96306525D01*
X106561513Y-96438380D01*
X106539502Y-96365820D01*
X106480537Y-96255506D01*
X106401185Y-96158815D01*
X106304494Y-96079463D01*
X106194180Y-96020498D01*
X106074482Y-95984188D01*
X105950000Y-95971928D01*
X105860000Y-95971928D01*
X105860000Y-88765711D01*
X105903937Y-88721774D01*
X106017205Y-88552256D01*
X106095226Y-88363898D01*
X106135000Y-88163939D01*
X106135000Y-87960061D01*
X106095226Y-87760102D01*
X106017205Y-87571744D01*
X105903937Y-87402226D01*
X105759774Y-87258063D01*
X105590256Y-87144795D01*
X105401898Y-87066774D01*
X105297459Y-87046000D01*
X105401898Y-87025226D01*
X105547145Y-86965062D01*
X105551595Y-86973387D01*
X105662038Y-87107962D01*
X105796613Y-87218405D01*
X105950149Y-87300472D01*
X106116745Y-87351008D01*
X106289999Y-87368072D01*
X106940001Y-87368072D01*
X107113255Y-87351008D01*
X107279851Y-87300472D01*
X107433387Y-87218405D01*
X107567962Y-87107962D01*
X107640000Y-87020184D01*
X107712038Y-87107962D01*
X107846613Y-87218405D01*
X108000149Y-87300472D01*
X108166745Y-87351008D01*
X108339999Y-87368072D01*
X108990001Y-87368072D01*
X109163255Y-87351008D01*
X109329851Y-87300472D01*
X109483387Y-87218405D01*
X109617962Y-87107962D01*
X109728405Y-86973387D01*
X109810472Y-86819851D01*
X109819527Y-86790000D01*
X113080473Y-86790000D01*
X113089528Y-86819851D01*
X113171595Y-86973387D01*
X113282038Y-87107962D01*
X113416613Y-87218405D01*
X113570149Y-87300472D01*
X113736745Y-87351008D01*
X113909999Y-87368072D01*
X114560001Y-87368072D01*
X114733255Y-87351008D01*
X114899851Y-87300472D01*
X115053387Y-87218405D01*
X115187962Y-87107962D01*
X115193342Y-87101406D01*
X115258815Y-87181185D01*
X115355506Y-87260537D01*
X115465820Y-87319502D01*
X115585518Y-87355812D01*
X115710000Y-87368072D01*
X115999250Y-87365000D01*
X116158000Y-87206250D01*
X116158000Y-86157000D01*
X116412000Y-86157000D01*
X116412000Y-87206250D01*
X116570750Y-87365000D01*
X116860000Y-87368072D01*
X116984482Y-87355812D01*
X117104180Y-87319502D01*
X117214494Y-87260537D01*
X117311185Y-87181185D01*
X117390537Y-87084494D01*
X117449502Y-86974180D01*
X117485812Y-86854482D01*
X117498072Y-86730000D01*
X117495000Y-86315750D01*
X117336250Y-86157000D01*
X116412000Y-86157000D01*
X116158000Y-86157000D01*
X116138000Y-86157000D01*
X116138000Y-85903000D01*
X116158000Y-85903000D01*
X116158000Y-84853750D01*
X116412000Y-84853750D01*
X116412000Y-85903000D01*
X117336250Y-85903000D01*
X117495000Y-85744250D01*
X117498072Y-85330000D01*
X117485812Y-85205518D01*
X117449502Y-85085820D01*
X117390537Y-84975506D01*
X117311185Y-84878815D01*
X117214494Y-84799463D01*
X117104180Y-84740498D01*
X116984482Y-84704188D01*
X116860000Y-84691928D01*
X116570750Y-84695000D01*
X116412000Y-84853750D01*
X116158000Y-84853750D01*
X115999250Y-84695000D01*
X115710000Y-84691928D01*
X115585518Y-84704188D01*
X115465820Y-84740498D01*
X115355506Y-84799463D01*
X115258815Y-84878815D01*
X115193342Y-84958594D01*
X115187962Y-84952038D01*
X115053387Y-84841595D01*
X114899851Y-84759528D01*
X114733255Y-84708992D01*
X114560001Y-84691928D01*
X113909999Y-84691928D01*
X113736745Y-84708992D01*
X113570149Y-84759528D01*
X113416613Y-84841595D01*
X113282038Y-84952038D01*
X113171595Y-85086613D01*
X113089528Y-85240149D01*
X113080473Y-85270000D01*
X109819527Y-85270000D01*
X109810472Y-85240149D01*
X109728405Y-85086613D01*
X109617962Y-84952038D01*
X109483387Y-84841595D01*
X109329851Y-84759528D01*
X109163255Y-84708992D01*
X108990001Y-84691928D01*
X108339999Y-84691928D01*
X108166745Y-84708992D01*
X108000149Y-84759528D01*
X107846613Y-84841595D01*
X107712038Y-84952038D01*
X107640000Y-85039816D01*
X107567962Y-84952038D01*
X107433387Y-84841595D01*
X107279851Y-84759528D01*
X107113255Y-84708992D01*
X106940001Y-84691928D01*
X106289999Y-84691928D01*
X106116745Y-84708992D01*
X105950149Y-84759528D01*
X105796613Y-84841595D01*
X105662038Y-84952038D01*
X105551595Y-85086613D01*
X105547145Y-85094938D01*
X105401898Y-85034774D01*
X105201939Y-84995000D01*
X104998061Y-84995000D01*
X104798102Y-85034774D01*
X104609744Y-85112795D01*
X104440226Y-85226063D01*
X104296063Y-85370226D01*
X104182795Y-85539744D01*
X104104774Y-85728102D01*
X104065000Y-85928061D01*
X104065000Y-86131939D01*
X104104774Y-86331898D01*
X104182795Y-86520256D01*
X104296063Y-86689774D01*
X104440226Y-86833937D01*
X104609744Y-86947205D01*
X104798102Y-87025226D01*
X104902541Y-87046000D01*
X104798102Y-87066774D01*
X104609744Y-87144795D01*
X104440226Y-87258063D01*
X104296063Y-87402226D01*
X104182795Y-87571744D01*
X104104774Y-87760102D01*
X104065000Y-87960061D01*
X104065000Y-88163939D01*
X104104774Y-88363898D01*
X104182795Y-88552256D01*
X104296063Y-88721774D01*
X104340000Y-88765711D01*
X104340001Y-95971928D01*
X104250000Y-95971928D01*
X104125518Y-95984188D01*
X104005820Y-96020498D01*
X103895506Y-96079463D01*
X103798815Y-96158815D01*
X103719463Y-96255506D01*
X103660498Y-96365820D01*
X103624188Y-96485518D01*
X103611928Y-96610000D01*
X100660000Y-96610000D01*
X100660000Y-83388061D01*
X146991000Y-83388061D01*
X146991000Y-83591939D01*
X147030774Y-83791898D01*
X147108795Y-83980256D01*
X147222063Y-84149774D01*
X147366226Y-84293937D01*
X147535744Y-84407205D01*
X147724102Y-84485226D01*
X147924061Y-84525000D01*
X148127939Y-84525000D01*
X148327898Y-84485226D01*
X148516256Y-84407205D01*
X148664614Y-84308075D01*
X148731595Y-84433387D01*
X148842038Y-84567962D01*
X148976613Y-84678405D01*
X149129266Y-84760000D01*
X148976613Y-84841595D01*
X148842038Y-84952038D01*
X148731595Y-85086613D01*
X148664614Y-85211925D01*
X148516256Y-85112795D01*
X148327898Y-85034774D01*
X148127939Y-84995000D01*
X147924061Y-84995000D01*
X147724102Y-85034774D01*
X147535744Y-85112795D01*
X147366226Y-85226063D01*
X147222063Y-85370226D01*
X147108795Y-85539744D01*
X147030774Y-85728102D01*
X146991000Y-85928061D01*
X146991000Y-86131939D01*
X147030774Y-86331898D01*
X147108795Y-86520256D01*
X147222063Y-86689774D01*
X147366226Y-86833937D01*
X147535744Y-86947205D01*
X147724102Y-87025226D01*
X147924061Y-87065000D01*
X148127939Y-87065000D01*
X148327898Y-87025226D01*
X148516256Y-86947205D01*
X148664614Y-86848075D01*
X148731595Y-86973387D01*
X148842038Y-87107962D01*
X148976613Y-87218405D01*
X149129266Y-87300000D01*
X148976613Y-87381595D01*
X148842038Y-87492038D01*
X148731595Y-87626613D01*
X148664614Y-87751925D01*
X148516256Y-87652795D01*
X148327898Y-87574774D01*
X148127939Y-87535000D01*
X147924061Y-87535000D01*
X147724102Y-87574774D01*
X147535744Y-87652795D01*
X147366226Y-87766063D01*
X147222063Y-87910226D01*
X147108795Y-88079744D01*
X147030774Y-88268102D01*
X146991000Y-88468061D01*
X146991000Y-88671939D01*
X147030774Y-88871898D01*
X147108795Y-89060256D01*
X147222063Y-89229774D01*
X147366226Y-89373937D01*
X147535744Y-89487205D01*
X147724102Y-89565226D01*
X147924061Y-89605000D01*
X148127939Y-89605000D01*
X148327898Y-89565226D01*
X148516256Y-89487205D01*
X148664614Y-89388075D01*
X148731595Y-89513387D01*
X148842038Y-89647962D01*
X148976613Y-89758405D01*
X149129266Y-89840000D01*
X148976613Y-89921595D01*
X148842038Y-90032038D01*
X148731595Y-90166613D01*
X148664614Y-90291925D01*
X148516256Y-90192795D01*
X148327898Y-90114774D01*
X148127939Y-90075000D01*
X147924061Y-90075000D01*
X147724102Y-90114774D01*
X147535744Y-90192795D01*
X147366226Y-90306063D01*
X147222063Y-90450226D01*
X147108795Y-90619744D01*
X147030774Y-90808102D01*
X146991000Y-91008061D01*
X146991000Y-91211939D01*
X147030774Y-91411898D01*
X147108795Y-91600256D01*
X147222063Y-91769774D01*
X147366226Y-91913937D01*
X147535744Y-92027205D01*
X147724102Y-92105226D01*
X147924061Y-92145000D01*
X148127939Y-92145000D01*
X148327898Y-92105226D01*
X148516256Y-92027205D01*
X148664614Y-91928075D01*
X148731595Y-92053387D01*
X148842038Y-92187962D01*
X148976613Y-92298405D01*
X149130149Y-92380472D01*
X149296745Y-92431008D01*
X149469999Y-92448072D01*
X150120001Y-92448072D01*
X150293255Y-92431008D01*
X150459851Y-92380472D01*
X150613387Y-92298405D01*
X150747962Y-92187962D01*
X150820000Y-92100184D01*
X150892038Y-92187962D01*
X151026613Y-92298405D01*
X151180149Y-92380472D01*
X151346745Y-92431008D01*
X151519999Y-92448072D01*
X152170001Y-92448072D01*
X152343255Y-92431008D01*
X152509851Y-92380472D01*
X152663387Y-92298405D01*
X152797962Y-92187962D01*
X152908405Y-92053387D01*
X152990472Y-91899851D01*
X152999527Y-91870000D01*
X155504091Y-91870000D01*
X155586201Y-91992886D01*
X155779114Y-92185799D01*
X156005957Y-92337371D01*
X156258011Y-92441775D01*
X156525589Y-92495000D01*
X156798411Y-92495000D01*
X157065989Y-92441775D01*
X157318043Y-92337371D01*
X157544886Y-92185799D01*
X157737799Y-91992886D01*
X157819909Y-91870000D01*
X160971822Y-91870000D01*
X161096525Y-92056632D01*
X161303368Y-92263475D01*
X161546589Y-92425990D01*
X161816842Y-92537932D01*
X162103740Y-92595000D01*
X162396260Y-92595000D01*
X162683158Y-92537932D01*
X162953411Y-92425990D01*
X163196632Y-92263475D01*
X163403475Y-92056632D01*
X163565990Y-91813411D01*
X163677932Y-91543158D01*
X163735000Y-91256260D01*
X163735000Y-90963740D01*
X163677932Y-90676842D01*
X163565990Y-90406589D01*
X163403475Y-90163368D01*
X163196632Y-89956525D01*
X163022240Y-89840000D01*
X163196632Y-89723475D01*
X163403475Y-89516632D01*
X163565990Y-89273411D01*
X163677932Y-89003158D01*
X163735000Y-88716260D01*
X163735000Y-88423740D01*
X163677932Y-88136842D01*
X163565990Y-87866589D01*
X163403475Y-87623368D01*
X163196632Y-87416525D01*
X163022240Y-87300000D01*
X163196632Y-87183475D01*
X163403475Y-86976632D01*
X163565990Y-86733411D01*
X163677932Y-86463158D01*
X163735000Y-86176260D01*
X163735000Y-85883740D01*
X163677932Y-85596842D01*
X163565990Y-85326589D01*
X163403475Y-85083368D01*
X163271620Y-84951513D01*
X163344180Y-84929502D01*
X163454494Y-84870537D01*
X163551185Y-84791185D01*
X163630537Y-84694494D01*
X163689502Y-84584180D01*
X163725812Y-84464482D01*
X163738072Y-84340000D01*
X163738072Y-82640000D01*
X163725812Y-82515518D01*
X163689502Y-82395820D01*
X163630537Y-82285506D01*
X163551185Y-82188815D01*
X163454494Y-82109463D01*
X163344180Y-82050498D01*
X163224482Y-82014188D01*
X163100000Y-82001928D01*
X161400000Y-82001928D01*
X161275518Y-82014188D01*
X161155820Y-82050498D01*
X161045506Y-82109463D01*
X160948815Y-82188815D01*
X160869463Y-82285506D01*
X160810498Y-82395820D01*
X160774188Y-82515518D01*
X160761928Y-82640000D01*
X160761928Y-82730000D01*
X157819909Y-82730000D01*
X157737799Y-82607114D01*
X157544886Y-82414201D01*
X157318043Y-82262629D01*
X157065989Y-82158225D01*
X156798411Y-82105000D01*
X156525589Y-82105000D01*
X156258011Y-82158225D01*
X156005957Y-82262629D01*
X155779114Y-82414201D01*
X155586201Y-82607114D01*
X155504091Y-82730000D01*
X152999527Y-82730000D01*
X152990472Y-82700149D01*
X152908405Y-82546613D01*
X152797962Y-82412038D01*
X152663387Y-82301595D01*
X152509851Y-82219528D01*
X152343255Y-82168992D01*
X152170001Y-82151928D01*
X151519999Y-82151928D01*
X151346745Y-82168992D01*
X151180149Y-82219528D01*
X151026613Y-82301595D01*
X150892038Y-82412038D01*
X150820000Y-82499816D01*
X150747962Y-82412038D01*
X150613387Y-82301595D01*
X150459851Y-82219528D01*
X150293255Y-82168992D01*
X150120001Y-82151928D01*
X149469999Y-82151928D01*
X149296745Y-82168992D01*
X149130149Y-82219528D01*
X148976613Y-82301595D01*
X148842038Y-82412038D01*
X148731595Y-82546613D01*
X148664614Y-82671925D01*
X148516256Y-82572795D01*
X148327898Y-82494774D01*
X148127939Y-82455000D01*
X147924061Y-82455000D01*
X147724102Y-82494774D01*
X147535744Y-82572795D01*
X147366226Y-82686063D01*
X147222063Y-82830226D01*
X147108795Y-82999744D01*
X147030774Y-83188102D01*
X146991000Y-83388061D01*
X100660000Y-83388061D01*
X100660000Y-80848061D01*
X104065000Y-80848061D01*
X104065000Y-81051939D01*
X104104774Y-81251898D01*
X104182795Y-81440256D01*
X104296063Y-81609774D01*
X104440226Y-81753937D01*
X104609744Y-81867205D01*
X104798102Y-81945226D01*
X104998061Y-81985000D01*
X105201939Y-81985000D01*
X105401898Y-81945226D01*
X105547145Y-81885062D01*
X105551595Y-81893387D01*
X105662038Y-82027962D01*
X105796613Y-82138405D01*
X105950149Y-82220472D01*
X106116745Y-82271008D01*
X106289999Y-82288072D01*
X106940001Y-82288072D01*
X107113255Y-82271008D01*
X107279851Y-82220472D01*
X107433387Y-82138405D01*
X107567962Y-82027962D01*
X107640000Y-81940184D01*
X107712038Y-82027962D01*
X107846613Y-82138405D01*
X108000149Y-82220472D01*
X108166745Y-82271008D01*
X108339999Y-82288072D01*
X108990001Y-82288072D01*
X109163255Y-82271008D01*
X109329851Y-82220472D01*
X109483387Y-82138405D01*
X109617962Y-82027962D01*
X109728405Y-81893387D01*
X109810472Y-81739851D01*
X109819527Y-81710000D01*
X113080473Y-81710000D01*
X113089528Y-81739851D01*
X113171595Y-81893387D01*
X113282038Y-82027962D01*
X113416613Y-82138405D01*
X113570149Y-82220472D01*
X113736745Y-82271008D01*
X113909999Y-82288072D01*
X114560001Y-82288072D01*
X114733255Y-82271008D01*
X114899851Y-82220472D01*
X115053387Y-82138405D01*
X115187962Y-82027962D01*
X115193342Y-82021406D01*
X115258815Y-82101185D01*
X115355506Y-82180537D01*
X115465820Y-82239502D01*
X115585518Y-82275812D01*
X115710000Y-82288072D01*
X115999250Y-82285000D01*
X116158000Y-82126250D01*
X116158000Y-81077000D01*
X116412000Y-81077000D01*
X116412000Y-82126250D01*
X116570750Y-82285000D01*
X116860000Y-82288072D01*
X116984482Y-82275812D01*
X117104180Y-82239502D01*
X117214494Y-82180537D01*
X117311185Y-82101185D01*
X117390537Y-82004494D01*
X117449502Y-81894180D01*
X117485812Y-81774482D01*
X117498072Y-81650000D01*
X117495000Y-81235750D01*
X117336250Y-81077000D01*
X116412000Y-81077000D01*
X116158000Y-81077000D01*
X116138000Y-81077000D01*
X116138000Y-80823000D01*
X116158000Y-80823000D01*
X116158000Y-79773750D01*
X116412000Y-79773750D01*
X116412000Y-80823000D01*
X117336250Y-80823000D01*
X117495000Y-80664250D01*
X117498072Y-80250000D01*
X117485812Y-80125518D01*
X117449502Y-80005820D01*
X117390537Y-79895506D01*
X117311185Y-79798815D01*
X117214494Y-79719463D01*
X117104180Y-79660498D01*
X116984482Y-79624188D01*
X116860000Y-79611928D01*
X116570750Y-79615000D01*
X116412000Y-79773750D01*
X116158000Y-79773750D01*
X115999250Y-79615000D01*
X115710000Y-79611928D01*
X115585518Y-79624188D01*
X115465820Y-79660498D01*
X115355506Y-79719463D01*
X115258815Y-79798815D01*
X115193342Y-79878594D01*
X115187962Y-79872038D01*
X115053387Y-79761595D01*
X114899851Y-79679528D01*
X114733255Y-79628992D01*
X114560001Y-79611928D01*
X113909999Y-79611928D01*
X113736745Y-79628992D01*
X113570149Y-79679528D01*
X113416613Y-79761595D01*
X113282038Y-79872038D01*
X113171595Y-80006613D01*
X113089528Y-80160149D01*
X113080473Y-80190000D01*
X109819527Y-80190000D01*
X109810472Y-80160149D01*
X109728405Y-80006613D01*
X109617962Y-79872038D01*
X109483387Y-79761595D01*
X109329851Y-79679528D01*
X109163255Y-79628992D01*
X108990001Y-79611928D01*
X108339999Y-79611928D01*
X108166745Y-79628992D01*
X108000149Y-79679528D01*
X107846613Y-79761595D01*
X107712038Y-79872038D01*
X107640000Y-79959816D01*
X107567962Y-79872038D01*
X107433387Y-79761595D01*
X107279851Y-79679528D01*
X107113255Y-79628992D01*
X106940001Y-79611928D01*
X106289999Y-79611928D01*
X106116745Y-79628992D01*
X105950149Y-79679528D01*
X105796613Y-79761595D01*
X105662038Y-79872038D01*
X105551595Y-80006613D01*
X105547145Y-80014938D01*
X105401898Y-79954774D01*
X105201939Y-79915000D01*
X104998061Y-79915000D01*
X104798102Y-79954774D01*
X104609744Y-80032795D01*
X104440226Y-80146063D01*
X104296063Y-80290226D01*
X104182795Y-80459744D01*
X104104774Y-80648102D01*
X104065000Y-80848061D01*
X100660000Y-80848061D01*
X100660000Y-75768061D01*
X104065000Y-75768061D01*
X104065000Y-75971939D01*
X104104774Y-76171898D01*
X104182795Y-76360256D01*
X104296063Y-76529774D01*
X104440226Y-76673937D01*
X104609744Y-76787205D01*
X104798102Y-76865226D01*
X104998061Y-76905000D01*
X105201939Y-76905000D01*
X105401898Y-76865226D01*
X105547145Y-76805062D01*
X105551595Y-76813387D01*
X105662038Y-76947962D01*
X105796613Y-77058405D01*
X105950149Y-77140472D01*
X106116745Y-77191008D01*
X106289999Y-77208072D01*
X106940001Y-77208072D01*
X107113255Y-77191008D01*
X107279851Y-77140472D01*
X107433387Y-77058405D01*
X107567962Y-76947962D01*
X107640000Y-76860184D01*
X107712038Y-76947962D01*
X107846613Y-77058405D01*
X108000149Y-77140472D01*
X108166745Y-77191008D01*
X108339999Y-77208072D01*
X108990001Y-77208072D01*
X109163255Y-77191008D01*
X109329851Y-77140472D01*
X109483387Y-77058405D01*
X109617962Y-76947962D01*
X109728405Y-76813387D01*
X109810472Y-76659851D01*
X109819527Y-76630000D01*
X113080473Y-76630000D01*
X113089528Y-76659851D01*
X113171595Y-76813387D01*
X113282038Y-76947962D01*
X113416613Y-77058405D01*
X113570149Y-77140472D01*
X113736745Y-77191008D01*
X113909999Y-77208072D01*
X114560001Y-77208072D01*
X114733255Y-77191008D01*
X114899851Y-77140472D01*
X115053387Y-77058405D01*
X115187962Y-76947962D01*
X115193342Y-76941406D01*
X115258815Y-77021185D01*
X115355506Y-77100537D01*
X115465820Y-77159502D01*
X115585518Y-77195812D01*
X115710000Y-77208072D01*
X115999250Y-77205000D01*
X116158000Y-77046250D01*
X116158000Y-75997000D01*
X116412000Y-75997000D01*
X116412000Y-77046250D01*
X116570750Y-77205000D01*
X116860000Y-77208072D01*
X116984482Y-77195812D01*
X117104180Y-77159502D01*
X117214494Y-77100537D01*
X117311185Y-77021185D01*
X117390537Y-76924494D01*
X117449502Y-76814180D01*
X117485812Y-76694482D01*
X117498072Y-76570000D01*
X117495000Y-76155750D01*
X117336250Y-75997000D01*
X116412000Y-75997000D01*
X116158000Y-75997000D01*
X116138000Y-75997000D01*
X116138000Y-75743000D01*
X116158000Y-75743000D01*
X116158000Y-74693750D01*
X116412000Y-74693750D01*
X116412000Y-75743000D01*
X117336250Y-75743000D01*
X117495000Y-75584250D01*
X117498072Y-75170000D01*
X117485812Y-75045518D01*
X117449502Y-74925820D01*
X117390537Y-74815506D01*
X117311185Y-74718815D01*
X117214494Y-74639463D01*
X117104180Y-74580498D01*
X116984482Y-74544188D01*
X116860000Y-74531928D01*
X116570750Y-74535000D01*
X116412000Y-74693750D01*
X116158000Y-74693750D01*
X115999250Y-74535000D01*
X115710000Y-74531928D01*
X115585518Y-74544188D01*
X115465820Y-74580498D01*
X115355506Y-74639463D01*
X115258815Y-74718815D01*
X115193342Y-74798594D01*
X115187962Y-74792038D01*
X115053387Y-74681595D01*
X114899851Y-74599528D01*
X114733255Y-74548992D01*
X114560001Y-74531928D01*
X113909999Y-74531928D01*
X113736745Y-74548992D01*
X113570149Y-74599528D01*
X113416613Y-74681595D01*
X113282038Y-74792038D01*
X113171595Y-74926613D01*
X113089528Y-75080149D01*
X113080473Y-75110000D01*
X109819527Y-75110000D01*
X109810472Y-75080149D01*
X109728405Y-74926613D01*
X109617962Y-74792038D01*
X109483387Y-74681595D01*
X109329851Y-74599528D01*
X109163255Y-74548992D01*
X108990001Y-74531928D01*
X108339999Y-74531928D01*
X108166745Y-74548992D01*
X108000149Y-74599528D01*
X107846613Y-74681595D01*
X107712038Y-74792038D01*
X107640000Y-74879816D01*
X107567962Y-74792038D01*
X107433387Y-74681595D01*
X107279851Y-74599528D01*
X107113255Y-74548992D01*
X106940001Y-74531928D01*
X106289999Y-74531928D01*
X106116745Y-74548992D01*
X105950149Y-74599528D01*
X105796613Y-74681595D01*
X105662038Y-74792038D01*
X105551595Y-74926613D01*
X105547145Y-74934938D01*
X105401898Y-74874774D01*
X105201939Y-74835000D01*
X104998061Y-74835000D01*
X104798102Y-74874774D01*
X104609744Y-74952795D01*
X104440226Y-75066063D01*
X104296063Y-75210226D01*
X104182795Y-75379744D01*
X104104774Y-75568102D01*
X104065000Y-75768061D01*
X100660000Y-75768061D01*
X100660000Y-71704061D01*
X146991000Y-71704061D01*
X146991000Y-71907939D01*
X147030774Y-72107898D01*
X147108795Y-72296256D01*
X147222063Y-72465774D01*
X147366226Y-72609937D01*
X147535744Y-72723205D01*
X147724102Y-72801226D01*
X147924061Y-72841000D01*
X148127939Y-72841000D01*
X148327898Y-72801226D01*
X148516256Y-72723205D01*
X148664614Y-72624075D01*
X148731595Y-72749387D01*
X148842038Y-72883962D01*
X148976613Y-72994405D01*
X149129266Y-73076000D01*
X148976613Y-73157595D01*
X148842038Y-73268038D01*
X148731595Y-73402613D01*
X148664614Y-73527925D01*
X148516256Y-73428795D01*
X148327898Y-73350774D01*
X148127939Y-73311000D01*
X147924061Y-73311000D01*
X147724102Y-73350774D01*
X147535744Y-73428795D01*
X147366226Y-73542063D01*
X147222063Y-73686226D01*
X147108795Y-73855744D01*
X147030774Y-74044102D01*
X146991000Y-74244061D01*
X146991000Y-74447939D01*
X147030774Y-74647898D01*
X147108795Y-74836256D01*
X147222063Y-75005774D01*
X147366226Y-75149937D01*
X147535744Y-75263205D01*
X147724102Y-75341226D01*
X147924061Y-75381000D01*
X148127939Y-75381000D01*
X148327898Y-75341226D01*
X148516256Y-75263205D01*
X148664614Y-75164075D01*
X148731595Y-75289387D01*
X148842038Y-75423962D01*
X148976613Y-75534405D01*
X149130149Y-75616472D01*
X149296745Y-75667008D01*
X149469999Y-75684072D01*
X150120001Y-75684072D01*
X150293255Y-75667008D01*
X150459851Y-75616472D01*
X150613387Y-75534405D01*
X150747962Y-75423962D01*
X150820000Y-75336184D01*
X150892038Y-75423962D01*
X151026613Y-75534405D01*
X151180149Y-75616472D01*
X151346745Y-75667008D01*
X151519999Y-75684072D01*
X152170001Y-75684072D01*
X152343255Y-75667008D01*
X152509851Y-75616472D01*
X152663387Y-75534405D01*
X152797962Y-75423962D01*
X152908405Y-75289387D01*
X152990472Y-75135851D01*
X152999527Y-75106000D01*
X155504091Y-75106000D01*
X155586201Y-75228886D01*
X155779114Y-75421799D01*
X156005957Y-75573371D01*
X156258011Y-75677775D01*
X156525589Y-75731000D01*
X156798411Y-75731000D01*
X157065989Y-75677775D01*
X157318043Y-75573371D01*
X157544886Y-75421799D01*
X157737799Y-75228886D01*
X157819909Y-75106000D01*
X160971822Y-75106000D01*
X161096525Y-75292632D01*
X161303368Y-75499475D01*
X161546589Y-75661990D01*
X161816842Y-75773932D01*
X162103740Y-75831000D01*
X162396260Y-75831000D01*
X162683158Y-75773932D01*
X162953411Y-75661990D01*
X163196632Y-75499475D01*
X163403475Y-75292632D01*
X163565990Y-75049411D01*
X163677932Y-74779158D01*
X163735000Y-74492260D01*
X163735000Y-74199740D01*
X163677932Y-73912842D01*
X163565990Y-73642589D01*
X163403475Y-73399368D01*
X163271620Y-73267513D01*
X163344180Y-73245502D01*
X163454494Y-73186537D01*
X163551185Y-73107185D01*
X163630537Y-73010494D01*
X163689502Y-72900180D01*
X163725812Y-72780482D01*
X163738072Y-72656000D01*
X163738072Y-70956000D01*
X163725812Y-70831518D01*
X163689502Y-70711820D01*
X163630537Y-70601506D01*
X163551185Y-70504815D01*
X163454494Y-70425463D01*
X163344180Y-70366498D01*
X163224482Y-70330188D01*
X163100000Y-70317928D01*
X161400000Y-70317928D01*
X161275518Y-70330188D01*
X161155820Y-70366498D01*
X161045506Y-70425463D01*
X160948815Y-70504815D01*
X160869463Y-70601506D01*
X160810498Y-70711820D01*
X160774188Y-70831518D01*
X160761928Y-70956000D01*
X160761928Y-71046000D01*
X157819909Y-71046000D01*
X157737799Y-70923114D01*
X157544886Y-70730201D01*
X157318043Y-70578629D01*
X157065989Y-70474225D01*
X156798411Y-70421000D01*
X156525589Y-70421000D01*
X156258011Y-70474225D01*
X156005957Y-70578629D01*
X155779114Y-70730201D01*
X155586201Y-70923114D01*
X155504091Y-71046000D01*
X152999527Y-71046000D01*
X152990472Y-71016149D01*
X152908405Y-70862613D01*
X152797962Y-70728038D01*
X152663387Y-70617595D01*
X152509851Y-70535528D01*
X152343255Y-70484992D01*
X152170001Y-70467928D01*
X151519999Y-70467928D01*
X151346745Y-70484992D01*
X151180149Y-70535528D01*
X151026613Y-70617595D01*
X150892038Y-70728038D01*
X150820000Y-70815816D01*
X150747962Y-70728038D01*
X150613387Y-70617595D01*
X150459851Y-70535528D01*
X150293255Y-70484992D01*
X150120001Y-70467928D01*
X149469999Y-70467928D01*
X149296745Y-70484992D01*
X149130149Y-70535528D01*
X148976613Y-70617595D01*
X148842038Y-70728038D01*
X148731595Y-70862613D01*
X148664614Y-70987925D01*
X148516256Y-70888795D01*
X148327898Y-70810774D01*
X148127939Y-70771000D01*
X147924061Y-70771000D01*
X147724102Y-70810774D01*
X147535744Y-70888795D01*
X147366226Y-71002063D01*
X147222063Y-71146226D01*
X147108795Y-71315744D01*
X147030774Y-71504102D01*
X146991000Y-71704061D01*
X100660000Y-71704061D01*
X100660000Y-62560061D01*
X103811000Y-62560061D01*
X103811000Y-62763939D01*
X103850774Y-62963898D01*
X103928795Y-63152256D01*
X104042063Y-63321774D01*
X104186226Y-63465937D01*
X104355744Y-63579205D01*
X104544102Y-63657226D01*
X104744061Y-63697000D01*
X104947939Y-63697000D01*
X105147898Y-63657226D01*
X105336256Y-63579205D01*
X105484614Y-63480075D01*
X105551595Y-63605387D01*
X105662038Y-63739962D01*
X105796613Y-63850405D01*
X105950149Y-63932472D01*
X106116745Y-63983008D01*
X106289999Y-64000072D01*
X106940001Y-64000072D01*
X107113255Y-63983008D01*
X107279851Y-63932472D01*
X107433387Y-63850405D01*
X107567962Y-63739962D01*
X107640000Y-63652184D01*
X107712038Y-63739962D01*
X107846613Y-63850405D01*
X108000149Y-63932472D01*
X108166745Y-63983008D01*
X108339999Y-64000072D01*
X108990001Y-64000072D01*
X109163255Y-63983008D01*
X109329851Y-63932472D01*
X109483387Y-63850405D01*
X109617962Y-63739962D01*
X109728405Y-63605387D01*
X109810472Y-63451851D01*
X109819527Y-63422000D01*
X113080473Y-63422000D01*
X113089528Y-63451851D01*
X113171595Y-63605387D01*
X113282038Y-63739962D01*
X113416613Y-63850405D01*
X113570149Y-63932472D01*
X113736745Y-63983008D01*
X113909999Y-64000072D01*
X114560001Y-64000072D01*
X114733255Y-63983008D01*
X114899851Y-63932472D01*
X115053387Y-63850405D01*
X115187962Y-63739962D01*
X115193342Y-63733406D01*
X115258815Y-63813185D01*
X115355506Y-63892537D01*
X115465820Y-63951502D01*
X115585518Y-63987812D01*
X115710000Y-64000072D01*
X115999250Y-63997000D01*
X116158000Y-63838250D01*
X116158000Y-62789000D01*
X116412000Y-62789000D01*
X116412000Y-63838250D01*
X116570750Y-63997000D01*
X116860000Y-64000072D01*
X116984482Y-63987812D01*
X117104180Y-63951502D01*
X117214494Y-63892537D01*
X117311185Y-63813185D01*
X117390537Y-63716494D01*
X117449502Y-63606180D01*
X117485812Y-63486482D01*
X117498072Y-63362000D01*
X117495000Y-62947750D01*
X117336250Y-62789000D01*
X116412000Y-62789000D01*
X116158000Y-62789000D01*
X116138000Y-62789000D01*
X116138000Y-62535000D01*
X116158000Y-62535000D01*
X116158000Y-61485750D01*
X116412000Y-61485750D01*
X116412000Y-62535000D01*
X117336250Y-62535000D01*
X117495000Y-62376250D01*
X117498072Y-61962000D01*
X117485812Y-61837518D01*
X117449502Y-61717820D01*
X117390537Y-61607506D01*
X117311185Y-61510815D01*
X117214494Y-61431463D01*
X117104180Y-61372498D01*
X116984482Y-61336188D01*
X116860000Y-61323928D01*
X116570750Y-61327000D01*
X116412000Y-61485750D01*
X116158000Y-61485750D01*
X115999250Y-61327000D01*
X115710000Y-61323928D01*
X115585518Y-61336188D01*
X115465820Y-61372498D01*
X115355506Y-61431463D01*
X115258815Y-61510815D01*
X115193342Y-61590594D01*
X115187962Y-61584038D01*
X115053387Y-61473595D01*
X114899851Y-61391528D01*
X114733255Y-61340992D01*
X114560001Y-61323928D01*
X113909999Y-61323928D01*
X113736745Y-61340992D01*
X113570149Y-61391528D01*
X113416613Y-61473595D01*
X113282038Y-61584038D01*
X113171595Y-61718613D01*
X113089528Y-61872149D01*
X113080473Y-61902000D01*
X109819527Y-61902000D01*
X109810472Y-61872149D01*
X109728405Y-61718613D01*
X109617962Y-61584038D01*
X109483387Y-61473595D01*
X109329851Y-61391528D01*
X109163255Y-61340992D01*
X108990001Y-61323928D01*
X108339999Y-61323928D01*
X108166745Y-61340992D01*
X108000149Y-61391528D01*
X107846613Y-61473595D01*
X107712038Y-61584038D01*
X107640000Y-61671816D01*
X107567962Y-61584038D01*
X107433387Y-61473595D01*
X107279851Y-61391528D01*
X107113255Y-61340992D01*
X106940001Y-61323928D01*
X106289999Y-61323928D01*
X106116745Y-61340992D01*
X105950149Y-61391528D01*
X105796613Y-61473595D01*
X105662038Y-61584038D01*
X105551595Y-61718613D01*
X105484614Y-61843925D01*
X105336256Y-61744795D01*
X105147898Y-61666774D01*
X104947939Y-61627000D01*
X104744061Y-61627000D01*
X104544102Y-61666774D01*
X104355744Y-61744795D01*
X104186226Y-61858063D01*
X104042063Y-62002226D01*
X103928795Y-62171744D01*
X103850774Y-62360102D01*
X103811000Y-62560061D01*
X100660000Y-62560061D01*
X100660000Y-57988061D01*
X103811000Y-57988061D01*
X103811000Y-58191939D01*
X103850774Y-58391898D01*
X103928795Y-58580256D01*
X104042063Y-58749774D01*
X104186226Y-58893937D01*
X104355744Y-59007205D01*
X104544102Y-59085226D01*
X104744061Y-59125000D01*
X104947939Y-59125000D01*
X105147898Y-59085226D01*
X105336256Y-59007205D01*
X105484614Y-58908075D01*
X105551595Y-59033387D01*
X105662038Y-59167962D01*
X105796613Y-59278405D01*
X105950149Y-59360472D01*
X106116745Y-59411008D01*
X106289999Y-59428072D01*
X106940001Y-59428072D01*
X107113255Y-59411008D01*
X107279851Y-59360472D01*
X107433387Y-59278405D01*
X107567962Y-59167962D01*
X107640000Y-59080184D01*
X107712038Y-59167962D01*
X107846613Y-59278405D01*
X108000149Y-59360472D01*
X108166745Y-59411008D01*
X108339999Y-59428072D01*
X108990001Y-59428072D01*
X109163255Y-59411008D01*
X109329851Y-59360472D01*
X109483387Y-59278405D01*
X109617962Y-59167962D01*
X109728405Y-59033387D01*
X109810472Y-58879851D01*
X109819527Y-58850000D01*
X113080473Y-58850000D01*
X113089528Y-58879851D01*
X113171595Y-59033387D01*
X113282038Y-59167962D01*
X113416613Y-59278405D01*
X113570149Y-59360472D01*
X113736745Y-59411008D01*
X113909999Y-59428072D01*
X114560001Y-59428072D01*
X114733255Y-59411008D01*
X114899851Y-59360472D01*
X115053387Y-59278405D01*
X115187962Y-59167962D01*
X115193342Y-59161406D01*
X115258815Y-59241185D01*
X115355506Y-59320537D01*
X115465820Y-59379502D01*
X115585518Y-59415812D01*
X115710000Y-59428072D01*
X115999250Y-59425000D01*
X116158000Y-59266250D01*
X116158000Y-58217000D01*
X116412000Y-58217000D01*
X116412000Y-59266250D01*
X116570750Y-59425000D01*
X116860000Y-59428072D01*
X116984482Y-59415812D01*
X117104180Y-59379502D01*
X117214494Y-59320537D01*
X117311185Y-59241185D01*
X117390537Y-59144494D01*
X117449502Y-59034180D01*
X117485812Y-58914482D01*
X117498072Y-58790000D01*
X117495000Y-58375750D01*
X117336250Y-58217000D01*
X116412000Y-58217000D01*
X116158000Y-58217000D01*
X116138000Y-58217000D01*
X116138000Y-57963000D01*
X116158000Y-57963000D01*
X116158000Y-56913750D01*
X116412000Y-56913750D01*
X116412000Y-57963000D01*
X117336250Y-57963000D01*
X117495000Y-57804250D01*
X117498072Y-57390000D01*
X117485812Y-57265518D01*
X117449502Y-57145820D01*
X117390537Y-57035506D01*
X117311185Y-56938815D01*
X117214494Y-56859463D01*
X117104180Y-56800498D01*
X116984482Y-56764188D01*
X116860000Y-56751928D01*
X116570750Y-56755000D01*
X116412000Y-56913750D01*
X116158000Y-56913750D01*
X115999250Y-56755000D01*
X115710000Y-56751928D01*
X115585518Y-56764188D01*
X115465820Y-56800498D01*
X115355506Y-56859463D01*
X115258815Y-56938815D01*
X115193342Y-57018594D01*
X115187962Y-57012038D01*
X115053387Y-56901595D01*
X114899851Y-56819528D01*
X114733255Y-56768992D01*
X114560001Y-56751928D01*
X113909999Y-56751928D01*
X113736745Y-56768992D01*
X113570149Y-56819528D01*
X113416613Y-56901595D01*
X113282038Y-57012038D01*
X113171595Y-57146613D01*
X113089528Y-57300149D01*
X113080473Y-57330000D01*
X109819527Y-57330000D01*
X109810472Y-57300149D01*
X109728405Y-57146613D01*
X109617962Y-57012038D01*
X109483387Y-56901595D01*
X109329851Y-56819528D01*
X109163255Y-56768992D01*
X108990001Y-56751928D01*
X108339999Y-56751928D01*
X108166745Y-56768992D01*
X108000149Y-56819528D01*
X107846613Y-56901595D01*
X107712038Y-57012038D01*
X107640000Y-57099816D01*
X107567962Y-57012038D01*
X107433387Y-56901595D01*
X107279851Y-56819528D01*
X107113255Y-56768992D01*
X106940001Y-56751928D01*
X106289999Y-56751928D01*
X106116745Y-56768992D01*
X105950149Y-56819528D01*
X105796613Y-56901595D01*
X105662038Y-57012038D01*
X105551595Y-57146613D01*
X105484614Y-57271925D01*
X105336256Y-57172795D01*
X105147898Y-57094774D01*
X104947939Y-57055000D01*
X104744061Y-57055000D01*
X104544102Y-57094774D01*
X104355744Y-57172795D01*
X104186226Y-57286063D01*
X104042063Y-57430226D01*
X103928795Y-57599744D01*
X103850774Y-57788102D01*
X103811000Y-57988061D01*
X100660000Y-57988061D01*
X100660000Y-49053740D01*
X103615000Y-49053740D01*
X103615000Y-49346260D01*
X103672068Y-49633158D01*
X103784010Y-49903411D01*
X103946525Y-50146632D01*
X104153368Y-50353475D01*
X104344088Y-50480910D01*
X104350998Y-50551067D01*
X104364180Y-50594523D01*
X104394454Y-50694327D01*
X104465026Y-50826357D01*
X104536201Y-50913083D01*
X104560000Y-50942082D01*
X104588998Y-50965880D01*
X108160124Y-54537008D01*
X108183918Y-54566001D01*
X108212911Y-54589795D01*
X108212915Y-54589799D01*
X108269487Y-54636226D01*
X108299643Y-54660974D01*
X108431672Y-54731546D01*
X108574933Y-54775003D01*
X108686586Y-54786000D01*
X108686595Y-54786000D01*
X108723918Y-54789676D01*
X108761241Y-54786000D01*
X116588289Y-54786000D01*
X116632226Y-54829937D01*
X116801744Y-54943205D01*
X116990102Y-55021226D01*
X117190061Y-55061000D01*
X117393939Y-55061000D01*
X117593898Y-55021226D01*
X117782256Y-54943205D01*
X117951774Y-54829937D01*
X118095937Y-54685774D01*
X118209205Y-54516256D01*
X118287226Y-54327898D01*
X118327000Y-54127939D01*
X118327000Y-53924061D01*
X118287226Y-53724102D01*
X118209205Y-53535744D01*
X118095937Y-53366226D01*
X117993711Y-53264000D01*
X118095937Y-53161774D01*
X118209205Y-52992256D01*
X118287226Y-52803898D01*
X118327000Y-52603939D01*
X118327000Y-52400061D01*
X118287226Y-52200102D01*
X118209205Y-52011744D01*
X118095937Y-51842226D01*
X117951774Y-51698063D01*
X117782256Y-51584795D01*
X117593898Y-51506774D01*
X117393939Y-51467000D01*
X117190061Y-51467000D01*
X116990102Y-51506774D01*
X116801744Y-51584795D01*
X116632226Y-51698063D01*
X116588289Y-51742000D01*
X111256802Y-51742000D01*
X110199802Y-50685000D01*
X110326260Y-50685000D01*
X110613158Y-50627932D01*
X110883411Y-50515990D01*
X111126632Y-50353475D01*
X111333475Y-50146632D01*
X111450000Y-49972240D01*
X111566525Y-50146632D01*
X111773368Y-50353475D01*
X112016589Y-50515990D01*
X112286842Y-50627932D01*
X112573740Y-50685000D01*
X112866260Y-50685000D01*
X113153158Y-50627932D01*
X113423411Y-50515990D01*
X113666632Y-50353475D01*
X113873475Y-50146632D01*
X113990000Y-49972240D01*
X114106525Y-50146632D01*
X114313368Y-50353475D01*
X114556589Y-50515990D01*
X114826842Y-50627932D01*
X115113740Y-50685000D01*
X115406260Y-50685000D01*
X115693158Y-50627932D01*
X115963411Y-50515990D01*
X116206632Y-50353475D01*
X116338487Y-50221620D01*
X116360498Y-50294180D01*
X116419463Y-50404494D01*
X116498815Y-50501185D01*
X116595506Y-50580537D01*
X116705820Y-50639502D01*
X116825518Y-50675812D01*
X116950000Y-50688072D01*
X118650000Y-50688072D01*
X118774482Y-50675812D01*
X118894180Y-50639502D01*
X119004494Y-50580537D01*
X119101185Y-50501185D01*
X119180537Y-50404494D01*
X119239502Y-50294180D01*
X119275812Y-50174482D01*
X119288072Y-50050000D01*
X119288072Y-49053740D01*
X121395000Y-49053740D01*
X121395000Y-49346260D01*
X121452068Y-49633158D01*
X121564010Y-49903411D01*
X121726525Y-50146632D01*
X121933368Y-50353475D01*
X122176589Y-50515990D01*
X122446842Y-50627932D01*
X122733740Y-50685000D01*
X123026260Y-50685000D01*
X123313158Y-50627932D01*
X123583411Y-50515990D01*
X123826632Y-50353475D01*
X124033475Y-50146632D01*
X124155195Y-49964466D01*
X124224822Y-50081355D01*
X124419731Y-50297588D01*
X124653080Y-50471641D01*
X124915901Y-50596825D01*
X125063110Y-50641476D01*
X125293000Y-50520155D01*
X125293000Y-49327000D01*
X125547000Y-49327000D01*
X125547000Y-50520155D01*
X125776890Y-50641476D01*
X125924099Y-50596825D01*
X126186920Y-50471641D01*
X126420269Y-50297588D01*
X126615178Y-50081355D01*
X126690000Y-49955745D01*
X126764822Y-50081355D01*
X126959731Y-50297588D01*
X127193080Y-50471641D01*
X127455901Y-50596825D01*
X127603110Y-50641476D01*
X127833000Y-50520155D01*
X127833000Y-49327000D01*
X125547000Y-49327000D01*
X125293000Y-49327000D01*
X125273000Y-49327000D01*
X125273000Y-49073000D01*
X125293000Y-49073000D01*
X125293000Y-47879845D01*
X125547000Y-47879845D01*
X125547000Y-49073000D01*
X127833000Y-49073000D01*
X127833000Y-47879845D01*
X128087000Y-47879845D01*
X128087000Y-49073000D01*
X128107000Y-49073000D01*
X128107000Y-49327000D01*
X128087000Y-49327000D01*
X128087000Y-50520155D01*
X128316890Y-50641476D01*
X128464099Y-50596825D01*
X128726920Y-50471641D01*
X128960269Y-50297588D01*
X129155178Y-50081355D01*
X129224805Y-49964466D01*
X129346525Y-50146632D01*
X129553368Y-50353475D01*
X129796589Y-50515990D01*
X130066842Y-50627932D01*
X130353740Y-50685000D01*
X130646260Y-50685000D01*
X130933158Y-50627932D01*
X131203411Y-50515990D01*
X131446632Y-50353475D01*
X131653475Y-50146632D01*
X131770000Y-49972240D01*
X131886525Y-50146632D01*
X132093368Y-50353475D01*
X132280001Y-50478179D01*
X132280000Y-58746759D01*
X132276324Y-58784081D01*
X132280000Y-58821403D01*
X132280000Y-58821413D01*
X132290997Y-58933066D01*
X132314330Y-59009986D01*
X132334454Y-59076327D01*
X132405026Y-59208357D01*
X132444871Y-59256907D01*
X132499999Y-59324082D01*
X132529003Y-59347885D01*
X135846120Y-62665003D01*
X135869918Y-62694001D01*
X135898916Y-62717799D01*
X135985642Y-62788974D01*
X136113678Y-62857411D01*
X136117672Y-62859546D01*
X136260933Y-62903003D01*
X136331091Y-62909913D01*
X136458525Y-63100632D01*
X136665368Y-63307475D01*
X136908589Y-63469990D01*
X137178842Y-63581932D01*
X137465740Y-63639000D01*
X137758260Y-63639000D01*
X138045158Y-63581932D01*
X138315411Y-63469990D01*
X138558632Y-63307475D01*
X138690487Y-63175620D01*
X138712498Y-63248180D01*
X138771463Y-63358494D01*
X138850815Y-63455185D01*
X138947506Y-63534537D01*
X139057820Y-63593502D01*
X139177518Y-63629812D01*
X139302000Y-63642072D01*
X141002000Y-63642072D01*
X141126482Y-63629812D01*
X141246180Y-63593502D01*
X141356494Y-63534537D01*
X141453185Y-63455185D01*
X141532537Y-63358494D01*
X141591502Y-63248180D01*
X141627812Y-63128482D01*
X141640072Y-63004000D01*
X141640072Y-61304000D01*
X141627812Y-61179518D01*
X141591502Y-61059820D01*
X141532537Y-60949506D01*
X141453185Y-60852815D01*
X141356494Y-60773463D01*
X141246180Y-60714498D01*
X141126482Y-60678188D01*
X141002000Y-60665928D01*
X140912000Y-60665928D01*
X140912000Y-60015527D01*
X140941851Y-60006472D01*
X141095387Y-59924405D01*
X141229962Y-59813962D01*
X141340405Y-59679387D01*
X141422472Y-59525851D01*
X141473008Y-59359255D01*
X141490072Y-59186001D01*
X141490072Y-58535999D01*
X141473008Y-58362745D01*
X141422472Y-58196149D01*
X141340405Y-58042613D01*
X141267345Y-57953589D01*
X155215000Y-57953589D01*
X155215000Y-58226411D01*
X155268225Y-58493989D01*
X155372629Y-58746043D01*
X155524201Y-58972886D01*
X155717114Y-59165799D01*
X155943957Y-59317371D01*
X156046873Y-59360000D01*
X155943957Y-59402629D01*
X155717114Y-59554201D01*
X155524201Y-59747114D01*
X155372629Y-59973957D01*
X155268225Y-60226011D01*
X155215000Y-60493589D01*
X155215000Y-60766411D01*
X155268225Y-61033989D01*
X155372629Y-61286043D01*
X155524201Y-61512886D01*
X155717114Y-61705799D01*
X155943957Y-61857371D01*
X156196011Y-61961775D01*
X156463589Y-62015000D01*
X156736411Y-62015000D01*
X157003989Y-61961775D01*
X157256043Y-61857371D01*
X157482886Y-61705799D01*
X157675799Y-61512886D01*
X157757909Y-61390000D01*
X160971822Y-61390000D01*
X161096525Y-61576632D01*
X161303368Y-61783475D01*
X161546589Y-61945990D01*
X161816842Y-62057932D01*
X162103740Y-62115000D01*
X162396260Y-62115000D01*
X162683158Y-62057932D01*
X162953411Y-61945990D01*
X163196632Y-61783475D01*
X163403475Y-61576632D01*
X163565990Y-61333411D01*
X163677932Y-61063158D01*
X163735000Y-60776260D01*
X163735000Y-60483740D01*
X163677932Y-60196842D01*
X163565990Y-59926589D01*
X163403475Y-59683368D01*
X163271620Y-59551513D01*
X163344180Y-59529502D01*
X163454494Y-59470537D01*
X163551185Y-59391185D01*
X163630537Y-59294494D01*
X163689502Y-59184180D01*
X163725812Y-59064482D01*
X163738072Y-58940000D01*
X163738072Y-57240000D01*
X163725812Y-57115518D01*
X163689502Y-56995820D01*
X163630537Y-56885506D01*
X163551185Y-56788815D01*
X163454494Y-56709463D01*
X163344180Y-56650498D01*
X163224482Y-56614188D01*
X163100000Y-56601928D01*
X161400000Y-56601928D01*
X161275518Y-56614188D01*
X161155820Y-56650498D01*
X161045506Y-56709463D01*
X160948815Y-56788815D01*
X160869463Y-56885506D01*
X160810498Y-56995820D01*
X160774188Y-57115518D01*
X160761928Y-57240000D01*
X160761928Y-57330000D01*
X157757909Y-57330000D01*
X157675799Y-57207114D01*
X157482886Y-57014201D01*
X157256043Y-56862629D01*
X157003989Y-56758225D01*
X156736411Y-56705000D01*
X156463589Y-56705000D01*
X156196011Y-56758225D01*
X155943957Y-56862629D01*
X155717114Y-57014201D01*
X155524201Y-57207114D01*
X155372629Y-57433957D01*
X155268225Y-57686011D01*
X155215000Y-57953589D01*
X141267345Y-57953589D01*
X141229962Y-57908038D01*
X141142184Y-57836000D01*
X141229962Y-57763962D01*
X141340405Y-57629387D01*
X141422472Y-57475851D01*
X141473008Y-57309255D01*
X141490072Y-57136001D01*
X141490072Y-56485999D01*
X141473008Y-56312745D01*
X141422472Y-56146149D01*
X141340405Y-55992613D01*
X141229962Y-55858038D01*
X141095387Y-55747595D01*
X141087062Y-55743145D01*
X141147226Y-55597898D01*
X141187000Y-55397939D01*
X141187000Y-55194061D01*
X141147226Y-54994102D01*
X141069205Y-54805744D01*
X140955937Y-54636226D01*
X140811774Y-54492063D01*
X140642256Y-54378795D01*
X140453898Y-54300774D01*
X140253939Y-54261000D01*
X140050061Y-54261000D01*
X139850102Y-54300774D01*
X139661744Y-54378795D01*
X139492226Y-54492063D01*
X139348063Y-54636226D01*
X139234795Y-54805744D01*
X139156774Y-54994102D01*
X139117000Y-55194061D01*
X139117000Y-55397939D01*
X139156774Y-55597898D01*
X139216938Y-55743145D01*
X139208613Y-55747595D01*
X139074038Y-55858038D01*
X139009000Y-55937287D01*
X138943962Y-55858038D01*
X138809387Y-55747595D01*
X138655851Y-55665528D01*
X138489255Y-55614992D01*
X138316001Y-55597928D01*
X137631140Y-55597928D01*
X137515986Y-55562997D01*
X137404333Y-55552000D01*
X137404322Y-55552000D01*
X137367000Y-55548324D01*
X137329678Y-55552000D01*
X136791711Y-55552000D01*
X136747774Y-55508063D01*
X136578256Y-55394795D01*
X136389898Y-55316774D01*
X136189939Y-55277000D01*
X135986061Y-55277000D01*
X135786102Y-55316774D01*
X135597744Y-55394795D01*
X135428226Y-55508063D01*
X135284063Y-55652226D01*
X135170795Y-55821744D01*
X135092774Y-56010102D01*
X135053000Y-56210061D01*
X135053000Y-56413939D01*
X135092774Y-56613898D01*
X135170795Y-56802256D01*
X135284063Y-56971774D01*
X135428226Y-57115937D01*
X135597744Y-57229205D01*
X135786102Y-57307226D01*
X135986061Y-57347000D01*
X136189939Y-57347000D01*
X136389898Y-57307226D01*
X136538721Y-57245581D01*
X136544992Y-57309255D01*
X136595528Y-57475851D01*
X136677595Y-57629387D01*
X136788038Y-57763962D01*
X136875816Y-57836000D01*
X136788038Y-57908038D01*
X136677595Y-58042613D01*
X136595528Y-58196149D01*
X136544992Y-58362745D01*
X136527928Y-58535999D01*
X136527928Y-59186001D01*
X136544992Y-59359255D01*
X136595528Y-59525851D01*
X136677595Y-59679387D01*
X136788038Y-59813962D01*
X136922613Y-59924405D01*
X137076149Y-60006472D01*
X137242745Y-60057008D01*
X137415999Y-60074072D01*
X138316001Y-60074072D01*
X138489255Y-60057008D01*
X138655851Y-60006472D01*
X138809387Y-59924405D01*
X138943962Y-59813962D01*
X139009000Y-59734713D01*
X139074038Y-59813962D01*
X139208613Y-59924405D01*
X139362149Y-60006472D01*
X139392000Y-60015527D01*
X139392001Y-60665928D01*
X139302000Y-60665928D01*
X139177518Y-60678188D01*
X139057820Y-60714498D01*
X138947506Y-60773463D01*
X138850815Y-60852815D01*
X138771463Y-60949506D01*
X138712498Y-61059820D01*
X138690487Y-61132380D01*
X138558632Y-61000525D01*
X138315411Y-60838010D01*
X138045158Y-60726068D01*
X137758260Y-60669000D01*
X137465740Y-60669000D01*
X137178842Y-60726068D01*
X136908589Y-60838010D01*
X136665368Y-61000525D01*
X136498307Y-61167586D01*
X133800000Y-58469280D01*
X133800000Y-50478178D01*
X133986632Y-50353475D01*
X134193475Y-50146632D01*
X134310000Y-49972240D01*
X134426525Y-50146632D01*
X134633368Y-50353475D01*
X134876589Y-50515990D01*
X135146842Y-50627932D01*
X135433740Y-50685000D01*
X135726260Y-50685000D01*
X136013158Y-50627932D01*
X136283411Y-50515990D01*
X136526632Y-50353475D01*
X136733475Y-50146632D01*
X136850000Y-49972240D01*
X136966525Y-50146632D01*
X137173368Y-50353475D01*
X137416589Y-50515990D01*
X137686842Y-50627932D01*
X137973740Y-50685000D01*
X138266260Y-50685000D01*
X138553158Y-50627932D01*
X138823411Y-50515990D01*
X139066632Y-50353475D01*
X139198487Y-50221620D01*
X139220498Y-50294180D01*
X139279463Y-50404494D01*
X139358815Y-50501185D01*
X139455506Y-50580537D01*
X139565820Y-50639502D01*
X139685518Y-50675812D01*
X139810000Y-50688072D01*
X141510000Y-50688072D01*
X141634482Y-50675812D01*
X141754180Y-50639502D01*
X141864494Y-50580537D01*
X141961185Y-50501185D01*
X142040537Y-50404494D01*
X142099502Y-50294180D01*
X142135812Y-50174482D01*
X142148072Y-50050000D01*
X142148072Y-48350000D01*
X142135812Y-48225518D01*
X142099502Y-48105820D01*
X142040537Y-47995506D01*
X141961185Y-47898815D01*
X141864494Y-47819463D01*
X141754180Y-47760498D01*
X141634482Y-47724188D01*
X141510000Y-47711928D01*
X139810000Y-47711928D01*
X139685518Y-47724188D01*
X139565820Y-47760498D01*
X139455506Y-47819463D01*
X139358815Y-47898815D01*
X139279463Y-47995506D01*
X139220498Y-48105820D01*
X139198487Y-48178380D01*
X139066632Y-48046525D01*
X138823411Y-47884010D01*
X138553158Y-47772068D01*
X138266260Y-47715000D01*
X137973740Y-47715000D01*
X137686842Y-47772068D01*
X137416589Y-47884010D01*
X137173368Y-48046525D01*
X136966525Y-48253368D01*
X136850000Y-48427760D01*
X136733475Y-48253368D01*
X136526632Y-48046525D01*
X136283411Y-47884010D01*
X136013158Y-47772068D01*
X135726260Y-47715000D01*
X135433740Y-47715000D01*
X135146842Y-47772068D01*
X134876589Y-47884010D01*
X134633368Y-48046525D01*
X134426525Y-48253368D01*
X134310000Y-48427760D01*
X134193475Y-48253368D01*
X133986632Y-48046525D01*
X133743411Y-47884010D01*
X133473158Y-47772068D01*
X133186260Y-47715000D01*
X132893740Y-47715000D01*
X132606842Y-47772068D01*
X132336589Y-47884010D01*
X132093368Y-48046525D01*
X131886525Y-48253368D01*
X131770000Y-48427760D01*
X131653475Y-48253368D01*
X131446632Y-48046525D01*
X131203411Y-47884010D01*
X130933158Y-47772068D01*
X130646260Y-47715000D01*
X130353740Y-47715000D01*
X130066842Y-47772068D01*
X129796589Y-47884010D01*
X129553368Y-48046525D01*
X129346525Y-48253368D01*
X129224805Y-48435534D01*
X129155178Y-48318645D01*
X128960269Y-48102412D01*
X128726920Y-47928359D01*
X128464099Y-47803175D01*
X128316890Y-47758524D01*
X128087000Y-47879845D01*
X127833000Y-47879845D01*
X127603110Y-47758524D01*
X127455901Y-47803175D01*
X127193080Y-47928359D01*
X126959731Y-48102412D01*
X126764822Y-48318645D01*
X126690000Y-48444255D01*
X126615178Y-48318645D01*
X126420269Y-48102412D01*
X126186920Y-47928359D01*
X125924099Y-47803175D01*
X125776890Y-47758524D01*
X125547000Y-47879845D01*
X125293000Y-47879845D01*
X125063110Y-47758524D01*
X124915901Y-47803175D01*
X124653080Y-47928359D01*
X124419731Y-48102412D01*
X124224822Y-48318645D01*
X124155195Y-48435534D01*
X124033475Y-48253368D01*
X123826632Y-48046525D01*
X123583411Y-47884010D01*
X123313158Y-47772068D01*
X123026260Y-47715000D01*
X122733740Y-47715000D01*
X122446842Y-47772068D01*
X122176589Y-47884010D01*
X121933368Y-48046525D01*
X121726525Y-48253368D01*
X121564010Y-48496589D01*
X121452068Y-48766842D01*
X121395000Y-49053740D01*
X119288072Y-49053740D01*
X119288072Y-48350000D01*
X119275812Y-48225518D01*
X119239502Y-48105820D01*
X119180537Y-47995506D01*
X119101185Y-47898815D01*
X119004494Y-47819463D01*
X118894180Y-47760498D01*
X118774482Y-47724188D01*
X118650000Y-47711928D01*
X116950000Y-47711928D01*
X116825518Y-47724188D01*
X116705820Y-47760498D01*
X116595506Y-47819463D01*
X116498815Y-47898815D01*
X116419463Y-47995506D01*
X116360498Y-48105820D01*
X116338487Y-48178380D01*
X116206632Y-48046525D01*
X115963411Y-47884010D01*
X115693158Y-47772068D01*
X115406260Y-47715000D01*
X115113740Y-47715000D01*
X114826842Y-47772068D01*
X114556589Y-47884010D01*
X114313368Y-48046525D01*
X114106525Y-48253368D01*
X113990000Y-48427760D01*
X113873475Y-48253368D01*
X113666632Y-48046525D01*
X113423411Y-47884010D01*
X113153158Y-47772068D01*
X112866260Y-47715000D01*
X112573740Y-47715000D01*
X112286842Y-47772068D01*
X112016589Y-47884010D01*
X111773368Y-48046525D01*
X111566525Y-48253368D01*
X111450000Y-48427760D01*
X111333475Y-48253368D01*
X111126632Y-48046525D01*
X110883411Y-47884010D01*
X110613158Y-47772068D01*
X110326260Y-47715000D01*
X110033740Y-47715000D01*
X109746842Y-47772068D01*
X109476589Y-47884010D01*
X109233368Y-48046525D01*
X109026525Y-48253368D01*
X108910000Y-48427760D01*
X108793475Y-48253368D01*
X108586632Y-48046525D01*
X108343411Y-47884010D01*
X108073158Y-47772068D01*
X107786260Y-47715000D01*
X107493740Y-47715000D01*
X107206842Y-47772068D01*
X106936589Y-47884010D01*
X106693368Y-48046525D01*
X106486525Y-48253368D01*
X106370000Y-48427760D01*
X106253475Y-48253368D01*
X106046632Y-48046525D01*
X105803411Y-47884010D01*
X105533158Y-47772068D01*
X105246260Y-47715000D01*
X104953740Y-47715000D01*
X104666842Y-47772068D01*
X104396589Y-47884010D01*
X104153368Y-48046525D01*
X103946525Y-48253368D01*
X103784010Y-48496589D01*
X103672068Y-48766842D01*
X103615000Y-49053740D01*
X100660000Y-49053740D01*
X100660000Y-47360000D01*
X167940001Y-47360000D01*
X167940000Y-99340000D01*
G37*
X167940000Y-99340000D02*
X100660000Y-99340000D01*
X100660000Y-96610000D01*
X103611928Y-96610000D01*
X103611928Y-98310000D01*
X103624188Y-98434482D01*
X103660498Y-98554180D01*
X103719463Y-98664494D01*
X103798815Y-98761185D01*
X103895506Y-98840537D01*
X104005820Y-98899502D01*
X104125518Y-98935812D01*
X104250000Y-98948072D01*
X105950000Y-98948072D01*
X106074482Y-98935812D01*
X106194180Y-98899502D01*
X106304494Y-98840537D01*
X106401185Y-98761185D01*
X106480537Y-98664494D01*
X106539502Y-98554180D01*
X106561513Y-98481620D01*
X106693368Y-98613475D01*
X106936589Y-98775990D01*
X107206842Y-98887932D01*
X107493740Y-98945000D01*
X107786260Y-98945000D01*
X108073158Y-98887932D01*
X108343411Y-98775990D01*
X108586632Y-98613475D01*
X108793475Y-98406632D01*
X108910000Y-98232240D01*
X109026525Y-98406632D01*
X109233368Y-98613475D01*
X109476589Y-98775990D01*
X109746842Y-98887932D01*
X110033740Y-98945000D01*
X110326260Y-98945000D01*
X110613158Y-98887932D01*
X110883411Y-98775990D01*
X111126632Y-98613475D01*
X111333475Y-98406632D01*
X111450000Y-98232240D01*
X111566525Y-98406632D01*
X111773368Y-98613475D01*
X112016589Y-98775990D01*
X112286842Y-98887932D01*
X112573740Y-98945000D01*
X112866260Y-98945000D01*
X113153158Y-98887932D01*
X113423411Y-98775990D01*
X113666632Y-98613475D01*
X113873475Y-98406632D01*
X113990000Y-98232240D01*
X114106525Y-98406632D01*
X114313368Y-98613475D01*
X114556589Y-98775990D01*
X114826842Y-98887932D01*
X115113740Y-98945000D01*
X115406260Y-98945000D01*
X115693158Y-98887932D01*
X115963411Y-98775990D01*
X116206632Y-98613475D01*
X116413475Y-98406632D01*
X116530000Y-98232240D01*
X116646525Y-98406632D01*
X116853368Y-98613475D01*
X117096589Y-98775990D01*
X117366842Y-98887932D01*
X117653740Y-98945000D01*
X117946260Y-98945000D01*
X118233158Y-98887932D01*
X118503411Y-98775990D01*
X118746632Y-98613475D01*
X118953475Y-98406632D01*
X119070000Y-98232240D01*
X119186525Y-98406632D01*
X119393368Y-98613475D01*
X119636589Y-98775990D01*
X119906842Y-98887932D01*
X120193740Y-98945000D01*
X120486260Y-98945000D01*
X120773158Y-98887932D01*
X121043411Y-98775990D01*
X121286632Y-98613475D01*
X121493475Y-98406632D01*
X121610000Y-98232240D01*
X121726525Y-98406632D01*
X121933368Y-98613475D01*
X122176589Y-98775990D01*
X122446842Y-98887932D01*
X122733740Y-98945000D01*
X123026260Y-98945000D01*
X123313158Y-98887932D01*
X123583411Y-98775990D01*
X123826632Y-98613475D01*
X124033475Y-98406632D01*
X124195990Y-98163411D01*
X124307932Y-97893158D01*
X124365000Y-97606260D01*
X124365000Y-97313740D01*
X124307932Y-97026842D01*
X124195990Y-96756589D01*
X124098043Y-96610000D01*
X125455928Y-96610000D01*
X125455928Y-98310000D01*
X125468188Y-98434482D01*
X125504498Y-98554180D01*
X125563463Y-98664494D01*
X125642815Y-98761185D01*
X125739506Y-98840537D01*
X125849820Y-98899502D01*
X125969518Y-98935812D01*
X126094000Y-98948072D01*
X127794000Y-98948072D01*
X127918482Y-98935812D01*
X128038180Y-98899502D01*
X128148494Y-98840537D01*
X128245185Y-98761185D01*
X128324537Y-98664494D01*
X128383502Y-98554180D01*
X128405513Y-98481620D01*
X128537368Y-98613475D01*
X128780589Y-98775990D01*
X129050842Y-98887932D01*
X129337740Y-98945000D01*
X129630260Y-98945000D01*
X129917158Y-98887932D01*
X130187411Y-98775990D01*
X130430632Y-98613475D01*
X130637475Y-98406632D01*
X130754000Y-98232240D01*
X130870525Y-98406632D01*
X131077368Y-98613475D01*
X131320589Y-98775990D01*
X131590842Y-98887932D01*
X131877740Y-98945000D01*
X132170260Y-98945000D01*
X132457158Y-98887932D01*
X132727411Y-98775990D01*
X132970632Y-98613475D01*
X133177475Y-98406632D01*
X133294000Y-98232240D01*
X133410525Y-98406632D01*
X133617368Y-98613475D01*
X133860589Y-98775990D01*
X134130842Y-98887932D01*
X134417740Y-98945000D01*
X134710260Y-98945000D01*
X134997158Y-98887932D01*
X135267411Y-98775990D01*
X135510632Y-98613475D01*
X135717475Y-98406632D01*
X135834000Y-98232240D01*
X135950525Y-98406632D01*
X136157368Y-98613475D01*
X136400589Y-98775990D01*
X136670842Y-98887932D01*
X136957740Y-98945000D01*
X137250260Y-98945000D01*
X137537158Y-98887932D01*
X137807411Y-98775990D01*
X138050632Y-98613475D01*
X138257475Y-98406632D01*
X138374000Y-98232240D01*
X138490525Y-98406632D01*
X138697368Y-98613475D01*
X138940589Y-98775990D01*
X139210842Y-98887932D01*
X139497740Y-98945000D01*
X139790260Y-98945000D01*
X140077158Y-98887932D01*
X140347411Y-98775990D01*
X140590632Y-98613475D01*
X140797475Y-98406632D01*
X140919195Y-98224466D01*
X140988822Y-98341355D01*
X141183731Y-98557588D01*
X141417080Y-98731641D01*
X141679901Y-98856825D01*
X141827110Y-98901476D01*
X142057000Y-98780155D01*
X142057000Y-97587000D01*
X142037000Y-97587000D01*
X142037000Y-97333000D01*
X142057000Y-97333000D01*
X142057000Y-96139845D01*
X142311000Y-96139845D01*
X142311000Y-97333000D01*
X142331000Y-97333000D01*
X142331000Y-97587000D01*
X142311000Y-97587000D01*
X142311000Y-98780155D01*
X142540890Y-98901476D01*
X142688099Y-98856825D01*
X142950920Y-98731641D01*
X143184269Y-98557588D01*
X143379178Y-98341355D01*
X143448805Y-98224466D01*
X143570525Y-98406632D01*
X143777368Y-98613475D01*
X144020589Y-98775990D01*
X144290842Y-98887932D01*
X144577740Y-98945000D01*
X144870260Y-98945000D01*
X145157158Y-98887932D01*
X145427411Y-98775990D01*
X145670632Y-98613475D01*
X145877475Y-98406632D01*
X145994000Y-98232240D01*
X146110525Y-98406632D01*
X146317368Y-98613475D01*
X146560589Y-98775990D01*
X146830842Y-98887932D01*
X147117740Y-98945000D01*
X147410260Y-98945000D01*
X147697158Y-98887932D01*
X147967411Y-98775990D01*
X148210632Y-98613475D01*
X148417475Y-98406632D01*
X148534000Y-98232240D01*
X148650525Y-98406632D01*
X148857368Y-98613475D01*
X149100589Y-98775990D01*
X149370842Y-98887932D01*
X149657740Y-98945000D01*
X149950260Y-98945000D01*
X150237158Y-98887932D01*
X150507411Y-98775990D01*
X150750632Y-98613475D01*
X150957475Y-98406632D01*
X151119990Y-98163411D01*
X151231932Y-97893158D01*
X151289000Y-97606260D01*
X151289000Y-97313740D01*
X151231932Y-97026842D01*
X151119990Y-96756589D01*
X150957475Y-96513368D01*
X150750632Y-96306525D01*
X150507411Y-96144010D01*
X150237158Y-96032068D01*
X149950260Y-95975000D01*
X149657740Y-95975000D01*
X149370842Y-96032068D01*
X149100589Y-96144010D01*
X148857368Y-96306525D01*
X148650525Y-96513368D01*
X148534000Y-96687760D01*
X148417475Y-96513368D01*
X148210632Y-96306525D01*
X147967411Y-96144010D01*
X147697158Y-96032068D01*
X147410260Y-95975000D01*
X147117740Y-95975000D01*
X146830842Y-96032068D01*
X146560589Y-96144010D01*
X146317368Y-96306525D01*
X146110525Y-96513368D01*
X145994000Y-96687760D01*
X145877475Y-96513368D01*
X145670632Y-96306525D01*
X145427411Y-96144010D01*
X145157158Y-96032068D01*
X144870260Y-95975000D01*
X144577740Y-95975000D01*
X144290842Y-96032068D01*
X144020589Y-96144010D01*
X143777368Y-96306525D01*
X143570525Y-96513368D01*
X143448805Y-96695534D01*
X143379178Y-96578645D01*
X143184269Y-96362412D01*
X142950920Y-96188359D01*
X142688099Y-96063175D01*
X142540890Y-96018524D01*
X142311000Y-96139845D01*
X142057000Y-96139845D01*
X141827110Y-96018524D01*
X141679901Y-96063175D01*
X141417080Y-96188359D01*
X141183731Y-96362412D01*
X140988822Y-96578645D01*
X140919195Y-96695534D01*
X140797475Y-96513368D01*
X140590632Y-96306525D01*
X140347411Y-96144010D01*
X140077158Y-96032068D01*
X139790260Y-95975000D01*
X139497740Y-95975000D01*
X139210842Y-96032068D01*
X138940589Y-96144010D01*
X138697368Y-96306525D01*
X138490525Y-96513368D01*
X138374000Y-96687760D01*
X138257475Y-96513368D01*
X138050632Y-96306525D01*
X137807411Y-96144010D01*
X137537158Y-96032068D01*
X137250260Y-95975000D01*
X136957740Y-95975000D01*
X136670842Y-96032068D01*
X136400589Y-96144010D01*
X136157368Y-96306525D01*
X135950525Y-96513368D01*
X135834000Y-96687760D01*
X135717475Y-96513368D01*
X135510632Y-96306525D01*
X135267411Y-96144010D01*
X134997158Y-96032068D01*
X134710260Y-95975000D01*
X134417740Y-95975000D01*
X134130842Y-96032068D01*
X133860589Y-96144010D01*
X133617368Y-96306525D01*
X133410525Y-96513368D01*
X133294000Y-96687760D01*
X133177475Y-96513368D01*
X132970632Y-96306525D01*
X132727411Y-96144010D01*
X132457158Y-96032068D01*
X132170260Y-95975000D01*
X131877740Y-95975000D01*
X131590842Y-96032068D01*
X131320589Y-96144010D01*
X131077368Y-96306525D01*
X130870525Y-96513368D01*
X130754000Y-96687760D01*
X130637475Y-96513368D01*
X130430632Y-96306525D01*
X130187411Y-96144010D01*
X129917158Y-96032068D01*
X129630260Y-95975000D01*
X129337740Y-95975000D01*
X129050842Y-96032068D01*
X128780589Y-96144010D01*
X128537368Y-96306525D01*
X128405513Y-96438380D01*
X128383502Y-96365820D01*
X128324537Y-96255506D01*
X128245185Y-96158815D01*
X128148494Y-96079463D01*
X128038180Y-96020498D01*
X127918482Y-95984188D01*
X127794000Y-95971928D01*
X126094000Y-95971928D01*
X125969518Y-95984188D01*
X125849820Y-96020498D01*
X125739506Y-96079463D01*
X125642815Y-96158815D01*
X125563463Y-96255506D01*
X125504498Y-96365820D01*
X125468188Y-96485518D01*
X125455928Y-96610000D01*
X124098043Y-96610000D01*
X124033475Y-96513368D01*
X123826632Y-96306525D01*
X123583411Y-96144010D01*
X123313158Y-96032068D01*
X123026260Y-95975000D01*
X122733740Y-95975000D01*
X122446842Y-96032068D01*
X122176589Y-96144010D01*
X121933368Y-96306525D01*
X121726525Y-96513368D01*
X121610000Y-96687760D01*
X121493475Y-96513368D01*
X121286632Y-96306525D01*
X121043411Y-96144010D01*
X120773158Y-96032068D01*
X120486260Y-95975000D01*
X120193740Y-95975000D01*
X119906842Y-96032068D01*
X119636589Y-96144010D01*
X119393368Y-96306525D01*
X119186525Y-96513368D01*
X119070000Y-96687760D01*
X118953475Y-96513368D01*
X118746632Y-96306525D01*
X118503411Y-96144010D01*
X118233158Y-96032068D01*
X117946260Y-95975000D01*
X117653740Y-95975000D01*
X117366842Y-96032068D01*
X117096589Y-96144010D01*
X116853368Y-96306525D01*
X116646525Y-96513368D01*
X116530000Y-96687760D01*
X116413475Y-96513368D01*
X116206632Y-96306525D01*
X115963411Y-96144010D01*
X115693158Y-96032068D01*
X115406260Y-95975000D01*
X115113740Y-95975000D01*
X114826842Y-96032068D01*
X114556589Y-96144010D01*
X114313368Y-96306525D01*
X114106525Y-96513368D01*
X113990000Y-96687760D01*
X113873475Y-96513368D01*
X113666632Y-96306525D01*
X113423411Y-96144010D01*
X113153158Y-96032068D01*
X112866260Y-95975000D01*
X112573740Y-95975000D01*
X112286842Y-96032068D01*
X112016589Y-96144010D01*
X111773368Y-96306525D01*
X111566525Y-96513368D01*
X111450000Y-96687760D01*
X111333475Y-96513368D01*
X111126632Y-96306525D01*
X110883411Y-96144010D01*
X110613158Y-96032068D01*
X110326260Y-95975000D01*
X110033740Y-95975000D01*
X109746842Y-96032068D01*
X109476589Y-96144010D01*
X109233368Y-96306525D01*
X109026525Y-96513368D01*
X108910000Y-96687760D01*
X108793475Y-96513368D01*
X108586632Y-96306525D01*
X108400000Y-96181822D01*
X108400000Y-89781711D01*
X108443937Y-89737774D01*
X108557205Y-89568256D01*
X108635226Y-89379898D01*
X108675000Y-89179939D01*
X108675000Y-88976061D01*
X108635226Y-88776102D01*
X108557205Y-88587744D01*
X108443937Y-88418226D01*
X108299774Y-88274063D01*
X108130256Y-88160795D01*
X107941898Y-88082774D01*
X107741939Y-88043000D01*
X107538061Y-88043000D01*
X107338102Y-88082774D01*
X107149744Y-88160795D01*
X106980226Y-88274063D01*
X106836063Y-88418226D01*
X106722795Y-88587744D01*
X106644774Y-88776102D01*
X106605000Y-88976061D01*
X106605000Y-89179939D01*
X106644774Y-89379898D01*
X106722795Y-89568256D01*
X106836063Y-89737774D01*
X106880001Y-89781712D01*
X106880000Y-96181821D01*
X106693368Y-96306525D01*
X106561513Y-96438380D01*
X106539502Y-96365820D01*
X106480537Y-96255506D01*
X106401185Y-96158815D01*
X106304494Y-96079463D01*
X106194180Y-96020498D01*
X106074482Y-95984188D01*
X105950000Y-95971928D01*
X105860000Y-95971928D01*
X105860000Y-88765711D01*
X105903937Y-88721774D01*
X106017205Y-88552256D01*
X106095226Y-88363898D01*
X106135000Y-88163939D01*
X106135000Y-87960061D01*
X106095226Y-87760102D01*
X106017205Y-87571744D01*
X105903937Y-87402226D01*
X105759774Y-87258063D01*
X105590256Y-87144795D01*
X105401898Y-87066774D01*
X105297459Y-87046000D01*
X105401898Y-87025226D01*
X105547145Y-86965062D01*
X105551595Y-86973387D01*
X105662038Y-87107962D01*
X105796613Y-87218405D01*
X105950149Y-87300472D01*
X106116745Y-87351008D01*
X106289999Y-87368072D01*
X106940001Y-87368072D01*
X107113255Y-87351008D01*
X107279851Y-87300472D01*
X107433387Y-87218405D01*
X107567962Y-87107962D01*
X107640000Y-87020184D01*
X107712038Y-87107962D01*
X107846613Y-87218405D01*
X108000149Y-87300472D01*
X108166745Y-87351008D01*
X108339999Y-87368072D01*
X108990001Y-87368072D01*
X109163255Y-87351008D01*
X109329851Y-87300472D01*
X109483387Y-87218405D01*
X109617962Y-87107962D01*
X109728405Y-86973387D01*
X109810472Y-86819851D01*
X109819527Y-86790000D01*
X113080473Y-86790000D01*
X113089528Y-86819851D01*
X113171595Y-86973387D01*
X113282038Y-87107962D01*
X113416613Y-87218405D01*
X113570149Y-87300472D01*
X113736745Y-87351008D01*
X113909999Y-87368072D01*
X114560001Y-87368072D01*
X114733255Y-87351008D01*
X114899851Y-87300472D01*
X115053387Y-87218405D01*
X115187962Y-87107962D01*
X115193342Y-87101406D01*
X115258815Y-87181185D01*
X115355506Y-87260537D01*
X115465820Y-87319502D01*
X115585518Y-87355812D01*
X115710000Y-87368072D01*
X115999250Y-87365000D01*
X116158000Y-87206250D01*
X116158000Y-86157000D01*
X116412000Y-86157000D01*
X116412000Y-87206250D01*
X116570750Y-87365000D01*
X116860000Y-87368072D01*
X116984482Y-87355812D01*
X117104180Y-87319502D01*
X117214494Y-87260537D01*
X117311185Y-87181185D01*
X117390537Y-87084494D01*
X117449502Y-86974180D01*
X117485812Y-86854482D01*
X117498072Y-86730000D01*
X117495000Y-86315750D01*
X117336250Y-86157000D01*
X116412000Y-86157000D01*
X116158000Y-86157000D01*
X116138000Y-86157000D01*
X116138000Y-85903000D01*
X116158000Y-85903000D01*
X116158000Y-84853750D01*
X116412000Y-84853750D01*
X116412000Y-85903000D01*
X117336250Y-85903000D01*
X117495000Y-85744250D01*
X117498072Y-85330000D01*
X117485812Y-85205518D01*
X117449502Y-85085820D01*
X117390537Y-84975506D01*
X117311185Y-84878815D01*
X117214494Y-84799463D01*
X117104180Y-84740498D01*
X116984482Y-84704188D01*
X116860000Y-84691928D01*
X116570750Y-84695000D01*
X116412000Y-84853750D01*
X116158000Y-84853750D01*
X115999250Y-84695000D01*
X115710000Y-84691928D01*
X115585518Y-84704188D01*
X115465820Y-84740498D01*
X115355506Y-84799463D01*
X115258815Y-84878815D01*
X115193342Y-84958594D01*
X115187962Y-84952038D01*
X115053387Y-84841595D01*
X114899851Y-84759528D01*
X114733255Y-84708992D01*
X114560001Y-84691928D01*
X113909999Y-84691928D01*
X113736745Y-84708992D01*
X113570149Y-84759528D01*
X113416613Y-84841595D01*
X113282038Y-84952038D01*
X113171595Y-85086613D01*
X113089528Y-85240149D01*
X113080473Y-85270000D01*
X109819527Y-85270000D01*
X109810472Y-85240149D01*
X109728405Y-85086613D01*
X109617962Y-84952038D01*
X109483387Y-84841595D01*
X109329851Y-84759528D01*
X109163255Y-84708992D01*
X108990001Y-84691928D01*
X108339999Y-84691928D01*
X108166745Y-84708992D01*
X108000149Y-84759528D01*
X107846613Y-84841595D01*
X107712038Y-84952038D01*
X107640000Y-85039816D01*
X107567962Y-84952038D01*
X107433387Y-84841595D01*
X107279851Y-84759528D01*
X107113255Y-84708992D01*
X106940001Y-84691928D01*
X106289999Y-84691928D01*
X106116745Y-84708992D01*
X105950149Y-84759528D01*
X105796613Y-84841595D01*
X105662038Y-84952038D01*
X105551595Y-85086613D01*
X105547145Y-85094938D01*
X105401898Y-85034774D01*
X105201939Y-84995000D01*
X104998061Y-84995000D01*
X104798102Y-85034774D01*
X104609744Y-85112795D01*
X104440226Y-85226063D01*
X104296063Y-85370226D01*
X104182795Y-85539744D01*
X104104774Y-85728102D01*
X104065000Y-85928061D01*
X104065000Y-86131939D01*
X104104774Y-86331898D01*
X104182795Y-86520256D01*
X104296063Y-86689774D01*
X104440226Y-86833937D01*
X104609744Y-86947205D01*
X104798102Y-87025226D01*
X104902541Y-87046000D01*
X104798102Y-87066774D01*
X104609744Y-87144795D01*
X104440226Y-87258063D01*
X104296063Y-87402226D01*
X104182795Y-87571744D01*
X104104774Y-87760102D01*
X104065000Y-87960061D01*
X104065000Y-88163939D01*
X104104774Y-88363898D01*
X104182795Y-88552256D01*
X104296063Y-88721774D01*
X104340000Y-88765711D01*
X104340001Y-95971928D01*
X104250000Y-95971928D01*
X104125518Y-95984188D01*
X104005820Y-96020498D01*
X103895506Y-96079463D01*
X103798815Y-96158815D01*
X103719463Y-96255506D01*
X103660498Y-96365820D01*
X103624188Y-96485518D01*
X103611928Y-96610000D01*
X100660000Y-96610000D01*
X100660000Y-83388061D01*
X146991000Y-83388061D01*
X146991000Y-83591939D01*
X147030774Y-83791898D01*
X147108795Y-83980256D01*
X147222063Y-84149774D01*
X147366226Y-84293937D01*
X147535744Y-84407205D01*
X147724102Y-84485226D01*
X147924061Y-84525000D01*
X148127939Y-84525000D01*
X148327898Y-84485226D01*
X148516256Y-84407205D01*
X148664614Y-84308075D01*
X148731595Y-84433387D01*
X148842038Y-84567962D01*
X148976613Y-84678405D01*
X149129266Y-84760000D01*
X148976613Y-84841595D01*
X148842038Y-84952038D01*
X148731595Y-85086613D01*
X148664614Y-85211925D01*
X148516256Y-85112795D01*
X148327898Y-85034774D01*
X148127939Y-84995000D01*
X147924061Y-84995000D01*
X147724102Y-85034774D01*
X147535744Y-85112795D01*
X147366226Y-85226063D01*
X147222063Y-85370226D01*
X147108795Y-85539744D01*
X147030774Y-85728102D01*
X146991000Y-85928061D01*
X146991000Y-86131939D01*
X147030774Y-86331898D01*
X147108795Y-86520256D01*
X147222063Y-86689774D01*
X147366226Y-86833937D01*
X147535744Y-86947205D01*
X147724102Y-87025226D01*
X147924061Y-87065000D01*
X148127939Y-87065000D01*
X148327898Y-87025226D01*
X148516256Y-86947205D01*
X148664614Y-86848075D01*
X148731595Y-86973387D01*
X148842038Y-87107962D01*
X148976613Y-87218405D01*
X149129266Y-87300000D01*
X148976613Y-87381595D01*
X148842038Y-87492038D01*
X148731595Y-87626613D01*
X148664614Y-87751925D01*
X148516256Y-87652795D01*
X148327898Y-87574774D01*
X148127939Y-87535000D01*
X147924061Y-87535000D01*
X147724102Y-87574774D01*
X147535744Y-87652795D01*
X147366226Y-87766063D01*
X147222063Y-87910226D01*
X147108795Y-88079744D01*
X147030774Y-88268102D01*
X146991000Y-88468061D01*
X146991000Y-88671939D01*
X147030774Y-88871898D01*
X147108795Y-89060256D01*
X147222063Y-89229774D01*
X147366226Y-89373937D01*
X147535744Y-89487205D01*
X147724102Y-89565226D01*
X147924061Y-89605000D01*
X148127939Y-89605000D01*
X148327898Y-89565226D01*
X148516256Y-89487205D01*
X148664614Y-89388075D01*
X148731595Y-89513387D01*
X148842038Y-89647962D01*
X148976613Y-89758405D01*
X149129266Y-89840000D01*
X148976613Y-89921595D01*
X148842038Y-90032038D01*
X148731595Y-90166613D01*
X148664614Y-90291925D01*
X148516256Y-90192795D01*
X148327898Y-90114774D01*
X148127939Y-90075000D01*
X147924061Y-90075000D01*
X147724102Y-90114774D01*
X147535744Y-90192795D01*
X147366226Y-90306063D01*
X147222063Y-90450226D01*
X147108795Y-90619744D01*
X147030774Y-90808102D01*
X146991000Y-91008061D01*
X146991000Y-91211939D01*
X147030774Y-91411898D01*
X147108795Y-91600256D01*
X147222063Y-91769774D01*
X147366226Y-91913937D01*
X147535744Y-92027205D01*
X147724102Y-92105226D01*
X147924061Y-92145000D01*
X148127939Y-92145000D01*
X148327898Y-92105226D01*
X148516256Y-92027205D01*
X148664614Y-91928075D01*
X148731595Y-92053387D01*
X148842038Y-92187962D01*
X148976613Y-92298405D01*
X149130149Y-92380472D01*
X149296745Y-92431008D01*
X149469999Y-92448072D01*
X150120001Y-92448072D01*
X150293255Y-92431008D01*
X150459851Y-92380472D01*
X150613387Y-92298405D01*
X150747962Y-92187962D01*
X150820000Y-92100184D01*
X150892038Y-92187962D01*
X151026613Y-92298405D01*
X151180149Y-92380472D01*
X151346745Y-92431008D01*
X151519999Y-92448072D01*
X152170001Y-92448072D01*
X152343255Y-92431008D01*
X152509851Y-92380472D01*
X152663387Y-92298405D01*
X152797962Y-92187962D01*
X152908405Y-92053387D01*
X152990472Y-91899851D01*
X152999527Y-91870000D01*
X155504091Y-91870000D01*
X155586201Y-91992886D01*
X155779114Y-92185799D01*
X156005957Y-92337371D01*
X156258011Y-92441775D01*
X156525589Y-92495000D01*
X156798411Y-92495000D01*
X157065989Y-92441775D01*
X157318043Y-92337371D01*
X157544886Y-92185799D01*
X157737799Y-91992886D01*
X157819909Y-91870000D01*
X160971822Y-91870000D01*
X161096525Y-92056632D01*
X161303368Y-92263475D01*
X161546589Y-92425990D01*
X161816842Y-92537932D01*
X162103740Y-92595000D01*
X162396260Y-92595000D01*
X162683158Y-92537932D01*
X162953411Y-92425990D01*
X163196632Y-92263475D01*
X163403475Y-92056632D01*
X163565990Y-91813411D01*
X163677932Y-91543158D01*
X163735000Y-91256260D01*
X163735000Y-90963740D01*
X163677932Y-90676842D01*
X163565990Y-90406589D01*
X163403475Y-90163368D01*
X163196632Y-89956525D01*
X163022240Y-89840000D01*
X163196632Y-89723475D01*
X163403475Y-89516632D01*
X163565990Y-89273411D01*
X163677932Y-89003158D01*
X163735000Y-88716260D01*
X163735000Y-88423740D01*
X163677932Y-88136842D01*
X163565990Y-87866589D01*
X163403475Y-87623368D01*
X163196632Y-87416525D01*
X163022240Y-87300000D01*
X163196632Y-87183475D01*
X163403475Y-86976632D01*
X163565990Y-86733411D01*
X163677932Y-86463158D01*
X163735000Y-86176260D01*
X163735000Y-85883740D01*
X163677932Y-85596842D01*
X163565990Y-85326589D01*
X163403475Y-85083368D01*
X163271620Y-84951513D01*
X163344180Y-84929502D01*
X163454494Y-84870537D01*
X163551185Y-84791185D01*
X163630537Y-84694494D01*
X163689502Y-84584180D01*
X163725812Y-84464482D01*
X163738072Y-84340000D01*
X163738072Y-82640000D01*
X163725812Y-82515518D01*
X163689502Y-82395820D01*
X163630537Y-82285506D01*
X163551185Y-82188815D01*
X163454494Y-82109463D01*
X163344180Y-82050498D01*
X163224482Y-82014188D01*
X163100000Y-82001928D01*
X161400000Y-82001928D01*
X161275518Y-82014188D01*
X161155820Y-82050498D01*
X161045506Y-82109463D01*
X160948815Y-82188815D01*
X160869463Y-82285506D01*
X160810498Y-82395820D01*
X160774188Y-82515518D01*
X160761928Y-82640000D01*
X160761928Y-82730000D01*
X157819909Y-82730000D01*
X157737799Y-82607114D01*
X157544886Y-82414201D01*
X157318043Y-82262629D01*
X157065989Y-82158225D01*
X156798411Y-82105000D01*
X156525589Y-82105000D01*
X156258011Y-82158225D01*
X156005957Y-82262629D01*
X155779114Y-82414201D01*
X155586201Y-82607114D01*
X155504091Y-82730000D01*
X152999527Y-82730000D01*
X152990472Y-82700149D01*
X152908405Y-82546613D01*
X152797962Y-82412038D01*
X152663387Y-82301595D01*
X152509851Y-82219528D01*
X152343255Y-82168992D01*
X152170001Y-82151928D01*
X151519999Y-82151928D01*
X151346745Y-82168992D01*
X151180149Y-82219528D01*
X151026613Y-82301595D01*
X150892038Y-82412038D01*
X150820000Y-82499816D01*
X150747962Y-82412038D01*
X150613387Y-82301595D01*
X150459851Y-82219528D01*
X150293255Y-82168992D01*
X150120001Y-82151928D01*
X149469999Y-82151928D01*
X149296745Y-82168992D01*
X149130149Y-82219528D01*
X148976613Y-82301595D01*
X148842038Y-82412038D01*
X148731595Y-82546613D01*
X148664614Y-82671925D01*
X148516256Y-82572795D01*
X148327898Y-82494774D01*
X148127939Y-82455000D01*
X147924061Y-82455000D01*
X147724102Y-82494774D01*
X147535744Y-82572795D01*
X147366226Y-82686063D01*
X147222063Y-82830226D01*
X147108795Y-82999744D01*
X147030774Y-83188102D01*
X146991000Y-83388061D01*
X100660000Y-83388061D01*
X100660000Y-80848061D01*
X104065000Y-80848061D01*
X104065000Y-81051939D01*
X104104774Y-81251898D01*
X104182795Y-81440256D01*
X104296063Y-81609774D01*
X104440226Y-81753937D01*
X104609744Y-81867205D01*
X104798102Y-81945226D01*
X104998061Y-81985000D01*
X105201939Y-81985000D01*
X105401898Y-81945226D01*
X105547145Y-81885062D01*
X105551595Y-81893387D01*
X105662038Y-82027962D01*
X105796613Y-82138405D01*
X105950149Y-82220472D01*
X106116745Y-82271008D01*
X106289999Y-82288072D01*
X106940001Y-82288072D01*
X107113255Y-82271008D01*
X107279851Y-82220472D01*
X107433387Y-82138405D01*
X107567962Y-82027962D01*
X107640000Y-81940184D01*
X107712038Y-82027962D01*
X107846613Y-82138405D01*
X108000149Y-82220472D01*
X108166745Y-82271008D01*
X108339999Y-82288072D01*
X108990001Y-82288072D01*
X109163255Y-82271008D01*
X109329851Y-82220472D01*
X109483387Y-82138405D01*
X109617962Y-82027962D01*
X109728405Y-81893387D01*
X109810472Y-81739851D01*
X109819527Y-81710000D01*
X113080473Y-81710000D01*
X113089528Y-81739851D01*
X113171595Y-81893387D01*
X113282038Y-82027962D01*
X113416613Y-82138405D01*
X113570149Y-82220472D01*
X113736745Y-82271008D01*
X113909999Y-82288072D01*
X114560001Y-82288072D01*
X114733255Y-82271008D01*
X114899851Y-82220472D01*
X115053387Y-82138405D01*
X115187962Y-82027962D01*
X115193342Y-82021406D01*
X115258815Y-82101185D01*
X115355506Y-82180537D01*
X115465820Y-82239502D01*
X115585518Y-82275812D01*
X115710000Y-82288072D01*
X115999250Y-82285000D01*
X116158000Y-82126250D01*
X116158000Y-81077000D01*
X116412000Y-81077000D01*
X116412000Y-82126250D01*
X116570750Y-82285000D01*
X116860000Y-82288072D01*
X116984482Y-82275812D01*
X117104180Y-82239502D01*
X117214494Y-82180537D01*
X117311185Y-82101185D01*
X117390537Y-82004494D01*
X117449502Y-81894180D01*
X117485812Y-81774482D01*
X117498072Y-81650000D01*
X117495000Y-81235750D01*
X117336250Y-81077000D01*
X116412000Y-81077000D01*
X116158000Y-81077000D01*
X116138000Y-81077000D01*
X116138000Y-80823000D01*
X116158000Y-80823000D01*
X116158000Y-79773750D01*
X116412000Y-79773750D01*
X116412000Y-80823000D01*
X117336250Y-80823000D01*
X117495000Y-80664250D01*
X117498072Y-80250000D01*
X117485812Y-80125518D01*
X117449502Y-80005820D01*
X117390537Y-79895506D01*
X117311185Y-79798815D01*
X117214494Y-79719463D01*
X117104180Y-79660498D01*
X116984482Y-79624188D01*
X116860000Y-79611928D01*
X116570750Y-79615000D01*
X116412000Y-79773750D01*
X116158000Y-79773750D01*
X115999250Y-79615000D01*
X115710000Y-79611928D01*
X115585518Y-79624188D01*
X115465820Y-79660498D01*
X115355506Y-79719463D01*
X115258815Y-79798815D01*
X115193342Y-79878594D01*
X115187962Y-79872038D01*
X115053387Y-79761595D01*
X114899851Y-79679528D01*
X114733255Y-79628992D01*
X114560001Y-79611928D01*
X113909999Y-79611928D01*
X113736745Y-79628992D01*
X113570149Y-79679528D01*
X113416613Y-79761595D01*
X113282038Y-79872038D01*
X113171595Y-80006613D01*
X113089528Y-80160149D01*
X113080473Y-80190000D01*
X109819527Y-80190000D01*
X109810472Y-80160149D01*
X109728405Y-80006613D01*
X109617962Y-79872038D01*
X109483387Y-79761595D01*
X109329851Y-79679528D01*
X109163255Y-79628992D01*
X108990001Y-79611928D01*
X108339999Y-79611928D01*
X108166745Y-79628992D01*
X108000149Y-79679528D01*
X107846613Y-79761595D01*
X107712038Y-79872038D01*
X107640000Y-79959816D01*
X107567962Y-79872038D01*
X107433387Y-79761595D01*
X107279851Y-79679528D01*
X107113255Y-79628992D01*
X106940001Y-79611928D01*
X106289999Y-79611928D01*
X106116745Y-79628992D01*
X105950149Y-79679528D01*
X105796613Y-79761595D01*
X105662038Y-79872038D01*
X105551595Y-80006613D01*
X105547145Y-80014938D01*
X105401898Y-79954774D01*
X105201939Y-79915000D01*
X104998061Y-79915000D01*
X104798102Y-79954774D01*
X104609744Y-80032795D01*
X104440226Y-80146063D01*
X104296063Y-80290226D01*
X104182795Y-80459744D01*
X104104774Y-80648102D01*
X104065000Y-80848061D01*
X100660000Y-80848061D01*
X100660000Y-75768061D01*
X104065000Y-75768061D01*
X104065000Y-75971939D01*
X104104774Y-76171898D01*
X104182795Y-76360256D01*
X104296063Y-76529774D01*
X104440226Y-76673937D01*
X104609744Y-76787205D01*
X104798102Y-76865226D01*
X104998061Y-76905000D01*
X105201939Y-76905000D01*
X105401898Y-76865226D01*
X105547145Y-76805062D01*
X105551595Y-76813387D01*
X105662038Y-76947962D01*
X105796613Y-77058405D01*
X105950149Y-77140472D01*
X106116745Y-77191008D01*
X106289999Y-77208072D01*
X106940001Y-77208072D01*
X107113255Y-77191008D01*
X107279851Y-77140472D01*
X107433387Y-77058405D01*
X107567962Y-76947962D01*
X107640000Y-76860184D01*
X107712038Y-76947962D01*
X107846613Y-77058405D01*
X108000149Y-77140472D01*
X108166745Y-77191008D01*
X108339999Y-77208072D01*
X108990001Y-77208072D01*
X109163255Y-77191008D01*
X109329851Y-77140472D01*
X109483387Y-77058405D01*
X109617962Y-76947962D01*
X109728405Y-76813387D01*
X109810472Y-76659851D01*
X109819527Y-76630000D01*
X113080473Y-76630000D01*
X113089528Y-76659851D01*
X113171595Y-76813387D01*
X113282038Y-76947962D01*
X113416613Y-77058405D01*
X113570149Y-77140472D01*
X113736745Y-77191008D01*
X113909999Y-77208072D01*
X114560001Y-77208072D01*
X114733255Y-77191008D01*
X114899851Y-77140472D01*
X115053387Y-77058405D01*
X115187962Y-76947962D01*
X115193342Y-76941406D01*
X115258815Y-77021185D01*
X115355506Y-77100537D01*
X115465820Y-77159502D01*
X115585518Y-77195812D01*
X115710000Y-77208072D01*
X115999250Y-77205000D01*
X116158000Y-77046250D01*
X116158000Y-75997000D01*
X116412000Y-75997000D01*
X116412000Y-77046250D01*
X116570750Y-77205000D01*
X116860000Y-77208072D01*
X116984482Y-77195812D01*
X117104180Y-77159502D01*
X117214494Y-77100537D01*
X117311185Y-77021185D01*
X117390537Y-76924494D01*
X117449502Y-76814180D01*
X117485812Y-76694482D01*
X117498072Y-76570000D01*
X117495000Y-76155750D01*
X117336250Y-75997000D01*
X116412000Y-75997000D01*
X116158000Y-75997000D01*
X116138000Y-75997000D01*
X116138000Y-75743000D01*
X116158000Y-75743000D01*
X116158000Y-74693750D01*
X116412000Y-74693750D01*
X116412000Y-75743000D01*
X117336250Y-75743000D01*
X117495000Y-75584250D01*
X117498072Y-75170000D01*
X117485812Y-75045518D01*
X117449502Y-74925820D01*
X117390537Y-74815506D01*
X117311185Y-74718815D01*
X117214494Y-74639463D01*
X117104180Y-74580498D01*
X116984482Y-74544188D01*
X116860000Y-74531928D01*
X116570750Y-74535000D01*
X116412000Y-74693750D01*
X116158000Y-74693750D01*
X115999250Y-74535000D01*
X115710000Y-74531928D01*
X115585518Y-74544188D01*
X115465820Y-74580498D01*
X115355506Y-74639463D01*
X115258815Y-74718815D01*
X115193342Y-74798594D01*
X115187962Y-74792038D01*
X115053387Y-74681595D01*
X114899851Y-74599528D01*
X114733255Y-74548992D01*
X114560001Y-74531928D01*
X113909999Y-74531928D01*
X113736745Y-74548992D01*
X113570149Y-74599528D01*
X113416613Y-74681595D01*
X113282038Y-74792038D01*
X113171595Y-74926613D01*
X113089528Y-75080149D01*
X113080473Y-75110000D01*
X109819527Y-75110000D01*
X109810472Y-75080149D01*
X109728405Y-74926613D01*
X109617962Y-74792038D01*
X109483387Y-74681595D01*
X109329851Y-74599528D01*
X109163255Y-74548992D01*
X108990001Y-74531928D01*
X108339999Y-74531928D01*
X108166745Y-74548992D01*
X108000149Y-74599528D01*
X107846613Y-74681595D01*
X107712038Y-74792038D01*
X107640000Y-74879816D01*
X107567962Y-74792038D01*
X107433387Y-74681595D01*
X107279851Y-74599528D01*
X107113255Y-74548992D01*
X106940001Y-74531928D01*
X106289999Y-74531928D01*
X106116745Y-74548992D01*
X105950149Y-74599528D01*
X105796613Y-74681595D01*
X105662038Y-74792038D01*
X105551595Y-74926613D01*
X105547145Y-74934938D01*
X105401898Y-74874774D01*
X105201939Y-74835000D01*
X104998061Y-74835000D01*
X104798102Y-74874774D01*
X104609744Y-74952795D01*
X104440226Y-75066063D01*
X104296063Y-75210226D01*
X104182795Y-75379744D01*
X104104774Y-75568102D01*
X104065000Y-75768061D01*
X100660000Y-75768061D01*
X100660000Y-71704061D01*
X146991000Y-71704061D01*
X146991000Y-71907939D01*
X147030774Y-72107898D01*
X147108795Y-72296256D01*
X147222063Y-72465774D01*
X147366226Y-72609937D01*
X147535744Y-72723205D01*
X147724102Y-72801226D01*
X147924061Y-72841000D01*
X148127939Y-72841000D01*
X148327898Y-72801226D01*
X148516256Y-72723205D01*
X148664614Y-72624075D01*
X148731595Y-72749387D01*
X148842038Y-72883962D01*
X148976613Y-72994405D01*
X149129266Y-73076000D01*
X148976613Y-73157595D01*
X148842038Y-73268038D01*
X148731595Y-73402613D01*
X148664614Y-73527925D01*
X148516256Y-73428795D01*
X148327898Y-73350774D01*
X148127939Y-73311000D01*
X147924061Y-73311000D01*
X147724102Y-73350774D01*
X147535744Y-73428795D01*
X147366226Y-73542063D01*
X147222063Y-73686226D01*
X147108795Y-73855744D01*
X147030774Y-74044102D01*
X146991000Y-74244061D01*
X146991000Y-74447939D01*
X147030774Y-74647898D01*
X147108795Y-74836256D01*
X147222063Y-75005774D01*
X147366226Y-75149937D01*
X147535744Y-75263205D01*
X147724102Y-75341226D01*
X147924061Y-75381000D01*
X148127939Y-75381000D01*
X148327898Y-75341226D01*
X148516256Y-75263205D01*
X148664614Y-75164075D01*
X148731595Y-75289387D01*
X148842038Y-75423962D01*
X148976613Y-75534405D01*
X149130149Y-75616472D01*
X149296745Y-75667008D01*
X149469999Y-75684072D01*
X150120001Y-75684072D01*
X150293255Y-75667008D01*
X150459851Y-75616472D01*
X150613387Y-75534405D01*
X150747962Y-75423962D01*
X150820000Y-75336184D01*
X150892038Y-75423962D01*
X151026613Y-75534405D01*
X151180149Y-75616472D01*
X151346745Y-75667008D01*
X151519999Y-75684072D01*
X152170001Y-75684072D01*
X152343255Y-75667008D01*
X152509851Y-75616472D01*
X152663387Y-75534405D01*
X152797962Y-75423962D01*
X152908405Y-75289387D01*
X152990472Y-75135851D01*
X152999527Y-75106000D01*
X155504091Y-75106000D01*
X155586201Y-75228886D01*
X155779114Y-75421799D01*
X156005957Y-75573371D01*
X156258011Y-75677775D01*
X156525589Y-75731000D01*
X156798411Y-75731000D01*
X157065989Y-75677775D01*
X157318043Y-75573371D01*
X157544886Y-75421799D01*
X157737799Y-75228886D01*
X157819909Y-75106000D01*
X160971822Y-75106000D01*
X161096525Y-75292632D01*
X161303368Y-75499475D01*
X161546589Y-75661990D01*
X161816842Y-75773932D01*
X162103740Y-75831000D01*
X162396260Y-75831000D01*
X162683158Y-75773932D01*
X162953411Y-75661990D01*
X163196632Y-75499475D01*
X163403475Y-75292632D01*
X163565990Y-75049411D01*
X163677932Y-74779158D01*
X163735000Y-74492260D01*
X163735000Y-74199740D01*
X163677932Y-73912842D01*
X163565990Y-73642589D01*
X163403475Y-73399368D01*
X163271620Y-73267513D01*
X163344180Y-73245502D01*
X163454494Y-73186537D01*
X163551185Y-73107185D01*
X163630537Y-73010494D01*
X163689502Y-72900180D01*
X163725812Y-72780482D01*
X163738072Y-72656000D01*
X163738072Y-70956000D01*
X163725812Y-70831518D01*
X163689502Y-70711820D01*
X163630537Y-70601506D01*
X163551185Y-70504815D01*
X163454494Y-70425463D01*
X163344180Y-70366498D01*
X163224482Y-70330188D01*
X163100000Y-70317928D01*
X161400000Y-70317928D01*
X161275518Y-70330188D01*
X161155820Y-70366498D01*
X161045506Y-70425463D01*
X160948815Y-70504815D01*
X160869463Y-70601506D01*
X160810498Y-70711820D01*
X160774188Y-70831518D01*
X160761928Y-70956000D01*
X160761928Y-71046000D01*
X157819909Y-71046000D01*
X157737799Y-70923114D01*
X157544886Y-70730201D01*
X157318043Y-70578629D01*
X157065989Y-70474225D01*
X156798411Y-70421000D01*
X156525589Y-70421000D01*
X156258011Y-70474225D01*
X156005957Y-70578629D01*
X155779114Y-70730201D01*
X155586201Y-70923114D01*
X155504091Y-71046000D01*
X152999527Y-71046000D01*
X152990472Y-71016149D01*
X152908405Y-70862613D01*
X152797962Y-70728038D01*
X152663387Y-70617595D01*
X152509851Y-70535528D01*
X152343255Y-70484992D01*
X152170001Y-70467928D01*
X151519999Y-70467928D01*
X151346745Y-70484992D01*
X151180149Y-70535528D01*
X151026613Y-70617595D01*
X150892038Y-70728038D01*
X150820000Y-70815816D01*
X150747962Y-70728038D01*
X150613387Y-70617595D01*
X150459851Y-70535528D01*
X150293255Y-70484992D01*
X150120001Y-70467928D01*
X149469999Y-70467928D01*
X149296745Y-70484992D01*
X149130149Y-70535528D01*
X148976613Y-70617595D01*
X148842038Y-70728038D01*
X148731595Y-70862613D01*
X148664614Y-70987925D01*
X148516256Y-70888795D01*
X148327898Y-70810774D01*
X148127939Y-70771000D01*
X147924061Y-70771000D01*
X147724102Y-70810774D01*
X147535744Y-70888795D01*
X147366226Y-71002063D01*
X147222063Y-71146226D01*
X147108795Y-71315744D01*
X147030774Y-71504102D01*
X146991000Y-71704061D01*
X100660000Y-71704061D01*
X100660000Y-62560061D01*
X103811000Y-62560061D01*
X103811000Y-62763939D01*
X103850774Y-62963898D01*
X103928795Y-63152256D01*
X104042063Y-63321774D01*
X104186226Y-63465937D01*
X104355744Y-63579205D01*
X104544102Y-63657226D01*
X104744061Y-63697000D01*
X104947939Y-63697000D01*
X105147898Y-63657226D01*
X105336256Y-63579205D01*
X105484614Y-63480075D01*
X105551595Y-63605387D01*
X105662038Y-63739962D01*
X105796613Y-63850405D01*
X105950149Y-63932472D01*
X106116745Y-63983008D01*
X106289999Y-64000072D01*
X106940001Y-64000072D01*
X107113255Y-63983008D01*
X107279851Y-63932472D01*
X107433387Y-63850405D01*
X107567962Y-63739962D01*
X107640000Y-63652184D01*
X107712038Y-63739962D01*
X107846613Y-63850405D01*
X108000149Y-63932472D01*
X108166745Y-63983008D01*
X108339999Y-64000072D01*
X108990001Y-64000072D01*
X109163255Y-63983008D01*
X109329851Y-63932472D01*
X109483387Y-63850405D01*
X109617962Y-63739962D01*
X109728405Y-63605387D01*
X109810472Y-63451851D01*
X109819527Y-63422000D01*
X113080473Y-63422000D01*
X113089528Y-63451851D01*
X113171595Y-63605387D01*
X113282038Y-63739962D01*
X113416613Y-63850405D01*
X113570149Y-63932472D01*
X113736745Y-63983008D01*
X113909999Y-64000072D01*
X114560001Y-64000072D01*
X114733255Y-63983008D01*
X114899851Y-63932472D01*
X115053387Y-63850405D01*
X115187962Y-63739962D01*
X115193342Y-63733406D01*
X115258815Y-63813185D01*
X115355506Y-63892537D01*
X115465820Y-63951502D01*
X115585518Y-63987812D01*
X115710000Y-64000072D01*
X115999250Y-63997000D01*
X116158000Y-63838250D01*
X116158000Y-62789000D01*
X116412000Y-62789000D01*
X116412000Y-63838250D01*
X116570750Y-63997000D01*
X116860000Y-64000072D01*
X116984482Y-63987812D01*
X117104180Y-63951502D01*
X117214494Y-63892537D01*
X117311185Y-63813185D01*
X117390537Y-63716494D01*
X117449502Y-63606180D01*
X117485812Y-63486482D01*
X117498072Y-63362000D01*
X117495000Y-62947750D01*
X117336250Y-62789000D01*
X116412000Y-62789000D01*
X116158000Y-62789000D01*
X116138000Y-62789000D01*
X116138000Y-62535000D01*
X116158000Y-62535000D01*
X116158000Y-61485750D01*
X116412000Y-61485750D01*
X116412000Y-62535000D01*
X117336250Y-62535000D01*
X117495000Y-62376250D01*
X117498072Y-61962000D01*
X117485812Y-61837518D01*
X117449502Y-61717820D01*
X117390537Y-61607506D01*
X117311185Y-61510815D01*
X117214494Y-61431463D01*
X117104180Y-61372498D01*
X116984482Y-61336188D01*
X116860000Y-61323928D01*
X116570750Y-61327000D01*
X116412000Y-61485750D01*
X116158000Y-61485750D01*
X115999250Y-61327000D01*
X115710000Y-61323928D01*
X115585518Y-61336188D01*
X115465820Y-61372498D01*
X115355506Y-61431463D01*
X115258815Y-61510815D01*
X115193342Y-61590594D01*
X115187962Y-61584038D01*
X115053387Y-61473595D01*
X114899851Y-61391528D01*
X114733255Y-61340992D01*
X114560001Y-61323928D01*
X113909999Y-61323928D01*
X113736745Y-61340992D01*
X113570149Y-61391528D01*
X113416613Y-61473595D01*
X113282038Y-61584038D01*
X113171595Y-61718613D01*
X113089528Y-61872149D01*
X113080473Y-61902000D01*
X109819527Y-61902000D01*
X109810472Y-61872149D01*
X109728405Y-61718613D01*
X109617962Y-61584038D01*
X109483387Y-61473595D01*
X109329851Y-61391528D01*
X109163255Y-61340992D01*
X108990001Y-61323928D01*
X108339999Y-61323928D01*
X108166745Y-61340992D01*
X108000149Y-61391528D01*
X107846613Y-61473595D01*
X107712038Y-61584038D01*
X107640000Y-61671816D01*
X107567962Y-61584038D01*
X107433387Y-61473595D01*
X107279851Y-61391528D01*
X107113255Y-61340992D01*
X106940001Y-61323928D01*
X106289999Y-61323928D01*
X106116745Y-61340992D01*
X105950149Y-61391528D01*
X105796613Y-61473595D01*
X105662038Y-61584038D01*
X105551595Y-61718613D01*
X105484614Y-61843925D01*
X105336256Y-61744795D01*
X105147898Y-61666774D01*
X104947939Y-61627000D01*
X104744061Y-61627000D01*
X104544102Y-61666774D01*
X104355744Y-61744795D01*
X104186226Y-61858063D01*
X104042063Y-62002226D01*
X103928795Y-62171744D01*
X103850774Y-62360102D01*
X103811000Y-62560061D01*
X100660000Y-62560061D01*
X100660000Y-57988061D01*
X103811000Y-57988061D01*
X103811000Y-58191939D01*
X103850774Y-58391898D01*
X103928795Y-58580256D01*
X104042063Y-58749774D01*
X104186226Y-58893937D01*
X104355744Y-59007205D01*
X104544102Y-59085226D01*
X104744061Y-59125000D01*
X104947939Y-59125000D01*
X105147898Y-59085226D01*
X105336256Y-59007205D01*
X105484614Y-58908075D01*
X105551595Y-59033387D01*
X105662038Y-59167962D01*
X105796613Y-59278405D01*
X105950149Y-59360472D01*
X106116745Y-59411008D01*
X106289999Y-59428072D01*
X106940001Y-59428072D01*
X107113255Y-59411008D01*
X107279851Y-59360472D01*
X107433387Y-59278405D01*
X107567962Y-59167962D01*
X107640000Y-59080184D01*
X107712038Y-59167962D01*
X107846613Y-59278405D01*
X108000149Y-59360472D01*
X108166745Y-59411008D01*
X108339999Y-59428072D01*
X108990001Y-59428072D01*
X109163255Y-59411008D01*
X109329851Y-59360472D01*
X109483387Y-59278405D01*
X109617962Y-59167962D01*
X109728405Y-59033387D01*
X109810472Y-58879851D01*
X109819527Y-58850000D01*
X113080473Y-58850000D01*
X113089528Y-58879851D01*
X113171595Y-59033387D01*
X113282038Y-59167962D01*
X113416613Y-59278405D01*
X113570149Y-59360472D01*
X113736745Y-59411008D01*
X113909999Y-59428072D01*
X114560001Y-59428072D01*
X114733255Y-59411008D01*
X114899851Y-59360472D01*
X115053387Y-59278405D01*
X115187962Y-59167962D01*
X115193342Y-59161406D01*
X115258815Y-59241185D01*
X115355506Y-59320537D01*
X115465820Y-59379502D01*
X115585518Y-59415812D01*
X115710000Y-59428072D01*
X115999250Y-59425000D01*
X116158000Y-59266250D01*
X116158000Y-58217000D01*
X116412000Y-58217000D01*
X116412000Y-59266250D01*
X116570750Y-59425000D01*
X116860000Y-59428072D01*
X116984482Y-59415812D01*
X117104180Y-59379502D01*
X117214494Y-59320537D01*
X117311185Y-59241185D01*
X117390537Y-59144494D01*
X117449502Y-59034180D01*
X117485812Y-58914482D01*
X117498072Y-58790000D01*
X117495000Y-58375750D01*
X117336250Y-58217000D01*
X116412000Y-58217000D01*
X116158000Y-58217000D01*
X116138000Y-58217000D01*
X116138000Y-57963000D01*
X116158000Y-57963000D01*
X116158000Y-56913750D01*
X116412000Y-56913750D01*
X116412000Y-57963000D01*
X117336250Y-57963000D01*
X117495000Y-57804250D01*
X117498072Y-57390000D01*
X117485812Y-57265518D01*
X117449502Y-57145820D01*
X117390537Y-57035506D01*
X117311185Y-56938815D01*
X117214494Y-56859463D01*
X117104180Y-56800498D01*
X116984482Y-56764188D01*
X116860000Y-56751928D01*
X116570750Y-56755000D01*
X116412000Y-56913750D01*
X116158000Y-56913750D01*
X115999250Y-56755000D01*
X115710000Y-56751928D01*
X115585518Y-56764188D01*
X115465820Y-56800498D01*
X115355506Y-56859463D01*
X115258815Y-56938815D01*
X115193342Y-57018594D01*
X115187962Y-57012038D01*
X115053387Y-56901595D01*
X114899851Y-56819528D01*
X114733255Y-56768992D01*
X114560001Y-56751928D01*
X113909999Y-56751928D01*
X113736745Y-56768992D01*
X113570149Y-56819528D01*
X113416613Y-56901595D01*
X113282038Y-57012038D01*
X113171595Y-57146613D01*
X113089528Y-57300149D01*
X113080473Y-57330000D01*
X109819527Y-57330000D01*
X109810472Y-57300149D01*
X109728405Y-57146613D01*
X109617962Y-57012038D01*
X109483387Y-56901595D01*
X109329851Y-56819528D01*
X109163255Y-56768992D01*
X108990001Y-56751928D01*
X108339999Y-56751928D01*
X108166745Y-56768992D01*
X108000149Y-56819528D01*
X107846613Y-56901595D01*
X107712038Y-57012038D01*
X107640000Y-57099816D01*
X107567962Y-57012038D01*
X107433387Y-56901595D01*
X107279851Y-56819528D01*
X107113255Y-56768992D01*
X106940001Y-56751928D01*
X106289999Y-56751928D01*
X106116745Y-56768992D01*
X105950149Y-56819528D01*
X105796613Y-56901595D01*
X105662038Y-57012038D01*
X105551595Y-57146613D01*
X105484614Y-57271925D01*
X105336256Y-57172795D01*
X105147898Y-57094774D01*
X104947939Y-57055000D01*
X104744061Y-57055000D01*
X104544102Y-57094774D01*
X104355744Y-57172795D01*
X104186226Y-57286063D01*
X104042063Y-57430226D01*
X103928795Y-57599744D01*
X103850774Y-57788102D01*
X103811000Y-57988061D01*
X100660000Y-57988061D01*
X100660000Y-49053740D01*
X103615000Y-49053740D01*
X103615000Y-49346260D01*
X103672068Y-49633158D01*
X103784010Y-49903411D01*
X103946525Y-50146632D01*
X104153368Y-50353475D01*
X104344088Y-50480910D01*
X104350998Y-50551067D01*
X104364180Y-50594523D01*
X104394454Y-50694327D01*
X104465026Y-50826357D01*
X104536201Y-50913083D01*
X104560000Y-50942082D01*
X104588998Y-50965880D01*
X108160124Y-54537008D01*
X108183918Y-54566001D01*
X108212911Y-54589795D01*
X108212915Y-54589799D01*
X108269487Y-54636226D01*
X108299643Y-54660974D01*
X108431672Y-54731546D01*
X108574933Y-54775003D01*
X108686586Y-54786000D01*
X108686595Y-54786000D01*
X108723918Y-54789676D01*
X108761241Y-54786000D01*
X116588289Y-54786000D01*
X116632226Y-54829937D01*
X116801744Y-54943205D01*
X116990102Y-55021226D01*
X117190061Y-55061000D01*
X117393939Y-55061000D01*
X117593898Y-55021226D01*
X117782256Y-54943205D01*
X117951774Y-54829937D01*
X118095937Y-54685774D01*
X118209205Y-54516256D01*
X118287226Y-54327898D01*
X118327000Y-54127939D01*
X118327000Y-53924061D01*
X118287226Y-53724102D01*
X118209205Y-53535744D01*
X118095937Y-53366226D01*
X117993711Y-53264000D01*
X118095937Y-53161774D01*
X118209205Y-52992256D01*
X118287226Y-52803898D01*
X118327000Y-52603939D01*
X118327000Y-52400061D01*
X118287226Y-52200102D01*
X118209205Y-52011744D01*
X118095937Y-51842226D01*
X117951774Y-51698063D01*
X117782256Y-51584795D01*
X117593898Y-51506774D01*
X117393939Y-51467000D01*
X117190061Y-51467000D01*
X116990102Y-51506774D01*
X116801744Y-51584795D01*
X116632226Y-51698063D01*
X116588289Y-51742000D01*
X111256802Y-51742000D01*
X110199802Y-50685000D01*
X110326260Y-50685000D01*
X110613158Y-50627932D01*
X110883411Y-50515990D01*
X111126632Y-50353475D01*
X111333475Y-50146632D01*
X111450000Y-49972240D01*
X111566525Y-50146632D01*
X111773368Y-50353475D01*
X112016589Y-50515990D01*
X112286842Y-50627932D01*
X112573740Y-50685000D01*
X112866260Y-50685000D01*
X113153158Y-50627932D01*
X113423411Y-50515990D01*
X113666632Y-50353475D01*
X113873475Y-50146632D01*
X113990000Y-49972240D01*
X114106525Y-50146632D01*
X114313368Y-50353475D01*
X114556589Y-50515990D01*
X114826842Y-50627932D01*
X115113740Y-50685000D01*
X115406260Y-50685000D01*
X115693158Y-50627932D01*
X115963411Y-50515990D01*
X116206632Y-50353475D01*
X116338487Y-50221620D01*
X116360498Y-50294180D01*
X116419463Y-50404494D01*
X116498815Y-50501185D01*
X116595506Y-50580537D01*
X116705820Y-50639502D01*
X116825518Y-50675812D01*
X116950000Y-50688072D01*
X118650000Y-50688072D01*
X118774482Y-50675812D01*
X118894180Y-50639502D01*
X119004494Y-50580537D01*
X119101185Y-50501185D01*
X119180537Y-50404494D01*
X119239502Y-50294180D01*
X119275812Y-50174482D01*
X119288072Y-50050000D01*
X119288072Y-49053740D01*
X121395000Y-49053740D01*
X121395000Y-49346260D01*
X121452068Y-49633158D01*
X121564010Y-49903411D01*
X121726525Y-50146632D01*
X121933368Y-50353475D01*
X122176589Y-50515990D01*
X122446842Y-50627932D01*
X122733740Y-50685000D01*
X123026260Y-50685000D01*
X123313158Y-50627932D01*
X123583411Y-50515990D01*
X123826632Y-50353475D01*
X124033475Y-50146632D01*
X124155195Y-49964466D01*
X124224822Y-50081355D01*
X124419731Y-50297588D01*
X124653080Y-50471641D01*
X124915901Y-50596825D01*
X125063110Y-50641476D01*
X125293000Y-50520155D01*
X125293000Y-49327000D01*
X125547000Y-49327000D01*
X125547000Y-50520155D01*
X125776890Y-50641476D01*
X125924099Y-50596825D01*
X126186920Y-50471641D01*
X126420269Y-50297588D01*
X126615178Y-50081355D01*
X126690000Y-49955745D01*
X126764822Y-50081355D01*
X126959731Y-50297588D01*
X127193080Y-50471641D01*
X127455901Y-50596825D01*
X127603110Y-50641476D01*
X127833000Y-50520155D01*
X127833000Y-49327000D01*
X125547000Y-49327000D01*
X125293000Y-49327000D01*
X125273000Y-49327000D01*
X125273000Y-49073000D01*
X125293000Y-49073000D01*
X125293000Y-47879845D01*
X125547000Y-47879845D01*
X125547000Y-49073000D01*
X127833000Y-49073000D01*
X127833000Y-47879845D01*
X128087000Y-47879845D01*
X128087000Y-49073000D01*
X128107000Y-49073000D01*
X128107000Y-49327000D01*
X128087000Y-49327000D01*
X128087000Y-50520155D01*
X128316890Y-50641476D01*
X128464099Y-50596825D01*
X128726920Y-50471641D01*
X128960269Y-50297588D01*
X129155178Y-50081355D01*
X129224805Y-49964466D01*
X129346525Y-50146632D01*
X129553368Y-50353475D01*
X129796589Y-50515990D01*
X130066842Y-50627932D01*
X130353740Y-50685000D01*
X130646260Y-50685000D01*
X130933158Y-50627932D01*
X131203411Y-50515990D01*
X131446632Y-50353475D01*
X131653475Y-50146632D01*
X131770000Y-49972240D01*
X131886525Y-50146632D01*
X132093368Y-50353475D01*
X132280001Y-50478179D01*
X132280000Y-58746759D01*
X132276324Y-58784081D01*
X132280000Y-58821403D01*
X132280000Y-58821413D01*
X132290997Y-58933066D01*
X132314330Y-59009986D01*
X132334454Y-59076327D01*
X132405026Y-59208357D01*
X132444871Y-59256907D01*
X132499999Y-59324082D01*
X132529003Y-59347885D01*
X135846120Y-62665003D01*
X135869918Y-62694001D01*
X135898916Y-62717799D01*
X135985642Y-62788974D01*
X136113678Y-62857411D01*
X136117672Y-62859546D01*
X136260933Y-62903003D01*
X136331091Y-62909913D01*
X136458525Y-63100632D01*
X136665368Y-63307475D01*
X136908589Y-63469990D01*
X137178842Y-63581932D01*
X137465740Y-63639000D01*
X137758260Y-63639000D01*
X138045158Y-63581932D01*
X138315411Y-63469990D01*
X138558632Y-63307475D01*
X138690487Y-63175620D01*
X138712498Y-63248180D01*
X138771463Y-63358494D01*
X138850815Y-63455185D01*
X138947506Y-63534537D01*
X139057820Y-63593502D01*
X139177518Y-63629812D01*
X139302000Y-63642072D01*
X141002000Y-63642072D01*
X141126482Y-63629812D01*
X141246180Y-63593502D01*
X141356494Y-63534537D01*
X141453185Y-63455185D01*
X141532537Y-63358494D01*
X141591502Y-63248180D01*
X141627812Y-63128482D01*
X141640072Y-63004000D01*
X141640072Y-61304000D01*
X141627812Y-61179518D01*
X141591502Y-61059820D01*
X141532537Y-60949506D01*
X141453185Y-60852815D01*
X141356494Y-60773463D01*
X141246180Y-60714498D01*
X141126482Y-60678188D01*
X141002000Y-60665928D01*
X140912000Y-60665928D01*
X140912000Y-60015527D01*
X140941851Y-60006472D01*
X141095387Y-59924405D01*
X141229962Y-59813962D01*
X141340405Y-59679387D01*
X141422472Y-59525851D01*
X141473008Y-59359255D01*
X141490072Y-59186001D01*
X141490072Y-58535999D01*
X141473008Y-58362745D01*
X141422472Y-58196149D01*
X141340405Y-58042613D01*
X141267345Y-57953589D01*
X155215000Y-57953589D01*
X155215000Y-58226411D01*
X155268225Y-58493989D01*
X155372629Y-58746043D01*
X155524201Y-58972886D01*
X155717114Y-59165799D01*
X155943957Y-59317371D01*
X156046873Y-59360000D01*
X155943957Y-59402629D01*
X155717114Y-59554201D01*
X155524201Y-59747114D01*
X155372629Y-59973957D01*
X155268225Y-60226011D01*
X155215000Y-60493589D01*
X155215000Y-60766411D01*
X155268225Y-61033989D01*
X155372629Y-61286043D01*
X155524201Y-61512886D01*
X155717114Y-61705799D01*
X155943957Y-61857371D01*
X156196011Y-61961775D01*
X156463589Y-62015000D01*
X156736411Y-62015000D01*
X157003989Y-61961775D01*
X157256043Y-61857371D01*
X157482886Y-61705799D01*
X157675799Y-61512886D01*
X157757909Y-61390000D01*
X160971822Y-61390000D01*
X161096525Y-61576632D01*
X161303368Y-61783475D01*
X161546589Y-61945990D01*
X161816842Y-62057932D01*
X162103740Y-62115000D01*
X162396260Y-62115000D01*
X162683158Y-62057932D01*
X162953411Y-61945990D01*
X163196632Y-61783475D01*
X163403475Y-61576632D01*
X163565990Y-61333411D01*
X163677932Y-61063158D01*
X163735000Y-60776260D01*
X163735000Y-60483740D01*
X163677932Y-60196842D01*
X163565990Y-59926589D01*
X163403475Y-59683368D01*
X163271620Y-59551513D01*
X163344180Y-59529502D01*
X163454494Y-59470537D01*
X163551185Y-59391185D01*
X163630537Y-59294494D01*
X163689502Y-59184180D01*
X163725812Y-59064482D01*
X163738072Y-58940000D01*
X163738072Y-57240000D01*
X163725812Y-57115518D01*
X163689502Y-56995820D01*
X163630537Y-56885506D01*
X163551185Y-56788815D01*
X163454494Y-56709463D01*
X163344180Y-56650498D01*
X163224482Y-56614188D01*
X163100000Y-56601928D01*
X161400000Y-56601928D01*
X161275518Y-56614188D01*
X161155820Y-56650498D01*
X161045506Y-56709463D01*
X160948815Y-56788815D01*
X160869463Y-56885506D01*
X160810498Y-56995820D01*
X160774188Y-57115518D01*
X160761928Y-57240000D01*
X160761928Y-57330000D01*
X157757909Y-57330000D01*
X157675799Y-57207114D01*
X157482886Y-57014201D01*
X157256043Y-56862629D01*
X157003989Y-56758225D01*
X156736411Y-56705000D01*
X156463589Y-56705000D01*
X156196011Y-56758225D01*
X155943957Y-56862629D01*
X155717114Y-57014201D01*
X155524201Y-57207114D01*
X155372629Y-57433957D01*
X155268225Y-57686011D01*
X155215000Y-57953589D01*
X141267345Y-57953589D01*
X141229962Y-57908038D01*
X141142184Y-57836000D01*
X141229962Y-57763962D01*
X141340405Y-57629387D01*
X141422472Y-57475851D01*
X141473008Y-57309255D01*
X141490072Y-57136001D01*
X141490072Y-56485999D01*
X141473008Y-56312745D01*
X141422472Y-56146149D01*
X141340405Y-55992613D01*
X141229962Y-55858038D01*
X141095387Y-55747595D01*
X141087062Y-55743145D01*
X141147226Y-55597898D01*
X141187000Y-55397939D01*
X141187000Y-55194061D01*
X141147226Y-54994102D01*
X141069205Y-54805744D01*
X140955937Y-54636226D01*
X140811774Y-54492063D01*
X140642256Y-54378795D01*
X140453898Y-54300774D01*
X140253939Y-54261000D01*
X140050061Y-54261000D01*
X139850102Y-54300774D01*
X139661744Y-54378795D01*
X139492226Y-54492063D01*
X139348063Y-54636226D01*
X139234795Y-54805744D01*
X139156774Y-54994102D01*
X139117000Y-55194061D01*
X139117000Y-55397939D01*
X139156774Y-55597898D01*
X139216938Y-55743145D01*
X139208613Y-55747595D01*
X139074038Y-55858038D01*
X139009000Y-55937287D01*
X138943962Y-55858038D01*
X138809387Y-55747595D01*
X138655851Y-55665528D01*
X138489255Y-55614992D01*
X138316001Y-55597928D01*
X137631140Y-55597928D01*
X137515986Y-55562997D01*
X137404333Y-55552000D01*
X137404322Y-55552000D01*
X137367000Y-55548324D01*
X137329678Y-55552000D01*
X136791711Y-55552000D01*
X136747774Y-55508063D01*
X136578256Y-55394795D01*
X136389898Y-55316774D01*
X136189939Y-55277000D01*
X135986061Y-55277000D01*
X135786102Y-55316774D01*
X135597744Y-55394795D01*
X135428226Y-55508063D01*
X135284063Y-55652226D01*
X135170795Y-55821744D01*
X135092774Y-56010102D01*
X135053000Y-56210061D01*
X135053000Y-56413939D01*
X135092774Y-56613898D01*
X135170795Y-56802256D01*
X135284063Y-56971774D01*
X135428226Y-57115937D01*
X135597744Y-57229205D01*
X135786102Y-57307226D01*
X135986061Y-57347000D01*
X136189939Y-57347000D01*
X136389898Y-57307226D01*
X136538721Y-57245581D01*
X136544992Y-57309255D01*
X136595528Y-57475851D01*
X136677595Y-57629387D01*
X136788038Y-57763962D01*
X136875816Y-57836000D01*
X136788038Y-57908038D01*
X136677595Y-58042613D01*
X136595528Y-58196149D01*
X136544992Y-58362745D01*
X136527928Y-58535999D01*
X136527928Y-59186001D01*
X136544992Y-59359255D01*
X136595528Y-59525851D01*
X136677595Y-59679387D01*
X136788038Y-59813962D01*
X136922613Y-59924405D01*
X137076149Y-60006472D01*
X137242745Y-60057008D01*
X137415999Y-60074072D01*
X138316001Y-60074072D01*
X138489255Y-60057008D01*
X138655851Y-60006472D01*
X138809387Y-59924405D01*
X138943962Y-59813962D01*
X139009000Y-59734713D01*
X139074038Y-59813962D01*
X139208613Y-59924405D01*
X139362149Y-60006472D01*
X139392000Y-60015527D01*
X139392001Y-60665928D01*
X139302000Y-60665928D01*
X139177518Y-60678188D01*
X139057820Y-60714498D01*
X138947506Y-60773463D01*
X138850815Y-60852815D01*
X138771463Y-60949506D01*
X138712498Y-61059820D01*
X138690487Y-61132380D01*
X138558632Y-61000525D01*
X138315411Y-60838010D01*
X138045158Y-60726068D01*
X137758260Y-60669000D01*
X137465740Y-60669000D01*
X137178842Y-60726068D01*
X136908589Y-60838010D01*
X136665368Y-61000525D01*
X136498307Y-61167586D01*
X133800000Y-58469280D01*
X133800000Y-50478178D01*
X133986632Y-50353475D01*
X134193475Y-50146632D01*
X134310000Y-49972240D01*
X134426525Y-50146632D01*
X134633368Y-50353475D01*
X134876589Y-50515990D01*
X135146842Y-50627932D01*
X135433740Y-50685000D01*
X135726260Y-50685000D01*
X136013158Y-50627932D01*
X136283411Y-50515990D01*
X136526632Y-50353475D01*
X136733475Y-50146632D01*
X136850000Y-49972240D01*
X136966525Y-50146632D01*
X137173368Y-50353475D01*
X137416589Y-50515990D01*
X137686842Y-50627932D01*
X137973740Y-50685000D01*
X138266260Y-50685000D01*
X138553158Y-50627932D01*
X138823411Y-50515990D01*
X139066632Y-50353475D01*
X139198487Y-50221620D01*
X139220498Y-50294180D01*
X139279463Y-50404494D01*
X139358815Y-50501185D01*
X139455506Y-50580537D01*
X139565820Y-50639502D01*
X139685518Y-50675812D01*
X139810000Y-50688072D01*
X141510000Y-50688072D01*
X141634482Y-50675812D01*
X141754180Y-50639502D01*
X141864494Y-50580537D01*
X141961185Y-50501185D01*
X142040537Y-50404494D01*
X142099502Y-50294180D01*
X142135812Y-50174482D01*
X142148072Y-50050000D01*
X142148072Y-48350000D01*
X142135812Y-48225518D01*
X142099502Y-48105820D01*
X142040537Y-47995506D01*
X141961185Y-47898815D01*
X141864494Y-47819463D01*
X141754180Y-47760498D01*
X141634482Y-47724188D01*
X141510000Y-47711928D01*
X139810000Y-47711928D01*
X139685518Y-47724188D01*
X139565820Y-47760498D01*
X139455506Y-47819463D01*
X139358815Y-47898815D01*
X139279463Y-47995506D01*
X139220498Y-48105820D01*
X139198487Y-48178380D01*
X139066632Y-48046525D01*
X138823411Y-47884010D01*
X138553158Y-47772068D01*
X138266260Y-47715000D01*
X137973740Y-47715000D01*
X137686842Y-47772068D01*
X137416589Y-47884010D01*
X137173368Y-48046525D01*
X136966525Y-48253368D01*
X136850000Y-48427760D01*
X136733475Y-48253368D01*
X136526632Y-48046525D01*
X136283411Y-47884010D01*
X136013158Y-47772068D01*
X135726260Y-47715000D01*
X135433740Y-47715000D01*
X135146842Y-47772068D01*
X134876589Y-47884010D01*
X134633368Y-48046525D01*
X134426525Y-48253368D01*
X134310000Y-48427760D01*
X134193475Y-48253368D01*
X133986632Y-48046525D01*
X133743411Y-47884010D01*
X133473158Y-47772068D01*
X133186260Y-47715000D01*
X132893740Y-47715000D01*
X132606842Y-47772068D01*
X132336589Y-47884010D01*
X132093368Y-48046525D01*
X131886525Y-48253368D01*
X131770000Y-48427760D01*
X131653475Y-48253368D01*
X131446632Y-48046525D01*
X131203411Y-47884010D01*
X130933158Y-47772068D01*
X130646260Y-47715000D01*
X130353740Y-47715000D01*
X130066842Y-47772068D01*
X129796589Y-47884010D01*
X129553368Y-48046525D01*
X129346525Y-48253368D01*
X129224805Y-48435534D01*
X129155178Y-48318645D01*
X128960269Y-48102412D01*
X128726920Y-47928359D01*
X128464099Y-47803175D01*
X128316890Y-47758524D01*
X128087000Y-47879845D01*
X127833000Y-47879845D01*
X127603110Y-47758524D01*
X127455901Y-47803175D01*
X127193080Y-47928359D01*
X126959731Y-48102412D01*
X126764822Y-48318645D01*
X126690000Y-48444255D01*
X126615178Y-48318645D01*
X126420269Y-48102412D01*
X126186920Y-47928359D01*
X125924099Y-47803175D01*
X125776890Y-47758524D01*
X125547000Y-47879845D01*
X125293000Y-47879845D01*
X125063110Y-47758524D01*
X124915901Y-47803175D01*
X124653080Y-47928359D01*
X124419731Y-48102412D01*
X124224822Y-48318645D01*
X124155195Y-48435534D01*
X124033475Y-48253368D01*
X123826632Y-48046525D01*
X123583411Y-47884010D01*
X123313158Y-47772068D01*
X123026260Y-47715000D01*
X122733740Y-47715000D01*
X122446842Y-47772068D01*
X122176589Y-47884010D01*
X121933368Y-48046525D01*
X121726525Y-48253368D01*
X121564010Y-48496589D01*
X121452068Y-48766842D01*
X121395000Y-49053740D01*
X119288072Y-49053740D01*
X119288072Y-48350000D01*
X119275812Y-48225518D01*
X119239502Y-48105820D01*
X119180537Y-47995506D01*
X119101185Y-47898815D01*
X119004494Y-47819463D01*
X118894180Y-47760498D01*
X118774482Y-47724188D01*
X118650000Y-47711928D01*
X116950000Y-47711928D01*
X116825518Y-47724188D01*
X116705820Y-47760498D01*
X116595506Y-47819463D01*
X116498815Y-47898815D01*
X116419463Y-47995506D01*
X116360498Y-48105820D01*
X116338487Y-48178380D01*
X116206632Y-48046525D01*
X115963411Y-47884010D01*
X115693158Y-47772068D01*
X115406260Y-47715000D01*
X115113740Y-47715000D01*
X114826842Y-47772068D01*
X114556589Y-47884010D01*
X114313368Y-48046525D01*
X114106525Y-48253368D01*
X113990000Y-48427760D01*
X113873475Y-48253368D01*
X113666632Y-48046525D01*
X113423411Y-47884010D01*
X113153158Y-47772068D01*
X112866260Y-47715000D01*
X112573740Y-47715000D01*
X112286842Y-47772068D01*
X112016589Y-47884010D01*
X111773368Y-48046525D01*
X111566525Y-48253368D01*
X111450000Y-48427760D01*
X111333475Y-48253368D01*
X111126632Y-48046525D01*
X110883411Y-47884010D01*
X110613158Y-47772068D01*
X110326260Y-47715000D01*
X110033740Y-47715000D01*
X109746842Y-47772068D01*
X109476589Y-47884010D01*
X109233368Y-48046525D01*
X109026525Y-48253368D01*
X108910000Y-48427760D01*
X108793475Y-48253368D01*
X108586632Y-48046525D01*
X108343411Y-47884010D01*
X108073158Y-47772068D01*
X107786260Y-47715000D01*
X107493740Y-47715000D01*
X107206842Y-47772068D01*
X106936589Y-47884010D01*
X106693368Y-48046525D01*
X106486525Y-48253368D01*
X106370000Y-48427760D01*
X106253475Y-48253368D01*
X106046632Y-48046525D01*
X105803411Y-47884010D01*
X105533158Y-47772068D01*
X105246260Y-47715000D01*
X104953740Y-47715000D01*
X104666842Y-47772068D01*
X104396589Y-47884010D01*
X104153368Y-48046525D01*
X103946525Y-48253368D01*
X103784010Y-48496589D01*
X103672068Y-48766842D01*
X103615000Y-49053740D01*
X100660000Y-49053740D01*
X100660000Y-47360000D01*
X167940001Y-47360000D01*
X167940000Y-99340000D01*
M02*
