G04 #@! TF.GenerationSoftware,KiCad,Pcbnew,(5.1.5)-2*
G04 #@! TF.CreationDate,2021-06-18T18:05:22+02:00*
G04 #@! TF.ProjectId,IMX_MULTIPROTOCOL,494d585f-4d55-44c5-9449-50524f544f43,rev?*
G04 #@! TF.SameCoordinates,Original*
G04 #@! TF.FileFunction,Legend,Top*
G04 #@! TF.FilePolarity,Positive*
%FSLAX46Y46*%
G04 Gerber Fmt 4.6, Leading zero omitted, Abs format (unit mm)*
G04 Created by KiCad (PCBNEW (5.1.5)-2) date 2021-06-18 18:05:22*
%MOMM*%
%LPD*%
G04 APERTURE LIST*
%ADD10C,0.150000*%
%ADD11C,0.300000*%
%ADD12C,0.250000*%
%ADD13C,0.050000*%
%ADD14C,0.120000*%
%ADD15C,0.010000*%
G04 APERTURE END LIST*
D10*
X144097380Y-66114285D02*
X143097380Y-66114285D01*
X143192619Y-65685714D02*
X143145000Y-65638095D01*
X143097380Y-65542857D01*
X143097380Y-65304761D01*
X143145000Y-65209523D01*
X143192619Y-65161904D01*
X143287857Y-65114285D01*
X143383095Y-65114285D01*
X143525952Y-65161904D01*
X144097380Y-65733333D01*
X144097380Y-65114285D01*
X144002142Y-64114285D02*
X144049761Y-64161904D01*
X144097380Y-64304761D01*
X144097380Y-64400000D01*
X144049761Y-64542857D01*
X143954523Y-64638095D01*
X143859285Y-64685714D01*
X143668809Y-64733333D01*
X143525952Y-64733333D01*
X143335476Y-64685714D01*
X143240238Y-64638095D01*
X143145000Y-64542857D01*
X143097380Y-64400000D01*
X143097380Y-64304761D01*
X143145000Y-64161904D01*
X143192619Y-64114285D01*
X144097380Y-62923809D02*
X143097380Y-62923809D01*
X143097380Y-62542857D01*
X143145000Y-62447619D01*
X143192619Y-62400000D01*
X143287857Y-62352380D01*
X143430714Y-62352380D01*
X143525952Y-62400000D01*
X143573571Y-62447619D01*
X143621190Y-62542857D01*
X143621190Y-62923809D01*
X143097380Y-61923809D02*
X143906904Y-61923809D01*
X144002142Y-61876190D01*
X144049761Y-61828571D01*
X144097380Y-61733333D01*
X144097380Y-61542857D01*
X144049761Y-61447619D01*
X144002142Y-61400000D01*
X143906904Y-61352380D01*
X143097380Y-61352380D01*
X144097380Y-60400000D02*
X144097380Y-60876190D01*
X143097380Y-60876190D01*
X144097380Y-59590476D02*
X144097380Y-60066666D01*
X143097380Y-60066666D01*
X143097380Y-59257142D02*
X143906904Y-59257142D01*
X144002142Y-59209523D01*
X144049761Y-59161904D01*
X144097380Y-59066666D01*
X144097380Y-58876190D01*
X144049761Y-58780952D01*
X144002142Y-58733333D01*
X143906904Y-58685714D01*
X143097380Y-58685714D01*
X144097380Y-58209523D02*
X143097380Y-58209523D01*
X143097380Y-57828571D01*
X143145000Y-57733333D01*
X143192619Y-57685714D01*
X143287857Y-57638095D01*
X143430714Y-57638095D01*
X143525952Y-57685714D01*
X143573571Y-57733333D01*
X143621190Y-57828571D01*
X143621190Y-58209523D01*
X145223571Y-64423809D02*
X145223571Y-64090476D01*
X145747380Y-63947619D02*
X145747380Y-64423809D01*
X144747380Y-64423809D01*
X144747380Y-63947619D01*
X145747380Y-63519047D02*
X144747380Y-63519047D01*
X145747380Y-62947619D01*
X144747380Y-62947619D01*
X145461666Y-62519047D02*
X145461666Y-62042857D01*
X145747380Y-62614285D02*
X144747380Y-62280952D01*
X145747380Y-61947619D01*
X145223571Y-61280952D02*
X145271190Y-61138095D01*
X145318809Y-61090476D01*
X145414047Y-61042857D01*
X145556904Y-61042857D01*
X145652142Y-61090476D01*
X145699761Y-61138095D01*
X145747380Y-61233333D01*
X145747380Y-61614285D01*
X144747380Y-61614285D01*
X144747380Y-61280952D01*
X144795000Y-61185714D01*
X144842619Y-61138095D01*
X144937857Y-61090476D01*
X145033095Y-61090476D01*
X145128333Y-61138095D01*
X145175952Y-61185714D01*
X145223571Y-61280952D01*
X145223571Y-61614285D01*
X145747380Y-60138095D02*
X145747380Y-60614285D01*
X144747380Y-60614285D01*
X145223571Y-59804761D02*
X145223571Y-59471428D01*
X145747380Y-59328571D02*
X145747380Y-59804761D01*
X144747380Y-59804761D01*
X144747380Y-59328571D01*
X141338571Y-88391026D02*
X139838571Y-88203526D01*
X141338571Y-87676741D02*
X139838571Y-87489241D01*
X140910000Y-87123169D01*
X139838571Y-86489241D01*
X141338571Y-86676741D01*
X139838571Y-85917812D02*
X141338571Y-85105312D01*
X139838571Y-84917812D02*
X141338571Y-86105312D01*
X141481428Y-84908883D02*
X141481428Y-83766026D01*
X141338571Y-83391026D02*
X139838571Y-83203526D01*
X140910000Y-82837455D01*
X139838571Y-82203526D01*
X141338571Y-82391026D01*
X139838571Y-81489241D02*
X141052857Y-81641026D01*
X141195714Y-81587455D01*
X141267142Y-81524955D01*
X141338571Y-81391026D01*
X141338571Y-81105312D01*
X141267142Y-80953526D01*
X141195714Y-80873169D01*
X141052857Y-80783883D01*
X139838571Y-80632098D01*
X141338571Y-79391026D02*
X141338571Y-80105312D01*
X139838571Y-79917812D01*
X139838571Y-78917812D02*
X139838571Y-78060669D01*
X141338571Y-78676741D02*
X139838571Y-78489241D01*
X141338571Y-77748169D02*
X139838571Y-77560669D01*
X141338571Y-77033883D02*
X139838571Y-76846383D01*
X139838571Y-76274955D01*
X139910000Y-76141026D01*
X139981428Y-76078526D01*
X140124285Y-76024955D01*
X140338571Y-76051741D01*
X140481428Y-76141026D01*
X140552857Y-76221383D01*
X140624285Y-76373169D01*
X140624285Y-76944598D01*
X141338571Y-74676741D02*
X140624285Y-75087455D01*
X141338571Y-75533883D02*
X139838571Y-75346383D01*
X139838571Y-74774955D01*
X139910000Y-74641026D01*
X139981428Y-74578526D01*
X140124285Y-74524955D01*
X140338571Y-74551741D01*
X140481428Y-74641026D01*
X140552857Y-74721383D01*
X140624285Y-74873169D01*
X140624285Y-75444598D01*
X139838571Y-73560669D02*
X139838571Y-73274955D01*
X139910000Y-73141026D01*
X140052857Y-73016026D01*
X140338571Y-72980312D01*
X140838571Y-73042812D01*
X141124285Y-73149955D01*
X141267142Y-73310669D01*
X141338571Y-73462455D01*
X141338571Y-73748169D01*
X141267142Y-73882098D01*
X141124285Y-74007098D01*
X140838571Y-74042812D01*
X140338571Y-73980312D01*
X140052857Y-73873169D01*
X139910000Y-73712455D01*
X139838571Y-73560669D01*
X139838571Y-72489241D02*
X139838571Y-71632098D01*
X141338571Y-72248169D02*
X139838571Y-72060669D01*
X139838571Y-70846383D02*
X139838571Y-70560669D01*
X139910000Y-70426741D01*
X140052857Y-70301741D01*
X140338571Y-70266026D01*
X140838571Y-70328526D01*
X141124285Y-70435669D01*
X141267142Y-70596383D01*
X141338571Y-70748169D01*
X141338571Y-71033883D01*
X141267142Y-71167812D01*
X141124285Y-71292812D01*
X140838571Y-71328526D01*
X140338571Y-71266026D01*
X140052857Y-71158883D01*
X139910000Y-70998169D01*
X139838571Y-70846383D01*
X141195714Y-68873169D02*
X141267142Y-68953526D01*
X141338571Y-69176741D01*
X141338571Y-69319598D01*
X141267142Y-69524955D01*
X141124285Y-69649955D01*
X140981428Y-69703526D01*
X140695714Y-69739241D01*
X140481428Y-69712455D01*
X140195714Y-69605312D01*
X140052857Y-69516026D01*
X139910000Y-69355312D01*
X139838571Y-69132098D01*
X139838571Y-68989241D01*
X139910000Y-68783883D01*
X139981428Y-68721383D01*
X139838571Y-67774955D02*
X139838571Y-67489241D01*
X139910000Y-67355312D01*
X140052857Y-67230312D01*
X140338571Y-67194598D01*
X140838571Y-67257098D01*
X141124285Y-67364241D01*
X141267142Y-67524955D01*
X141338571Y-67676741D01*
X141338571Y-67962455D01*
X141267142Y-68096383D01*
X141124285Y-68221383D01*
X140838571Y-68257098D01*
X140338571Y-68194598D01*
X140052857Y-68087455D01*
X139910000Y-67926741D01*
X139838571Y-67774955D01*
X141338571Y-65962455D02*
X141338571Y-66676741D01*
X139838571Y-66489241D01*
D11*
X168100000Y-99500000D02*
X168100000Y-47200000D01*
X100600000Y-47200000D02*
X100600000Y-99500000D01*
X168100000Y-47200000D02*
X100600000Y-47200000D01*
X168100000Y-99500000D02*
X100600000Y-99500000D01*
D12*
X158623809Y-98452380D02*
X158623809Y-97452380D01*
X158623809Y-97928571D02*
X159195238Y-97928571D01*
X159195238Y-98452380D02*
X159195238Y-97452380D01*
X159528571Y-97452380D02*
X159861904Y-98452380D01*
X160195238Y-97452380D01*
X161861904Y-98452380D02*
X161528571Y-97976190D01*
X161290476Y-98452380D02*
X161290476Y-97452380D01*
X161671428Y-97452380D01*
X161766666Y-97500000D01*
X161814285Y-97547619D01*
X161861904Y-97642857D01*
X161861904Y-97785714D01*
X161814285Y-97880952D01*
X161766666Y-97928571D01*
X161671428Y-97976190D01*
X161290476Y-97976190D01*
X162671428Y-98404761D02*
X162576190Y-98452380D01*
X162385714Y-98452380D01*
X162290476Y-98404761D01*
X162242857Y-98309523D01*
X162242857Y-97928571D01*
X162290476Y-97833333D01*
X162385714Y-97785714D01*
X162576190Y-97785714D01*
X162671428Y-97833333D01*
X162719047Y-97928571D01*
X162719047Y-98023809D01*
X162242857Y-98119047D01*
X163052380Y-97785714D02*
X163290476Y-98452380D01*
X163528571Y-97785714D01*
X165195238Y-98452380D02*
X164623809Y-98452380D01*
X164909523Y-98452380D02*
X164909523Y-97452380D01*
X164814285Y-97595238D01*
X164719047Y-97690476D01*
X164623809Y-97738095D01*
X165623809Y-98357142D02*
X165671428Y-98404761D01*
X165623809Y-98452380D01*
X165576190Y-98404761D01*
X165623809Y-98357142D01*
X165623809Y-98452380D01*
X166290476Y-97452380D02*
X166385714Y-97452380D01*
X166480952Y-97500000D01*
X166528571Y-97547619D01*
X166576190Y-97642857D01*
X166623809Y-97833333D01*
X166623809Y-98071428D01*
X166576190Y-98261904D01*
X166528571Y-98357142D01*
X166480952Y-98404761D01*
X166385714Y-98452380D01*
X166290476Y-98452380D01*
X166195238Y-98404761D01*
X166147619Y-98357142D01*
X166100000Y-98261904D01*
X166052380Y-98071428D01*
X166052380Y-97833333D01*
X166100000Y-97642857D01*
X166147619Y-97547619D01*
X166195238Y-97500000D01*
X166290476Y-97452380D01*
X103012380Y-58002666D02*
X102536190Y-58336000D01*
X103012380Y-58574095D02*
X102012380Y-58574095D01*
X102012380Y-58193142D01*
X102060000Y-58097904D01*
X102107619Y-58050285D01*
X102202857Y-58002666D01*
X102345714Y-58002666D01*
X102440952Y-58050285D01*
X102488571Y-58097904D01*
X102536190Y-58193142D01*
X102536190Y-58574095D01*
X102012380Y-57669333D02*
X103012380Y-57002666D01*
X102012380Y-57002666D02*
X103012380Y-57669333D01*
X102012380Y-63423904D02*
X102012380Y-62852476D01*
X103012380Y-63138190D02*
X102012380Y-63138190D01*
X102012380Y-62614380D02*
X103012380Y-61947714D01*
X102012380Y-61947714D02*
X103012380Y-62614380D01*
X102012380Y-77465238D02*
X102821904Y-77465238D01*
X102917142Y-77417619D01*
X102964761Y-77370000D01*
X103012380Y-77274761D01*
X103012380Y-77084285D01*
X102964761Y-76989047D01*
X102917142Y-76941428D01*
X102821904Y-76893809D01*
X102012380Y-76893809D01*
X102726666Y-76465238D02*
X102726666Y-75989047D01*
X103012380Y-76560476D02*
X102012380Y-76227142D01*
X103012380Y-75893809D01*
X103012380Y-74989047D02*
X102536190Y-75322380D01*
X103012380Y-75560476D02*
X102012380Y-75560476D01*
X102012380Y-75179523D01*
X102060000Y-75084285D01*
X102107619Y-75036666D01*
X102202857Y-74989047D01*
X102345714Y-74989047D01*
X102440952Y-75036666D01*
X102488571Y-75084285D01*
X102536190Y-75179523D01*
X102536190Y-75560476D01*
X102012380Y-74703333D02*
X102012380Y-74131904D01*
X103012380Y-74417619D02*
X102012380Y-74417619D01*
X102964761Y-81973809D02*
X103012380Y-81830952D01*
X103012380Y-81592857D01*
X102964761Y-81497619D01*
X102917142Y-81450000D01*
X102821904Y-81402380D01*
X102726666Y-81402380D01*
X102631428Y-81450000D01*
X102583809Y-81497619D01*
X102536190Y-81592857D01*
X102488571Y-81783333D01*
X102440952Y-81878571D01*
X102393333Y-81926190D01*
X102298095Y-81973809D01*
X102202857Y-81973809D01*
X102107619Y-81926190D01*
X102060000Y-81878571D01*
X102012380Y-81783333D01*
X102012380Y-81545238D01*
X102060000Y-81402380D01*
X103012380Y-80973809D02*
X102012380Y-80973809D01*
X102012380Y-80592857D01*
X102060000Y-80497619D01*
X102107619Y-80450000D01*
X102202857Y-80402380D01*
X102345714Y-80402380D01*
X102440952Y-80450000D01*
X102488571Y-80497619D01*
X102536190Y-80592857D01*
X102536190Y-80973809D01*
X103012380Y-79973809D02*
X102012380Y-79973809D01*
X103012380Y-87006190D02*
X102012380Y-87006190D01*
X102107619Y-86577619D02*
X102060000Y-86530000D01*
X102012380Y-86434761D01*
X102012380Y-86196666D01*
X102060000Y-86101428D01*
X102107619Y-86053809D01*
X102202857Y-86006190D01*
X102298095Y-86006190D01*
X102440952Y-86053809D01*
X103012380Y-86625238D01*
X103012380Y-86006190D01*
X102917142Y-85006190D02*
X102964761Y-85053809D01*
X103012380Y-85196666D01*
X103012380Y-85291904D01*
X102964761Y-85434761D01*
X102869523Y-85530000D01*
X102774285Y-85577619D01*
X102583809Y-85625238D01*
X102440952Y-85625238D01*
X102250476Y-85577619D01*
X102155238Y-85530000D01*
X102060000Y-85434761D01*
X102012380Y-85291904D01*
X102012380Y-85196666D01*
X102060000Y-85053809D01*
X102107619Y-85006190D01*
X164956761Y-91467142D02*
X164909142Y-91514761D01*
X164766285Y-91562380D01*
X164671047Y-91562380D01*
X164528190Y-91514761D01*
X164432952Y-91419523D01*
X164385333Y-91324285D01*
X164337714Y-91133809D01*
X164337714Y-90990952D01*
X164385333Y-90800476D01*
X164432952Y-90705238D01*
X164528190Y-90610000D01*
X164671047Y-90562380D01*
X164766285Y-90562380D01*
X164909142Y-90610000D01*
X164956761Y-90657619D01*
X165861523Y-91562380D02*
X165385333Y-91562380D01*
X165385333Y-90562380D01*
X166194857Y-91562380D02*
X166194857Y-90562380D01*
X166766285Y-91562380D02*
X166337714Y-90990952D01*
X166766285Y-90562380D02*
X166194857Y-91133809D01*
X164234571Y-86482380D02*
X164234571Y-85482380D01*
X164567904Y-86196666D01*
X164901238Y-85482380D01*
X164901238Y-86482380D01*
X165567904Y-85482380D02*
X165758380Y-85482380D01*
X165853619Y-85530000D01*
X165948857Y-85625238D01*
X165996476Y-85815714D01*
X165996476Y-86149047D01*
X165948857Y-86339523D01*
X165853619Y-86434761D01*
X165758380Y-86482380D01*
X165567904Y-86482380D01*
X165472666Y-86434761D01*
X165377428Y-86339523D01*
X165329809Y-86149047D01*
X165329809Y-85815714D01*
X165377428Y-85625238D01*
X165472666Y-85530000D01*
X165567904Y-85482380D01*
X166377428Y-86434761D02*
X166520285Y-86482380D01*
X166758380Y-86482380D01*
X166853619Y-86434761D01*
X166901238Y-86387142D01*
X166948857Y-86291904D01*
X166948857Y-86196666D01*
X166901238Y-86101428D01*
X166853619Y-86053809D01*
X166758380Y-86006190D01*
X166567904Y-85958571D01*
X166472666Y-85910952D01*
X166425047Y-85863333D01*
X166377428Y-85768095D01*
X166377428Y-85672857D01*
X166425047Y-85577619D01*
X166472666Y-85530000D01*
X166567904Y-85482380D01*
X166806000Y-85482380D01*
X166948857Y-85530000D01*
X167377428Y-86482380D02*
X167377428Y-85482380D01*
X164234571Y-89022380D02*
X164234571Y-88022380D01*
X164567904Y-88736666D01*
X164901238Y-88022380D01*
X164901238Y-89022380D01*
X165377428Y-89022380D02*
X165377428Y-88022380D01*
X165806000Y-88974761D02*
X165948857Y-89022380D01*
X166186952Y-89022380D01*
X166282190Y-88974761D01*
X166329809Y-88927142D01*
X166377428Y-88831904D01*
X166377428Y-88736666D01*
X166329809Y-88641428D01*
X166282190Y-88593809D01*
X166186952Y-88546190D01*
X165996476Y-88498571D01*
X165901238Y-88450952D01*
X165853619Y-88403333D01*
X165806000Y-88308095D01*
X165806000Y-88212857D01*
X165853619Y-88117619D01*
X165901238Y-88070000D01*
X165996476Y-88022380D01*
X166234571Y-88022380D01*
X166377428Y-88070000D01*
X166996476Y-88022380D02*
X167186952Y-88022380D01*
X167282190Y-88070000D01*
X167377428Y-88165238D01*
X167425047Y-88355714D01*
X167425047Y-88689047D01*
X167377428Y-88879523D01*
X167282190Y-88974761D01*
X167186952Y-89022380D01*
X166996476Y-89022380D01*
X166901238Y-88974761D01*
X166806000Y-88879523D01*
X166758380Y-88689047D01*
X166758380Y-88355714D01*
X166806000Y-88165238D01*
X166901238Y-88070000D01*
X166996476Y-88022380D01*
X164313904Y-83942380D02*
X164313904Y-82942380D01*
X164885333Y-83942380D01*
X164885333Y-82942380D01*
X165313904Y-83894761D02*
X165456761Y-83942380D01*
X165694857Y-83942380D01*
X165790095Y-83894761D01*
X165837714Y-83847142D01*
X165885333Y-83751904D01*
X165885333Y-83656666D01*
X165837714Y-83561428D01*
X165790095Y-83513809D01*
X165694857Y-83466190D01*
X165504380Y-83418571D01*
X165409142Y-83370952D01*
X165361523Y-83323333D01*
X165313904Y-83228095D01*
X165313904Y-83132857D01*
X165361523Y-83037619D01*
X165409142Y-82990000D01*
X165504380Y-82942380D01*
X165742476Y-82942380D01*
X165885333Y-82990000D01*
X166266285Y-83894761D02*
X166409142Y-83942380D01*
X166647238Y-83942380D01*
X166742476Y-83894761D01*
X166790095Y-83847142D01*
X166837714Y-83751904D01*
X166837714Y-83656666D01*
X166790095Y-83561428D01*
X166742476Y-83513809D01*
X166647238Y-83466190D01*
X166456761Y-83418571D01*
X166361523Y-83370952D01*
X166313904Y-83323333D01*
X166266285Y-83228095D01*
X166266285Y-83132857D01*
X166313904Y-83037619D01*
X166361523Y-82990000D01*
X166456761Y-82942380D01*
X166694857Y-82942380D01*
X166837714Y-82990000D01*
X164536095Y-73798380D02*
X165107523Y-73798380D01*
X164821809Y-74798380D02*
X164821809Y-73798380D01*
X165345619Y-73798380D02*
X166012285Y-74798380D01*
X166012285Y-73798380D02*
X165345619Y-74798380D01*
X165131333Y-72258380D02*
X164798000Y-71782190D01*
X164559904Y-72258380D02*
X164559904Y-71258380D01*
X164940857Y-71258380D01*
X165036095Y-71306000D01*
X165083714Y-71353619D01*
X165131333Y-71448857D01*
X165131333Y-71591714D01*
X165083714Y-71686952D01*
X165036095Y-71734571D01*
X164940857Y-71782190D01*
X164559904Y-71782190D01*
X165464666Y-71258380D02*
X166131333Y-72258380D01*
X166131333Y-71258380D02*
X165464666Y-72258380D01*
X164615523Y-61034761D02*
X164758380Y-61082380D01*
X164996476Y-61082380D01*
X165091714Y-61034761D01*
X165139333Y-60987142D01*
X165186952Y-60891904D01*
X165186952Y-60796666D01*
X165139333Y-60701428D01*
X165091714Y-60653809D01*
X164996476Y-60606190D01*
X164806000Y-60558571D01*
X164710761Y-60510952D01*
X164663142Y-60463333D01*
X164615523Y-60368095D01*
X164615523Y-60272857D01*
X164663142Y-60177619D01*
X164710761Y-60130000D01*
X164806000Y-60082380D01*
X165044095Y-60082380D01*
X165186952Y-60130000D01*
X166186952Y-60987142D02*
X166139333Y-61034761D01*
X165996476Y-61082380D01*
X165901238Y-61082380D01*
X165758380Y-61034761D01*
X165663142Y-60939523D01*
X165615523Y-60844285D01*
X165567904Y-60653809D01*
X165567904Y-60510952D01*
X165615523Y-60320476D01*
X165663142Y-60225238D01*
X165758380Y-60130000D01*
X165901238Y-60082380D01*
X165996476Y-60082380D01*
X166139333Y-60130000D01*
X166186952Y-60177619D01*
X167091714Y-61082380D02*
X166615523Y-61082380D01*
X166615523Y-60082380D01*
X164591714Y-58494761D02*
X164734571Y-58542380D01*
X164972666Y-58542380D01*
X165067904Y-58494761D01*
X165115523Y-58447142D01*
X165163142Y-58351904D01*
X165163142Y-58256666D01*
X165115523Y-58161428D01*
X165067904Y-58113809D01*
X164972666Y-58066190D01*
X164782190Y-58018571D01*
X164686952Y-57970952D01*
X164639333Y-57923333D01*
X164591714Y-57828095D01*
X164591714Y-57732857D01*
X164639333Y-57637619D01*
X164686952Y-57590000D01*
X164782190Y-57542380D01*
X165020285Y-57542380D01*
X165163142Y-57590000D01*
X165591714Y-58542380D02*
X165591714Y-57542380D01*
X165829809Y-57542380D01*
X165972666Y-57590000D01*
X166067904Y-57685238D01*
X166115523Y-57780476D01*
X166163142Y-57970952D01*
X166163142Y-58113809D01*
X166115523Y-58304285D01*
X166067904Y-58399523D01*
X165972666Y-58494761D01*
X165829809Y-58542380D01*
X165591714Y-58542380D01*
X166544095Y-58256666D02*
X167020285Y-58256666D01*
X166448857Y-58542380D02*
X166782190Y-57542380D01*
X167115523Y-58542380D01*
D13*
X100000000Y-46700000D02*
X168600000Y-46700000D01*
X168600000Y-100000000D02*
X168600000Y-46700000D01*
X100000000Y-100000000D02*
X100000000Y-46700000D01*
X100000000Y-100000000D02*
X168600000Y-100000000D01*
D14*
X157550000Y-60630000D02*
G75*
G03X157550000Y-60630000I-950000J0D01*
G01*
X157550000Y-58090000D02*
G75*
G03X157550000Y-58090000I-950000J0D01*
G01*
D15*
G36*
X126552998Y-76790986D02*
G01*
X126553863Y-76632994D01*
X126556205Y-76518653D01*
X126560762Y-76440593D01*
X126568270Y-76391446D01*
X126579466Y-76363841D01*
X126595088Y-76350408D01*
X126615873Y-76343779D01*
X126618563Y-76343135D01*
X126667113Y-76333065D01*
X126762905Y-76314425D01*
X126895743Y-76289155D01*
X127055431Y-76259193D01*
X127231774Y-76226478D01*
X127237967Y-76225336D01*
X127410782Y-76192567D01*
X127563469Y-76161907D01*
X127686871Y-76135336D01*
X127771831Y-76114833D01*
X127809190Y-76102374D01*
X127809852Y-76101780D01*
X127828095Y-76065081D01*
X127858497Y-75989414D01*
X127894493Y-75891122D01*
X127894685Y-75890575D01*
X127941222Y-75766767D01*
X128000504Y-75620804D01*
X128060109Y-75483219D01*
X128063056Y-75476707D01*
X128164765Y-75252610D01*
X127825897Y-74756381D01*
X127722592Y-74604154D01*
X127630237Y-74466259D01*
X127554084Y-74350685D01*
X127499385Y-74265421D01*
X127471393Y-74218456D01*
X127469317Y-74213996D01*
X127478560Y-74179866D01*
X127523156Y-74116119D01*
X127605209Y-74020269D01*
X127726821Y-73889831D01*
X127856205Y-73756672D01*
X127983702Y-73628306D01*
X128100046Y-73513419D01*
X128198052Y-73418927D01*
X128270536Y-73351747D01*
X128310313Y-73318794D01*
X128312361Y-73317568D01*
X128339656Y-73313926D01*
X128384234Y-73327650D01*
X128452112Y-73362131D01*
X128549311Y-73420761D01*
X128681851Y-73506930D01*
X128852476Y-73621800D01*
X129002655Y-73723746D01*
X129137350Y-73814877D01*
X129248740Y-73889927D01*
X129329005Y-73943631D01*
X129370325Y-73970720D01*
X129373130Y-73972426D01*
X129412721Y-73969118D01*
X129489669Y-73944047D01*
X129589432Y-73902202D01*
X129621291Y-73887288D01*
X129763226Y-73822214D01*
X129924273Y-73752788D01*
X130063621Y-73696391D01*
X130167044Y-73655753D01*
X130245642Y-73623474D01*
X130286720Y-73604822D01*
X130289885Y-73602503D01*
X130295128Y-73568197D01*
X130309494Y-73487331D01*
X130330937Y-73370657D01*
X130357413Y-73228925D01*
X130386877Y-73072890D01*
X130417283Y-72913302D01*
X130446588Y-72760915D01*
X130472745Y-72626479D01*
X130493710Y-72520748D01*
X130507439Y-72454474D01*
X130511320Y-72438218D01*
X130520900Y-72421427D01*
X130542536Y-72408751D01*
X130583531Y-72399622D01*
X130651189Y-72393469D01*
X130752812Y-72389720D01*
X130895703Y-72387808D01*
X131087165Y-72387160D01*
X131165645Y-72387126D01*
X131803906Y-72387126D01*
X131834160Y-72540402D01*
X131850564Y-72625678D01*
X131874509Y-72752930D01*
X131903107Y-72906685D01*
X131933467Y-73071466D01*
X131941806Y-73117011D01*
X131971370Y-73269068D01*
X132000442Y-73401532D01*
X132026329Y-73503286D01*
X132046337Y-73563212D01*
X132052301Y-73573195D01*
X132094534Y-73597707D01*
X132176370Y-73632852D01*
X132281683Y-73671827D01*
X132304368Y-73679558D01*
X132445018Y-73730640D01*
X132603714Y-73794046D01*
X132746225Y-73856096D01*
X132746886Y-73856402D01*
X132970440Y-73959733D01*
X133970232Y-73280039D01*
X134407300Y-73716379D01*
X134537381Y-73848351D01*
X134652048Y-73968721D01*
X134745181Y-74070727D01*
X134810658Y-74147609D01*
X134842357Y-74192607D01*
X134844368Y-74199062D01*
X134828529Y-74236960D01*
X134784496Y-74314292D01*
X134717490Y-74422611D01*
X134632734Y-74553468D01*
X134537816Y-74694948D01*
X134440998Y-74838539D01*
X134356751Y-74966565D01*
X134290258Y-75070895D01*
X134246702Y-75143400D01*
X134231264Y-75175842D01*
X134244328Y-75215424D01*
X134278750Y-75290481D01*
X134327380Y-75385532D01*
X134332785Y-75395608D01*
X134396980Y-75523609D01*
X134428463Y-75611382D01*
X134428798Y-75665972D01*
X134399548Y-75694425D01*
X134399138Y-75694590D01*
X134364498Y-75708812D01*
X134282269Y-75742731D01*
X134158814Y-75793716D01*
X134000498Y-75859138D01*
X133813686Y-75936366D01*
X133604742Y-76022771D01*
X133402446Y-76106449D01*
X133179200Y-76198412D01*
X132972392Y-76282850D01*
X132788362Y-76357231D01*
X132633451Y-76419026D01*
X132513996Y-76465703D01*
X132436339Y-76494732D01*
X132407356Y-76503678D01*
X132374110Y-76481244D01*
X132321123Y-76422561D01*
X132262704Y-76344311D01*
X132077952Y-76121466D01*
X131866182Y-75947282D01*
X131631856Y-75823846D01*
X131379434Y-75753246D01*
X131113377Y-75737569D01*
X130990575Y-75748964D01*
X130735793Y-75811050D01*
X130510801Y-75917977D01*
X130317817Y-76063111D01*
X130159061Y-76239822D01*
X130036750Y-76441478D01*
X129953105Y-76661446D01*
X129910344Y-76893094D01*
X129910687Y-77129791D01*
X129956352Y-77364905D01*
X130049559Y-77591804D01*
X130192527Y-77803856D01*
X130273383Y-77892364D01*
X130481007Y-78062111D01*
X130707895Y-78180301D01*
X130947433Y-78247722D01*
X131193007Y-78265160D01*
X131438003Y-78233402D01*
X131675808Y-78153235D01*
X131899807Y-78025445D01*
X132103387Y-77850820D01*
X132262704Y-77655688D01*
X132323602Y-77574409D01*
X132376015Y-77516991D01*
X132407406Y-77496322D01*
X132441639Y-77507144D01*
X132523419Y-77537923D01*
X132646407Y-77586126D01*
X132804263Y-77649222D01*
X132990649Y-77724678D01*
X133199226Y-77809962D01*
X133402496Y-77893781D01*
X133625933Y-77986255D01*
X133832984Y-78071911D01*
X134017286Y-78148118D01*
X134172475Y-78212247D01*
X134292188Y-78261668D01*
X134370061Y-78293752D01*
X134399138Y-78305641D01*
X134428677Y-78333726D01*
X134428591Y-78388051D01*
X134397326Y-78475605D01*
X134333329Y-78603381D01*
X134332785Y-78604392D01*
X134283121Y-78700598D01*
X134246945Y-78778369D01*
X134231408Y-78822223D01*
X134231264Y-78824158D01*
X134247024Y-78857171D01*
X134290850Y-78930054D01*
X134357557Y-79034678D01*
X134441964Y-79162910D01*
X134537816Y-79305052D01*
X134634867Y-79449767D01*
X134719270Y-79580196D01*
X134785801Y-79687890D01*
X134829238Y-79764402D01*
X134844368Y-79800938D01*
X134824482Y-79834582D01*
X134768903Y-79902224D01*
X134683754Y-79997107D01*
X134575153Y-80112470D01*
X134449221Y-80241555D01*
X134407149Y-80283771D01*
X133969931Y-80720261D01*
X133482340Y-80388023D01*
X133332605Y-80287054D01*
X133198220Y-80198438D01*
X133086969Y-80127146D01*
X133006639Y-80078150D01*
X132965014Y-80056422D01*
X132962053Y-80055785D01*
X132922818Y-80067240D01*
X132843895Y-80098051D01*
X132738509Y-80142884D01*
X132667954Y-80174353D01*
X132532876Y-80233192D01*
X132396409Y-80288604D01*
X132281103Y-80331564D01*
X132245977Y-80343234D01*
X132152174Y-80376389D01*
X132079694Y-80408799D01*
X132052301Y-80426601D01*
X132035536Y-80465886D01*
X132011770Y-80551626D01*
X131983697Y-80672697D01*
X131954009Y-80817973D01*
X131941806Y-80882988D01*
X131911468Y-81048087D01*
X131882093Y-81206448D01*
X131856569Y-81342596D01*
X131837785Y-81441057D01*
X131834160Y-81459598D01*
X131803906Y-81612873D01*
X131165645Y-81612873D01*
X130955770Y-81612529D01*
X130796980Y-81611116D01*
X130681973Y-81608064D01*
X130603446Y-81602803D01*
X130554096Y-81594763D01*
X130526619Y-81583373D01*
X130513713Y-81568063D01*
X130511320Y-81561782D01*
X130502833Y-81523896D01*
X130485900Y-81440195D01*
X130462566Y-81321433D01*
X130434875Y-81178361D01*
X130404873Y-81021732D01*
X130374604Y-80862297D01*
X130346115Y-80710809D01*
X130321449Y-80578019D01*
X130302651Y-80474681D01*
X130291767Y-80411545D01*
X130289885Y-80397497D01*
X130264704Y-80384770D01*
X130197622Y-80356600D01*
X130101333Y-80318252D01*
X130063621Y-80303609D01*
X129917921Y-80244548D01*
X129756951Y-80175000D01*
X129621291Y-80112712D01*
X129517561Y-80066879D01*
X129432326Y-80036387D01*
X129380126Y-80026208D01*
X129373130Y-80027831D01*
X129340102Y-80049343D01*
X129266643Y-80098465D01*
X129160577Y-80169923D01*
X129029726Y-80258445D01*
X128881912Y-80358759D01*
X128852734Y-80378594D01*
X128679863Y-80494988D01*
X128548226Y-80580548D01*
X128451761Y-80638684D01*
X128384408Y-80672808D01*
X128340106Y-80686331D01*
X128312794Y-80682664D01*
X128312620Y-80682570D01*
X128276746Y-80653707D01*
X128207391Y-80589867D01*
X128111745Y-80497969D01*
X127996999Y-80384933D01*
X127870341Y-80257679D01*
X127856205Y-80243328D01*
X127700903Y-80082957D01*
X127586870Y-79959195D01*
X127512002Y-79869555D01*
X127474196Y-79811552D01*
X127469317Y-79786004D01*
X127490603Y-79748718D01*
X127539773Y-79671343D01*
X127611575Y-79561867D01*
X127700755Y-79428280D01*
X127802063Y-79278570D01*
X127825897Y-79243618D01*
X128164765Y-78747390D01*
X128063056Y-78523293D01*
X128003783Y-78387011D01*
X127944170Y-78240724D01*
X127896640Y-78114965D01*
X127894685Y-78109425D01*
X127858677Y-78011057D01*
X127828229Y-77935229D01*
X127809905Y-77898282D01*
X127809852Y-77898220D01*
X127776729Y-77886496D01*
X127695267Y-77866568D01*
X127574625Y-77840413D01*
X127423959Y-77810010D01*
X127252428Y-77777337D01*
X127237967Y-77774664D01*
X127061235Y-77741890D01*
X126900810Y-77711802D01*
X126766888Y-77686339D01*
X126669663Y-77667441D01*
X126619332Y-77657047D01*
X126618563Y-77656865D01*
X126597153Y-77650539D01*
X126580988Y-77638239D01*
X126569331Y-77612594D01*
X126561445Y-77566235D01*
X126556593Y-77491792D01*
X126554039Y-77381895D01*
X126553045Y-77229175D01*
X126552874Y-77026262D01*
X126552874Y-77000000D01*
X126552998Y-76790986D01*
G37*
X126552998Y-76790986D02*
X126553863Y-76632994D01*
X126556205Y-76518653D01*
X126560762Y-76440593D01*
X126568270Y-76391446D01*
X126579466Y-76363841D01*
X126595088Y-76350408D01*
X126615873Y-76343779D01*
X126618563Y-76343135D01*
X126667113Y-76333065D01*
X126762905Y-76314425D01*
X126895743Y-76289155D01*
X127055431Y-76259193D01*
X127231774Y-76226478D01*
X127237967Y-76225336D01*
X127410782Y-76192567D01*
X127563469Y-76161907D01*
X127686871Y-76135336D01*
X127771831Y-76114833D01*
X127809190Y-76102374D01*
X127809852Y-76101780D01*
X127828095Y-76065081D01*
X127858497Y-75989414D01*
X127894493Y-75891122D01*
X127894685Y-75890575D01*
X127941222Y-75766767D01*
X128000504Y-75620804D01*
X128060109Y-75483219D01*
X128063056Y-75476707D01*
X128164765Y-75252610D01*
X127825897Y-74756381D01*
X127722592Y-74604154D01*
X127630237Y-74466259D01*
X127554084Y-74350685D01*
X127499385Y-74265421D01*
X127471393Y-74218456D01*
X127469317Y-74213996D01*
X127478560Y-74179866D01*
X127523156Y-74116119D01*
X127605209Y-74020269D01*
X127726821Y-73889831D01*
X127856205Y-73756672D01*
X127983702Y-73628306D01*
X128100046Y-73513419D01*
X128198052Y-73418927D01*
X128270536Y-73351747D01*
X128310313Y-73318794D01*
X128312361Y-73317568D01*
X128339656Y-73313926D01*
X128384234Y-73327650D01*
X128452112Y-73362131D01*
X128549311Y-73420761D01*
X128681851Y-73506930D01*
X128852476Y-73621800D01*
X129002655Y-73723746D01*
X129137350Y-73814877D01*
X129248740Y-73889927D01*
X129329005Y-73943631D01*
X129370325Y-73970720D01*
X129373130Y-73972426D01*
X129412721Y-73969118D01*
X129489669Y-73944047D01*
X129589432Y-73902202D01*
X129621291Y-73887288D01*
X129763226Y-73822214D01*
X129924273Y-73752788D01*
X130063621Y-73696391D01*
X130167044Y-73655753D01*
X130245642Y-73623474D01*
X130286720Y-73604822D01*
X130289885Y-73602503D01*
X130295128Y-73568197D01*
X130309494Y-73487331D01*
X130330937Y-73370657D01*
X130357413Y-73228925D01*
X130386877Y-73072890D01*
X130417283Y-72913302D01*
X130446588Y-72760915D01*
X130472745Y-72626479D01*
X130493710Y-72520748D01*
X130507439Y-72454474D01*
X130511320Y-72438218D01*
X130520900Y-72421427D01*
X130542536Y-72408751D01*
X130583531Y-72399622D01*
X130651189Y-72393469D01*
X130752812Y-72389720D01*
X130895703Y-72387808D01*
X131087165Y-72387160D01*
X131165645Y-72387126D01*
X131803906Y-72387126D01*
X131834160Y-72540402D01*
X131850564Y-72625678D01*
X131874509Y-72752930D01*
X131903107Y-72906685D01*
X131933467Y-73071466D01*
X131941806Y-73117011D01*
X131971370Y-73269068D01*
X132000442Y-73401532D01*
X132026329Y-73503286D01*
X132046337Y-73563212D01*
X132052301Y-73573195D01*
X132094534Y-73597707D01*
X132176370Y-73632852D01*
X132281683Y-73671827D01*
X132304368Y-73679558D01*
X132445018Y-73730640D01*
X132603714Y-73794046D01*
X132746225Y-73856096D01*
X132746886Y-73856402D01*
X132970440Y-73959733D01*
X133970232Y-73280039D01*
X134407300Y-73716379D01*
X134537381Y-73848351D01*
X134652048Y-73968721D01*
X134745181Y-74070727D01*
X134810658Y-74147609D01*
X134842357Y-74192607D01*
X134844368Y-74199062D01*
X134828529Y-74236960D01*
X134784496Y-74314292D01*
X134717490Y-74422611D01*
X134632734Y-74553468D01*
X134537816Y-74694948D01*
X134440998Y-74838539D01*
X134356751Y-74966565D01*
X134290258Y-75070895D01*
X134246702Y-75143400D01*
X134231264Y-75175842D01*
X134244328Y-75215424D01*
X134278750Y-75290481D01*
X134327380Y-75385532D01*
X134332785Y-75395608D01*
X134396980Y-75523609D01*
X134428463Y-75611382D01*
X134428798Y-75665972D01*
X134399548Y-75694425D01*
X134399138Y-75694590D01*
X134364498Y-75708812D01*
X134282269Y-75742731D01*
X134158814Y-75793716D01*
X134000498Y-75859138D01*
X133813686Y-75936366D01*
X133604742Y-76022771D01*
X133402446Y-76106449D01*
X133179200Y-76198412D01*
X132972392Y-76282850D01*
X132788362Y-76357231D01*
X132633451Y-76419026D01*
X132513996Y-76465703D01*
X132436339Y-76494732D01*
X132407356Y-76503678D01*
X132374110Y-76481244D01*
X132321123Y-76422561D01*
X132262704Y-76344311D01*
X132077952Y-76121466D01*
X131866182Y-75947282D01*
X131631856Y-75823846D01*
X131379434Y-75753246D01*
X131113377Y-75737569D01*
X130990575Y-75748964D01*
X130735793Y-75811050D01*
X130510801Y-75917977D01*
X130317817Y-76063111D01*
X130159061Y-76239822D01*
X130036750Y-76441478D01*
X129953105Y-76661446D01*
X129910344Y-76893094D01*
X129910687Y-77129791D01*
X129956352Y-77364905D01*
X130049559Y-77591804D01*
X130192527Y-77803856D01*
X130273383Y-77892364D01*
X130481007Y-78062111D01*
X130707895Y-78180301D01*
X130947433Y-78247722D01*
X131193007Y-78265160D01*
X131438003Y-78233402D01*
X131675808Y-78153235D01*
X131899807Y-78025445D01*
X132103387Y-77850820D01*
X132262704Y-77655688D01*
X132323602Y-77574409D01*
X132376015Y-77516991D01*
X132407406Y-77496322D01*
X132441639Y-77507144D01*
X132523419Y-77537923D01*
X132646407Y-77586126D01*
X132804263Y-77649222D01*
X132990649Y-77724678D01*
X133199226Y-77809962D01*
X133402496Y-77893781D01*
X133625933Y-77986255D01*
X133832984Y-78071911D01*
X134017286Y-78148118D01*
X134172475Y-78212247D01*
X134292188Y-78261668D01*
X134370061Y-78293752D01*
X134399138Y-78305641D01*
X134428677Y-78333726D01*
X134428591Y-78388051D01*
X134397326Y-78475605D01*
X134333329Y-78603381D01*
X134332785Y-78604392D01*
X134283121Y-78700598D01*
X134246945Y-78778369D01*
X134231408Y-78822223D01*
X134231264Y-78824158D01*
X134247024Y-78857171D01*
X134290850Y-78930054D01*
X134357557Y-79034678D01*
X134441964Y-79162910D01*
X134537816Y-79305052D01*
X134634867Y-79449767D01*
X134719270Y-79580196D01*
X134785801Y-79687890D01*
X134829238Y-79764402D01*
X134844368Y-79800938D01*
X134824482Y-79834582D01*
X134768903Y-79902224D01*
X134683754Y-79997107D01*
X134575153Y-80112470D01*
X134449221Y-80241555D01*
X134407149Y-80283771D01*
X133969931Y-80720261D01*
X133482340Y-80388023D01*
X133332605Y-80287054D01*
X133198220Y-80198438D01*
X133086969Y-80127146D01*
X133006639Y-80078150D01*
X132965014Y-80056422D01*
X132962053Y-80055785D01*
X132922818Y-80067240D01*
X132843895Y-80098051D01*
X132738509Y-80142884D01*
X132667954Y-80174353D01*
X132532876Y-80233192D01*
X132396409Y-80288604D01*
X132281103Y-80331564D01*
X132245977Y-80343234D01*
X132152174Y-80376389D01*
X132079694Y-80408799D01*
X132052301Y-80426601D01*
X132035536Y-80465886D01*
X132011770Y-80551626D01*
X131983697Y-80672697D01*
X131954009Y-80817973D01*
X131941806Y-80882988D01*
X131911468Y-81048087D01*
X131882093Y-81206448D01*
X131856569Y-81342596D01*
X131837785Y-81441057D01*
X131834160Y-81459598D01*
X131803906Y-81612873D01*
X131165645Y-81612873D01*
X130955770Y-81612529D01*
X130796980Y-81611116D01*
X130681973Y-81608064D01*
X130603446Y-81602803D01*
X130554096Y-81594763D01*
X130526619Y-81583373D01*
X130513713Y-81568063D01*
X130511320Y-81561782D01*
X130502833Y-81523896D01*
X130485900Y-81440195D01*
X130462566Y-81321433D01*
X130434875Y-81178361D01*
X130404873Y-81021732D01*
X130374604Y-80862297D01*
X130346115Y-80710809D01*
X130321449Y-80578019D01*
X130302651Y-80474681D01*
X130291767Y-80411545D01*
X130289885Y-80397497D01*
X130264704Y-80384770D01*
X130197622Y-80356600D01*
X130101333Y-80318252D01*
X130063621Y-80303609D01*
X129917921Y-80244548D01*
X129756951Y-80175000D01*
X129621291Y-80112712D01*
X129517561Y-80066879D01*
X129432326Y-80036387D01*
X129380126Y-80026208D01*
X129373130Y-80027831D01*
X129340102Y-80049343D01*
X129266643Y-80098465D01*
X129160577Y-80169923D01*
X129029726Y-80258445D01*
X128881912Y-80358759D01*
X128852734Y-80378594D01*
X128679863Y-80494988D01*
X128548226Y-80580548D01*
X128451761Y-80638684D01*
X128384408Y-80672808D01*
X128340106Y-80686331D01*
X128312794Y-80682664D01*
X128312620Y-80682570D01*
X128276746Y-80653707D01*
X128207391Y-80589867D01*
X128111745Y-80497969D01*
X127996999Y-80384933D01*
X127870341Y-80257679D01*
X127856205Y-80243328D01*
X127700903Y-80082957D01*
X127586870Y-79959195D01*
X127512002Y-79869555D01*
X127474196Y-79811552D01*
X127469317Y-79786004D01*
X127490603Y-79748718D01*
X127539773Y-79671343D01*
X127611575Y-79561867D01*
X127700755Y-79428280D01*
X127802063Y-79278570D01*
X127825897Y-79243618D01*
X128164765Y-78747390D01*
X128063056Y-78523293D01*
X128003783Y-78387011D01*
X127944170Y-78240724D01*
X127896640Y-78114965D01*
X127894685Y-78109425D01*
X127858677Y-78011057D01*
X127828229Y-77935229D01*
X127809905Y-77898282D01*
X127809852Y-77898220D01*
X127776729Y-77886496D01*
X127695267Y-77866568D01*
X127574625Y-77840413D01*
X127423959Y-77810010D01*
X127252428Y-77777337D01*
X127237967Y-77774664D01*
X127061235Y-77741890D01*
X126900810Y-77711802D01*
X126766888Y-77686339D01*
X126669663Y-77667441D01*
X126619332Y-77657047D01*
X126618563Y-77656865D01*
X126597153Y-77650539D01*
X126580988Y-77638239D01*
X126569331Y-77612594D01*
X126561445Y-77566235D01*
X126556593Y-77491792D01*
X126554039Y-77381895D01*
X126553045Y-77229175D01*
X126552874Y-77026262D01*
X126552874Y-77000000D01*
X126552998Y-76790986D01*
G36*
X136056540Y-70656561D02*
G01*
X136132034Y-70541050D01*
X136199617Y-70485336D01*
X136322255Y-70441196D01*
X136419298Y-70437691D01*
X136549056Y-70445632D01*
X136680039Y-70744885D01*
X136746958Y-70890389D01*
X136800790Y-70985463D01*
X136847416Y-71034899D01*
X136892720Y-71043489D01*
X136942582Y-71016028D01*
X136975632Y-70985747D01*
X137028633Y-70897637D01*
X137032347Y-70801804D01*
X136991041Y-70713788D01*
X136908983Y-70649131D01*
X136880008Y-70637567D01*
X136789509Y-70582175D01*
X136750940Y-70518447D01*
X136717946Y-70431034D01*
X136843034Y-70431034D01*
X136928156Y-70438762D01*
X136999938Y-70469034D01*
X137082356Y-70532482D01*
X137093066Y-70541912D01*
X137166391Y-70612487D01*
X137205742Y-70673153D01*
X137223845Y-70749050D01*
X137229774Y-70811970D01*
X137231251Y-70924513D01*
X137212535Y-71004630D01*
X137184747Y-71054610D01*
X137123641Y-71133162D01*
X137057554Y-71187537D01*
X136974441Y-71221948D01*
X136862254Y-71240612D01*
X136708946Y-71247744D01*
X136631136Y-71248313D01*
X136537853Y-71246378D01*
X136537853Y-71070101D01*
X136587896Y-71068056D01*
X136596092Y-71062961D01*
X136584958Y-71029334D01*
X136555493Y-70956970D01*
X136513601Y-70860253D01*
X136504597Y-70840027D01*
X136442442Y-70717797D01*
X136387815Y-70650453D01*
X136336649Y-70635652D01*
X136284876Y-70671053D01*
X136262000Y-70700289D01*
X136216250Y-70805784D01*
X136223808Y-70904524D01*
X136279651Y-70987188D01*
X136378753Y-71044452D01*
X136457414Y-71062812D01*
X136537853Y-71070101D01*
X136537853Y-71246378D01*
X136449351Y-71244541D01*
X136314853Y-71230641D01*
X136216916Y-71203106D01*
X136144811Y-71158428D01*
X136087813Y-71093099D01*
X136069393Y-71064617D01*
X136021422Y-70935237D01*
X136018403Y-70793588D01*
X136056540Y-70656561D01*
G37*
X136056540Y-70656561D02*
X136132034Y-70541050D01*
X136199617Y-70485336D01*
X136322255Y-70441196D01*
X136419298Y-70437691D01*
X136549056Y-70445632D01*
X136680039Y-70744885D01*
X136746958Y-70890389D01*
X136800790Y-70985463D01*
X136847416Y-71034899D01*
X136892720Y-71043489D01*
X136942582Y-71016028D01*
X136975632Y-70985747D01*
X137028633Y-70897637D01*
X137032347Y-70801804D01*
X136991041Y-70713788D01*
X136908983Y-70649131D01*
X136880008Y-70637567D01*
X136789509Y-70582175D01*
X136750940Y-70518447D01*
X136717946Y-70431034D01*
X136843034Y-70431034D01*
X136928156Y-70438762D01*
X136999938Y-70469034D01*
X137082356Y-70532482D01*
X137093066Y-70541912D01*
X137166391Y-70612487D01*
X137205742Y-70673153D01*
X137223845Y-70749050D01*
X137229774Y-70811970D01*
X137231251Y-70924513D01*
X137212535Y-71004630D01*
X137184747Y-71054610D01*
X137123641Y-71133162D01*
X137057554Y-71187537D01*
X136974441Y-71221948D01*
X136862254Y-71240612D01*
X136708946Y-71247744D01*
X136631136Y-71248313D01*
X136537853Y-71246378D01*
X136537853Y-71070101D01*
X136587896Y-71068056D01*
X136596092Y-71062961D01*
X136584958Y-71029334D01*
X136555493Y-70956970D01*
X136513601Y-70860253D01*
X136504597Y-70840027D01*
X136442442Y-70717797D01*
X136387815Y-70650453D01*
X136336649Y-70635652D01*
X136284876Y-70671053D01*
X136262000Y-70700289D01*
X136216250Y-70805784D01*
X136223808Y-70904524D01*
X136279651Y-70987188D01*
X136378753Y-71044452D01*
X136457414Y-71062812D01*
X136537853Y-71070101D01*
X136537853Y-71246378D01*
X136449351Y-71244541D01*
X136314853Y-71230641D01*
X136216916Y-71203106D01*
X136144811Y-71158428D01*
X136087813Y-71093099D01*
X136069393Y-71064617D01*
X136021422Y-70935237D01*
X136018403Y-70793588D01*
X136056540Y-70656561D01*
G36*
X136040018Y-71664310D02*
G01*
X136055269Y-71629415D01*
X136121235Y-71546123D01*
X136216618Y-71474897D01*
X136318406Y-71430847D01*
X136368587Y-71423678D01*
X136438647Y-71447715D01*
X136475717Y-71500439D01*
X136498164Y-71556969D01*
X136502300Y-71582854D01*
X136472283Y-71595458D01*
X136406961Y-71620346D01*
X136377445Y-71631265D01*
X136275348Y-71692492D01*
X136224423Y-71781139D01*
X136225989Y-71894807D01*
X136227994Y-71903226D01*
X136256767Y-71963912D01*
X136312859Y-72008526D01*
X136403163Y-72038998D01*
X136534571Y-72057256D01*
X136713974Y-72065229D01*
X136809433Y-72065977D01*
X136959913Y-72066348D01*
X137062495Y-72068777D01*
X137127672Y-72075240D01*
X137165938Y-72087712D01*
X137187785Y-72108167D01*
X137203707Y-72138581D01*
X137204509Y-72140339D01*
X137229272Y-72198909D01*
X137238391Y-72227925D01*
X137210822Y-72232384D01*
X137134620Y-72236201D01*
X137019541Y-72239101D01*
X136875341Y-72240809D01*
X136769814Y-72241149D01*
X136565613Y-72239412D01*
X136410697Y-72232618D01*
X136296024Y-72218393D01*
X136212551Y-72194362D01*
X136151236Y-72158152D01*
X136103034Y-72107388D01*
X136069393Y-72057261D01*
X136024619Y-71936725D01*
X136014521Y-71796443D01*
X136040018Y-71664310D01*
G37*
X136040018Y-71664310D02*
X136055269Y-71629415D01*
X136121235Y-71546123D01*
X136216618Y-71474897D01*
X136318406Y-71430847D01*
X136368587Y-71423678D01*
X136438647Y-71447715D01*
X136475717Y-71500439D01*
X136498164Y-71556969D01*
X136502300Y-71582854D01*
X136472283Y-71595458D01*
X136406961Y-71620346D01*
X136377445Y-71631265D01*
X136275348Y-71692492D01*
X136224423Y-71781139D01*
X136225989Y-71894807D01*
X136227994Y-71903226D01*
X136256767Y-71963912D01*
X136312859Y-72008526D01*
X136403163Y-72038998D01*
X136534571Y-72057256D01*
X136713974Y-72065229D01*
X136809433Y-72065977D01*
X136959913Y-72066348D01*
X137062495Y-72068777D01*
X137127672Y-72075240D01*
X137165938Y-72087712D01*
X137187785Y-72108167D01*
X137203707Y-72138581D01*
X137204509Y-72140339D01*
X137229272Y-72198909D01*
X137238391Y-72227925D01*
X137210822Y-72232384D01*
X137134620Y-72236201D01*
X137019541Y-72239101D01*
X136875341Y-72240809D01*
X136769814Y-72241149D01*
X136565613Y-72239412D01*
X136410697Y-72232618D01*
X136296024Y-72218393D01*
X136212551Y-72194362D01*
X136151236Y-72158152D01*
X136103034Y-72107388D01*
X136069393Y-72057261D01*
X136024619Y-71936725D01*
X136014521Y-71796443D01*
X136040018Y-71664310D01*
G36*
X136035156Y-72685594D02*
G01*
X136073393Y-72601531D01*
X136119726Y-72535550D01*
X136171532Y-72487206D01*
X136238363Y-72453828D01*
X136329769Y-72432747D01*
X136455301Y-72421293D01*
X136624508Y-72416797D01*
X136735933Y-72416322D01*
X137170627Y-72416322D01*
X137204509Y-72490684D01*
X137229272Y-72549254D01*
X137238391Y-72578270D01*
X137211257Y-72583821D01*
X137138094Y-72588225D01*
X137031263Y-72590922D01*
X136946437Y-72591494D01*
X136823887Y-72593954D01*
X136726668Y-72600588D01*
X136667134Y-72610274D01*
X136654483Y-72617968D01*
X136667402Y-72669689D01*
X136700539Y-72750883D01*
X136745461Y-72844898D01*
X136793735Y-72935083D01*
X136836928Y-73004785D01*
X136866608Y-73037352D01*
X136866929Y-73037481D01*
X136921857Y-73034680D01*
X136974292Y-73009561D01*
X137016881Y-72965459D01*
X137031126Y-72901091D01*
X137029466Y-72846079D01*
X137028245Y-72768165D01*
X137046498Y-72727268D01*
X137094726Y-72702705D01*
X137103820Y-72699608D01*
X137172598Y-72688960D01*
X137214360Y-72717435D01*
X137234263Y-72791656D01*
X137237944Y-72871832D01*
X137210658Y-73016110D01*
X137171690Y-73090797D01*
X137080148Y-73183037D01*
X136967782Y-73231957D01*
X136849051Y-73236346D01*
X136738411Y-73194999D01*
X136669080Y-73132803D01*
X136630265Y-73070706D01*
X136581125Y-72973105D01*
X136531292Y-72859368D01*
X136523677Y-72840410D01*
X136468545Y-72715479D01*
X136419954Y-72643461D01*
X136371647Y-72620300D01*
X136317370Y-72641936D01*
X136274943Y-72679080D01*
X136222702Y-72766873D01*
X136218784Y-72863470D01*
X136259041Y-72952056D01*
X136339326Y-73015814D01*
X136360040Y-73024183D01*
X136436225Y-73072904D01*
X136492785Y-73144035D01*
X136539201Y-73233793D01*
X136407584Y-73233793D01*
X136327168Y-73228510D01*
X136263786Y-73205858D01*
X136196163Y-73155633D01*
X136144076Y-73107418D01*
X136070322Y-73032446D01*
X136030702Y-72974194D01*
X136014810Y-72911628D01*
X136012184Y-72840807D01*
X136035156Y-72685594D01*
G37*
X136035156Y-72685594D02*
X136073393Y-72601531D01*
X136119726Y-72535550D01*
X136171532Y-72487206D01*
X136238363Y-72453828D01*
X136329769Y-72432747D01*
X136455301Y-72421293D01*
X136624508Y-72416797D01*
X136735933Y-72416322D01*
X137170627Y-72416322D01*
X137204509Y-72490684D01*
X137229272Y-72549254D01*
X137238391Y-72578270D01*
X137211257Y-72583821D01*
X137138094Y-72588225D01*
X137031263Y-72590922D01*
X136946437Y-72591494D01*
X136823887Y-72593954D01*
X136726668Y-72600588D01*
X136667134Y-72610274D01*
X136654483Y-72617968D01*
X136667402Y-72669689D01*
X136700539Y-72750883D01*
X136745461Y-72844898D01*
X136793735Y-72935083D01*
X136836928Y-73004785D01*
X136866608Y-73037352D01*
X136866929Y-73037481D01*
X136921857Y-73034680D01*
X136974292Y-73009561D01*
X137016881Y-72965459D01*
X137031126Y-72901091D01*
X137029466Y-72846079D01*
X137028245Y-72768165D01*
X137046498Y-72727268D01*
X137094726Y-72702705D01*
X137103820Y-72699608D01*
X137172598Y-72688960D01*
X137214360Y-72717435D01*
X137234263Y-72791656D01*
X137237944Y-72871832D01*
X137210658Y-73016110D01*
X137171690Y-73090797D01*
X137080148Y-73183037D01*
X136967782Y-73231957D01*
X136849051Y-73236346D01*
X136738411Y-73194999D01*
X136669080Y-73132803D01*
X136630265Y-73070706D01*
X136581125Y-72973105D01*
X136531292Y-72859368D01*
X136523677Y-72840410D01*
X136468545Y-72715479D01*
X136419954Y-72643461D01*
X136371647Y-72620300D01*
X136317370Y-72641936D01*
X136274943Y-72679080D01*
X136222702Y-72766873D01*
X136218784Y-72863470D01*
X136259041Y-72952056D01*
X136339326Y-73015814D01*
X136360040Y-73024183D01*
X136436225Y-73072904D01*
X136492785Y-73144035D01*
X136539201Y-73233793D01*
X136407584Y-73233793D01*
X136327168Y-73228510D01*
X136263786Y-73205858D01*
X136196163Y-73155633D01*
X136144076Y-73107418D01*
X136070322Y-73032446D01*
X136030702Y-72974194D01*
X136014810Y-72911628D01*
X136012184Y-72840807D01*
X136035156Y-72685594D01*
G36*
X136039840Y-73419876D02*
G01*
X136116653Y-73415421D01*
X136233391Y-73411929D01*
X136380821Y-73409685D01*
X136535455Y-73408965D01*
X137058727Y-73408965D01*
X137151117Y-73501355D01*
X137208047Y-73565022D01*
X137231107Y-73620911D01*
X137229647Y-73697298D01*
X137225934Y-73727620D01*
X137215126Y-73822390D01*
X137208933Y-73900778D01*
X137208361Y-73919885D01*
X137212102Y-73984301D01*
X137221494Y-74076429D01*
X137225934Y-74112150D01*
X137232801Y-74199886D01*
X137217885Y-74258847D01*
X137171835Y-74317310D01*
X137151117Y-74338415D01*
X137058727Y-74430805D01*
X136079947Y-74430805D01*
X136046066Y-74356442D01*
X136020970Y-74292410D01*
X136012184Y-74254948D01*
X136039950Y-74245343D01*
X136117530Y-74236365D01*
X136236348Y-74228614D01*
X136387828Y-74222686D01*
X136515805Y-74219827D01*
X137019425Y-74211839D01*
X137029278Y-74142152D01*
X137022389Y-74078771D01*
X137000083Y-74047714D01*
X136958379Y-74039033D01*
X136869544Y-74031622D01*
X136744834Y-74026069D01*
X136595507Y-74022964D01*
X136518661Y-74022516D01*
X136076287Y-74022069D01*
X136044235Y-73930126D01*
X136022443Y-73865051D01*
X136012281Y-73829653D01*
X136012184Y-73828632D01*
X136039809Y-73825080D01*
X136116411Y-73821177D01*
X136232579Y-73817249D01*
X136378904Y-73813624D01*
X136515805Y-73811092D01*
X137019425Y-73803103D01*
X137019425Y-73627931D01*
X136559965Y-73619893D01*
X136100505Y-73611854D01*
X136056344Y-73526457D01*
X136026019Y-73463407D01*
X136012258Y-73426090D01*
X136012184Y-73425013D01*
X136039840Y-73419876D01*
G37*
X136039840Y-73419876D02*
X136116653Y-73415421D01*
X136233391Y-73411929D01*
X136380821Y-73409685D01*
X136535455Y-73408965D01*
X137058727Y-73408965D01*
X137151117Y-73501355D01*
X137208047Y-73565022D01*
X137231107Y-73620911D01*
X137229647Y-73697298D01*
X137225934Y-73727620D01*
X137215126Y-73822390D01*
X137208933Y-73900778D01*
X137208361Y-73919885D01*
X137212102Y-73984301D01*
X137221494Y-74076429D01*
X137225934Y-74112150D01*
X137232801Y-74199886D01*
X137217885Y-74258847D01*
X137171835Y-74317310D01*
X137151117Y-74338415D01*
X137058727Y-74430805D01*
X136079947Y-74430805D01*
X136046066Y-74356442D01*
X136020970Y-74292410D01*
X136012184Y-74254948D01*
X136039950Y-74245343D01*
X136117530Y-74236365D01*
X136236348Y-74228614D01*
X136387828Y-74222686D01*
X136515805Y-74219827D01*
X137019425Y-74211839D01*
X137029278Y-74142152D01*
X137022389Y-74078771D01*
X137000083Y-74047714D01*
X136958379Y-74039033D01*
X136869544Y-74031622D01*
X136744834Y-74026069D01*
X136595507Y-74022964D01*
X136518661Y-74022516D01*
X136076287Y-74022069D01*
X136044235Y-73930126D01*
X136022443Y-73865051D01*
X136012281Y-73829653D01*
X136012184Y-73828632D01*
X136039809Y-73825080D01*
X136116411Y-73821177D01*
X136232579Y-73817249D01*
X136378904Y-73813624D01*
X136515805Y-73811092D01*
X137019425Y-73803103D01*
X137019425Y-73627931D01*
X136559965Y-73619893D01*
X136100505Y-73611854D01*
X136056344Y-73526457D01*
X136026019Y-73463407D01*
X136012258Y-73426090D01*
X136012184Y-73425013D01*
X136039840Y-73419876D01*
G36*
X136254455Y-74606086D02*
G01*
X136472661Y-74606457D01*
X136640519Y-74607892D01*
X136766070Y-74610998D01*
X136857355Y-74616378D01*
X136922415Y-74624638D01*
X136969291Y-74636384D01*
X137006024Y-74652219D01*
X137026991Y-74664210D01*
X137140694Y-74763510D01*
X137211965Y-74889412D01*
X137237538Y-75028709D01*
X137214150Y-75168195D01*
X137172119Y-75251257D01*
X137099411Y-75338455D01*
X137010612Y-75397883D01*
X136894320Y-75433739D01*
X136739135Y-75450219D01*
X136625287Y-75452553D01*
X136617106Y-75452239D01*
X136617106Y-75248276D01*
X136747657Y-75247030D01*
X136834080Y-75241322D01*
X136890618Y-75228196D01*
X136931514Y-75204694D01*
X136962362Y-75176614D01*
X137021905Y-75082312D01*
X137026992Y-74981060D01*
X136977279Y-74885364D01*
X136970543Y-74877916D01*
X136935502Y-74846126D01*
X136893811Y-74826192D01*
X136831762Y-74815400D01*
X136735644Y-74811035D01*
X136629379Y-74810345D01*
X136495880Y-74811841D01*
X136406822Y-74818036D01*
X136348293Y-74831486D01*
X136306382Y-74854749D01*
X136284123Y-74873825D01*
X136227985Y-74962437D01*
X136221235Y-75064492D01*
X136264114Y-75161905D01*
X136280032Y-75180704D01*
X136315382Y-75212707D01*
X136357502Y-75232682D01*
X136420251Y-75243407D01*
X136517487Y-75247661D01*
X136617106Y-75248276D01*
X136617106Y-75452239D01*
X136441947Y-75445496D01*
X136304195Y-75421528D01*
X136200632Y-75376452D01*
X136119856Y-75306072D01*
X136078455Y-75251257D01*
X136033728Y-75151624D01*
X136012967Y-75036145D01*
X136018525Y-74928801D01*
X136040943Y-74868736D01*
X136047323Y-74845165D01*
X136023535Y-74829523D01*
X135959788Y-74818605D01*
X135862687Y-74810345D01*
X135754541Y-74801301D01*
X135689475Y-74788739D01*
X135652268Y-74765881D01*
X135627699Y-74725949D01*
X135616819Y-74700862D01*
X135577072Y-74605977D01*
X136254455Y-74606086D01*
G37*
X136254455Y-74606086D02*
X136472661Y-74606457D01*
X136640519Y-74607892D01*
X136766070Y-74610998D01*
X136857355Y-74616378D01*
X136922415Y-74624638D01*
X136969291Y-74636384D01*
X137006024Y-74652219D01*
X137026991Y-74664210D01*
X137140694Y-74763510D01*
X137211965Y-74889412D01*
X137237538Y-75028709D01*
X137214150Y-75168195D01*
X137172119Y-75251257D01*
X137099411Y-75338455D01*
X137010612Y-75397883D01*
X136894320Y-75433739D01*
X136739135Y-75450219D01*
X136625287Y-75452553D01*
X136617106Y-75452239D01*
X136617106Y-75248276D01*
X136747657Y-75247030D01*
X136834080Y-75241322D01*
X136890618Y-75228196D01*
X136931514Y-75204694D01*
X136962362Y-75176614D01*
X137021905Y-75082312D01*
X137026992Y-74981060D01*
X136977279Y-74885364D01*
X136970543Y-74877916D01*
X136935502Y-74846126D01*
X136893811Y-74826192D01*
X136831762Y-74815400D01*
X136735644Y-74811035D01*
X136629379Y-74810345D01*
X136495880Y-74811841D01*
X136406822Y-74818036D01*
X136348293Y-74831486D01*
X136306382Y-74854749D01*
X136284123Y-74873825D01*
X136227985Y-74962437D01*
X136221235Y-75064492D01*
X136264114Y-75161905D01*
X136280032Y-75180704D01*
X136315382Y-75212707D01*
X136357502Y-75232682D01*
X136420251Y-75243407D01*
X136517487Y-75247661D01*
X136617106Y-75248276D01*
X136617106Y-75452239D01*
X136441947Y-75445496D01*
X136304195Y-75421528D01*
X136200632Y-75376452D01*
X136119856Y-75306072D01*
X136078455Y-75251257D01*
X136033728Y-75151624D01*
X136012967Y-75036145D01*
X136018525Y-74928801D01*
X136040943Y-74868736D01*
X136047323Y-74845165D01*
X136023535Y-74829523D01*
X135959788Y-74818605D01*
X135862687Y-74810345D01*
X135754541Y-74801301D01*
X135689475Y-74788739D01*
X135652268Y-74765881D01*
X135627699Y-74725949D01*
X135616819Y-74700862D01*
X135577072Y-74605977D01*
X136254455Y-74606086D01*
G36*
X136021920Y-75934057D02*
G01*
X136070859Y-75801435D01*
X136157419Y-75693990D01*
X136218352Y-75651968D01*
X136330161Y-75606157D01*
X136411006Y-75607109D01*
X136465378Y-75655192D01*
X136474624Y-75672983D01*
X136503450Y-75749796D01*
X136496065Y-75789024D01*
X136447658Y-75802311D01*
X136420920Y-75802988D01*
X136322548Y-75827314D01*
X136253734Y-75890719D01*
X136220498Y-75978846D01*
X136228861Y-76077337D01*
X136272296Y-76157398D01*
X136297072Y-76184439D01*
X136327129Y-76203606D01*
X136372565Y-76216554D01*
X136443476Y-76224936D01*
X136549960Y-76230407D01*
X136702112Y-76234622D01*
X136750287Y-76235713D01*
X136915095Y-76239693D01*
X137031088Y-76244219D01*
X137107833Y-76251005D01*
X137154893Y-76261769D01*
X137181835Y-76278227D01*
X137198223Y-76302094D01*
X137205463Y-76317374D01*
X137230220Y-76382267D01*
X137238391Y-76420466D01*
X137211103Y-76433088D01*
X137128603Y-76440792D01*
X136989941Y-76443620D01*
X136794162Y-76441614D01*
X136763965Y-76440989D01*
X136585349Y-76436579D01*
X136454923Y-76431365D01*
X136362492Y-76423945D01*
X136297858Y-76412918D01*
X136250825Y-76396883D01*
X136211196Y-76374439D01*
X136194215Y-76362698D01*
X136119080Y-76295381D01*
X136060638Y-76220090D01*
X136055536Y-76210872D01*
X136015260Y-76075867D01*
X136021920Y-75934057D01*
G37*
X136021920Y-75934057D02*
X136070859Y-75801435D01*
X136157419Y-75693990D01*
X136218352Y-75651968D01*
X136330161Y-75606157D01*
X136411006Y-75607109D01*
X136465378Y-75655192D01*
X136474624Y-75672983D01*
X136503450Y-75749796D01*
X136496065Y-75789024D01*
X136447658Y-75802311D01*
X136420920Y-75802988D01*
X136322548Y-75827314D01*
X136253734Y-75890719D01*
X136220498Y-75978846D01*
X136228861Y-76077337D01*
X136272296Y-76157398D01*
X136297072Y-76184439D01*
X136327129Y-76203606D01*
X136372565Y-76216554D01*
X136443476Y-76224936D01*
X136549960Y-76230407D01*
X136702112Y-76234622D01*
X136750287Y-76235713D01*
X136915095Y-76239693D01*
X137031088Y-76244219D01*
X137107833Y-76251005D01*
X137154893Y-76261769D01*
X137181835Y-76278227D01*
X137198223Y-76302094D01*
X137205463Y-76317374D01*
X137230220Y-76382267D01*
X137238391Y-76420466D01*
X137211103Y-76433088D01*
X137128603Y-76440792D01*
X136989941Y-76443620D01*
X136794162Y-76441614D01*
X136763965Y-76440989D01*
X136585349Y-76436579D01*
X136454923Y-76431365D01*
X136362492Y-76423945D01*
X136297858Y-76412918D01*
X136250825Y-76396883D01*
X136211196Y-76374439D01*
X136194215Y-76362698D01*
X136119080Y-76295381D01*
X136060638Y-76220090D01*
X136055536Y-76210872D01*
X136015260Y-76075867D01*
X136021920Y-75934057D01*
G36*
X136024360Y-76920056D02*
G01*
X136066842Y-76805657D01*
X136067658Y-76804348D01*
X136119730Y-76733597D01*
X136180584Y-76681364D01*
X136259887Y-76644629D01*
X136367309Y-76620366D01*
X136512517Y-76605555D01*
X136705179Y-76597171D01*
X136732628Y-76596436D01*
X137146521Y-76585880D01*
X137192456Y-76674709D01*
X137223498Y-76738982D01*
X137238206Y-76777790D01*
X137238391Y-76779585D01*
X137211250Y-76786300D01*
X137138041Y-76791635D01*
X137031081Y-76794917D01*
X136944469Y-76795632D01*
X136804162Y-76795649D01*
X136716051Y-76802063D01*
X136674025Y-76824420D01*
X136671975Y-76872268D01*
X136703790Y-76955151D01*
X136762272Y-77080287D01*
X136810845Y-77172303D01*
X136852986Y-77219629D01*
X136898916Y-77233542D01*
X136901189Y-77233563D01*
X136980311Y-77210605D01*
X137023055Y-77142630D01*
X137029246Y-77038602D01*
X137028172Y-76963670D01*
X137049753Y-76924161D01*
X137101591Y-76899522D01*
X137167632Y-76885341D01*
X137205104Y-76905777D01*
X137210467Y-76913472D01*
X137232006Y-76985917D01*
X137235055Y-77087367D01*
X137220778Y-77191843D01*
X137194688Y-77265875D01*
X137107785Y-77368228D01*
X136986816Y-77426409D01*
X136892308Y-77437931D01*
X136807062Y-77429138D01*
X136737476Y-77397320D01*
X136675672Y-77334316D01*
X136613772Y-77231969D01*
X136543897Y-77082118D01*
X136539948Y-77072988D01*
X136477588Y-76938003D01*
X136426446Y-76854706D01*
X136380488Y-76819003D01*
X136333683Y-76826797D01*
X136279998Y-76873993D01*
X136267644Y-76888106D01*
X136219741Y-76982641D01*
X136221758Y-77080594D01*
X136268724Y-77165903D01*
X136355669Y-77222504D01*
X136372734Y-77227763D01*
X136455504Y-77278977D01*
X136495372Y-77343963D01*
X136534882Y-77437931D01*
X136432658Y-77437931D01*
X136284072Y-77409347D01*
X136147784Y-77324505D01*
X136102191Y-77280355D01*
X136043674Y-77179995D01*
X136017184Y-77052365D01*
X136024360Y-76920056D01*
G37*
X136024360Y-76920056D02*
X136066842Y-76805657D01*
X136067658Y-76804348D01*
X136119730Y-76733597D01*
X136180584Y-76681364D01*
X136259887Y-76644629D01*
X136367309Y-76620366D01*
X136512517Y-76605555D01*
X136705179Y-76597171D01*
X136732628Y-76596436D01*
X137146521Y-76585880D01*
X137192456Y-76674709D01*
X137223498Y-76738982D01*
X137238206Y-76777790D01*
X137238391Y-76779585D01*
X137211250Y-76786300D01*
X137138041Y-76791635D01*
X137031081Y-76794917D01*
X136944469Y-76795632D01*
X136804162Y-76795649D01*
X136716051Y-76802063D01*
X136674025Y-76824420D01*
X136671975Y-76872268D01*
X136703790Y-76955151D01*
X136762272Y-77080287D01*
X136810845Y-77172303D01*
X136852986Y-77219629D01*
X136898916Y-77233542D01*
X136901189Y-77233563D01*
X136980311Y-77210605D01*
X137023055Y-77142630D01*
X137029246Y-77038602D01*
X137028172Y-76963670D01*
X137049753Y-76924161D01*
X137101591Y-76899522D01*
X137167632Y-76885341D01*
X137205104Y-76905777D01*
X137210467Y-76913472D01*
X137232006Y-76985917D01*
X137235055Y-77087367D01*
X137220778Y-77191843D01*
X137194688Y-77265875D01*
X137107785Y-77368228D01*
X136986816Y-77426409D01*
X136892308Y-77437931D01*
X136807062Y-77429138D01*
X136737476Y-77397320D01*
X136675672Y-77334316D01*
X136613772Y-77231969D01*
X136543897Y-77082118D01*
X136539948Y-77072988D01*
X136477588Y-76938003D01*
X136426446Y-76854706D01*
X136380488Y-76819003D01*
X136333683Y-76826797D01*
X136279998Y-76873993D01*
X136267644Y-76888106D01*
X136219741Y-76982641D01*
X136221758Y-77080594D01*
X136268724Y-77165903D01*
X136355669Y-77222504D01*
X136372734Y-77227763D01*
X136455504Y-77278977D01*
X136495372Y-77343963D01*
X136534882Y-77437931D01*
X136432658Y-77437931D01*
X136284072Y-77409347D01*
X136147784Y-77324505D01*
X136102191Y-77280355D01*
X136043674Y-77179995D01*
X136017184Y-77052365D01*
X136024360Y-76920056D01*
G36*
X135823857Y-78255402D02*
G01*
X135943188Y-78246846D01*
X136013506Y-78237019D01*
X136044179Y-78223401D01*
X136044571Y-78203473D01*
X136040910Y-78197011D01*
X136014398Y-78111060D01*
X136015946Y-77999255D01*
X136043199Y-77885586D01*
X136078455Y-77814490D01*
X136134778Y-77741595D01*
X136198519Y-77688307D01*
X136279510Y-77651725D01*
X136387586Y-77628950D01*
X136532580Y-77617081D01*
X136724326Y-77613218D01*
X136761109Y-77613149D01*
X137174288Y-77613103D01*
X137206339Y-77705046D01*
X137228144Y-77770348D01*
X137238297Y-77806176D01*
X137238391Y-77807230D01*
X137210860Y-77810758D01*
X137134923Y-77813761D01*
X137020565Y-77816010D01*
X136877769Y-77817276D01*
X136790951Y-77817471D01*
X136619773Y-77817877D01*
X136497088Y-77819968D01*
X136413000Y-77825053D01*
X136357614Y-77834440D01*
X136321032Y-77849439D01*
X136293359Y-77871358D01*
X136280032Y-77885043D01*
X136226328Y-77979051D01*
X136222307Y-78081636D01*
X136267725Y-78174710D01*
X136284123Y-78191922D01*
X136314957Y-78217168D01*
X136351531Y-78234680D01*
X136404415Y-78245858D01*
X136484177Y-78252104D01*
X136601385Y-78254818D01*
X136762991Y-78255402D01*
X137174288Y-78255402D01*
X137206339Y-78347345D01*
X137228144Y-78412647D01*
X137238297Y-78448475D01*
X137238391Y-78449529D01*
X137210448Y-78452225D01*
X137131630Y-78454655D01*
X137009453Y-78456722D01*
X136851432Y-78458329D01*
X136665083Y-78459377D01*
X136457920Y-78459769D01*
X136448706Y-78459770D01*
X135659020Y-78459770D01*
X135618997Y-78364885D01*
X135578973Y-78270000D01*
X135823857Y-78255402D01*
G37*
X135823857Y-78255402D02*
X135943188Y-78246846D01*
X136013506Y-78237019D01*
X136044179Y-78223401D01*
X136044571Y-78203473D01*
X136040910Y-78197011D01*
X136014398Y-78111060D01*
X136015946Y-77999255D01*
X136043199Y-77885586D01*
X136078455Y-77814490D01*
X136134778Y-77741595D01*
X136198519Y-77688307D01*
X136279510Y-77651725D01*
X136387586Y-77628950D01*
X136532580Y-77617081D01*
X136724326Y-77613218D01*
X136761109Y-77613149D01*
X137174288Y-77613103D01*
X137206339Y-77705046D01*
X137228144Y-77770348D01*
X137238297Y-77806176D01*
X137238391Y-77807230D01*
X137210860Y-77810758D01*
X137134923Y-77813761D01*
X137020565Y-77816010D01*
X136877769Y-77817276D01*
X136790951Y-77817471D01*
X136619773Y-77817877D01*
X136497088Y-77819968D01*
X136413000Y-77825053D01*
X136357614Y-77834440D01*
X136321032Y-77849439D01*
X136293359Y-77871358D01*
X136280032Y-77885043D01*
X136226328Y-77979051D01*
X136222307Y-78081636D01*
X136267725Y-78174710D01*
X136284123Y-78191922D01*
X136314957Y-78217168D01*
X136351531Y-78234680D01*
X136404415Y-78245858D01*
X136484177Y-78252104D01*
X136601385Y-78254818D01*
X136762991Y-78255402D01*
X137174288Y-78255402D01*
X137206339Y-78347345D01*
X137228144Y-78412647D01*
X137238297Y-78448475D01*
X137238391Y-78449529D01*
X137210448Y-78452225D01*
X137131630Y-78454655D01*
X137009453Y-78456722D01*
X136851432Y-78458329D01*
X136665083Y-78459377D01*
X136457920Y-78459769D01*
X136448706Y-78459770D01*
X135659020Y-78459770D01*
X135618997Y-78364885D01*
X135578973Y-78270000D01*
X135823857Y-78255402D01*
G36*
X135984676Y-80684448D02*
G01*
X136062111Y-80569342D01*
X136173949Y-80480389D01*
X136316265Y-80427251D01*
X136421015Y-80416503D01*
X136464726Y-80417724D01*
X136498194Y-80427944D01*
X136528179Y-80456039D01*
X136561440Y-80510884D01*
X136604738Y-80601355D01*
X136664833Y-80736328D01*
X136665134Y-80737011D01*
X136722037Y-80861249D01*
X136772565Y-80963127D01*
X136811280Y-81032233D01*
X136832740Y-81058154D01*
X136832913Y-81058161D01*
X136879644Y-81035315D01*
X136931154Y-80981891D01*
X136968261Y-80920558D01*
X136975632Y-80889485D01*
X136950138Y-80804711D01*
X136886291Y-80731707D01*
X136816094Y-80696087D01*
X136764343Y-80661820D01*
X136705409Y-80594697D01*
X136654496Y-80515792D01*
X136626809Y-80446179D01*
X136625287Y-80431623D01*
X136650321Y-80415237D01*
X136714311Y-80414250D01*
X136800593Y-80426292D01*
X136892501Y-80448993D01*
X136973369Y-80479986D01*
X136976509Y-80481552D01*
X137106734Y-80574819D01*
X137195311Y-80695696D01*
X137238786Y-80832973D01*
X137233706Y-80975440D01*
X137176616Y-81111888D01*
X137172602Y-81117955D01*
X137075326Y-81225290D01*
X136948409Y-81295868D01*
X136781526Y-81334926D01*
X136734639Y-81340168D01*
X136513329Y-81349452D01*
X136410124Y-81338322D01*
X136410124Y-81058161D01*
X136474503Y-81054521D01*
X136493291Y-81034611D01*
X136479235Y-80984974D01*
X136446009Y-80906733D01*
X136404359Y-80819274D01*
X136403256Y-80817101D01*
X136364265Y-80742970D01*
X136338244Y-80713219D01*
X136310965Y-80720555D01*
X136275121Y-80751447D01*
X136223251Y-80830040D01*
X136219439Y-80914677D01*
X136257189Y-80990597D01*
X136330001Y-81043035D01*
X136410124Y-81058161D01*
X136410124Y-81338322D01*
X136336261Y-81330356D01*
X136195829Y-81281366D01*
X136097447Y-81213164D01*
X135998030Y-81090065D01*
X135948711Y-80954472D01*
X135945568Y-80816045D01*
X135984676Y-80684448D01*
G37*
X135984676Y-80684448D02*
X136062111Y-80569342D01*
X136173949Y-80480389D01*
X136316265Y-80427251D01*
X136421015Y-80416503D01*
X136464726Y-80417724D01*
X136498194Y-80427944D01*
X136528179Y-80456039D01*
X136561440Y-80510884D01*
X136604738Y-80601355D01*
X136664833Y-80736328D01*
X136665134Y-80737011D01*
X136722037Y-80861249D01*
X136772565Y-80963127D01*
X136811280Y-81032233D01*
X136832740Y-81058154D01*
X136832913Y-81058161D01*
X136879644Y-81035315D01*
X136931154Y-80981891D01*
X136968261Y-80920558D01*
X136975632Y-80889485D01*
X136950138Y-80804711D01*
X136886291Y-80731707D01*
X136816094Y-80696087D01*
X136764343Y-80661820D01*
X136705409Y-80594697D01*
X136654496Y-80515792D01*
X136626809Y-80446179D01*
X136625287Y-80431623D01*
X136650321Y-80415237D01*
X136714311Y-80414250D01*
X136800593Y-80426292D01*
X136892501Y-80448993D01*
X136973369Y-80479986D01*
X136976509Y-80481552D01*
X137106734Y-80574819D01*
X137195311Y-80695696D01*
X137238786Y-80832973D01*
X137233706Y-80975440D01*
X137176616Y-81111888D01*
X137172602Y-81117955D01*
X137075326Y-81225290D01*
X136948409Y-81295868D01*
X136781526Y-81334926D01*
X136734639Y-81340168D01*
X136513329Y-81349452D01*
X136410124Y-81338322D01*
X136410124Y-81058161D01*
X136474503Y-81054521D01*
X136493291Y-81034611D01*
X136479235Y-80984974D01*
X136446009Y-80906733D01*
X136404359Y-80819274D01*
X136403256Y-80817101D01*
X136364265Y-80742970D01*
X136338244Y-80713219D01*
X136310965Y-80720555D01*
X136275121Y-80751447D01*
X136223251Y-80830040D01*
X136219439Y-80914677D01*
X136257189Y-80990597D01*
X136330001Y-81043035D01*
X136410124Y-81058161D01*
X136410124Y-81338322D01*
X136336261Y-81330356D01*
X136195829Y-81281366D01*
X136097447Y-81213164D01*
X135998030Y-81090065D01*
X135948711Y-80954472D01*
X135945568Y-80816045D01*
X135984676Y-80684448D01*
G36*
X135966015Y-82951779D02*
G01*
X136037968Y-82814939D01*
X136153766Y-82713949D01*
X136228213Y-82678075D01*
X136339992Y-82650161D01*
X136481227Y-82635871D01*
X136635371Y-82634516D01*
X136785879Y-82645405D01*
X136916205Y-82667847D01*
X137009803Y-82701150D01*
X137025922Y-82711385D01*
X137146249Y-82832618D01*
X137218317Y-82976613D01*
X137239408Y-83132861D01*
X137206802Y-83290852D01*
X137187253Y-83334820D01*
X137127012Y-83420444D01*
X137047135Y-83495592D01*
X137037004Y-83502694D01*
X136988181Y-83531561D01*
X136935990Y-83550643D01*
X136867285Y-83561916D01*
X136768918Y-83567355D01*
X136627744Y-83568938D01*
X136596092Y-83568965D01*
X136586019Y-83568893D01*
X136586019Y-83277011D01*
X136719256Y-83275313D01*
X136807674Y-83268628D01*
X136864785Y-83254575D01*
X136904102Y-83230771D01*
X136917241Y-83218621D01*
X136967172Y-83148764D01*
X136964895Y-83080941D01*
X136921584Y-83012365D01*
X136875346Y-82971465D01*
X136807857Y-82947242D01*
X136701433Y-82933639D01*
X136689020Y-82932706D01*
X136496147Y-82930384D01*
X136352900Y-82954650D01*
X136260160Y-83005176D01*
X136218807Y-83081632D01*
X136216552Y-83108924D01*
X136227893Y-83180589D01*
X136267184Y-83229610D01*
X136342326Y-83259582D01*
X136461222Y-83274101D01*
X136586019Y-83277011D01*
X136586019Y-83568893D01*
X136445659Y-83567878D01*
X136340549Y-83563312D01*
X136267714Y-83553312D01*
X136214108Y-83535921D01*
X136166681Y-83509184D01*
X136157864Y-83503276D01*
X136039007Y-83403968D01*
X135970008Y-83295758D01*
X135942619Y-83164019D01*
X135941281Y-83119283D01*
X135966015Y-82951779D01*
G37*
X135966015Y-82951779D02*
X136037968Y-82814939D01*
X136153766Y-82713949D01*
X136228213Y-82678075D01*
X136339992Y-82650161D01*
X136481227Y-82635871D01*
X136635371Y-82634516D01*
X136785879Y-82645405D01*
X136916205Y-82667847D01*
X137009803Y-82701150D01*
X137025922Y-82711385D01*
X137146249Y-82832618D01*
X137218317Y-82976613D01*
X137239408Y-83132861D01*
X137206802Y-83290852D01*
X137187253Y-83334820D01*
X137127012Y-83420444D01*
X137047135Y-83495592D01*
X137037004Y-83502694D01*
X136988181Y-83531561D01*
X136935990Y-83550643D01*
X136867285Y-83561916D01*
X136768918Y-83567355D01*
X136627744Y-83568938D01*
X136596092Y-83568965D01*
X136586019Y-83568893D01*
X136586019Y-83277011D01*
X136719256Y-83275313D01*
X136807674Y-83268628D01*
X136864785Y-83254575D01*
X136904102Y-83230771D01*
X136917241Y-83218621D01*
X136967172Y-83148764D01*
X136964895Y-83080941D01*
X136921584Y-83012365D01*
X136875346Y-82971465D01*
X136807857Y-82947242D01*
X136701433Y-82933639D01*
X136689020Y-82932706D01*
X136496147Y-82930384D01*
X136352900Y-82954650D01*
X136260160Y-83005176D01*
X136218807Y-83081632D01*
X136216552Y-83108924D01*
X136227893Y-83180589D01*
X136267184Y-83229610D01*
X136342326Y-83259582D01*
X136461222Y-83274101D01*
X136586019Y-83277011D01*
X136586019Y-83568893D01*
X136445659Y-83567878D01*
X136340549Y-83563312D01*
X136267714Y-83553312D01*
X136214108Y-83535921D01*
X136166681Y-83509184D01*
X136157864Y-83503276D01*
X136039007Y-83403968D01*
X135970008Y-83295758D01*
X135942619Y-83164019D01*
X135941281Y-83119283D01*
X135966015Y-82951779D01*
G36*
X135977719Y-79582571D02*
G01*
X136031914Y-79488877D01*
X136085707Y-79423736D01*
X136142066Y-79376093D01*
X136210987Y-79343272D01*
X136302468Y-79322594D01*
X136426506Y-79311380D01*
X136593098Y-79306951D01*
X136712851Y-79306437D01*
X137153659Y-79306437D01*
X137209283Y-79430517D01*
X137264907Y-79554598D01*
X136782095Y-79569195D01*
X136601779Y-79575227D01*
X136470901Y-79581555D01*
X136380511Y-79589394D01*
X136321664Y-79599963D01*
X136285413Y-79614477D01*
X136262810Y-79634152D01*
X136257917Y-79640465D01*
X136219706Y-79736112D01*
X136234827Y-79832793D01*
X136274943Y-79890345D01*
X136303370Y-79913755D01*
X136340672Y-79929961D01*
X136397223Y-79940259D01*
X136483394Y-79945951D01*
X136609558Y-79948336D01*
X136741042Y-79948736D01*
X136905999Y-79948814D01*
X137022761Y-79951639D01*
X137101510Y-79961093D01*
X137152431Y-79981060D01*
X137185706Y-80015424D01*
X137211520Y-80068068D01*
X137238344Y-80138383D01*
X137267542Y-80215180D01*
X136749346Y-80206038D01*
X136562539Y-80202357D01*
X136424490Y-80198050D01*
X136325568Y-80191877D01*
X136256145Y-80182598D01*
X136206590Y-80168973D01*
X136167273Y-80149761D01*
X136132584Y-80126598D01*
X136021770Y-80014848D01*
X135957689Y-79878487D01*
X135942339Y-79730175D01*
X135977719Y-79582571D01*
G37*
X135977719Y-79582571D02*
X136031914Y-79488877D01*
X136085707Y-79423736D01*
X136142066Y-79376093D01*
X136210987Y-79343272D01*
X136302468Y-79322594D01*
X136426506Y-79311380D01*
X136593098Y-79306951D01*
X136712851Y-79306437D01*
X137153659Y-79306437D01*
X137209283Y-79430517D01*
X137264907Y-79554598D01*
X136782095Y-79569195D01*
X136601779Y-79575227D01*
X136470901Y-79581555D01*
X136380511Y-79589394D01*
X136321664Y-79599963D01*
X136285413Y-79614477D01*
X136262810Y-79634152D01*
X136257917Y-79640465D01*
X136219706Y-79736112D01*
X136234827Y-79832793D01*
X136274943Y-79890345D01*
X136303370Y-79913755D01*
X136340672Y-79929961D01*
X136397223Y-79940259D01*
X136483394Y-79945951D01*
X136609558Y-79948336D01*
X136741042Y-79948736D01*
X136905999Y-79948814D01*
X137022761Y-79951639D01*
X137101510Y-79961093D01*
X137152431Y-79981060D01*
X137185706Y-80015424D01*
X137211520Y-80068068D01*
X137238344Y-80138383D01*
X137267542Y-80215180D01*
X136749346Y-80206038D01*
X136562539Y-80202357D01*
X136424490Y-80198050D01*
X136325568Y-80191877D01*
X136256145Y-80182598D01*
X136206590Y-80168973D01*
X136167273Y-80149761D01*
X136132584Y-80126598D01*
X136021770Y-80014848D01*
X135957689Y-79878487D01*
X135942339Y-79730175D01*
X135977719Y-79582571D01*
G36*
X135961903Y-81828100D02*
G01*
X136017522Y-81716550D01*
X136119931Y-81618092D01*
X136157864Y-81590977D01*
X136207500Y-81561438D01*
X136261412Y-81542272D01*
X136333364Y-81531307D01*
X136437122Y-81526371D01*
X136574101Y-81525287D01*
X136761815Y-81530182D01*
X136902758Y-81547196D01*
X137007908Y-81579823D01*
X137088243Y-81631558D01*
X137154741Y-81705896D01*
X137158678Y-81711358D01*
X137198953Y-81784620D01*
X137218880Y-81872840D01*
X137223793Y-81985038D01*
X137223793Y-82167433D01*
X137400857Y-82167509D01*
X137499470Y-82169207D01*
X137557314Y-82179550D01*
X137592006Y-82206578D01*
X137621164Y-82258332D01*
X137627121Y-82270761D01*
X137655039Y-82328923D01*
X137672672Y-82373956D01*
X137674194Y-82407441D01*
X137653781Y-82430962D01*
X137605607Y-82446100D01*
X137523846Y-82454437D01*
X137402672Y-82457556D01*
X137236260Y-82457040D01*
X137018785Y-82454471D01*
X136953736Y-82453668D01*
X136729502Y-82450778D01*
X136582821Y-82448188D01*
X136582821Y-82167586D01*
X136707326Y-82166009D01*
X136788787Y-82159000D01*
X136842515Y-82143142D01*
X136883823Y-82115019D01*
X136903971Y-82095925D01*
X136962921Y-82017865D01*
X136967720Y-81948753D01*
X136919038Y-81877440D01*
X136917241Y-81875632D01*
X136879618Y-81846617D01*
X136828484Y-81828967D01*
X136749738Y-81820064D01*
X136629276Y-81817291D01*
X136602588Y-81817241D01*
X136436583Y-81823942D01*
X136321505Y-81845752D01*
X136251254Y-81885235D01*
X136219729Y-81944956D01*
X136216552Y-81979472D01*
X136231460Y-82061389D01*
X136280548Y-82117579D01*
X136370362Y-82151402D01*
X136507445Y-82166220D01*
X136582821Y-82167586D01*
X136582821Y-82448188D01*
X136555952Y-82447713D01*
X136425382Y-82443753D01*
X136330087Y-82438174D01*
X136262364Y-82430254D01*
X136214507Y-82419269D01*
X136178813Y-82404499D01*
X136147578Y-82385218D01*
X136135824Y-82376951D01*
X136024797Y-82267288D01*
X135961847Y-82128635D01*
X135944297Y-81968246D01*
X135961903Y-81828100D01*
G37*
X135961903Y-81828100D02*
X136017522Y-81716550D01*
X136119931Y-81618092D01*
X136157864Y-81590977D01*
X136207500Y-81561438D01*
X136261412Y-81542272D01*
X136333364Y-81531307D01*
X136437122Y-81526371D01*
X136574101Y-81525287D01*
X136761815Y-81530182D01*
X136902758Y-81547196D01*
X137007908Y-81579823D01*
X137088243Y-81631558D01*
X137154741Y-81705896D01*
X137158678Y-81711358D01*
X137198953Y-81784620D01*
X137218880Y-81872840D01*
X137223793Y-81985038D01*
X137223793Y-82167433D01*
X137400857Y-82167509D01*
X137499470Y-82169207D01*
X137557314Y-82179550D01*
X137592006Y-82206578D01*
X137621164Y-82258332D01*
X137627121Y-82270761D01*
X137655039Y-82328923D01*
X137672672Y-82373956D01*
X137674194Y-82407441D01*
X137653781Y-82430962D01*
X137605607Y-82446100D01*
X137523846Y-82454437D01*
X137402672Y-82457556D01*
X137236260Y-82457040D01*
X137018785Y-82454471D01*
X136953736Y-82453668D01*
X136729502Y-82450778D01*
X136582821Y-82448188D01*
X136582821Y-82167586D01*
X136707326Y-82166009D01*
X136788787Y-82159000D01*
X136842515Y-82143142D01*
X136883823Y-82115019D01*
X136903971Y-82095925D01*
X136962921Y-82017865D01*
X136967720Y-81948753D01*
X136919038Y-81877440D01*
X136917241Y-81875632D01*
X136879618Y-81846617D01*
X136828484Y-81828967D01*
X136749738Y-81820064D01*
X136629276Y-81817291D01*
X136602588Y-81817241D01*
X136436583Y-81823942D01*
X136321505Y-81845752D01*
X136251254Y-81885235D01*
X136219729Y-81944956D01*
X136216552Y-81979472D01*
X136231460Y-82061389D01*
X136280548Y-82117579D01*
X136370362Y-82151402D01*
X136507445Y-82166220D01*
X136582821Y-82167586D01*
X136582821Y-82448188D01*
X136555952Y-82447713D01*
X136425382Y-82443753D01*
X136330087Y-82438174D01*
X136262364Y-82430254D01*
X136214507Y-82419269D01*
X136178813Y-82404499D01*
X136147578Y-82385218D01*
X136135824Y-82376951D01*
X136024797Y-82267288D01*
X135961847Y-82128635D01*
X135944297Y-81968246D01*
X135961903Y-81828100D01*
D14*
X157612000Y-91110000D02*
G75*
G03X157612000Y-91110000I-950000J0D01*
G01*
X157612000Y-88570000D02*
G75*
G03X157612000Y-88570000I-950000J0D01*
G01*
X157612000Y-86030000D02*
G75*
G03X157612000Y-86030000I-950000J0D01*
G01*
X157612000Y-74346000D02*
G75*
G03X157612000Y-74346000I-950000J0D01*
G01*
X157612000Y-71806000D02*
G75*
G03X157612000Y-71806000I-950000J0D01*
G01*
X157612000Y-83490000D02*
G75*
G03X157612000Y-83490000I-950000J0D01*
G01*
X160920000Y-82160000D02*
X162250000Y-82160000D01*
X160920000Y-83490000D02*
X160920000Y-82160000D01*
X160920000Y-84760000D02*
X163580000Y-84760000D01*
X163580000Y-84760000D02*
X163580000Y-92440000D01*
X160920000Y-84760000D02*
X160920000Y-92440000D01*
X160920000Y-92440000D02*
X163580000Y-92440000D01*
X160920000Y-70476000D02*
X162250000Y-70476000D01*
X160920000Y-71806000D02*
X160920000Y-70476000D01*
X160920000Y-73076000D02*
X163580000Y-73076000D01*
X163580000Y-73076000D02*
X163580000Y-75676000D01*
X160920000Y-73076000D02*
X160920000Y-75676000D01*
X160920000Y-75676000D02*
X163580000Y-75676000D01*
X138576000Y-58097252D02*
X138576000Y-57574748D01*
X137156000Y-58097252D02*
X137156000Y-57574748D01*
X140862000Y-58097252D02*
X140862000Y-57574748D01*
X139442000Y-58097252D02*
X139442000Y-57574748D01*
X151081252Y-90400000D02*
X150558748Y-90400000D01*
X151081252Y-91820000D02*
X150558748Y-91820000D01*
X151081252Y-87860000D02*
X150558748Y-87860000D01*
X151081252Y-89280000D02*
X150558748Y-89280000D01*
X151081252Y-85320000D02*
X150558748Y-85320000D01*
X151081252Y-86740000D02*
X150558748Y-86740000D01*
X151081252Y-82780000D02*
X150558748Y-82780000D01*
X151081252Y-84200000D02*
X150558748Y-84200000D01*
X141482000Y-60824000D02*
X141482000Y-62154000D01*
X140152000Y-60824000D02*
X141482000Y-60824000D01*
X138882000Y-60824000D02*
X138882000Y-63484000D01*
X138882000Y-63484000D02*
X136282000Y-63484000D01*
X138882000Y-60824000D02*
X136282000Y-60824000D01*
X136282000Y-60824000D02*
X136282000Y-63484000D01*
X160920000Y-56760000D02*
X162250000Y-56760000D01*
X160920000Y-58090000D02*
X160920000Y-56760000D01*
X160920000Y-59360000D02*
X163580000Y-59360000D01*
X163580000Y-59360000D02*
X163580000Y-61960000D01*
X160920000Y-59360000D02*
X160920000Y-61960000D01*
X160920000Y-61960000D02*
X163580000Y-61960000D01*
X151081252Y-73636000D02*
X150558748Y-73636000D01*
X151081252Y-75056000D02*
X150558748Y-75056000D01*
X151081252Y-71096000D02*
X150558748Y-71096000D01*
X151081252Y-72516000D02*
X150558748Y-72516000D01*
X115521252Y-57380000D02*
X114998748Y-57380000D01*
X115521252Y-58800000D02*
X114998748Y-58800000D01*
X115521252Y-61952000D02*
X114998748Y-61952000D01*
X115521252Y-63372000D02*
X114998748Y-63372000D01*
X115521252Y-75160000D02*
X114998748Y-75160000D01*
X115521252Y-76580000D02*
X114998748Y-76580000D01*
X115521252Y-85320000D02*
X114998748Y-85320000D01*
X115521252Y-86740000D02*
X114998748Y-86740000D01*
X115521252Y-80240000D02*
X114998748Y-80240000D01*
X115521252Y-81660000D02*
X114998748Y-81660000D01*
X141990000Y-47870000D02*
X141990000Y-49200000D01*
X140660000Y-47870000D02*
X141990000Y-47870000D01*
X139390000Y-47870000D02*
X139390000Y-50530000D01*
X139390000Y-50530000D02*
X121550000Y-50530000D01*
X139390000Y-47870000D02*
X121550000Y-47870000D01*
X121550000Y-47870000D02*
X121550000Y-50530000D01*
X125614000Y-98790000D02*
X125614000Y-97460000D01*
X126944000Y-98790000D02*
X125614000Y-98790000D01*
X128214000Y-98790000D02*
X128214000Y-96130000D01*
X128214000Y-96130000D02*
X151134000Y-96130000D01*
X128214000Y-98790000D02*
X151134000Y-98790000D01*
X151134000Y-98790000D02*
X151134000Y-96130000D01*
X119130000Y-47870000D02*
X119130000Y-49200000D01*
X117800000Y-47870000D02*
X119130000Y-47870000D01*
X116530000Y-47870000D02*
X116530000Y-50530000D01*
X116530000Y-50530000D02*
X103770000Y-50530000D01*
X116530000Y-47870000D02*
X103770000Y-47870000D01*
X103770000Y-47870000D02*
X103770000Y-50530000D01*
X103770000Y-98790000D02*
X103770000Y-97460000D01*
X105100000Y-98790000D02*
X103770000Y-98790000D01*
X106370000Y-98790000D02*
X106370000Y-96130000D01*
X106370000Y-96130000D02*
X124210000Y-96130000D01*
X106370000Y-98790000D02*
X124210000Y-98790000D01*
X124210000Y-98790000D02*
X124210000Y-96130000D01*
X107901252Y-57380000D02*
X107378748Y-57380000D01*
X107901252Y-58800000D02*
X107378748Y-58800000D01*
X107901252Y-61952000D02*
X107378748Y-61952000D01*
X107901252Y-63372000D02*
X107378748Y-63372000D01*
X107901252Y-75160000D02*
X107378748Y-75160000D01*
X107901252Y-76580000D02*
X107378748Y-76580000D01*
X107901252Y-85320000D02*
X107378748Y-85320000D01*
X107901252Y-86740000D02*
X107378748Y-86740000D01*
X107901252Y-80240000D02*
X107378748Y-80240000D01*
X107901252Y-81660000D02*
X107378748Y-81660000D01*
D10*
X136359428Y-58221714D02*
X136073714Y-58421714D01*
X136359428Y-58564571D02*
X135759428Y-58564571D01*
X135759428Y-58336000D01*
X135788000Y-58278857D01*
X135816571Y-58250285D01*
X135873714Y-58221714D01*
X135959428Y-58221714D01*
X136016571Y-58250285D01*
X136045142Y-58278857D01*
X136073714Y-58336000D01*
X136073714Y-58564571D01*
X136359428Y-57650285D02*
X136359428Y-57993142D01*
X136359428Y-57821714D02*
X135759428Y-57821714D01*
X135845142Y-57878857D01*
X135902285Y-57936000D01*
X135930857Y-57993142D01*
X135759428Y-57450285D02*
X135759428Y-57078857D01*
X135988000Y-57278857D01*
X135988000Y-57193142D01*
X136016571Y-57136000D01*
X136045142Y-57107428D01*
X136102285Y-57078857D01*
X136245142Y-57078857D01*
X136302285Y-57107428D01*
X136330857Y-57136000D01*
X136359428Y-57193142D01*
X136359428Y-57364571D01*
X136330857Y-57421714D01*
X136302285Y-57450285D01*
X142201428Y-58221714D02*
X141915714Y-58421714D01*
X142201428Y-58564571D02*
X141601428Y-58564571D01*
X141601428Y-58336000D01*
X141630000Y-58278857D01*
X141658571Y-58250285D01*
X141715714Y-58221714D01*
X141801428Y-58221714D01*
X141858571Y-58250285D01*
X141887142Y-58278857D01*
X141915714Y-58336000D01*
X141915714Y-58564571D01*
X142201428Y-57650285D02*
X142201428Y-57993142D01*
X142201428Y-57821714D02*
X141601428Y-57821714D01*
X141687142Y-57878857D01*
X141744285Y-57936000D01*
X141772857Y-57993142D01*
X141658571Y-57421714D02*
X141630000Y-57393142D01*
X141601428Y-57336000D01*
X141601428Y-57193142D01*
X141630000Y-57136000D01*
X141658571Y-57107428D01*
X141715714Y-57078857D01*
X141772857Y-57078857D01*
X141858571Y-57107428D01*
X142201428Y-57450285D01*
X142201428Y-57078857D01*
X153631428Y-91495714D02*
X153345714Y-91695714D01*
X153631428Y-91838571D02*
X153031428Y-91838571D01*
X153031428Y-91610000D01*
X153060000Y-91552857D01*
X153088571Y-91524285D01*
X153145714Y-91495714D01*
X153231428Y-91495714D01*
X153288571Y-91524285D01*
X153317142Y-91552857D01*
X153345714Y-91610000D01*
X153345714Y-91838571D01*
X153631428Y-90924285D02*
X153631428Y-91267142D01*
X153631428Y-91095714D02*
X153031428Y-91095714D01*
X153117142Y-91152857D01*
X153174285Y-91210000D01*
X153202857Y-91267142D01*
X153631428Y-90352857D02*
X153631428Y-90695714D01*
X153631428Y-90524285D02*
X153031428Y-90524285D01*
X153117142Y-90581428D01*
X153174285Y-90638571D01*
X153202857Y-90695714D01*
X153631428Y-88955714D02*
X153345714Y-89155714D01*
X153631428Y-89298571D02*
X153031428Y-89298571D01*
X153031428Y-89070000D01*
X153060000Y-89012857D01*
X153088571Y-88984285D01*
X153145714Y-88955714D01*
X153231428Y-88955714D01*
X153288571Y-88984285D01*
X153317142Y-89012857D01*
X153345714Y-89070000D01*
X153345714Y-89298571D01*
X153631428Y-88384285D02*
X153631428Y-88727142D01*
X153631428Y-88555714D02*
X153031428Y-88555714D01*
X153117142Y-88612857D01*
X153174285Y-88670000D01*
X153202857Y-88727142D01*
X153031428Y-88012857D02*
X153031428Y-87955714D01*
X153060000Y-87898571D01*
X153088571Y-87870000D01*
X153145714Y-87841428D01*
X153260000Y-87812857D01*
X153402857Y-87812857D01*
X153517142Y-87841428D01*
X153574285Y-87870000D01*
X153602857Y-87898571D01*
X153631428Y-87955714D01*
X153631428Y-88012857D01*
X153602857Y-88070000D01*
X153574285Y-88098571D01*
X153517142Y-88127142D01*
X153402857Y-88155714D01*
X153260000Y-88155714D01*
X153145714Y-88127142D01*
X153088571Y-88098571D01*
X153060000Y-88070000D01*
X153031428Y-88012857D01*
X153631428Y-86130000D02*
X153345714Y-86330000D01*
X153631428Y-86472857D02*
X153031428Y-86472857D01*
X153031428Y-86244285D01*
X153060000Y-86187142D01*
X153088571Y-86158571D01*
X153145714Y-86130000D01*
X153231428Y-86130000D01*
X153288571Y-86158571D01*
X153317142Y-86187142D01*
X153345714Y-86244285D01*
X153345714Y-86472857D01*
X153631428Y-85844285D02*
X153631428Y-85730000D01*
X153602857Y-85672857D01*
X153574285Y-85644285D01*
X153488571Y-85587142D01*
X153374285Y-85558571D01*
X153145714Y-85558571D01*
X153088571Y-85587142D01*
X153060000Y-85615714D01*
X153031428Y-85672857D01*
X153031428Y-85787142D01*
X153060000Y-85844285D01*
X153088571Y-85872857D01*
X153145714Y-85901428D01*
X153288571Y-85901428D01*
X153345714Y-85872857D01*
X153374285Y-85844285D01*
X153402857Y-85787142D01*
X153402857Y-85672857D01*
X153374285Y-85615714D01*
X153345714Y-85587142D01*
X153288571Y-85558571D01*
X153631428Y-83590000D02*
X153345714Y-83790000D01*
X153631428Y-83932857D02*
X153031428Y-83932857D01*
X153031428Y-83704285D01*
X153060000Y-83647142D01*
X153088571Y-83618571D01*
X153145714Y-83590000D01*
X153231428Y-83590000D01*
X153288571Y-83618571D01*
X153317142Y-83647142D01*
X153345714Y-83704285D01*
X153345714Y-83932857D01*
X153288571Y-83247142D02*
X153260000Y-83304285D01*
X153231428Y-83332857D01*
X153174285Y-83361428D01*
X153145714Y-83361428D01*
X153088571Y-83332857D01*
X153060000Y-83304285D01*
X153031428Y-83247142D01*
X153031428Y-83132857D01*
X153060000Y-83075714D01*
X153088571Y-83047142D01*
X153145714Y-83018571D01*
X153174285Y-83018571D01*
X153231428Y-83047142D01*
X153260000Y-83075714D01*
X153288571Y-83132857D01*
X153288571Y-83247142D01*
X153317142Y-83304285D01*
X153345714Y-83332857D01*
X153402857Y-83361428D01*
X153517142Y-83361428D01*
X153574285Y-83332857D01*
X153602857Y-83304285D01*
X153631428Y-83247142D01*
X153631428Y-83132857D01*
X153602857Y-83075714D01*
X153574285Y-83047142D01*
X153517142Y-83018571D01*
X153402857Y-83018571D01*
X153345714Y-83047142D01*
X153317142Y-83075714D01*
X153288571Y-83132857D01*
X153885428Y-74446000D02*
X153599714Y-74646000D01*
X153885428Y-74788857D02*
X153285428Y-74788857D01*
X153285428Y-74560285D01*
X153314000Y-74503142D01*
X153342571Y-74474571D01*
X153399714Y-74446000D01*
X153485428Y-74446000D01*
X153542571Y-74474571D01*
X153571142Y-74503142D01*
X153599714Y-74560285D01*
X153599714Y-74788857D01*
X153285428Y-74246000D02*
X153285428Y-73846000D01*
X153885428Y-74103142D01*
X153885428Y-71906000D02*
X153599714Y-72106000D01*
X153885428Y-72248857D02*
X153285428Y-72248857D01*
X153285428Y-72020285D01*
X153314000Y-71963142D01*
X153342571Y-71934571D01*
X153399714Y-71906000D01*
X153485428Y-71906000D01*
X153542571Y-71934571D01*
X153571142Y-71963142D01*
X153599714Y-72020285D01*
X153599714Y-72248857D01*
X153285428Y-71391714D02*
X153285428Y-71506000D01*
X153314000Y-71563142D01*
X153342571Y-71591714D01*
X153428285Y-71648857D01*
X153542571Y-71677428D01*
X153771142Y-71677428D01*
X153828285Y-71648857D01*
X153856857Y-71620285D01*
X153885428Y-71563142D01*
X153885428Y-71448857D01*
X153856857Y-71391714D01*
X153828285Y-71363142D01*
X153771142Y-71334571D01*
X153628285Y-71334571D01*
X153571142Y-71363142D01*
X153542571Y-71391714D01*
X153514000Y-71448857D01*
X153514000Y-71563142D01*
X153542571Y-71620285D01*
X153571142Y-71648857D01*
X153628285Y-71677428D01*
X118325428Y-58190000D02*
X118039714Y-58390000D01*
X118325428Y-58532857D02*
X117725428Y-58532857D01*
X117725428Y-58304285D01*
X117754000Y-58247142D01*
X117782571Y-58218571D01*
X117839714Y-58190000D01*
X117925428Y-58190000D01*
X117982571Y-58218571D01*
X118011142Y-58247142D01*
X118039714Y-58304285D01*
X118039714Y-58532857D01*
X117725428Y-57647142D02*
X117725428Y-57932857D01*
X118011142Y-57961428D01*
X117982571Y-57932857D01*
X117954000Y-57875714D01*
X117954000Y-57732857D01*
X117982571Y-57675714D01*
X118011142Y-57647142D01*
X118068285Y-57618571D01*
X118211142Y-57618571D01*
X118268285Y-57647142D01*
X118296857Y-57675714D01*
X118325428Y-57732857D01*
X118325428Y-57875714D01*
X118296857Y-57932857D01*
X118268285Y-57961428D01*
X118325428Y-62762000D02*
X118039714Y-62962000D01*
X118325428Y-63104857D02*
X117725428Y-63104857D01*
X117725428Y-62876285D01*
X117754000Y-62819142D01*
X117782571Y-62790571D01*
X117839714Y-62762000D01*
X117925428Y-62762000D01*
X117982571Y-62790571D01*
X118011142Y-62819142D01*
X118039714Y-62876285D01*
X118039714Y-63104857D01*
X117925428Y-62247714D02*
X118325428Y-62247714D01*
X117696857Y-62390571D02*
X118125428Y-62533428D01*
X118125428Y-62162000D01*
X118325428Y-75970000D02*
X118039714Y-76170000D01*
X118325428Y-76312857D02*
X117725428Y-76312857D01*
X117725428Y-76084285D01*
X117754000Y-76027142D01*
X117782571Y-75998571D01*
X117839714Y-75970000D01*
X117925428Y-75970000D01*
X117982571Y-75998571D01*
X118011142Y-76027142D01*
X118039714Y-76084285D01*
X118039714Y-76312857D01*
X117725428Y-75770000D02*
X117725428Y-75398571D01*
X117954000Y-75598571D01*
X117954000Y-75512857D01*
X117982571Y-75455714D01*
X118011142Y-75427142D01*
X118068285Y-75398571D01*
X118211142Y-75398571D01*
X118268285Y-75427142D01*
X118296857Y-75455714D01*
X118325428Y-75512857D01*
X118325428Y-75684285D01*
X118296857Y-75741428D01*
X118268285Y-75770000D01*
X118325428Y-86130000D02*
X118039714Y-86330000D01*
X118325428Y-86472857D02*
X117725428Y-86472857D01*
X117725428Y-86244285D01*
X117754000Y-86187142D01*
X117782571Y-86158571D01*
X117839714Y-86130000D01*
X117925428Y-86130000D01*
X117982571Y-86158571D01*
X118011142Y-86187142D01*
X118039714Y-86244285D01*
X118039714Y-86472857D01*
X117782571Y-85901428D02*
X117754000Y-85872857D01*
X117725428Y-85815714D01*
X117725428Y-85672857D01*
X117754000Y-85615714D01*
X117782571Y-85587142D01*
X117839714Y-85558571D01*
X117896857Y-85558571D01*
X117982571Y-85587142D01*
X118325428Y-85930000D01*
X118325428Y-85558571D01*
X118325428Y-81050000D02*
X118039714Y-81250000D01*
X118325428Y-81392857D02*
X117725428Y-81392857D01*
X117725428Y-81164285D01*
X117754000Y-81107142D01*
X117782571Y-81078571D01*
X117839714Y-81050000D01*
X117925428Y-81050000D01*
X117982571Y-81078571D01*
X118011142Y-81107142D01*
X118039714Y-81164285D01*
X118039714Y-81392857D01*
X118325428Y-80478571D02*
X118325428Y-80821428D01*
X118325428Y-80650000D02*
X117725428Y-80650000D01*
X117811142Y-80707142D01*
X117868285Y-80764285D01*
X117896857Y-80821428D01*
X142442380Y-50009523D02*
X143156666Y-50009523D01*
X143299523Y-50057142D01*
X143394761Y-50152380D01*
X143442380Y-50295238D01*
X143442380Y-50390476D01*
X142537619Y-49580952D02*
X142490000Y-49533333D01*
X142442380Y-49438095D01*
X142442380Y-49200000D01*
X142490000Y-49104761D01*
X142537619Y-49057142D01*
X142632857Y-49009523D01*
X142728095Y-49009523D01*
X142870952Y-49057142D01*
X143442380Y-49628571D01*
X143442380Y-49009523D01*
X142442380Y-48390476D02*
X142442380Y-48295238D01*
X142490000Y-48200000D01*
X142537619Y-48152380D01*
X142632857Y-48104761D01*
X142823333Y-48057142D01*
X143061428Y-48057142D01*
X143251904Y-48104761D01*
X143347142Y-48152380D01*
X143394761Y-48200000D01*
X143442380Y-48295238D01*
X143442380Y-48390476D01*
X143394761Y-48485714D01*
X143347142Y-48533333D01*
X143251904Y-48580952D01*
X143061428Y-48628571D01*
X142823333Y-48628571D01*
X142632857Y-48580952D01*
X142537619Y-48533333D01*
X142490000Y-48485714D01*
X142442380Y-48390476D01*
X151796380Y-98269523D02*
X152510666Y-98269523D01*
X152653523Y-98317142D01*
X152748761Y-98412380D01*
X152796380Y-98555238D01*
X152796380Y-98650476D01*
X152796380Y-97269523D02*
X152796380Y-97840952D01*
X152796380Y-97555238D02*
X151796380Y-97555238D01*
X151939238Y-97650476D01*
X152034476Y-97745714D01*
X152082095Y-97840952D01*
X152796380Y-96793333D02*
X152796380Y-96602857D01*
X152748761Y-96507619D01*
X152701142Y-96460000D01*
X152558285Y-96364761D01*
X152367809Y-96317142D01*
X151986857Y-96317142D01*
X151891619Y-96364761D01*
X151844000Y-96412380D01*
X151796380Y-96507619D01*
X151796380Y-96698095D01*
X151844000Y-96793333D01*
X151891619Y-96840952D01*
X151986857Y-96888571D01*
X152224952Y-96888571D01*
X152320190Y-96840952D01*
X152367809Y-96793333D01*
X152415428Y-96698095D01*
X152415428Y-96507619D01*
X152367809Y-96412380D01*
X152320190Y-96364761D01*
X152224952Y-96317142D01*
X102012380Y-50009523D02*
X102726666Y-50009523D01*
X102869523Y-50057142D01*
X102964761Y-50152380D01*
X103012380Y-50295238D01*
X103012380Y-50390476D01*
X103012380Y-49009523D02*
X103012380Y-49580952D01*
X103012380Y-49295238D02*
X102012380Y-49295238D01*
X102155238Y-49390476D01*
X102250476Y-49485714D01*
X102298095Y-49580952D01*
X102440952Y-48438095D02*
X102393333Y-48533333D01*
X102345714Y-48580952D01*
X102250476Y-48628571D01*
X102202857Y-48628571D01*
X102107619Y-48580952D01*
X102060000Y-48533333D01*
X102012380Y-48438095D01*
X102012380Y-48247619D01*
X102060000Y-48152380D01*
X102107619Y-48104761D01*
X102202857Y-48057142D01*
X102250476Y-48057142D01*
X102345714Y-48104761D01*
X102393333Y-48152380D01*
X102440952Y-48247619D01*
X102440952Y-48438095D01*
X102488571Y-48533333D01*
X102536190Y-48580952D01*
X102631428Y-48628571D01*
X102821904Y-48628571D01*
X102917142Y-48580952D01*
X102964761Y-48533333D01*
X103012380Y-48438095D01*
X103012380Y-48247619D01*
X102964761Y-48152380D01*
X102917142Y-48104761D01*
X102821904Y-48057142D01*
X102631428Y-48057142D01*
X102536190Y-48104761D01*
X102488571Y-48152380D01*
X102440952Y-48247619D01*
X102222380Y-98269523D02*
X102936666Y-98269523D01*
X103079523Y-98317142D01*
X103174761Y-98412380D01*
X103222380Y-98555238D01*
X103222380Y-98650476D01*
X103222380Y-97269523D02*
X103222380Y-97840952D01*
X103222380Y-97555238D02*
X102222380Y-97555238D01*
X102365238Y-97650476D01*
X102460476Y-97745714D01*
X102508095Y-97840952D01*
X102222380Y-96936190D02*
X102222380Y-96269523D01*
X103222380Y-96698095D01*
X110451428Y-58532857D02*
X109851428Y-58532857D01*
X109851428Y-58390000D01*
X109880000Y-58304285D01*
X109937142Y-58247142D01*
X109994285Y-58218571D01*
X110108571Y-58190000D01*
X110194285Y-58190000D01*
X110308571Y-58218571D01*
X110365714Y-58247142D01*
X110422857Y-58304285D01*
X110451428Y-58390000D01*
X110451428Y-58532857D01*
X109851428Y-57647142D02*
X109851428Y-57932857D01*
X110137142Y-57961428D01*
X110108571Y-57932857D01*
X110080000Y-57875714D01*
X110080000Y-57732857D01*
X110108571Y-57675714D01*
X110137142Y-57647142D01*
X110194285Y-57618571D01*
X110337142Y-57618571D01*
X110394285Y-57647142D01*
X110422857Y-57675714D01*
X110451428Y-57732857D01*
X110451428Y-57875714D01*
X110422857Y-57932857D01*
X110394285Y-57961428D01*
X110451428Y-63104857D02*
X109851428Y-63104857D01*
X109851428Y-62962000D01*
X109880000Y-62876285D01*
X109937142Y-62819142D01*
X109994285Y-62790571D01*
X110108571Y-62762000D01*
X110194285Y-62762000D01*
X110308571Y-62790571D01*
X110365714Y-62819142D01*
X110422857Y-62876285D01*
X110451428Y-62962000D01*
X110451428Y-63104857D01*
X110051428Y-62247714D02*
X110451428Y-62247714D01*
X109822857Y-62390571D02*
X110251428Y-62533428D01*
X110251428Y-62162000D01*
X110451428Y-76312857D02*
X109851428Y-76312857D01*
X109851428Y-76170000D01*
X109880000Y-76084285D01*
X109937142Y-76027142D01*
X109994285Y-75998571D01*
X110108571Y-75970000D01*
X110194285Y-75970000D01*
X110308571Y-75998571D01*
X110365714Y-76027142D01*
X110422857Y-76084285D01*
X110451428Y-76170000D01*
X110451428Y-76312857D01*
X109851428Y-75770000D02*
X109851428Y-75398571D01*
X110080000Y-75598571D01*
X110080000Y-75512857D01*
X110108571Y-75455714D01*
X110137142Y-75427142D01*
X110194285Y-75398571D01*
X110337142Y-75398571D01*
X110394285Y-75427142D01*
X110422857Y-75455714D01*
X110451428Y-75512857D01*
X110451428Y-75684285D01*
X110422857Y-75741428D01*
X110394285Y-75770000D01*
X110451428Y-86472857D02*
X109851428Y-86472857D01*
X109851428Y-86330000D01*
X109880000Y-86244285D01*
X109937142Y-86187142D01*
X109994285Y-86158571D01*
X110108571Y-86130000D01*
X110194285Y-86130000D01*
X110308571Y-86158571D01*
X110365714Y-86187142D01*
X110422857Y-86244285D01*
X110451428Y-86330000D01*
X110451428Y-86472857D01*
X109908571Y-85901428D02*
X109880000Y-85872857D01*
X109851428Y-85815714D01*
X109851428Y-85672857D01*
X109880000Y-85615714D01*
X109908571Y-85587142D01*
X109965714Y-85558571D01*
X110022857Y-85558571D01*
X110108571Y-85587142D01*
X110451428Y-85930000D01*
X110451428Y-85558571D01*
X110451428Y-81392857D02*
X109851428Y-81392857D01*
X109851428Y-81250000D01*
X109880000Y-81164285D01*
X109937142Y-81107142D01*
X109994285Y-81078571D01*
X110108571Y-81050000D01*
X110194285Y-81050000D01*
X110308571Y-81078571D01*
X110365714Y-81107142D01*
X110422857Y-81164285D01*
X110451428Y-81250000D01*
X110451428Y-81392857D01*
X110451428Y-80478571D02*
X110451428Y-80821428D01*
X110451428Y-80650000D02*
X109851428Y-80650000D01*
X109937142Y-80707142D01*
X109994285Y-80764285D01*
X110022857Y-80821428D01*
M02*
