G04 #@! TF.GenerationSoftware,KiCad,Pcbnew,(5.1.5)-2*
G04 #@! TF.CreationDate,2021-06-18T18:05:22+02:00*
G04 #@! TF.ProjectId,IMX_MULTIPROTOCOL,494d585f-4d55-44c5-9449-50524f544f43,rev?*
G04 #@! TF.SameCoordinates,Original*
G04 #@! TF.FileFunction,Copper,L2,Bot*
G04 #@! TF.FilePolarity,Positive*
%FSLAX46Y46*%
G04 Gerber Fmt 4.6, Leading zero omitted, Abs format (unit mm)*
G04 Created by KiCad (PCBNEW (5.1.5)-2) date 2021-06-18 18:05:22*
%MOMM*%
%LPD*%
G04 APERTURE LIST*
%ADD10C,0.050000*%
%ADD11O,1.700000X1.700000*%
%ADD12R,1.700000X1.700000*%
%ADD13C,0.800000*%
%ADD14C,0.250000*%
%ADD15C,0.254000*%
G04 APERTURE END LIST*
D10*
X100000000Y-46700000D02*
X168600000Y-46700000D01*
X168600000Y-100000000D02*
X168600000Y-46700000D01*
X100000000Y-100000000D02*
X100000000Y-46700000D01*
X100000000Y-100000000D02*
X168600000Y-100000000D01*
D11*
X162250000Y-91110000D03*
X162250000Y-88570000D03*
X162250000Y-86030000D03*
D12*
X162250000Y-83490000D03*
D11*
X162250000Y-74346000D03*
D12*
X162250000Y-71806000D03*
D11*
X137612000Y-62154000D03*
D12*
X140152000Y-62154000D03*
D11*
X162250000Y-60630000D03*
D12*
X162250000Y-58090000D03*
D11*
X122880000Y-49200000D03*
X125420000Y-49200000D03*
X127960000Y-49200000D03*
X130500000Y-49200000D03*
X133040000Y-49200000D03*
X135580000Y-49200000D03*
X138120000Y-49200000D03*
D12*
X140660000Y-49200000D03*
D11*
X149804000Y-97460000D03*
X147264000Y-97460000D03*
X144724000Y-97460000D03*
X142184000Y-97460000D03*
X139644000Y-97460000D03*
X137104000Y-97460000D03*
X134564000Y-97460000D03*
X132024000Y-97460000D03*
X129484000Y-97460000D03*
D12*
X126944000Y-97460000D03*
D11*
X105100000Y-49200000D03*
X107640000Y-49200000D03*
X110180000Y-49200000D03*
X112720000Y-49200000D03*
X115260000Y-49200000D03*
D12*
X117800000Y-49200000D03*
D11*
X122880000Y-97460000D03*
X120340000Y-97460000D03*
X117800000Y-97460000D03*
X115260000Y-97460000D03*
X112720000Y-97460000D03*
X110180000Y-97460000D03*
X107640000Y-97460000D03*
D12*
X105100000Y-97460000D03*
D13*
X105100000Y-80950000D03*
X105100000Y-86030000D03*
X105100000Y-75870000D03*
X104846000Y-62662000D03*
X104846000Y-58090000D03*
X107640000Y-89078000D03*
X148026000Y-74346000D03*
X105100000Y-88062000D03*
X148026000Y-71806000D03*
X136088000Y-56312000D03*
X117292000Y-54026000D03*
X140152000Y-55296000D03*
X117292000Y-52502000D03*
X163600000Y-50000000D03*
X158600000Y-50000000D03*
X153600000Y-50000000D03*
X148600000Y-50000000D03*
X153600000Y-55000000D03*
X158600000Y-55000000D03*
X163600000Y-55000000D03*
X163600000Y-65000000D03*
X158600000Y-65000000D03*
X153600000Y-65000000D03*
X148600000Y-65000000D03*
X148600000Y-70000000D03*
X143600000Y-70000000D03*
X138600000Y-70000000D03*
X138600000Y-65000000D03*
X133600000Y-65000000D03*
X128600000Y-65000000D03*
X128600000Y-60000000D03*
X123600000Y-60000000D03*
X123600000Y-65000000D03*
X123600000Y-70000000D03*
X128600000Y-70000000D03*
X133600000Y-70000000D03*
X133600000Y-75000000D03*
X128600000Y-75000000D03*
X123600000Y-75000000D03*
X138600000Y-75000000D03*
X143600000Y-80000000D03*
X138600000Y-80000000D03*
X133600000Y-80000000D03*
X128600000Y-80000000D03*
X123600000Y-80000000D03*
X123600000Y-85000000D03*
X128600000Y-85000000D03*
X133600000Y-85000000D03*
X143600000Y-85000000D03*
X148600000Y-80000000D03*
X153600000Y-80000000D03*
X158600000Y-80000000D03*
X163600000Y-80000000D03*
X163600000Y-95000000D03*
X158600000Y-95000000D03*
X153600000Y-95000000D03*
X148600000Y-95000000D03*
X143600000Y-95000000D03*
X128600000Y-95000000D03*
X123600000Y-95000000D03*
X118600000Y-95000000D03*
X113600000Y-95000000D03*
X128600000Y-90000000D03*
X118600000Y-70000000D03*
X118600000Y-65000000D03*
X113600000Y-65000000D03*
X108600000Y-65000000D03*
X103600000Y-65000000D03*
X103600000Y-70000000D03*
X108600000Y-70000000D03*
X113600000Y-70000000D03*
X103600000Y-95000000D03*
X148026000Y-91110000D03*
X148026000Y-88570000D03*
X148026000Y-86030000D03*
X148026000Y-83490000D03*
D14*
X103830000Y-80950000D02*
X105100000Y-80950000D01*
X126944000Y-93396000D02*
X124150000Y-90602000D01*
X124150000Y-90602000D02*
X104592000Y-90602000D01*
X104592000Y-90602000D02*
X102814000Y-88824000D01*
X102814000Y-81966000D02*
X103830000Y-80950000D01*
X126944000Y-97460000D02*
X126944000Y-93396000D01*
X102814000Y-88824000D02*
X102814000Y-81966000D01*
X103322000Y-86792000D02*
X104084000Y-86030000D01*
X129484000Y-92380000D02*
X127198000Y-90094000D01*
X127198000Y-90094000D02*
X104846000Y-90094000D01*
X104846000Y-90094000D02*
X103322000Y-88570000D01*
X104084000Y-86030000D02*
X105100000Y-86030000D01*
X129484000Y-97460000D02*
X129484000Y-92380000D01*
X103322000Y-88570000D02*
X103322000Y-86792000D01*
X103576000Y-75870000D02*
X105100000Y-75870000D01*
X117800000Y-93650000D02*
X115260000Y-91110000D01*
X115260000Y-91110000D02*
X104338000Y-91110000D01*
X102306000Y-89078000D02*
X102306000Y-77140000D01*
X102306000Y-77140000D02*
X103576000Y-75870000D01*
X117800000Y-97460000D02*
X117800000Y-93650000D01*
X104338000Y-91110000D02*
X102306000Y-89078000D01*
X115260000Y-50402081D02*
X112144081Y-53518000D01*
X115260000Y-49200000D02*
X115260000Y-50402081D01*
X112144081Y-53518000D02*
X105862000Y-53518000D01*
X105862000Y-53518000D02*
X103322000Y-56058000D01*
X103322000Y-61138000D02*
X104846000Y-62662000D01*
X103322000Y-56058000D02*
X103322000Y-61138000D01*
X117800000Y-50300000D02*
X114074000Y-54026000D01*
X104084000Y-58090000D02*
X104846000Y-58090000D01*
X117800000Y-49200000D02*
X117800000Y-50300000D01*
X114074000Y-54026000D02*
X106116000Y-54026000D01*
X103830000Y-57836000D02*
X104084000Y-58090000D01*
X103830000Y-56312000D02*
X103830000Y-57836000D01*
X106116000Y-54026000D02*
X103830000Y-56312000D01*
X107640000Y-89078000D02*
X127452000Y-89078000D01*
X142184000Y-74346000D02*
X148026000Y-74346000D01*
X127452000Y-89078000D02*
X142184000Y-74346000D01*
X105100000Y-88062000D02*
X127452000Y-88062000D01*
X143708000Y-71806000D02*
X148026000Y-71806000D01*
X127452000Y-88062000D02*
X143708000Y-71806000D01*
X135580000Y-55804000D02*
X136088000Y-56312000D01*
X123134000Y-55804000D02*
X135580000Y-55804000D01*
X117292000Y-54026000D02*
X121356000Y-54026000D01*
X121356000Y-54026000D02*
X123134000Y-55804000D01*
X136088000Y-56312000D02*
X150058000Y-56312000D01*
X150058000Y-56312000D02*
X152344000Y-58598000D01*
X160218000Y-58598000D02*
X162250000Y-60630000D01*
X152344000Y-58598000D02*
X160218000Y-58598000D01*
X117292000Y-52502000D02*
X120594000Y-52502000D01*
X123388000Y-55296000D02*
X140152000Y-55296000D01*
X120594000Y-52502000D02*
X123388000Y-55296000D01*
X140152000Y-55296000D02*
X148304000Y-55296000D01*
X150058000Y-55296000D02*
X152852000Y-58090000D01*
X152852000Y-58090000D02*
X162250000Y-58090000D01*
X148304000Y-55296000D02*
X150058000Y-55296000D01*
X139644000Y-97460000D02*
X139644000Y-94158000D01*
X142692000Y-91110000D02*
X148026000Y-91110000D01*
X139644000Y-94158000D02*
X142692000Y-91110000D01*
X137104000Y-97460000D02*
X137104000Y-94412000D01*
X142946000Y-88570000D02*
X148026000Y-88570000D01*
X137104000Y-94412000D02*
X142946000Y-88570000D01*
X134564000Y-97460000D02*
X134564000Y-93396000D01*
X141930000Y-86030000D02*
X148026000Y-86030000D01*
X134564000Y-93396000D02*
X138280000Y-89680000D01*
X138280000Y-89680000D02*
X141930000Y-86030000D01*
X132024000Y-97460000D02*
X132024000Y-92380000D01*
X140914000Y-83490000D02*
X148026000Y-83490000D01*
X132024000Y-92380000D02*
X140914000Y-83490000D01*
D15*
G36*
X167940000Y-99340000D02*
G01*
X100660000Y-99340000D01*
X100660000Y-77140000D01*
X101542324Y-77140000D01*
X101546001Y-77177332D01*
X101546000Y-89040678D01*
X101542324Y-89078000D01*
X101546000Y-89115322D01*
X101546000Y-89115332D01*
X101556997Y-89226985D01*
X101571728Y-89275546D01*
X101600454Y-89370246D01*
X101671026Y-89502276D01*
X101693944Y-89530201D01*
X101765999Y-89618001D01*
X101795003Y-89641804D01*
X103774200Y-91621002D01*
X103797999Y-91650001D01*
X103826997Y-91673799D01*
X103913723Y-91744974D01*
X104041759Y-91813411D01*
X104045753Y-91815546D01*
X104189014Y-91859003D01*
X104300667Y-91870000D01*
X104300677Y-91870000D01*
X104338000Y-91873676D01*
X104375323Y-91870000D01*
X114945199Y-91870000D01*
X117040001Y-93964804D01*
X117040000Y-96181821D01*
X116853368Y-96306525D01*
X116646525Y-96513368D01*
X116530000Y-96687760D01*
X116413475Y-96513368D01*
X116206632Y-96306525D01*
X115963411Y-96144010D01*
X115693158Y-96032068D01*
X115406260Y-95975000D01*
X115113740Y-95975000D01*
X114826842Y-96032068D01*
X114556589Y-96144010D01*
X114313368Y-96306525D01*
X114106525Y-96513368D01*
X113990000Y-96687760D01*
X113873475Y-96513368D01*
X113666632Y-96306525D01*
X113423411Y-96144010D01*
X113153158Y-96032068D01*
X112866260Y-95975000D01*
X112573740Y-95975000D01*
X112286842Y-96032068D01*
X112016589Y-96144010D01*
X111773368Y-96306525D01*
X111566525Y-96513368D01*
X111450000Y-96687760D01*
X111333475Y-96513368D01*
X111126632Y-96306525D01*
X110883411Y-96144010D01*
X110613158Y-96032068D01*
X110326260Y-95975000D01*
X110033740Y-95975000D01*
X109746842Y-96032068D01*
X109476589Y-96144010D01*
X109233368Y-96306525D01*
X109026525Y-96513368D01*
X108910000Y-96687760D01*
X108793475Y-96513368D01*
X108586632Y-96306525D01*
X108343411Y-96144010D01*
X108073158Y-96032068D01*
X107786260Y-95975000D01*
X107493740Y-95975000D01*
X107206842Y-96032068D01*
X106936589Y-96144010D01*
X106693368Y-96306525D01*
X106561513Y-96438380D01*
X106539502Y-96365820D01*
X106480537Y-96255506D01*
X106401185Y-96158815D01*
X106304494Y-96079463D01*
X106194180Y-96020498D01*
X106074482Y-95984188D01*
X105950000Y-95971928D01*
X104250000Y-95971928D01*
X104125518Y-95984188D01*
X104005820Y-96020498D01*
X103895506Y-96079463D01*
X103798815Y-96158815D01*
X103719463Y-96255506D01*
X103660498Y-96365820D01*
X103624188Y-96485518D01*
X103611928Y-96610000D01*
X103611928Y-98310000D01*
X103624188Y-98434482D01*
X103660498Y-98554180D01*
X103719463Y-98664494D01*
X103798815Y-98761185D01*
X103895506Y-98840537D01*
X104005820Y-98899502D01*
X104125518Y-98935812D01*
X104250000Y-98948072D01*
X105950000Y-98948072D01*
X106074482Y-98935812D01*
X106194180Y-98899502D01*
X106304494Y-98840537D01*
X106401185Y-98761185D01*
X106480537Y-98664494D01*
X106539502Y-98554180D01*
X106561513Y-98481620D01*
X106693368Y-98613475D01*
X106936589Y-98775990D01*
X107206842Y-98887932D01*
X107493740Y-98945000D01*
X107786260Y-98945000D01*
X108073158Y-98887932D01*
X108343411Y-98775990D01*
X108586632Y-98613475D01*
X108793475Y-98406632D01*
X108910000Y-98232240D01*
X109026525Y-98406632D01*
X109233368Y-98613475D01*
X109476589Y-98775990D01*
X109746842Y-98887932D01*
X110033740Y-98945000D01*
X110326260Y-98945000D01*
X110613158Y-98887932D01*
X110883411Y-98775990D01*
X111126632Y-98613475D01*
X111333475Y-98406632D01*
X111450000Y-98232240D01*
X111566525Y-98406632D01*
X111773368Y-98613475D01*
X112016589Y-98775990D01*
X112286842Y-98887932D01*
X112573740Y-98945000D01*
X112866260Y-98945000D01*
X113153158Y-98887932D01*
X113423411Y-98775990D01*
X113666632Y-98613475D01*
X113873475Y-98406632D01*
X113990000Y-98232240D01*
X114106525Y-98406632D01*
X114313368Y-98613475D01*
X114556589Y-98775990D01*
X114826842Y-98887932D01*
X115113740Y-98945000D01*
X115406260Y-98945000D01*
X115693158Y-98887932D01*
X115963411Y-98775990D01*
X116206632Y-98613475D01*
X116413475Y-98406632D01*
X116530000Y-98232240D01*
X116646525Y-98406632D01*
X116853368Y-98613475D01*
X117096589Y-98775990D01*
X117366842Y-98887932D01*
X117653740Y-98945000D01*
X117946260Y-98945000D01*
X118233158Y-98887932D01*
X118503411Y-98775990D01*
X118746632Y-98613475D01*
X118953475Y-98406632D01*
X119070000Y-98232240D01*
X119186525Y-98406632D01*
X119393368Y-98613475D01*
X119636589Y-98775990D01*
X119906842Y-98887932D01*
X120193740Y-98945000D01*
X120486260Y-98945000D01*
X120773158Y-98887932D01*
X121043411Y-98775990D01*
X121286632Y-98613475D01*
X121493475Y-98406632D01*
X121610000Y-98232240D01*
X121726525Y-98406632D01*
X121933368Y-98613475D01*
X122176589Y-98775990D01*
X122446842Y-98887932D01*
X122733740Y-98945000D01*
X123026260Y-98945000D01*
X123313158Y-98887932D01*
X123583411Y-98775990D01*
X123826632Y-98613475D01*
X124033475Y-98406632D01*
X124195990Y-98163411D01*
X124307932Y-97893158D01*
X124365000Y-97606260D01*
X124365000Y-97313740D01*
X124307932Y-97026842D01*
X124195990Y-96756589D01*
X124033475Y-96513368D01*
X123826632Y-96306525D01*
X123583411Y-96144010D01*
X123313158Y-96032068D01*
X123026260Y-95975000D01*
X122733740Y-95975000D01*
X122446842Y-96032068D01*
X122176589Y-96144010D01*
X121933368Y-96306525D01*
X121726525Y-96513368D01*
X121610000Y-96687760D01*
X121493475Y-96513368D01*
X121286632Y-96306525D01*
X121043411Y-96144010D01*
X120773158Y-96032068D01*
X120486260Y-95975000D01*
X120193740Y-95975000D01*
X119906842Y-96032068D01*
X119636589Y-96144010D01*
X119393368Y-96306525D01*
X119186525Y-96513368D01*
X119070000Y-96687760D01*
X118953475Y-96513368D01*
X118746632Y-96306525D01*
X118560000Y-96181822D01*
X118560000Y-93687322D01*
X118563676Y-93649999D01*
X118560000Y-93612676D01*
X118560000Y-93612667D01*
X118549003Y-93501014D01*
X118505546Y-93357753D01*
X118434974Y-93225724D01*
X118421811Y-93209685D01*
X118363799Y-93138996D01*
X118363795Y-93138992D01*
X118340001Y-93109999D01*
X118311008Y-93086205D01*
X116586802Y-91362000D01*
X123835199Y-91362000D01*
X126184001Y-93710803D01*
X126184000Y-95971928D01*
X126094000Y-95971928D01*
X125969518Y-95984188D01*
X125849820Y-96020498D01*
X125739506Y-96079463D01*
X125642815Y-96158815D01*
X125563463Y-96255506D01*
X125504498Y-96365820D01*
X125468188Y-96485518D01*
X125455928Y-96610000D01*
X125455928Y-98310000D01*
X125468188Y-98434482D01*
X125504498Y-98554180D01*
X125563463Y-98664494D01*
X125642815Y-98761185D01*
X125739506Y-98840537D01*
X125849820Y-98899502D01*
X125969518Y-98935812D01*
X126094000Y-98948072D01*
X127794000Y-98948072D01*
X127918482Y-98935812D01*
X128038180Y-98899502D01*
X128148494Y-98840537D01*
X128245185Y-98761185D01*
X128324537Y-98664494D01*
X128383502Y-98554180D01*
X128405513Y-98481620D01*
X128537368Y-98613475D01*
X128780589Y-98775990D01*
X129050842Y-98887932D01*
X129337740Y-98945000D01*
X129630260Y-98945000D01*
X129917158Y-98887932D01*
X130187411Y-98775990D01*
X130430632Y-98613475D01*
X130637475Y-98406632D01*
X130754000Y-98232240D01*
X130870525Y-98406632D01*
X131077368Y-98613475D01*
X131320589Y-98775990D01*
X131590842Y-98887932D01*
X131877740Y-98945000D01*
X132170260Y-98945000D01*
X132457158Y-98887932D01*
X132727411Y-98775990D01*
X132970632Y-98613475D01*
X133177475Y-98406632D01*
X133294000Y-98232240D01*
X133410525Y-98406632D01*
X133617368Y-98613475D01*
X133860589Y-98775990D01*
X134130842Y-98887932D01*
X134417740Y-98945000D01*
X134710260Y-98945000D01*
X134997158Y-98887932D01*
X135267411Y-98775990D01*
X135510632Y-98613475D01*
X135717475Y-98406632D01*
X135834000Y-98232240D01*
X135950525Y-98406632D01*
X136157368Y-98613475D01*
X136400589Y-98775990D01*
X136670842Y-98887932D01*
X136957740Y-98945000D01*
X137250260Y-98945000D01*
X137537158Y-98887932D01*
X137807411Y-98775990D01*
X138050632Y-98613475D01*
X138257475Y-98406632D01*
X138374000Y-98232240D01*
X138490525Y-98406632D01*
X138697368Y-98613475D01*
X138940589Y-98775990D01*
X139210842Y-98887932D01*
X139497740Y-98945000D01*
X139790260Y-98945000D01*
X140077158Y-98887932D01*
X140347411Y-98775990D01*
X140590632Y-98613475D01*
X140797475Y-98406632D01*
X140919195Y-98224466D01*
X140988822Y-98341355D01*
X141183731Y-98557588D01*
X141417080Y-98731641D01*
X141679901Y-98856825D01*
X141827110Y-98901476D01*
X142057000Y-98780155D01*
X142057000Y-97587000D01*
X142037000Y-97587000D01*
X142037000Y-97333000D01*
X142057000Y-97333000D01*
X142057000Y-96139845D01*
X142311000Y-96139845D01*
X142311000Y-97333000D01*
X142331000Y-97333000D01*
X142331000Y-97587000D01*
X142311000Y-97587000D01*
X142311000Y-98780155D01*
X142540890Y-98901476D01*
X142688099Y-98856825D01*
X142950920Y-98731641D01*
X143184269Y-98557588D01*
X143379178Y-98341355D01*
X143448805Y-98224466D01*
X143570525Y-98406632D01*
X143777368Y-98613475D01*
X144020589Y-98775990D01*
X144290842Y-98887932D01*
X144577740Y-98945000D01*
X144870260Y-98945000D01*
X145157158Y-98887932D01*
X145427411Y-98775990D01*
X145670632Y-98613475D01*
X145877475Y-98406632D01*
X145994000Y-98232240D01*
X146110525Y-98406632D01*
X146317368Y-98613475D01*
X146560589Y-98775990D01*
X146830842Y-98887932D01*
X147117740Y-98945000D01*
X147410260Y-98945000D01*
X147697158Y-98887932D01*
X147967411Y-98775990D01*
X148210632Y-98613475D01*
X148417475Y-98406632D01*
X148534000Y-98232240D01*
X148650525Y-98406632D01*
X148857368Y-98613475D01*
X149100589Y-98775990D01*
X149370842Y-98887932D01*
X149657740Y-98945000D01*
X149950260Y-98945000D01*
X150237158Y-98887932D01*
X150507411Y-98775990D01*
X150750632Y-98613475D01*
X150957475Y-98406632D01*
X151119990Y-98163411D01*
X151231932Y-97893158D01*
X151289000Y-97606260D01*
X151289000Y-97313740D01*
X151231932Y-97026842D01*
X151119990Y-96756589D01*
X150957475Y-96513368D01*
X150750632Y-96306525D01*
X150507411Y-96144010D01*
X150237158Y-96032068D01*
X149950260Y-95975000D01*
X149657740Y-95975000D01*
X149370842Y-96032068D01*
X149100589Y-96144010D01*
X148857368Y-96306525D01*
X148650525Y-96513368D01*
X148534000Y-96687760D01*
X148417475Y-96513368D01*
X148210632Y-96306525D01*
X147967411Y-96144010D01*
X147697158Y-96032068D01*
X147410260Y-95975000D01*
X147117740Y-95975000D01*
X146830842Y-96032068D01*
X146560589Y-96144010D01*
X146317368Y-96306525D01*
X146110525Y-96513368D01*
X145994000Y-96687760D01*
X145877475Y-96513368D01*
X145670632Y-96306525D01*
X145427411Y-96144010D01*
X145157158Y-96032068D01*
X144870260Y-95975000D01*
X144577740Y-95975000D01*
X144290842Y-96032068D01*
X144020589Y-96144010D01*
X143777368Y-96306525D01*
X143570525Y-96513368D01*
X143448805Y-96695534D01*
X143379178Y-96578645D01*
X143184269Y-96362412D01*
X142950920Y-96188359D01*
X142688099Y-96063175D01*
X142540890Y-96018524D01*
X142311000Y-96139845D01*
X142057000Y-96139845D01*
X141827110Y-96018524D01*
X141679901Y-96063175D01*
X141417080Y-96188359D01*
X141183731Y-96362412D01*
X140988822Y-96578645D01*
X140919195Y-96695534D01*
X140797475Y-96513368D01*
X140590632Y-96306525D01*
X140404000Y-96181822D01*
X140404000Y-94472801D01*
X143006802Y-91870000D01*
X147322289Y-91870000D01*
X147366226Y-91913937D01*
X147535744Y-92027205D01*
X147724102Y-92105226D01*
X147924061Y-92145000D01*
X148127939Y-92145000D01*
X148327898Y-92105226D01*
X148516256Y-92027205D01*
X148685774Y-91913937D01*
X148829937Y-91769774D01*
X148943205Y-91600256D01*
X149021226Y-91411898D01*
X149061000Y-91211939D01*
X149061000Y-91008061D01*
X149021226Y-90808102D01*
X148943205Y-90619744D01*
X148829937Y-90450226D01*
X148685774Y-90306063D01*
X148516256Y-90192795D01*
X148327898Y-90114774D01*
X148127939Y-90075000D01*
X147924061Y-90075000D01*
X147724102Y-90114774D01*
X147535744Y-90192795D01*
X147366226Y-90306063D01*
X147322289Y-90350000D01*
X142729323Y-90350000D01*
X142692000Y-90346324D01*
X142654677Y-90350000D01*
X142654667Y-90350000D01*
X142543014Y-90360997D01*
X142399753Y-90404454D01*
X142267723Y-90475026D01*
X142184083Y-90543668D01*
X142151999Y-90569999D01*
X142128201Y-90598997D01*
X139132998Y-93594201D01*
X139104000Y-93617999D01*
X139080202Y-93646997D01*
X139080201Y-93646998D01*
X139009026Y-93733724D01*
X138938454Y-93865754D01*
X138894998Y-94009015D01*
X138880324Y-94158000D01*
X138884001Y-94195332D01*
X138884000Y-96181821D01*
X138697368Y-96306525D01*
X138490525Y-96513368D01*
X138374000Y-96687760D01*
X138257475Y-96513368D01*
X138050632Y-96306525D01*
X137864000Y-96181822D01*
X137864000Y-94726801D01*
X143260802Y-89330000D01*
X147322289Y-89330000D01*
X147366226Y-89373937D01*
X147535744Y-89487205D01*
X147724102Y-89565226D01*
X147924061Y-89605000D01*
X148127939Y-89605000D01*
X148327898Y-89565226D01*
X148516256Y-89487205D01*
X148685774Y-89373937D01*
X148829937Y-89229774D01*
X148943205Y-89060256D01*
X149021226Y-88871898D01*
X149061000Y-88671939D01*
X149061000Y-88468061D01*
X149021226Y-88268102D01*
X148943205Y-88079744D01*
X148829937Y-87910226D01*
X148685774Y-87766063D01*
X148516256Y-87652795D01*
X148327898Y-87574774D01*
X148127939Y-87535000D01*
X147924061Y-87535000D01*
X147724102Y-87574774D01*
X147535744Y-87652795D01*
X147366226Y-87766063D01*
X147322289Y-87810000D01*
X142983325Y-87810000D01*
X142946000Y-87806324D01*
X142908675Y-87810000D01*
X142908667Y-87810000D01*
X142797014Y-87820997D01*
X142653753Y-87864454D01*
X142521724Y-87935026D01*
X142405999Y-88029999D01*
X142382201Y-88058997D01*
X136592998Y-93848201D01*
X136564000Y-93871999D01*
X136540202Y-93900997D01*
X136540201Y-93900998D01*
X136469026Y-93987724D01*
X136398454Y-94119754D01*
X136354998Y-94263015D01*
X136340324Y-94412000D01*
X136344001Y-94449332D01*
X136344000Y-96181821D01*
X136157368Y-96306525D01*
X135950525Y-96513368D01*
X135834000Y-96687760D01*
X135717475Y-96513368D01*
X135510632Y-96306525D01*
X135324000Y-96181822D01*
X135324000Y-93710801D01*
X138843799Y-90191003D01*
X142244802Y-86790000D01*
X147322289Y-86790000D01*
X147366226Y-86833937D01*
X147535744Y-86947205D01*
X147724102Y-87025226D01*
X147924061Y-87065000D01*
X148127939Y-87065000D01*
X148327898Y-87025226D01*
X148516256Y-86947205D01*
X148685774Y-86833937D01*
X148829937Y-86689774D01*
X148943205Y-86520256D01*
X149021226Y-86331898D01*
X149061000Y-86131939D01*
X149061000Y-85928061D01*
X149021226Y-85728102D01*
X148943205Y-85539744D01*
X148829937Y-85370226D01*
X148685774Y-85226063D01*
X148516256Y-85112795D01*
X148327898Y-85034774D01*
X148127939Y-84995000D01*
X147924061Y-84995000D01*
X147724102Y-85034774D01*
X147535744Y-85112795D01*
X147366226Y-85226063D01*
X147322289Y-85270000D01*
X141967333Y-85270000D01*
X141930000Y-85266323D01*
X141892667Y-85270000D01*
X141781014Y-85280997D01*
X141637753Y-85324454D01*
X141505724Y-85395026D01*
X141389999Y-85489999D01*
X141366201Y-85518997D01*
X137768997Y-89116201D01*
X134052998Y-92832201D01*
X134024000Y-92855999D01*
X134000202Y-92884997D01*
X134000201Y-92884998D01*
X133929026Y-92971724D01*
X133858454Y-93103754D01*
X133828180Y-93203558D01*
X133821457Y-93225723D01*
X133814998Y-93247015D01*
X133800324Y-93396000D01*
X133804001Y-93433332D01*
X133804000Y-96181821D01*
X133617368Y-96306525D01*
X133410525Y-96513368D01*
X133294000Y-96687760D01*
X133177475Y-96513368D01*
X132970632Y-96306525D01*
X132784000Y-96181822D01*
X132784000Y-92694801D01*
X141228802Y-84250000D01*
X147322289Y-84250000D01*
X147366226Y-84293937D01*
X147535744Y-84407205D01*
X147724102Y-84485226D01*
X147924061Y-84525000D01*
X148127939Y-84525000D01*
X148327898Y-84485226D01*
X148516256Y-84407205D01*
X148685774Y-84293937D01*
X148829937Y-84149774D01*
X148943205Y-83980256D01*
X149021226Y-83791898D01*
X149061000Y-83591939D01*
X149061000Y-83388061D01*
X149021226Y-83188102D01*
X148943205Y-82999744D01*
X148829937Y-82830226D01*
X148685774Y-82686063D01*
X148616836Y-82640000D01*
X160761928Y-82640000D01*
X160761928Y-84340000D01*
X160774188Y-84464482D01*
X160810498Y-84584180D01*
X160869463Y-84694494D01*
X160948815Y-84791185D01*
X161045506Y-84870537D01*
X161155820Y-84929502D01*
X161228380Y-84951513D01*
X161096525Y-85083368D01*
X160934010Y-85326589D01*
X160822068Y-85596842D01*
X160765000Y-85883740D01*
X160765000Y-86176260D01*
X160822068Y-86463158D01*
X160934010Y-86733411D01*
X161096525Y-86976632D01*
X161303368Y-87183475D01*
X161477760Y-87300000D01*
X161303368Y-87416525D01*
X161096525Y-87623368D01*
X160934010Y-87866589D01*
X160822068Y-88136842D01*
X160765000Y-88423740D01*
X160765000Y-88716260D01*
X160822068Y-89003158D01*
X160934010Y-89273411D01*
X161096525Y-89516632D01*
X161303368Y-89723475D01*
X161477760Y-89840000D01*
X161303368Y-89956525D01*
X161096525Y-90163368D01*
X160934010Y-90406589D01*
X160822068Y-90676842D01*
X160765000Y-90963740D01*
X160765000Y-91256260D01*
X160822068Y-91543158D01*
X160934010Y-91813411D01*
X161096525Y-92056632D01*
X161303368Y-92263475D01*
X161546589Y-92425990D01*
X161816842Y-92537932D01*
X162103740Y-92595000D01*
X162396260Y-92595000D01*
X162683158Y-92537932D01*
X162953411Y-92425990D01*
X163196632Y-92263475D01*
X163403475Y-92056632D01*
X163565990Y-91813411D01*
X163677932Y-91543158D01*
X163735000Y-91256260D01*
X163735000Y-90963740D01*
X163677932Y-90676842D01*
X163565990Y-90406589D01*
X163403475Y-90163368D01*
X163196632Y-89956525D01*
X163022240Y-89840000D01*
X163196632Y-89723475D01*
X163403475Y-89516632D01*
X163565990Y-89273411D01*
X163677932Y-89003158D01*
X163735000Y-88716260D01*
X163735000Y-88423740D01*
X163677932Y-88136842D01*
X163565990Y-87866589D01*
X163403475Y-87623368D01*
X163196632Y-87416525D01*
X163022240Y-87300000D01*
X163196632Y-87183475D01*
X163403475Y-86976632D01*
X163565990Y-86733411D01*
X163677932Y-86463158D01*
X163735000Y-86176260D01*
X163735000Y-85883740D01*
X163677932Y-85596842D01*
X163565990Y-85326589D01*
X163403475Y-85083368D01*
X163271620Y-84951513D01*
X163344180Y-84929502D01*
X163454494Y-84870537D01*
X163551185Y-84791185D01*
X163630537Y-84694494D01*
X163689502Y-84584180D01*
X163725812Y-84464482D01*
X163738072Y-84340000D01*
X163738072Y-82640000D01*
X163725812Y-82515518D01*
X163689502Y-82395820D01*
X163630537Y-82285506D01*
X163551185Y-82188815D01*
X163454494Y-82109463D01*
X163344180Y-82050498D01*
X163224482Y-82014188D01*
X163100000Y-82001928D01*
X161400000Y-82001928D01*
X161275518Y-82014188D01*
X161155820Y-82050498D01*
X161045506Y-82109463D01*
X160948815Y-82188815D01*
X160869463Y-82285506D01*
X160810498Y-82395820D01*
X160774188Y-82515518D01*
X160761928Y-82640000D01*
X148616836Y-82640000D01*
X148516256Y-82572795D01*
X148327898Y-82494774D01*
X148127939Y-82455000D01*
X147924061Y-82455000D01*
X147724102Y-82494774D01*
X147535744Y-82572795D01*
X147366226Y-82686063D01*
X147322289Y-82730000D01*
X140951333Y-82730000D01*
X140914000Y-82726323D01*
X140876667Y-82730000D01*
X140765014Y-82740997D01*
X140621753Y-82784454D01*
X140489724Y-82855026D01*
X140373999Y-82949999D01*
X140350201Y-82978997D01*
X131512998Y-91816201D01*
X131484000Y-91839999D01*
X131460202Y-91868997D01*
X131460201Y-91868998D01*
X131389026Y-91955724D01*
X131318454Y-92087754D01*
X131288180Y-92187558D01*
X131274999Y-92231013D01*
X131274998Y-92231015D01*
X131260324Y-92380000D01*
X131264001Y-92417332D01*
X131264000Y-96181821D01*
X131077368Y-96306525D01*
X130870525Y-96513368D01*
X130754000Y-96687760D01*
X130637475Y-96513368D01*
X130430632Y-96306525D01*
X130244000Y-96181822D01*
X130244000Y-92417322D01*
X130247676Y-92379999D01*
X130244000Y-92342676D01*
X130244000Y-92342667D01*
X130233003Y-92231014D01*
X130189546Y-92087753D01*
X130118974Y-91955724D01*
X130024001Y-91839999D01*
X129995003Y-91816201D01*
X127884789Y-89705988D01*
X127992001Y-89618001D01*
X128015804Y-89588997D01*
X142498802Y-75106000D01*
X147322289Y-75106000D01*
X147366226Y-75149937D01*
X147535744Y-75263205D01*
X147724102Y-75341226D01*
X147924061Y-75381000D01*
X148127939Y-75381000D01*
X148327898Y-75341226D01*
X148516256Y-75263205D01*
X148685774Y-75149937D01*
X148829937Y-75005774D01*
X148943205Y-74836256D01*
X149021226Y-74647898D01*
X149061000Y-74447939D01*
X149061000Y-74244061D01*
X149021226Y-74044102D01*
X148943205Y-73855744D01*
X148829937Y-73686226D01*
X148685774Y-73542063D01*
X148516256Y-73428795D01*
X148327898Y-73350774D01*
X148127939Y-73311000D01*
X147924061Y-73311000D01*
X147724102Y-73350774D01*
X147535744Y-73428795D01*
X147366226Y-73542063D01*
X147322289Y-73586000D01*
X143002802Y-73586000D01*
X144022802Y-72566000D01*
X147322289Y-72566000D01*
X147366226Y-72609937D01*
X147535744Y-72723205D01*
X147724102Y-72801226D01*
X147924061Y-72841000D01*
X148127939Y-72841000D01*
X148327898Y-72801226D01*
X148516256Y-72723205D01*
X148685774Y-72609937D01*
X148829937Y-72465774D01*
X148943205Y-72296256D01*
X149021226Y-72107898D01*
X149061000Y-71907939D01*
X149061000Y-71704061D01*
X149021226Y-71504102D01*
X148943205Y-71315744D01*
X148829937Y-71146226D01*
X148685774Y-71002063D01*
X148616836Y-70956000D01*
X160761928Y-70956000D01*
X160761928Y-72656000D01*
X160774188Y-72780482D01*
X160810498Y-72900180D01*
X160869463Y-73010494D01*
X160948815Y-73107185D01*
X161045506Y-73186537D01*
X161155820Y-73245502D01*
X161228380Y-73267513D01*
X161096525Y-73399368D01*
X160934010Y-73642589D01*
X160822068Y-73912842D01*
X160765000Y-74199740D01*
X160765000Y-74492260D01*
X160822068Y-74779158D01*
X160934010Y-75049411D01*
X161096525Y-75292632D01*
X161303368Y-75499475D01*
X161546589Y-75661990D01*
X161816842Y-75773932D01*
X162103740Y-75831000D01*
X162396260Y-75831000D01*
X162683158Y-75773932D01*
X162953411Y-75661990D01*
X163196632Y-75499475D01*
X163403475Y-75292632D01*
X163565990Y-75049411D01*
X163677932Y-74779158D01*
X163735000Y-74492260D01*
X163735000Y-74199740D01*
X163677932Y-73912842D01*
X163565990Y-73642589D01*
X163403475Y-73399368D01*
X163271620Y-73267513D01*
X163344180Y-73245502D01*
X163454494Y-73186537D01*
X163551185Y-73107185D01*
X163630537Y-73010494D01*
X163689502Y-72900180D01*
X163725812Y-72780482D01*
X163738072Y-72656000D01*
X163738072Y-70956000D01*
X163725812Y-70831518D01*
X163689502Y-70711820D01*
X163630537Y-70601506D01*
X163551185Y-70504815D01*
X163454494Y-70425463D01*
X163344180Y-70366498D01*
X163224482Y-70330188D01*
X163100000Y-70317928D01*
X161400000Y-70317928D01*
X161275518Y-70330188D01*
X161155820Y-70366498D01*
X161045506Y-70425463D01*
X160948815Y-70504815D01*
X160869463Y-70601506D01*
X160810498Y-70711820D01*
X160774188Y-70831518D01*
X160761928Y-70956000D01*
X148616836Y-70956000D01*
X148516256Y-70888795D01*
X148327898Y-70810774D01*
X148127939Y-70771000D01*
X147924061Y-70771000D01*
X147724102Y-70810774D01*
X147535744Y-70888795D01*
X147366226Y-71002063D01*
X147322289Y-71046000D01*
X143745325Y-71046000D01*
X143708000Y-71042324D01*
X143670675Y-71046000D01*
X143670667Y-71046000D01*
X143559014Y-71056997D01*
X143415753Y-71100454D01*
X143283724Y-71171026D01*
X143167999Y-71265999D01*
X143144201Y-71294997D01*
X127137199Y-87302000D01*
X105803711Y-87302000D01*
X105759774Y-87258063D01*
X105590256Y-87144795D01*
X105401898Y-87066774D01*
X105297459Y-87046000D01*
X105401898Y-87025226D01*
X105590256Y-86947205D01*
X105759774Y-86833937D01*
X105903937Y-86689774D01*
X106017205Y-86520256D01*
X106095226Y-86331898D01*
X106135000Y-86131939D01*
X106135000Y-85928061D01*
X106095226Y-85728102D01*
X106017205Y-85539744D01*
X105903937Y-85370226D01*
X105759774Y-85226063D01*
X105590256Y-85112795D01*
X105401898Y-85034774D01*
X105201939Y-84995000D01*
X104998061Y-84995000D01*
X104798102Y-85034774D01*
X104609744Y-85112795D01*
X104440226Y-85226063D01*
X104396289Y-85270000D01*
X104121325Y-85270000D01*
X104084000Y-85266324D01*
X104046675Y-85270000D01*
X104046667Y-85270000D01*
X103935014Y-85280997D01*
X103791753Y-85324454D01*
X103659724Y-85395026D01*
X103574000Y-85465378D01*
X103574000Y-82280801D01*
X104144802Y-81710000D01*
X104396289Y-81710000D01*
X104440226Y-81753937D01*
X104609744Y-81867205D01*
X104798102Y-81945226D01*
X104998061Y-81985000D01*
X105201939Y-81985000D01*
X105401898Y-81945226D01*
X105590256Y-81867205D01*
X105759774Y-81753937D01*
X105903937Y-81609774D01*
X106017205Y-81440256D01*
X106095226Y-81251898D01*
X106135000Y-81051939D01*
X106135000Y-80848061D01*
X106095226Y-80648102D01*
X106017205Y-80459744D01*
X105903937Y-80290226D01*
X105759774Y-80146063D01*
X105590256Y-80032795D01*
X105401898Y-79954774D01*
X105201939Y-79915000D01*
X104998061Y-79915000D01*
X104798102Y-79954774D01*
X104609744Y-80032795D01*
X104440226Y-80146063D01*
X104396289Y-80190000D01*
X103867322Y-80190000D01*
X103830000Y-80186324D01*
X103792677Y-80190000D01*
X103792667Y-80190000D01*
X103681014Y-80200997D01*
X103537753Y-80244454D01*
X103405723Y-80315026D01*
X103322083Y-80383668D01*
X103289999Y-80409999D01*
X103266201Y-80438997D01*
X103066000Y-80639198D01*
X103066000Y-77454801D01*
X103890802Y-76630000D01*
X104396289Y-76630000D01*
X104440226Y-76673937D01*
X104609744Y-76787205D01*
X104798102Y-76865226D01*
X104998061Y-76905000D01*
X105201939Y-76905000D01*
X105401898Y-76865226D01*
X105590256Y-76787205D01*
X105759774Y-76673937D01*
X105903937Y-76529774D01*
X106017205Y-76360256D01*
X106095226Y-76171898D01*
X106135000Y-75971939D01*
X106135000Y-75768061D01*
X106095226Y-75568102D01*
X106017205Y-75379744D01*
X105903937Y-75210226D01*
X105759774Y-75066063D01*
X105590256Y-74952795D01*
X105401898Y-74874774D01*
X105201939Y-74835000D01*
X104998061Y-74835000D01*
X104798102Y-74874774D01*
X104609744Y-74952795D01*
X104440226Y-75066063D01*
X104396289Y-75110000D01*
X103613322Y-75110000D01*
X103575999Y-75106324D01*
X103538676Y-75110000D01*
X103538667Y-75110000D01*
X103427014Y-75120997D01*
X103283753Y-75164454D01*
X103151724Y-75235026D01*
X103035999Y-75329999D01*
X103012201Y-75358997D01*
X101794998Y-76576201D01*
X101766000Y-76599999D01*
X101742202Y-76628997D01*
X101742201Y-76628998D01*
X101671026Y-76715724D01*
X101600454Y-76847754D01*
X101556998Y-76991015D01*
X101542324Y-77140000D01*
X100660000Y-77140000D01*
X100660000Y-56058000D01*
X102558324Y-56058000D01*
X102562000Y-56095323D01*
X102562001Y-61100668D01*
X102558324Y-61138000D01*
X102572998Y-61286985D01*
X102616454Y-61430246D01*
X102687026Y-61562276D01*
X102758201Y-61649002D01*
X102782000Y-61678001D01*
X102810998Y-61701799D01*
X103811000Y-62701802D01*
X103811000Y-62763939D01*
X103850774Y-62963898D01*
X103928795Y-63152256D01*
X104042063Y-63321774D01*
X104186226Y-63465937D01*
X104355744Y-63579205D01*
X104544102Y-63657226D01*
X104744061Y-63697000D01*
X104947939Y-63697000D01*
X105147898Y-63657226D01*
X105336256Y-63579205D01*
X105505774Y-63465937D01*
X105649937Y-63321774D01*
X105763205Y-63152256D01*
X105841226Y-62963898D01*
X105881000Y-62763939D01*
X105881000Y-62560061D01*
X105841226Y-62360102D01*
X105763205Y-62171744D01*
X105653622Y-62007740D01*
X136127000Y-62007740D01*
X136127000Y-62300260D01*
X136184068Y-62587158D01*
X136296010Y-62857411D01*
X136458525Y-63100632D01*
X136665368Y-63307475D01*
X136908589Y-63469990D01*
X137178842Y-63581932D01*
X137465740Y-63639000D01*
X137758260Y-63639000D01*
X138045158Y-63581932D01*
X138315411Y-63469990D01*
X138558632Y-63307475D01*
X138690487Y-63175620D01*
X138712498Y-63248180D01*
X138771463Y-63358494D01*
X138850815Y-63455185D01*
X138947506Y-63534537D01*
X139057820Y-63593502D01*
X139177518Y-63629812D01*
X139302000Y-63642072D01*
X141002000Y-63642072D01*
X141126482Y-63629812D01*
X141246180Y-63593502D01*
X141356494Y-63534537D01*
X141453185Y-63455185D01*
X141532537Y-63358494D01*
X141591502Y-63248180D01*
X141627812Y-63128482D01*
X141640072Y-63004000D01*
X141640072Y-61304000D01*
X141627812Y-61179518D01*
X141591502Y-61059820D01*
X141532537Y-60949506D01*
X141453185Y-60852815D01*
X141356494Y-60773463D01*
X141246180Y-60714498D01*
X141126482Y-60678188D01*
X141002000Y-60665928D01*
X139302000Y-60665928D01*
X139177518Y-60678188D01*
X139057820Y-60714498D01*
X138947506Y-60773463D01*
X138850815Y-60852815D01*
X138771463Y-60949506D01*
X138712498Y-61059820D01*
X138690487Y-61132380D01*
X138558632Y-61000525D01*
X138315411Y-60838010D01*
X138045158Y-60726068D01*
X137758260Y-60669000D01*
X137465740Y-60669000D01*
X137178842Y-60726068D01*
X136908589Y-60838010D01*
X136665368Y-61000525D01*
X136458525Y-61207368D01*
X136296010Y-61450589D01*
X136184068Y-61720842D01*
X136127000Y-62007740D01*
X105653622Y-62007740D01*
X105649937Y-62002226D01*
X105505774Y-61858063D01*
X105336256Y-61744795D01*
X105147898Y-61666774D01*
X104947939Y-61627000D01*
X104885802Y-61627000D01*
X104082000Y-60823199D01*
X104082000Y-58853479D01*
X104083999Y-58853676D01*
X104121322Y-58850000D01*
X104142289Y-58850000D01*
X104186226Y-58893937D01*
X104355744Y-59007205D01*
X104544102Y-59085226D01*
X104744061Y-59125000D01*
X104947939Y-59125000D01*
X105147898Y-59085226D01*
X105336256Y-59007205D01*
X105505774Y-58893937D01*
X105649937Y-58749774D01*
X105763205Y-58580256D01*
X105841226Y-58391898D01*
X105881000Y-58191939D01*
X105881000Y-57988061D01*
X105841226Y-57788102D01*
X105763205Y-57599744D01*
X105649937Y-57430226D01*
X105505774Y-57286063D01*
X105336256Y-57172795D01*
X105147898Y-57094774D01*
X104947939Y-57055000D01*
X104744061Y-57055000D01*
X104590000Y-57085644D01*
X104590000Y-56626801D01*
X106430802Y-54786000D01*
X114036678Y-54786000D01*
X114074000Y-54789676D01*
X114111322Y-54786000D01*
X114111333Y-54786000D01*
X114222986Y-54775003D01*
X114366247Y-54731546D01*
X114498276Y-54660974D01*
X114614001Y-54566001D01*
X114637804Y-54536997D01*
X116318486Y-52856315D01*
X116374795Y-52992256D01*
X116488063Y-53161774D01*
X116590289Y-53264000D01*
X116488063Y-53366226D01*
X116374795Y-53535744D01*
X116296774Y-53724102D01*
X116257000Y-53924061D01*
X116257000Y-54127939D01*
X116296774Y-54327898D01*
X116374795Y-54516256D01*
X116488063Y-54685774D01*
X116632226Y-54829937D01*
X116801744Y-54943205D01*
X116990102Y-55021226D01*
X117190061Y-55061000D01*
X117393939Y-55061000D01*
X117593898Y-55021226D01*
X117782256Y-54943205D01*
X117951774Y-54829937D01*
X117995711Y-54786000D01*
X121041199Y-54786000D01*
X122570200Y-56315002D01*
X122593999Y-56344001D01*
X122709724Y-56438974D01*
X122841753Y-56509546D01*
X122985014Y-56553003D01*
X123096667Y-56564000D01*
X123096675Y-56564000D01*
X123134000Y-56567676D01*
X123171325Y-56564000D01*
X135082849Y-56564000D01*
X135092774Y-56613898D01*
X135170795Y-56802256D01*
X135284063Y-56971774D01*
X135428226Y-57115937D01*
X135597744Y-57229205D01*
X135786102Y-57307226D01*
X135986061Y-57347000D01*
X136189939Y-57347000D01*
X136389898Y-57307226D01*
X136578256Y-57229205D01*
X136747774Y-57115937D01*
X136791711Y-57072000D01*
X149743199Y-57072000D01*
X151780200Y-59109002D01*
X151803999Y-59138001D01*
X151919724Y-59232974D01*
X152051753Y-59303546D01*
X152195014Y-59347003D01*
X152306667Y-59358000D01*
X152306676Y-59358000D01*
X152343999Y-59361676D01*
X152381322Y-59358000D01*
X159903199Y-59358000D01*
X160808790Y-60263592D01*
X160765000Y-60483740D01*
X160765000Y-60776260D01*
X160822068Y-61063158D01*
X160934010Y-61333411D01*
X161096525Y-61576632D01*
X161303368Y-61783475D01*
X161546589Y-61945990D01*
X161816842Y-62057932D01*
X162103740Y-62115000D01*
X162396260Y-62115000D01*
X162683158Y-62057932D01*
X162953411Y-61945990D01*
X163196632Y-61783475D01*
X163403475Y-61576632D01*
X163565990Y-61333411D01*
X163677932Y-61063158D01*
X163735000Y-60776260D01*
X163735000Y-60483740D01*
X163677932Y-60196842D01*
X163565990Y-59926589D01*
X163403475Y-59683368D01*
X163271620Y-59551513D01*
X163344180Y-59529502D01*
X163454494Y-59470537D01*
X163551185Y-59391185D01*
X163630537Y-59294494D01*
X163689502Y-59184180D01*
X163725812Y-59064482D01*
X163738072Y-58940000D01*
X163738072Y-57240000D01*
X163725812Y-57115518D01*
X163689502Y-56995820D01*
X163630537Y-56885506D01*
X163551185Y-56788815D01*
X163454494Y-56709463D01*
X163344180Y-56650498D01*
X163224482Y-56614188D01*
X163100000Y-56601928D01*
X161400000Y-56601928D01*
X161275518Y-56614188D01*
X161155820Y-56650498D01*
X161045506Y-56709463D01*
X160948815Y-56788815D01*
X160869463Y-56885506D01*
X160810498Y-56995820D01*
X160774188Y-57115518D01*
X160761928Y-57240000D01*
X160761928Y-57330000D01*
X153166802Y-57330000D01*
X150621804Y-54785003D01*
X150598001Y-54755999D01*
X150482276Y-54661026D01*
X150350247Y-54590454D01*
X150206986Y-54546997D01*
X150095333Y-54536000D01*
X150095322Y-54536000D01*
X150058000Y-54532324D01*
X150020678Y-54536000D01*
X140855711Y-54536000D01*
X140811774Y-54492063D01*
X140642256Y-54378795D01*
X140453898Y-54300774D01*
X140253939Y-54261000D01*
X140050061Y-54261000D01*
X139850102Y-54300774D01*
X139661744Y-54378795D01*
X139492226Y-54492063D01*
X139448289Y-54536000D01*
X123702802Y-54536000D01*
X121157804Y-51991003D01*
X121134001Y-51961999D01*
X121018276Y-51867026D01*
X120886247Y-51796454D01*
X120742986Y-51752997D01*
X120631333Y-51742000D01*
X120631322Y-51742000D01*
X120594000Y-51738324D01*
X120556678Y-51742000D01*
X117995711Y-51742000D01*
X117951774Y-51698063D01*
X117782256Y-51584795D01*
X117646316Y-51528486D01*
X118311003Y-50863799D01*
X118340001Y-50840001D01*
X118434974Y-50724276D01*
X118454326Y-50688072D01*
X118650000Y-50688072D01*
X118774482Y-50675812D01*
X118894180Y-50639502D01*
X119004494Y-50580537D01*
X119101185Y-50501185D01*
X119180537Y-50404494D01*
X119239502Y-50294180D01*
X119275812Y-50174482D01*
X119288072Y-50050000D01*
X119288072Y-49053740D01*
X121395000Y-49053740D01*
X121395000Y-49346260D01*
X121452068Y-49633158D01*
X121564010Y-49903411D01*
X121726525Y-50146632D01*
X121933368Y-50353475D01*
X122176589Y-50515990D01*
X122446842Y-50627932D01*
X122733740Y-50685000D01*
X123026260Y-50685000D01*
X123313158Y-50627932D01*
X123583411Y-50515990D01*
X123826632Y-50353475D01*
X124033475Y-50146632D01*
X124155195Y-49964466D01*
X124224822Y-50081355D01*
X124419731Y-50297588D01*
X124653080Y-50471641D01*
X124915901Y-50596825D01*
X125063110Y-50641476D01*
X125293000Y-50520155D01*
X125293000Y-49327000D01*
X125547000Y-49327000D01*
X125547000Y-50520155D01*
X125776890Y-50641476D01*
X125924099Y-50596825D01*
X126186920Y-50471641D01*
X126420269Y-50297588D01*
X126615178Y-50081355D01*
X126690000Y-49955745D01*
X126764822Y-50081355D01*
X126959731Y-50297588D01*
X127193080Y-50471641D01*
X127455901Y-50596825D01*
X127603110Y-50641476D01*
X127833000Y-50520155D01*
X127833000Y-49327000D01*
X125547000Y-49327000D01*
X125293000Y-49327000D01*
X125273000Y-49327000D01*
X125273000Y-49073000D01*
X125293000Y-49073000D01*
X125293000Y-47879845D01*
X125547000Y-47879845D01*
X125547000Y-49073000D01*
X127833000Y-49073000D01*
X127833000Y-47879845D01*
X128087000Y-47879845D01*
X128087000Y-49073000D01*
X128107000Y-49073000D01*
X128107000Y-49327000D01*
X128087000Y-49327000D01*
X128087000Y-50520155D01*
X128316890Y-50641476D01*
X128464099Y-50596825D01*
X128726920Y-50471641D01*
X128960269Y-50297588D01*
X129155178Y-50081355D01*
X129224805Y-49964466D01*
X129346525Y-50146632D01*
X129553368Y-50353475D01*
X129796589Y-50515990D01*
X130066842Y-50627932D01*
X130353740Y-50685000D01*
X130646260Y-50685000D01*
X130933158Y-50627932D01*
X131203411Y-50515990D01*
X131446632Y-50353475D01*
X131653475Y-50146632D01*
X131770000Y-49972240D01*
X131886525Y-50146632D01*
X132093368Y-50353475D01*
X132336589Y-50515990D01*
X132606842Y-50627932D01*
X132893740Y-50685000D01*
X133186260Y-50685000D01*
X133473158Y-50627932D01*
X133743411Y-50515990D01*
X133986632Y-50353475D01*
X134193475Y-50146632D01*
X134310000Y-49972240D01*
X134426525Y-50146632D01*
X134633368Y-50353475D01*
X134876589Y-50515990D01*
X135146842Y-50627932D01*
X135433740Y-50685000D01*
X135726260Y-50685000D01*
X136013158Y-50627932D01*
X136283411Y-50515990D01*
X136526632Y-50353475D01*
X136733475Y-50146632D01*
X136850000Y-49972240D01*
X136966525Y-50146632D01*
X137173368Y-50353475D01*
X137416589Y-50515990D01*
X137686842Y-50627932D01*
X137973740Y-50685000D01*
X138266260Y-50685000D01*
X138553158Y-50627932D01*
X138823411Y-50515990D01*
X139066632Y-50353475D01*
X139198487Y-50221620D01*
X139220498Y-50294180D01*
X139279463Y-50404494D01*
X139358815Y-50501185D01*
X139455506Y-50580537D01*
X139565820Y-50639502D01*
X139685518Y-50675812D01*
X139810000Y-50688072D01*
X141510000Y-50688072D01*
X141634482Y-50675812D01*
X141754180Y-50639502D01*
X141864494Y-50580537D01*
X141961185Y-50501185D01*
X142040537Y-50404494D01*
X142099502Y-50294180D01*
X142135812Y-50174482D01*
X142148072Y-50050000D01*
X142148072Y-48350000D01*
X142135812Y-48225518D01*
X142099502Y-48105820D01*
X142040537Y-47995506D01*
X141961185Y-47898815D01*
X141864494Y-47819463D01*
X141754180Y-47760498D01*
X141634482Y-47724188D01*
X141510000Y-47711928D01*
X139810000Y-47711928D01*
X139685518Y-47724188D01*
X139565820Y-47760498D01*
X139455506Y-47819463D01*
X139358815Y-47898815D01*
X139279463Y-47995506D01*
X139220498Y-48105820D01*
X139198487Y-48178380D01*
X139066632Y-48046525D01*
X138823411Y-47884010D01*
X138553158Y-47772068D01*
X138266260Y-47715000D01*
X137973740Y-47715000D01*
X137686842Y-47772068D01*
X137416589Y-47884010D01*
X137173368Y-48046525D01*
X136966525Y-48253368D01*
X136850000Y-48427760D01*
X136733475Y-48253368D01*
X136526632Y-48046525D01*
X136283411Y-47884010D01*
X136013158Y-47772068D01*
X135726260Y-47715000D01*
X135433740Y-47715000D01*
X135146842Y-47772068D01*
X134876589Y-47884010D01*
X134633368Y-48046525D01*
X134426525Y-48253368D01*
X134310000Y-48427760D01*
X134193475Y-48253368D01*
X133986632Y-48046525D01*
X133743411Y-47884010D01*
X133473158Y-47772068D01*
X133186260Y-47715000D01*
X132893740Y-47715000D01*
X132606842Y-47772068D01*
X132336589Y-47884010D01*
X132093368Y-48046525D01*
X131886525Y-48253368D01*
X131770000Y-48427760D01*
X131653475Y-48253368D01*
X131446632Y-48046525D01*
X131203411Y-47884010D01*
X130933158Y-47772068D01*
X130646260Y-47715000D01*
X130353740Y-47715000D01*
X130066842Y-47772068D01*
X129796589Y-47884010D01*
X129553368Y-48046525D01*
X129346525Y-48253368D01*
X129224805Y-48435534D01*
X129155178Y-48318645D01*
X128960269Y-48102412D01*
X128726920Y-47928359D01*
X128464099Y-47803175D01*
X128316890Y-47758524D01*
X128087000Y-47879845D01*
X127833000Y-47879845D01*
X127603110Y-47758524D01*
X127455901Y-47803175D01*
X127193080Y-47928359D01*
X126959731Y-48102412D01*
X126764822Y-48318645D01*
X126690000Y-48444255D01*
X126615178Y-48318645D01*
X126420269Y-48102412D01*
X126186920Y-47928359D01*
X125924099Y-47803175D01*
X125776890Y-47758524D01*
X125547000Y-47879845D01*
X125293000Y-47879845D01*
X125063110Y-47758524D01*
X124915901Y-47803175D01*
X124653080Y-47928359D01*
X124419731Y-48102412D01*
X124224822Y-48318645D01*
X124155195Y-48435534D01*
X124033475Y-48253368D01*
X123826632Y-48046525D01*
X123583411Y-47884010D01*
X123313158Y-47772068D01*
X123026260Y-47715000D01*
X122733740Y-47715000D01*
X122446842Y-47772068D01*
X122176589Y-47884010D01*
X121933368Y-48046525D01*
X121726525Y-48253368D01*
X121564010Y-48496589D01*
X121452068Y-48766842D01*
X121395000Y-49053740D01*
X119288072Y-49053740D01*
X119288072Y-48350000D01*
X119275812Y-48225518D01*
X119239502Y-48105820D01*
X119180537Y-47995506D01*
X119101185Y-47898815D01*
X119004494Y-47819463D01*
X118894180Y-47760498D01*
X118774482Y-47724188D01*
X118650000Y-47711928D01*
X116950000Y-47711928D01*
X116825518Y-47724188D01*
X116705820Y-47760498D01*
X116595506Y-47819463D01*
X116498815Y-47898815D01*
X116419463Y-47995506D01*
X116360498Y-48105820D01*
X116338487Y-48178380D01*
X116206632Y-48046525D01*
X115963411Y-47884010D01*
X115693158Y-47772068D01*
X115406260Y-47715000D01*
X115113740Y-47715000D01*
X114826842Y-47772068D01*
X114556589Y-47884010D01*
X114313368Y-48046525D01*
X114106525Y-48253368D01*
X113990000Y-48427760D01*
X113873475Y-48253368D01*
X113666632Y-48046525D01*
X113423411Y-47884010D01*
X113153158Y-47772068D01*
X112866260Y-47715000D01*
X112573740Y-47715000D01*
X112286842Y-47772068D01*
X112016589Y-47884010D01*
X111773368Y-48046525D01*
X111566525Y-48253368D01*
X111450000Y-48427760D01*
X111333475Y-48253368D01*
X111126632Y-48046525D01*
X110883411Y-47884010D01*
X110613158Y-47772068D01*
X110326260Y-47715000D01*
X110033740Y-47715000D01*
X109746842Y-47772068D01*
X109476589Y-47884010D01*
X109233368Y-48046525D01*
X109026525Y-48253368D01*
X108910000Y-48427760D01*
X108793475Y-48253368D01*
X108586632Y-48046525D01*
X108343411Y-47884010D01*
X108073158Y-47772068D01*
X107786260Y-47715000D01*
X107493740Y-47715000D01*
X107206842Y-47772068D01*
X106936589Y-47884010D01*
X106693368Y-48046525D01*
X106486525Y-48253368D01*
X106370000Y-48427760D01*
X106253475Y-48253368D01*
X106046632Y-48046525D01*
X105803411Y-47884010D01*
X105533158Y-47772068D01*
X105246260Y-47715000D01*
X104953740Y-47715000D01*
X104666842Y-47772068D01*
X104396589Y-47884010D01*
X104153368Y-48046525D01*
X103946525Y-48253368D01*
X103784010Y-48496589D01*
X103672068Y-48766842D01*
X103615000Y-49053740D01*
X103615000Y-49346260D01*
X103672068Y-49633158D01*
X103784010Y-49903411D01*
X103946525Y-50146632D01*
X104153368Y-50353475D01*
X104396589Y-50515990D01*
X104666842Y-50627932D01*
X104953740Y-50685000D01*
X105246260Y-50685000D01*
X105533158Y-50627932D01*
X105803411Y-50515990D01*
X106046632Y-50353475D01*
X106253475Y-50146632D01*
X106370000Y-49972240D01*
X106486525Y-50146632D01*
X106693368Y-50353475D01*
X106936589Y-50515990D01*
X107206842Y-50627932D01*
X107493740Y-50685000D01*
X107786260Y-50685000D01*
X108073158Y-50627932D01*
X108343411Y-50515990D01*
X108586632Y-50353475D01*
X108793475Y-50146632D01*
X108910000Y-49972240D01*
X109026525Y-50146632D01*
X109233368Y-50353475D01*
X109476589Y-50515990D01*
X109746842Y-50627932D01*
X110033740Y-50685000D01*
X110326260Y-50685000D01*
X110613158Y-50627932D01*
X110883411Y-50515990D01*
X111126632Y-50353475D01*
X111333475Y-50146632D01*
X111450000Y-49972240D01*
X111566525Y-50146632D01*
X111773368Y-50353475D01*
X112016589Y-50515990D01*
X112286842Y-50627932D01*
X112573740Y-50685000D01*
X112866260Y-50685000D01*
X113153158Y-50627932D01*
X113423411Y-50515990D01*
X113666632Y-50353475D01*
X113873475Y-50146632D01*
X113990000Y-49972240D01*
X114106525Y-50146632D01*
X114273586Y-50313693D01*
X111829280Y-52758000D01*
X105899322Y-52758000D01*
X105861999Y-52754324D01*
X105824676Y-52758000D01*
X105824667Y-52758000D01*
X105713014Y-52768997D01*
X105569753Y-52812454D01*
X105437724Y-52883026D01*
X105437722Y-52883027D01*
X105437723Y-52883027D01*
X105350996Y-52954201D01*
X105350992Y-52954205D01*
X105321999Y-52977999D01*
X105298205Y-53006992D01*
X102811003Y-55494196D01*
X102781999Y-55517999D01*
X102745070Y-55562998D01*
X102687026Y-55633724D01*
X102640763Y-55720276D01*
X102616454Y-55765754D01*
X102572997Y-55909015D01*
X102562000Y-56020668D01*
X102562000Y-56020678D01*
X102558324Y-56058000D01*
X100660000Y-56058000D01*
X100660000Y-47360000D01*
X167940001Y-47360000D01*
X167940000Y-99340000D01*
G37*
X167940000Y-99340000D02*
X100660000Y-99340000D01*
X100660000Y-77140000D01*
X101542324Y-77140000D01*
X101546001Y-77177332D01*
X101546000Y-89040678D01*
X101542324Y-89078000D01*
X101546000Y-89115322D01*
X101546000Y-89115332D01*
X101556997Y-89226985D01*
X101571728Y-89275546D01*
X101600454Y-89370246D01*
X101671026Y-89502276D01*
X101693944Y-89530201D01*
X101765999Y-89618001D01*
X101795003Y-89641804D01*
X103774200Y-91621002D01*
X103797999Y-91650001D01*
X103826997Y-91673799D01*
X103913723Y-91744974D01*
X104041759Y-91813411D01*
X104045753Y-91815546D01*
X104189014Y-91859003D01*
X104300667Y-91870000D01*
X104300677Y-91870000D01*
X104338000Y-91873676D01*
X104375323Y-91870000D01*
X114945199Y-91870000D01*
X117040001Y-93964804D01*
X117040000Y-96181821D01*
X116853368Y-96306525D01*
X116646525Y-96513368D01*
X116530000Y-96687760D01*
X116413475Y-96513368D01*
X116206632Y-96306525D01*
X115963411Y-96144010D01*
X115693158Y-96032068D01*
X115406260Y-95975000D01*
X115113740Y-95975000D01*
X114826842Y-96032068D01*
X114556589Y-96144010D01*
X114313368Y-96306525D01*
X114106525Y-96513368D01*
X113990000Y-96687760D01*
X113873475Y-96513368D01*
X113666632Y-96306525D01*
X113423411Y-96144010D01*
X113153158Y-96032068D01*
X112866260Y-95975000D01*
X112573740Y-95975000D01*
X112286842Y-96032068D01*
X112016589Y-96144010D01*
X111773368Y-96306525D01*
X111566525Y-96513368D01*
X111450000Y-96687760D01*
X111333475Y-96513368D01*
X111126632Y-96306525D01*
X110883411Y-96144010D01*
X110613158Y-96032068D01*
X110326260Y-95975000D01*
X110033740Y-95975000D01*
X109746842Y-96032068D01*
X109476589Y-96144010D01*
X109233368Y-96306525D01*
X109026525Y-96513368D01*
X108910000Y-96687760D01*
X108793475Y-96513368D01*
X108586632Y-96306525D01*
X108343411Y-96144010D01*
X108073158Y-96032068D01*
X107786260Y-95975000D01*
X107493740Y-95975000D01*
X107206842Y-96032068D01*
X106936589Y-96144010D01*
X106693368Y-96306525D01*
X106561513Y-96438380D01*
X106539502Y-96365820D01*
X106480537Y-96255506D01*
X106401185Y-96158815D01*
X106304494Y-96079463D01*
X106194180Y-96020498D01*
X106074482Y-95984188D01*
X105950000Y-95971928D01*
X104250000Y-95971928D01*
X104125518Y-95984188D01*
X104005820Y-96020498D01*
X103895506Y-96079463D01*
X103798815Y-96158815D01*
X103719463Y-96255506D01*
X103660498Y-96365820D01*
X103624188Y-96485518D01*
X103611928Y-96610000D01*
X103611928Y-98310000D01*
X103624188Y-98434482D01*
X103660498Y-98554180D01*
X103719463Y-98664494D01*
X103798815Y-98761185D01*
X103895506Y-98840537D01*
X104005820Y-98899502D01*
X104125518Y-98935812D01*
X104250000Y-98948072D01*
X105950000Y-98948072D01*
X106074482Y-98935812D01*
X106194180Y-98899502D01*
X106304494Y-98840537D01*
X106401185Y-98761185D01*
X106480537Y-98664494D01*
X106539502Y-98554180D01*
X106561513Y-98481620D01*
X106693368Y-98613475D01*
X106936589Y-98775990D01*
X107206842Y-98887932D01*
X107493740Y-98945000D01*
X107786260Y-98945000D01*
X108073158Y-98887932D01*
X108343411Y-98775990D01*
X108586632Y-98613475D01*
X108793475Y-98406632D01*
X108910000Y-98232240D01*
X109026525Y-98406632D01*
X109233368Y-98613475D01*
X109476589Y-98775990D01*
X109746842Y-98887932D01*
X110033740Y-98945000D01*
X110326260Y-98945000D01*
X110613158Y-98887932D01*
X110883411Y-98775990D01*
X111126632Y-98613475D01*
X111333475Y-98406632D01*
X111450000Y-98232240D01*
X111566525Y-98406632D01*
X111773368Y-98613475D01*
X112016589Y-98775990D01*
X112286842Y-98887932D01*
X112573740Y-98945000D01*
X112866260Y-98945000D01*
X113153158Y-98887932D01*
X113423411Y-98775990D01*
X113666632Y-98613475D01*
X113873475Y-98406632D01*
X113990000Y-98232240D01*
X114106525Y-98406632D01*
X114313368Y-98613475D01*
X114556589Y-98775990D01*
X114826842Y-98887932D01*
X115113740Y-98945000D01*
X115406260Y-98945000D01*
X115693158Y-98887932D01*
X115963411Y-98775990D01*
X116206632Y-98613475D01*
X116413475Y-98406632D01*
X116530000Y-98232240D01*
X116646525Y-98406632D01*
X116853368Y-98613475D01*
X117096589Y-98775990D01*
X117366842Y-98887932D01*
X117653740Y-98945000D01*
X117946260Y-98945000D01*
X118233158Y-98887932D01*
X118503411Y-98775990D01*
X118746632Y-98613475D01*
X118953475Y-98406632D01*
X119070000Y-98232240D01*
X119186525Y-98406632D01*
X119393368Y-98613475D01*
X119636589Y-98775990D01*
X119906842Y-98887932D01*
X120193740Y-98945000D01*
X120486260Y-98945000D01*
X120773158Y-98887932D01*
X121043411Y-98775990D01*
X121286632Y-98613475D01*
X121493475Y-98406632D01*
X121610000Y-98232240D01*
X121726525Y-98406632D01*
X121933368Y-98613475D01*
X122176589Y-98775990D01*
X122446842Y-98887932D01*
X122733740Y-98945000D01*
X123026260Y-98945000D01*
X123313158Y-98887932D01*
X123583411Y-98775990D01*
X123826632Y-98613475D01*
X124033475Y-98406632D01*
X124195990Y-98163411D01*
X124307932Y-97893158D01*
X124365000Y-97606260D01*
X124365000Y-97313740D01*
X124307932Y-97026842D01*
X124195990Y-96756589D01*
X124033475Y-96513368D01*
X123826632Y-96306525D01*
X123583411Y-96144010D01*
X123313158Y-96032068D01*
X123026260Y-95975000D01*
X122733740Y-95975000D01*
X122446842Y-96032068D01*
X122176589Y-96144010D01*
X121933368Y-96306525D01*
X121726525Y-96513368D01*
X121610000Y-96687760D01*
X121493475Y-96513368D01*
X121286632Y-96306525D01*
X121043411Y-96144010D01*
X120773158Y-96032068D01*
X120486260Y-95975000D01*
X120193740Y-95975000D01*
X119906842Y-96032068D01*
X119636589Y-96144010D01*
X119393368Y-96306525D01*
X119186525Y-96513368D01*
X119070000Y-96687760D01*
X118953475Y-96513368D01*
X118746632Y-96306525D01*
X118560000Y-96181822D01*
X118560000Y-93687322D01*
X118563676Y-93649999D01*
X118560000Y-93612676D01*
X118560000Y-93612667D01*
X118549003Y-93501014D01*
X118505546Y-93357753D01*
X118434974Y-93225724D01*
X118421811Y-93209685D01*
X118363799Y-93138996D01*
X118363795Y-93138992D01*
X118340001Y-93109999D01*
X118311008Y-93086205D01*
X116586802Y-91362000D01*
X123835199Y-91362000D01*
X126184001Y-93710803D01*
X126184000Y-95971928D01*
X126094000Y-95971928D01*
X125969518Y-95984188D01*
X125849820Y-96020498D01*
X125739506Y-96079463D01*
X125642815Y-96158815D01*
X125563463Y-96255506D01*
X125504498Y-96365820D01*
X125468188Y-96485518D01*
X125455928Y-96610000D01*
X125455928Y-98310000D01*
X125468188Y-98434482D01*
X125504498Y-98554180D01*
X125563463Y-98664494D01*
X125642815Y-98761185D01*
X125739506Y-98840537D01*
X125849820Y-98899502D01*
X125969518Y-98935812D01*
X126094000Y-98948072D01*
X127794000Y-98948072D01*
X127918482Y-98935812D01*
X128038180Y-98899502D01*
X128148494Y-98840537D01*
X128245185Y-98761185D01*
X128324537Y-98664494D01*
X128383502Y-98554180D01*
X128405513Y-98481620D01*
X128537368Y-98613475D01*
X128780589Y-98775990D01*
X129050842Y-98887932D01*
X129337740Y-98945000D01*
X129630260Y-98945000D01*
X129917158Y-98887932D01*
X130187411Y-98775990D01*
X130430632Y-98613475D01*
X130637475Y-98406632D01*
X130754000Y-98232240D01*
X130870525Y-98406632D01*
X131077368Y-98613475D01*
X131320589Y-98775990D01*
X131590842Y-98887932D01*
X131877740Y-98945000D01*
X132170260Y-98945000D01*
X132457158Y-98887932D01*
X132727411Y-98775990D01*
X132970632Y-98613475D01*
X133177475Y-98406632D01*
X133294000Y-98232240D01*
X133410525Y-98406632D01*
X133617368Y-98613475D01*
X133860589Y-98775990D01*
X134130842Y-98887932D01*
X134417740Y-98945000D01*
X134710260Y-98945000D01*
X134997158Y-98887932D01*
X135267411Y-98775990D01*
X135510632Y-98613475D01*
X135717475Y-98406632D01*
X135834000Y-98232240D01*
X135950525Y-98406632D01*
X136157368Y-98613475D01*
X136400589Y-98775990D01*
X136670842Y-98887932D01*
X136957740Y-98945000D01*
X137250260Y-98945000D01*
X137537158Y-98887932D01*
X137807411Y-98775990D01*
X138050632Y-98613475D01*
X138257475Y-98406632D01*
X138374000Y-98232240D01*
X138490525Y-98406632D01*
X138697368Y-98613475D01*
X138940589Y-98775990D01*
X139210842Y-98887932D01*
X139497740Y-98945000D01*
X139790260Y-98945000D01*
X140077158Y-98887932D01*
X140347411Y-98775990D01*
X140590632Y-98613475D01*
X140797475Y-98406632D01*
X140919195Y-98224466D01*
X140988822Y-98341355D01*
X141183731Y-98557588D01*
X141417080Y-98731641D01*
X141679901Y-98856825D01*
X141827110Y-98901476D01*
X142057000Y-98780155D01*
X142057000Y-97587000D01*
X142037000Y-97587000D01*
X142037000Y-97333000D01*
X142057000Y-97333000D01*
X142057000Y-96139845D01*
X142311000Y-96139845D01*
X142311000Y-97333000D01*
X142331000Y-97333000D01*
X142331000Y-97587000D01*
X142311000Y-97587000D01*
X142311000Y-98780155D01*
X142540890Y-98901476D01*
X142688099Y-98856825D01*
X142950920Y-98731641D01*
X143184269Y-98557588D01*
X143379178Y-98341355D01*
X143448805Y-98224466D01*
X143570525Y-98406632D01*
X143777368Y-98613475D01*
X144020589Y-98775990D01*
X144290842Y-98887932D01*
X144577740Y-98945000D01*
X144870260Y-98945000D01*
X145157158Y-98887932D01*
X145427411Y-98775990D01*
X145670632Y-98613475D01*
X145877475Y-98406632D01*
X145994000Y-98232240D01*
X146110525Y-98406632D01*
X146317368Y-98613475D01*
X146560589Y-98775990D01*
X146830842Y-98887932D01*
X147117740Y-98945000D01*
X147410260Y-98945000D01*
X147697158Y-98887932D01*
X147967411Y-98775990D01*
X148210632Y-98613475D01*
X148417475Y-98406632D01*
X148534000Y-98232240D01*
X148650525Y-98406632D01*
X148857368Y-98613475D01*
X149100589Y-98775990D01*
X149370842Y-98887932D01*
X149657740Y-98945000D01*
X149950260Y-98945000D01*
X150237158Y-98887932D01*
X150507411Y-98775990D01*
X150750632Y-98613475D01*
X150957475Y-98406632D01*
X151119990Y-98163411D01*
X151231932Y-97893158D01*
X151289000Y-97606260D01*
X151289000Y-97313740D01*
X151231932Y-97026842D01*
X151119990Y-96756589D01*
X150957475Y-96513368D01*
X150750632Y-96306525D01*
X150507411Y-96144010D01*
X150237158Y-96032068D01*
X149950260Y-95975000D01*
X149657740Y-95975000D01*
X149370842Y-96032068D01*
X149100589Y-96144010D01*
X148857368Y-96306525D01*
X148650525Y-96513368D01*
X148534000Y-96687760D01*
X148417475Y-96513368D01*
X148210632Y-96306525D01*
X147967411Y-96144010D01*
X147697158Y-96032068D01*
X147410260Y-95975000D01*
X147117740Y-95975000D01*
X146830842Y-96032068D01*
X146560589Y-96144010D01*
X146317368Y-96306525D01*
X146110525Y-96513368D01*
X145994000Y-96687760D01*
X145877475Y-96513368D01*
X145670632Y-96306525D01*
X145427411Y-96144010D01*
X145157158Y-96032068D01*
X144870260Y-95975000D01*
X144577740Y-95975000D01*
X144290842Y-96032068D01*
X144020589Y-96144010D01*
X143777368Y-96306525D01*
X143570525Y-96513368D01*
X143448805Y-96695534D01*
X143379178Y-96578645D01*
X143184269Y-96362412D01*
X142950920Y-96188359D01*
X142688099Y-96063175D01*
X142540890Y-96018524D01*
X142311000Y-96139845D01*
X142057000Y-96139845D01*
X141827110Y-96018524D01*
X141679901Y-96063175D01*
X141417080Y-96188359D01*
X141183731Y-96362412D01*
X140988822Y-96578645D01*
X140919195Y-96695534D01*
X140797475Y-96513368D01*
X140590632Y-96306525D01*
X140404000Y-96181822D01*
X140404000Y-94472801D01*
X143006802Y-91870000D01*
X147322289Y-91870000D01*
X147366226Y-91913937D01*
X147535744Y-92027205D01*
X147724102Y-92105226D01*
X147924061Y-92145000D01*
X148127939Y-92145000D01*
X148327898Y-92105226D01*
X148516256Y-92027205D01*
X148685774Y-91913937D01*
X148829937Y-91769774D01*
X148943205Y-91600256D01*
X149021226Y-91411898D01*
X149061000Y-91211939D01*
X149061000Y-91008061D01*
X149021226Y-90808102D01*
X148943205Y-90619744D01*
X148829937Y-90450226D01*
X148685774Y-90306063D01*
X148516256Y-90192795D01*
X148327898Y-90114774D01*
X148127939Y-90075000D01*
X147924061Y-90075000D01*
X147724102Y-90114774D01*
X147535744Y-90192795D01*
X147366226Y-90306063D01*
X147322289Y-90350000D01*
X142729323Y-90350000D01*
X142692000Y-90346324D01*
X142654677Y-90350000D01*
X142654667Y-90350000D01*
X142543014Y-90360997D01*
X142399753Y-90404454D01*
X142267723Y-90475026D01*
X142184083Y-90543668D01*
X142151999Y-90569999D01*
X142128201Y-90598997D01*
X139132998Y-93594201D01*
X139104000Y-93617999D01*
X139080202Y-93646997D01*
X139080201Y-93646998D01*
X139009026Y-93733724D01*
X138938454Y-93865754D01*
X138894998Y-94009015D01*
X138880324Y-94158000D01*
X138884001Y-94195332D01*
X138884000Y-96181821D01*
X138697368Y-96306525D01*
X138490525Y-96513368D01*
X138374000Y-96687760D01*
X138257475Y-96513368D01*
X138050632Y-96306525D01*
X137864000Y-96181822D01*
X137864000Y-94726801D01*
X143260802Y-89330000D01*
X147322289Y-89330000D01*
X147366226Y-89373937D01*
X147535744Y-89487205D01*
X147724102Y-89565226D01*
X147924061Y-89605000D01*
X148127939Y-89605000D01*
X148327898Y-89565226D01*
X148516256Y-89487205D01*
X148685774Y-89373937D01*
X148829937Y-89229774D01*
X148943205Y-89060256D01*
X149021226Y-88871898D01*
X149061000Y-88671939D01*
X149061000Y-88468061D01*
X149021226Y-88268102D01*
X148943205Y-88079744D01*
X148829937Y-87910226D01*
X148685774Y-87766063D01*
X148516256Y-87652795D01*
X148327898Y-87574774D01*
X148127939Y-87535000D01*
X147924061Y-87535000D01*
X147724102Y-87574774D01*
X147535744Y-87652795D01*
X147366226Y-87766063D01*
X147322289Y-87810000D01*
X142983325Y-87810000D01*
X142946000Y-87806324D01*
X142908675Y-87810000D01*
X142908667Y-87810000D01*
X142797014Y-87820997D01*
X142653753Y-87864454D01*
X142521724Y-87935026D01*
X142405999Y-88029999D01*
X142382201Y-88058997D01*
X136592998Y-93848201D01*
X136564000Y-93871999D01*
X136540202Y-93900997D01*
X136540201Y-93900998D01*
X136469026Y-93987724D01*
X136398454Y-94119754D01*
X136354998Y-94263015D01*
X136340324Y-94412000D01*
X136344001Y-94449332D01*
X136344000Y-96181821D01*
X136157368Y-96306525D01*
X135950525Y-96513368D01*
X135834000Y-96687760D01*
X135717475Y-96513368D01*
X135510632Y-96306525D01*
X135324000Y-96181822D01*
X135324000Y-93710801D01*
X138843799Y-90191003D01*
X142244802Y-86790000D01*
X147322289Y-86790000D01*
X147366226Y-86833937D01*
X147535744Y-86947205D01*
X147724102Y-87025226D01*
X147924061Y-87065000D01*
X148127939Y-87065000D01*
X148327898Y-87025226D01*
X148516256Y-86947205D01*
X148685774Y-86833937D01*
X148829937Y-86689774D01*
X148943205Y-86520256D01*
X149021226Y-86331898D01*
X149061000Y-86131939D01*
X149061000Y-85928061D01*
X149021226Y-85728102D01*
X148943205Y-85539744D01*
X148829937Y-85370226D01*
X148685774Y-85226063D01*
X148516256Y-85112795D01*
X148327898Y-85034774D01*
X148127939Y-84995000D01*
X147924061Y-84995000D01*
X147724102Y-85034774D01*
X147535744Y-85112795D01*
X147366226Y-85226063D01*
X147322289Y-85270000D01*
X141967333Y-85270000D01*
X141930000Y-85266323D01*
X141892667Y-85270000D01*
X141781014Y-85280997D01*
X141637753Y-85324454D01*
X141505724Y-85395026D01*
X141389999Y-85489999D01*
X141366201Y-85518997D01*
X137768997Y-89116201D01*
X134052998Y-92832201D01*
X134024000Y-92855999D01*
X134000202Y-92884997D01*
X134000201Y-92884998D01*
X133929026Y-92971724D01*
X133858454Y-93103754D01*
X133828180Y-93203558D01*
X133821457Y-93225723D01*
X133814998Y-93247015D01*
X133800324Y-93396000D01*
X133804001Y-93433332D01*
X133804000Y-96181821D01*
X133617368Y-96306525D01*
X133410525Y-96513368D01*
X133294000Y-96687760D01*
X133177475Y-96513368D01*
X132970632Y-96306525D01*
X132784000Y-96181822D01*
X132784000Y-92694801D01*
X141228802Y-84250000D01*
X147322289Y-84250000D01*
X147366226Y-84293937D01*
X147535744Y-84407205D01*
X147724102Y-84485226D01*
X147924061Y-84525000D01*
X148127939Y-84525000D01*
X148327898Y-84485226D01*
X148516256Y-84407205D01*
X148685774Y-84293937D01*
X148829937Y-84149774D01*
X148943205Y-83980256D01*
X149021226Y-83791898D01*
X149061000Y-83591939D01*
X149061000Y-83388061D01*
X149021226Y-83188102D01*
X148943205Y-82999744D01*
X148829937Y-82830226D01*
X148685774Y-82686063D01*
X148616836Y-82640000D01*
X160761928Y-82640000D01*
X160761928Y-84340000D01*
X160774188Y-84464482D01*
X160810498Y-84584180D01*
X160869463Y-84694494D01*
X160948815Y-84791185D01*
X161045506Y-84870537D01*
X161155820Y-84929502D01*
X161228380Y-84951513D01*
X161096525Y-85083368D01*
X160934010Y-85326589D01*
X160822068Y-85596842D01*
X160765000Y-85883740D01*
X160765000Y-86176260D01*
X160822068Y-86463158D01*
X160934010Y-86733411D01*
X161096525Y-86976632D01*
X161303368Y-87183475D01*
X161477760Y-87300000D01*
X161303368Y-87416525D01*
X161096525Y-87623368D01*
X160934010Y-87866589D01*
X160822068Y-88136842D01*
X160765000Y-88423740D01*
X160765000Y-88716260D01*
X160822068Y-89003158D01*
X160934010Y-89273411D01*
X161096525Y-89516632D01*
X161303368Y-89723475D01*
X161477760Y-89840000D01*
X161303368Y-89956525D01*
X161096525Y-90163368D01*
X160934010Y-90406589D01*
X160822068Y-90676842D01*
X160765000Y-90963740D01*
X160765000Y-91256260D01*
X160822068Y-91543158D01*
X160934010Y-91813411D01*
X161096525Y-92056632D01*
X161303368Y-92263475D01*
X161546589Y-92425990D01*
X161816842Y-92537932D01*
X162103740Y-92595000D01*
X162396260Y-92595000D01*
X162683158Y-92537932D01*
X162953411Y-92425990D01*
X163196632Y-92263475D01*
X163403475Y-92056632D01*
X163565990Y-91813411D01*
X163677932Y-91543158D01*
X163735000Y-91256260D01*
X163735000Y-90963740D01*
X163677932Y-90676842D01*
X163565990Y-90406589D01*
X163403475Y-90163368D01*
X163196632Y-89956525D01*
X163022240Y-89840000D01*
X163196632Y-89723475D01*
X163403475Y-89516632D01*
X163565990Y-89273411D01*
X163677932Y-89003158D01*
X163735000Y-88716260D01*
X163735000Y-88423740D01*
X163677932Y-88136842D01*
X163565990Y-87866589D01*
X163403475Y-87623368D01*
X163196632Y-87416525D01*
X163022240Y-87300000D01*
X163196632Y-87183475D01*
X163403475Y-86976632D01*
X163565990Y-86733411D01*
X163677932Y-86463158D01*
X163735000Y-86176260D01*
X163735000Y-85883740D01*
X163677932Y-85596842D01*
X163565990Y-85326589D01*
X163403475Y-85083368D01*
X163271620Y-84951513D01*
X163344180Y-84929502D01*
X163454494Y-84870537D01*
X163551185Y-84791185D01*
X163630537Y-84694494D01*
X163689502Y-84584180D01*
X163725812Y-84464482D01*
X163738072Y-84340000D01*
X163738072Y-82640000D01*
X163725812Y-82515518D01*
X163689502Y-82395820D01*
X163630537Y-82285506D01*
X163551185Y-82188815D01*
X163454494Y-82109463D01*
X163344180Y-82050498D01*
X163224482Y-82014188D01*
X163100000Y-82001928D01*
X161400000Y-82001928D01*
X161275518Y-82014188D01*
X161155820Y-82050498D01*
X161045506Y-82109463D01*
X160948815Y-82188815D01*
X160869463Y-82285506D01*
X160810498Y-82395820D01*
X160774188Y-82515518D01*
X160761928Y-82640000D01*
X148616836Y-82640000D01*
X148516256Y-82572795D01*
X148327898Y-82494774D01*
X148127939Y-82455000D01*
X147924061Y-82455000D01*
X147724102Y-82494774D01*
X147535744Y-82572795D01*
X147366226Y-82686063D01*
X147322289Y-82730000D01*
X140951333Y-82730000D01*
X140914000Y-82726323D01*
X140876667Y-82730000D01*
X140765014Y-82740997D01*
X140621753Y-82784454D01*
X140489724Y-82855026D01*
X140373999Y-82949999D01*
X140350201Y-82978997D01*
X131512998Y-91816201D01*
X131484000Y-91839999D01*
X131460202Y-91868997D01*
X131460201Y-91868998D01*
X131389026Y-91955724D01*
X131318454Y-92087754D01*
X131288180Y-92187558D01*
X131274999Y-92231013D01*
X131274998Y-92231015D01*
X131260324Y-92380000D01*
X131264001Y-92417332D01*
X131264000Y-96181821D01*
X131077368Y-96306525D01*
X130870525Y-96513368D01*
X130754000Y-96687760D01*
X130637475Y-96513368D01*
X130430632Y-96306525D01*
X130244000Y-96181822D01*
X130244000Y-92417322D01*
X130247676Y-92379999D01*
X130244000Y-92342676D01*
X130244000Y-92342667D01*
X130233003Y-92231014D01*
X130189546Y-92087753D01*
X130118974Y-91955724D01*
X130024001Y-91839999D01*
X129995003Y-91816201D01*
X127884789Y-89705988D01*
X127992001Y-89618001D01*
X128015804Y-89588997D01*
X142498802Y-75106000D01*
X147322289Y-75106000D01*
X147366226Y-75149937D01*
X147535744Y-75263205D01*
X147724102Y-75341226D01*
X147924061Y-75381000D01*
X148127939Y-75381000D01*
X148327898Y-75341226D01*
X148516256Y-75263205D01*
X148685774Y-75149937D01*
X148829937Y-75005774D01*
X148943205Y-74836256D01*
X149021226Y-74647898D01*
X149061000Y-74447939D01*
X149061000Y-74244061D01*
X149021226Y-74044102D01*
X148943205Y-73855744D01*
X148829937Y-73686226D01*
X148685774Y-73542063D01*
X148516256Y-73428795D01*
X148327898Y-73350774D01*
X148127939Y-73311000D01*
X147924061Y-73311000D01*
X147724102Y-73350774D01*
X147535744Y-73428795D01*
X147366226Y-73542063D01*
X147322289Y-73586000D01*
X143002802Y-73586000D01*
X144022802Y-72566000D01*
X147322289Y-72566000D01*
X147366226Y-72609937D01*
X147535744Y-72723205D01*
X147724102Y-72801226D01*
X147924061Y-72841000D01*
X148127939Y-72841000D01*
X148327898Y-72801226D01*
X148516256Y-72723205D01*
X148685774Y-72609937D01*
X148829937Y-72465774D01*
X148943205Y-72296256D01*
X149021226Y-72107898D01*
X149061000Y-71907939D01*
X149061000Y-71704061D01*
X149021226Y-71504102D01*
X148943205Y-71315744D01*
X148829937Y-71146226D01*
X148685774Y-71002063D01*
X148616836Y-70956000D01*
X160761928Y-70956000D01*
X160761928Y-72656000D01*
X160774188Y-72780482D01*
X160810498Y-72900180D01*
X160869463Y-73010494D01*
X160948815Y-73107185D01*
X161045506Y-73186537D01*
X161155820Y-73245502D01*
X161228380Y-73267513D01*
X161096525Y-73399368D01*
X160934010Y-73642589D01*
X160822068Y-73912842D01*
X160765000Y-74199740D01*
X160765000Y-74492260D01*
X160822068Y-74779158D01*
X160934010Y-75049411D01*
X161096525Y-75292632D01*
X161303368Y-75499475D01*
X161546589Y-75661990D01*
X161816842Y-75773932D01*
X162103740Y-75831000D01*
X162396260Y-75831000D01*
X162683158Y-75773932D01*
X162953411Y-75661990D01*
X163196632Y-75499475D01*
X163403475Y-75292632D01*
X163565990Y-75049411D01*
X163677932Y-74779158D01*
X163735000Y-74492260D01*
X163735000Y-74199740D01*
X163677932Y-73912842D01*
X163565990Y-73642589D01*
X163403475Y-73399368D01*
X163271620Y-73267513D01*
X163344180Y-73245502D01*
X163454494Y-73186537D01*
X163551185Y-73107185D01*
X163630537Y-73010494D01*
X163689502Y-72900180D01*
X163725812Y-72780482D01*
X163738072Y-72656000D01*
X163738072Y-70956000D01*
X163725812Y-70831518D01*
X163689502Y-70711820D01*
X163630537Y-70601506D01*
X163551185Y-70504815D01*
X163454494Y-70425463D01*
X163344180Y-70366498D01*
X163224482Y-70330188D01*
X163100000Y-70317928D01*
X161400000Y-70317928D01*
X161275518Y-70330188D01*
X161155820Y-70366498D01*
X161045506Y-70425463D01*
X160948815Y-70504815D01*
X160869463Y-70601506D01*
X160810498Y-70711820D01*
X160774188Y-70831518D01*
X160761928Y-70956000D01*
X148616836Y-70956000D01*
X148516256Y-70888795D01*
X148327898Y-70810774D01*
X148127939Y-70771000D01*
X147924061Y-70771000D01*
X147724102Y-70810774D01*
X147535744Y-70888795D01*
X147366226Y-71002063D01*
X147322289Y-71046000D01*
X143745325Y-71046000D01*
X143708000Y-71042324D01*
X143670675Y-71046000D01*
X143670667Y-71046000D01*
X143559014Y-71056997D01*
X143415753Y-71100454D01*
X143283724Y-71171026D01*
X143167999Y-71265999D01*
X143144201Y-71294997D01*
X127137199Y-87302000D01*
X105803711Y-87302000D01*
X105759774Y-87258063D01*
X105590256Y-87144795D01*
X105401898Y-87066774D01*
X105297459Y-87046000D01*
X105401898Y-87025226D01*
X105590256Y-86947205D01*
X105759774Y-86833937D01*
X105903937Y-86689774D01*
X106017205Y-86520256D01*
X106095226Y-86331898D01*
X106135000Y-86131939D01*
X106135000Y-85928061D01*
X106095226Y-85728102D01*
X106017205Y-85539744D01*
X105903937Y-85370226D01*
X105759774Y-85226063D01*
X105590256Y-85112795D01*
X105401898Y-85034774D01*
X105201939Y-84995000D01*
X104998061Y-84995000D01*
X104798102Y-85034774D01*
X104609744Y-85112795D01*
X104440226Y-85226063D01*
X104396289Y-85270000D01*
X104121325Y-85270000D01*
X104084000Y-85266324D01*
X104046675Y-85270000D01*
X104046667Y-85270000D01*
X103935014Y-85280997D01*
X103791753Y-85324454D01*
X103659724Y-85395026D01*
X103574000Y-85465378D01*
X103574000Y-82280801D01*
X104144802Y-81710000D01*
X104396289Y-81710000D01*
X104440226Y-81753937D01*
X104609744Y-81867205D01*
X104798102Y-81945226D01*
X104998061Y-81985000D01*
X105201939Y-81985000D01*
X105401898Y-81945226D01*
X105590256Y-81867205D01*
X105759774Y-81753937D01*
X105903937Y-81609774D01*
X106017205Y-81440256D01*
X106095226Y-81251898D01*
X106135000Y-81051939D01*
X106135000Y-80848061D01*
X106095226Y-80648102D01*
X106017205Y-80459744D01*
X105903937Y-80290226D01*
X105759774Y-80146063D01*
X105590256Y-80032795D01*
X105401898Y-79954774D01*
X105201939Y-79915000D01*
X104998061Y-79915000D01*
X104798102Y-79954774D01*
X104609744Y-80032795D01*
X104440226Y-80146063D01*
X104396289Y-80190000D01*
X103867322Y-80190000D01*
X103830000Y-80186324D01*
X103792677Y-80190000D01*
X103792667Y-80190000D01*
X103681014Y-80200997D01*
X103537753Y-80244454D01*
X103405723Y-80315026D01*
X103322083Y-80383668D01*
X103289999Y-80409999D01*
X103266201Y-80438997D01*
X103066000Y-80639198D01*
X103066000Y-77454801D01*
X103890802Y-76630000D01*
X104396289Y-76630000D01*
X104440226Y-76673937D01*
X104609744Y-76787205D01*
X104798102Y-76865226D01*
X104998061Y-76905000D01*
X105201939Y-76905000D01*
X105401898Y-76865226D01*
X105590256Y-76787205D01*
X105759774Y-76673937D01*
X105903937Y-76529774D01*
X106017205Y-76360256D01*
X106095226Y-76171898D01*
X106135000Y-75971939D01*
X106135000Y-75768061D01*
X106095226Y-75568102D01*
X106017205Y-75379744D01*
X105903937Y-75210226D01*
X105759774Y-75066063D01*
X105590256Y-74952795D01*
X105401898Y-74874774D01*
X105201939Y-74835000D01*
X104998061Y-74835000D01*
X104798102Y-74874774D01*
X104609744Y-74952795D01*
X104440226Y-75066063D01*
X104396289Y-75110000D01*
X103613322Y-75110000D01*
X103575999Y-75106324D01*
X103538676Y-75110000D01*
X103538667Y-75110000D01*
X103427014Y-75120997D01*
X103283753Y-75164454D01*
X103151724Y-75235026D01*
X103035999Y-75329999D01*
X103012201Y-75358997D01*
X101794998Y-76576201D01*
X101766000Y-76599999D01*
X101742202Y-76628997D01*
X101742201Y-76628998D01*
X101671026Y-76715724D01*
X101600454Y-76847754D01*
X101556998Y-76991015D01*
X101542324Y-77140000D01*
X100660000Y-77140000D01*
X100660000Y-56058000D01*
X102558324Y-56058000D01*
X102562000Y-56095323D01*
X102562001Y-61100668D01*
X102558324Y-61138000D01*
X102572998Y-61286985D01*
X102616454Y-61430246D01*
X102687026Y-61562276D01*
X102758201Y-61649002D01*
X102782000Y-61678001D01*
X102810998Y-61701799D01*
X103811000Y-62701802D01*
X103811000Y-62763939D01*
X103850774Y-62963898D01*
X103928795Y-63152256D01*
X104042063Y-63321774D01*
X104186226Y-63465937D01*
X104355744Y-63579205D01*
X104544102Y-63657226D01*
X104744061Y-63697000D01*
X104947939Y-63697000D01*
X105147898Y-63657226D01*
X105336256Y-63579205D01*
X105505774Y-63465937D01*
X105649937Y-63321774D01*
X105763205Y-63152256D01*
X105841226Y-62963898D01*
X105881000Y-62763939D01*
X105881000Y-62560061D01*
X105841226Y-62360102D01*
X105763205Y-62171744D01*
X105653622Y-62007740D01*
X136127000Y-62007740D01*
X136127000Y-62300260D01*
X136184068Y-62587158D01*
X136296010Y-62857411D01*
X136458525Y-63100632D01*
X136665368Y-63307475D01*
X136908589Y-63469990D01*
X137178842Y-63581932D01*
X137465740Y-63639000D01*
X137758260Y-63639000D01*
X138045158Y-63581932D01*
X138315411Y-63469990D01*
X138558632Y-63307475D01*
X138690487Y-63175620D01*
X138712498Y-63248180D01*
X138771463Y-63358494D01*
X138850815Y-63455185D01*
X138947506Y-63534537D01*
X139057820Y-63593502D01*
X139177518Y-63629812D01*
X139302000Y-63642072D01*
X141002000Y-63642072D01*
X141126482Y-63629812D01*
X141246180Y-63593502D01*
X141356494Y-63534537D01*
X141453185Y-63455185D01*
X141532537Y-63358494D01*
X141591502Y-63248180D01*
X141627812Y-63128482D01*
X141640072Y-63004000D01*
X141640072Y-61304000D01*
X141627812Y-61179518D01*
X141591502Y-61059820D01*
X141532537Y-60949506D01*
X141453185Y-60852815D01*
X141356494Y-60773463D01*
X141246180Y-60714498D01*
X141126482Y-60678188D01*
X141002000Y-60665928D01*
X139302000Y-60665928D01*
X139177518Y-60678188D01*
X139057820Y-60714498D01*
X138947506Y-60773463D01*
X138850815Y-60852815D01*
X138771463Y-60949506D01*
X138712498Y-61059820D01*
X138690487Y-61132380D01*
X138558632Y-61000525D01*
X138315411Y-60838010D01*
X138045158Y-60726068D01*
X137758260Y-60669000D01*
X137465740Y-60669000D01*
X137178842Y-60726068D01*
X136908589Y-60838010D01*
X136665368Y-61000525D01*
X136458525Y-61207368D01*
X136296010Y-61450589D01*
X136184068Y-61720842D01*
X136127000Y-62007740D01*
X105653622Y-62007740D01*
X105649937Y-62002226D01*
X105505774Y-61858063D01*
X105336256Y-61744795D01*
X105147898Y-61666774D01*
X104947939Y-61627000D01*
X104885802Y-61627000D01*
X104082000Y-60823199D01*
X104082000Y-58853479D01*
X104083999Y-58853676D01*
X104121322Y-58850000D01*
X104142289Y-58850000D01*
X104186226Y-58893937D01*
X104355744Y-59007205D01*
X104544102Y-59085226D01*
X104744061Y-59125000D01*
X104947939Y-59125000D01*
X105147898Y-59085226D01*
X105336256Y-59007205D01*
X105505774Y-58893937D01*
X105649937Y-58749774D01*
X105763205Y-58580256D01*
X105841226Y-58391898D01*
X105881000Y-58191939D01*
X105881000Y-57988061D01*
X105841226Y-57788102D01*
X105763205Y-57599744D01*
X105649937Y-57430226D01*
X105505774Y-57286063D01*
X105336256Y-57172795D01*
X105147898Y-57094774D01*
X104947939Y-57055000D01*
X104744061Y-57055000D01*
X104590000Y-57085644D01*
X104590000Y-56626801D01*
X106430802Y-54786000D01*
X114036678Y-54786000D01*
X114074000Y-54789676D01*
X114111322Y-54786000D01*
X114111333Y-54786000D01*
X114222986Y-54775003D01*
X114366247Y-54731546D01*
X114498276Y-54660974D01*
X114614001Y-54566001D01*
X114637804Y-54536997D01*
X116318486Y-52856315D01*
X116374795Y-52992256D01*
X116488063Y-53161774D01*
X116590289Y-53264000D01*
X116488063Y-53366226D01*
X116374795Y-53535744D01*
X116296774Y-53724102D01*
X116257000Y-53924061D01*
X116257000Y-54127939D01*
X116296774Y-54327898D01*
X116374795Y-54516256D01*
X116488063Y-54685774D01*
X116632226Y-54829937D01*
X116801744Y-54943205D01*
X116990102Y-55021226D01*
X117190061Y-55061000D01*
X117393939Y-55061000D01*
X117593898Y-55021226D01*
X117782256Y-54943205D01*
X117951774Y-54829937D01*
X117995711Y-54786000D01*
X121041199Y-54786000D01*
X122570200Y-56315002D01*
X122593999Y-56344001D01*
X122709724Y-56438974D01*
X122841753Y-56509546D01*
X122985014Y-56553003D01*
X123096667Y-56564000D01*
X123096675Y-56564000D01*
X123134000Y-56567676D01*
X123171325Y-56564000D01*
X135082849Y-56564000D01*
X135092774Y-56613898D01*
X135170795Y-56802256D01*
X135284063Y-56971774D01*
X135428226Y-57115937D01*
X135597744Y-57229205D01*
X135786102Y-57307226D01*
X135986061Y-57347000D01*
X136189939Y-57347000D01*
X136389898Y-57307226D01*
X136578256Y-57229205D01*
X136747774Y-57115937D01*
X136791711Y-57072000D01*
X149743199Y-57072000D01*
X151780200Y-59109002D01*
X151803999Y-59138001D01*
X151919724Y-59232974D01*
X152051753Y-59303546D01*
X152195014Y-59347003D01*
X152306667Y-59358000D01*
X152306676Y-59358000D01*
X152343999Y-59361676D01*
X152381322Y-59358000D01*
X159903199Y-59358000D01*
X160808790Y-60263592D01*
X160765000Y-60483740D01*
X160765000Y-60776260D01*
X160822068Y-61063158D01*
X160934010Y-61333411D01*
X161096525Y-61576632D01*
X161303368Y-61783475D01*
X161546589Y-61945990D01*
X161816842Y-62057932D01*
X162103740Y-62115000D01*
X162396260Y-62115000D01*
X162683158Y-62057932D01*
X162953411Y-61945990D01*
X163196632Y-61783475D01*
X163403475Y-61576632D01*
X163565990Y-61333411D01*
X163677932Y-61063158D01*
X163735000Y-60776260D01*
X163735000Y-60483740D01*
X163677932Y-60196842D01*
X163565990Y-59926589D01*
X163403475Y-59683368D01*
X163271620Y-59551513D01*
X163344180Y-59529502D01*
X163454494Y-59470537D01*
X163551185Y-59391185D01*
X163630537Y-59294494D01*
X163689502Y-59184180D01*
X163725812Y-59064482D01*
X163738072Y-58940000D01*
X163738072Y-57240000D01*
X163725812Y-57115518D01*
X163689502Y-56995820D01*
X163630537Y-56885506D01*
X163551185Y-56788815D01*
X163454494Y-56709463D01*
X163344180Y-56650498D01*
X163224482Y-56614188D01*
X163100000Y-56601928D01*
X161400000Y-56601928D01*
X161275518Y-56614188D01*
X161155820Y-56650498D01*
X161045506Y-56709463D01*
X160948815Y-56788815D01*
X160869463Y-56885506D01*
X160810498Y-56995820D01*
X160774188Y-57115518D01*
X160761928Y-57240000D01*
X160761928Y-57330000D01*
X153166802Y-57330000D01*
X150621804Y-54785003D01*
X150598001Y-54755999D01*
X150482276Y-54661026D01*
X150350247Y-54590454D01*
X150206986Y-54546997D01*
X150095333Y-54536000D01*
X150095322Y-54536000D01*
X150058000Y-54532324D01*
X150020678Y-54536000D01*
X140855711Y-54536000D01*
X140811774Y-54492063D01*
X140642256Y-54378795D01*
X140453898Y-54300774D01*
X140253939Y-54261000D01*
X140050061Y-54261000D01*
X139850102Y-54300774D01*
X139661744Y-54378795D01*
X139492226Y-54492063D01*
X139448289Y-54536000D01*
X123702802Y-54536000D01*
X121157804Y-51991003D01*
X121134001Y-51961999D01*
X121018276Y-51867026D01*
X120886247Y-51796454D01*
X120742986Y-51752997D01*
X120631333Y-51742000D01*
X120631322Y-51742000D01*
X120594000Y-51738324D01*
X120556678Y-51742000D01*
X117995711Y-51742000D01*
X117951774Y-51698063D01*
X117782256Y-51584795D01*
X117646316Y-51528486D01*
X118311003Y-50863799D01*
X118340001Y-50840001D01*
X118434974Y-50724276D01*
X118454326Y-50688072D01*
X118650000Y-50688072D01*
X118774482Y-50675812D01*
X118894180Y-50639502D01*
X119004494Y-50580537D01*
X119101185Y-50501185D01*
X119180537Y-50404494D01*
X119239502Y-50294180D01*
X119275812Y-50174482D01*
X119288072Y-50050000D01*
X119288072Y-49053740D01*
X121395000Y-49053740D01*
X121395000Y-49346260D01*
X121452068Y-49633158D01*
X121564010Y-49903411D01*
X121726525Y-50146632D01*
X121933368Y-50353475D01*
X122176589Y-50515990D01*
X122446842Y-50627932D01*
X122733740Y-50685000D01*
X123026260Y-50685000D01*
X123313158Y-50627932D01*
X123583411Y-50515990D01*
X123826632Y-50353475D01*
X124033475Y-50146632D01*
X124155195Y-49964466D01*
X124224822Y-50081355D01*
X124419731Y-50297588D01*
X124653080Y-50471641D01*
X124915901Y-50596825D01*
X125063110Y-50641476D01*
X125293000Y-50520155D01*
X125293000Y-49327000D01*
X125547000Y-49327000D01*
X125547000Y-50520155D01*
X125776890Y-50641476D01*
X125924099Y-50596825D01*
X126186920Y-50471641D01*
X126420269Y-50297588D01*
X126615178Y-50081355D01*
X126690000Y-49955745D01*
X126764822Y-50081355D01*
X126959731Y-50297588D01*
X127193080Y-50471641D01*
X127455901Y-50596825D01*
X127603110Y-50641476D01*
X127833000Y-50520155D01*
X127833000Y-49327000D01*
X125547000Y-49327000D01*
X125293000Y-49327000D01*
X125273000Y-49327000D01*
X125273000Y-49073000D01*
X125293000Y-49073000D01*
X125293000Y-47879845D01*
X125547000Y-47879845D01*
X125547000Y-49073000D01*
X127833000Y-49073000D01*
X127833000Y-47879845D01*
X128087000Y-47879845D01*
X128087000Y-49073000D01*
X128107000Y-49073000D01*
X128107000Y-49327000D01*
X128087000Y-49327000D01*
X128087000Y-50520155D01*
X128316890Y-50641476D01*
X128464099Y-50596825D01*
X128726920Y-50471641D01*
X128960269Y-50297588D01*
X129155178Y-50081355D01*
X129224805Y-49964466D01*
X129346525Y-50146632D01*
X129553368Y-50353475D01*
X129796589Y-50515990D01*
X130066842Y-50627932D01*
X130353740Y-50685000D01*
X130646260Y-50685000D01*
X130933158Y-50627932D01*
X131203411Y-50515990D01*
X131446632Y-50353475D01*
X131653475Y-50146632D01*
X131770000Y-49972240D01*
X131886525Y-50146632D01*
X132093368Y-50353475D01*
X132336589Y-50515990D01*
X132606842Y-50627932D01*
X132893740Y-50685000D01*
X133186260Y-50685000D01*
X133473158Y-50627932D01*
X133743411Y-50515990D01*
X133986632Y-50353475D01*
X134193475Y-50146632D01*
X134310000Y-49972240D01*
X134426525Y-50146632D01*
X134633368Y-50353475D01*
X134876589Y-50515990D01*
X135146842Y-50627932D01*
X135433740Y-50685000D01*
X135726260Y-50685000D01*
X136013158Y-50627932D01*
X136283411Y-50515990D01*
X136526632Y-50353475D01*
X136733475Y-50146632D01*
X136850000Y-49972240D01*
X136966525Y-50146632D01*
X137173368Y-50353475D01*
X137416589Y-50515990D01*
X137686842Y-50627932D01*
X137973740Y-50685000D01*
X138266260Y-50685000D01*
X138553158Y-50627932D01*
X138823411Y-50515990D01*
X139066632Y-50353475D01*
X139198487Y-50221620D01*
X139220498Y-50294180D01*
X139279463Y-50404494D01*
X139358815Y-50501185D01*
X139455506Y-50580537D01*
X139565820Y-50639502D01*
X139685518Y-50675812D01*
X139810000Y-50688072D01*
X141510000Y-50688072D01*
X141634482Y-50675812D01*
X141754180Y-50639502D01*
X141864494Y-50580537D01*
X141961185Y-50501185D01*
X142040537Y-50404494D01*
X142099502Y-50294180D01*
X142135812Y-50174482D01*
X142148072Y-50050000D01*
X142148072Y-48350000D01*
X142135812Y-48225518D01*
X142099502Y-48105820D01*
X142040537Y-47995506D01*
X141961185Y-47898815D01*
X141864494Y-47819463D01*
X141754180Y-47760498D01*
X141634482Y-47724188D01*
X141510000Y-47711928D01*
X139810000Y-47711928D01*
X139685518Y-47724188D01*
X139565820Y-47760498D01*
X139455506Y-47819463D01*
X139358815Y-47898815D01*
X139279463Y-47995506D01*
X139220498Y-48105820D01*
X139198487Y-48178380D01*
X139066632Y-48046525D01*
X138823411Y-47884010D01*
X138553158Y-47772068D01*
X138266260Y-47715000D01*
X137973740Y-47715000D01*
X137686842Y-47772068D01*
X137416589Y-47884010D01*
X137173368Y-48046525D01*
X136966525Y-48253368D01*
X136850000Y-48427760D01*
X136733475Y-48253368D01*
X136526632Y-48046525D01*
X136283411Y-47884010D01*
X136013158Y-47772068D01*
X135726260Y-47715000D01*
X135433740Y-47715000D01*
X135146842Y-47772068D01*
X134876589Y-47884010D01*
X134633368Y-48046525D01*
X134426525Y-48253368D01*
X134310000Y-48427760D01*
X134193475Y-48253368D01*
X133986632Y-48046525D01*
X133743411Y-47884010D01*
X133473158Y-47772068D01*
X133186260Y-47715000D01*
X132893740Y-47715000D01*
X132606842Y-47772068D01*
X132336589Y-47884010D01*
X132093368Y-48046525D01*
X131886525Y-48253368D01*
X131770000Y-48427760D01*
X131653475Y-48253368D01*
X131446632Y-48046525D01*
X131203411Y-47884010D01*
X130933158Y-47772068D01*
X130646260Y-47715000D01*
X130353740Y-47715000D01*
X130066842Y-47772068D01*
X129796589Y-47884010D01*
X129553368Y-48046525D01*
X129346525Y-48253368D01*
X129224805Y-48435534D01*
X129155178Y-48318645D01*
X128960269Y-48102412D01*
X128726920Y-47928359D01*
X128464099Y-47803175D01*
X128316890Y-47758524D01*
X128087000Y-47879845D01*
X127833000Y-47879845D01*
X127603110Y-47758524D01*
X127455901Y-47803175D01*
X127193080Y-47928359D01*
X126959731Y-48102412D01*
X126764822Y-48318645D01*
X126690000Y-48444255D01*
X126615178Y-48318645D01*
X126420269Y-48102412D01*
X126186920Y-47928359D01*
X125924099Y-47803175D01*
X125776890Y-47758524D01*
X125547000Y-47879845D01*
X125293000Y-47879845D01*
X125063110Y-47758524D01*
X124915901Y-47803175D01*
X124653080Y-47928359D01*
X124419731Y-48102412D01*
X124224822Y-48318645D01*
X124155195Y-48435534D01*
X124033475Y-48253368D01*
X123826632Y-48046525D01*
X123583411Y-47884010D01*
X123313158Y-47772068D01*
X123026260Y-47715000D01*
X122733740Y-47715000D01*
X122446842Y-47772068D01*
X122176589Y-47884010D01*
X121933368Y-48046525D01*
X121726525Y-48253368D01*
X121564010Y-48496589D01*
X121452068Y-48766842D01*
X121395000Y-49053740D01*
X119288072Y-49053740D01*
X119288072Y-48350000D01*
X119275812Y-48225518D01*
X119239502Y-48105820D01*
X119180537Y-47995506D01*
X119101185Y-47898815D01*
X119004494Y-47819463D01*
X118894180Y-47760498D01*
X118774482Y-47724188D01*
X118650000Y-47711928D01*
X116950000Y-47711928D01*
X116825518Y-47724188D01*
X116705820Y-47760498D01*
X116595506Y-47819463D01*
X116498815Y-47898815D01*
X116419463Y-47995506D01*
X116360498Y-48105820D01*
X116338487Y-48178380D01*
X116206632Y-48046525D01*
X115963411Y-47884010D01*
X115693158Y-47772068D01*
X115406260Y-47715000D01*
X115113740Y-47715000D01*
X114826842Y-47772068D01*
X114556589Y-47884010D01*
X114313368Y-48046525D01*
X114106525Y-48253368D01*
X113990000Y-48427760D01*
X113873475Y-48253368D01*
X113666632Y-48046525D01*
X113423411Y-47884010D01*
X113153158Y-47772068D01*
X112866260Y-47715000D01*
X112573740Y-47715000D01*
X112286842Y-47772068D01*
X112016589Y-47884010D01*
X111773368Y-48046525D01*
X111566525Y-48253368D01*
X111450000Y-48427760D01*
X111333475Y-48253368D01*
X111126632Y-48046525D01*
X110883411Y-47884010D01*
X110613158Y-47772068D01*
X110326260Y-47715000D01*
X110033740Y-47715000D01*
X109746842Y-47772068D01*
X109476589Y-47884010D01*
X109233368Y-48046525D01*
X109026525Y-48253368D01*
X108910000Y-48427760D01*
X108793475Y-48253368D01*
X108586632Y-48046525D01*
X108343411Y-47884010D01*
X108073158Y-47772068D01*
X107786260Y-47715000D01*
X107493740Y-47715000D01*
X107206842Y-47772068D01*
X106936589Y-47884010D01*
X106693368Y-48046525D01*
X106486525Y-48253368D01*
X106370000Y-48427760D01*
X106253475Y-48253368D01*
X106046632Y-48046525D01*
X105803411Y-47884010D01*
X105533158Y-47772068D01*
X105246260Y-47715000D01*
X104953740Y-47715000D01*
X104666842Y-47772068D01*
X104396589Y-47884010D01*
X104153368Y-48046525D01*
X103946525Y-48253368D01*
X103784010Y-48496589D01*
X103672068Y-48766842D01*
X103615000Y-49053740D01*
X103615000Y-49346260D01*
X103672068Y-49633158D01*
X103784010Y-49903411D01*
X103946525Y-50146632D01*
X104153368Y-50353475D01*
X104396589Y-50515990D01*
X104666842Y-50627932D01*
X104953740Y-50685000D01*
X105246260Y-50685000D01*
X105533158Y-50627932D01*
X105803411Y-50515990D01*
X106046632Y-50353475D01*
X106253475Y-50146632D01*
X106370000Y-49972240D01*
X106486525Y-50146632D01*
X106693368Y-50353475D01*
X106936589Y-50515990D01*
X107206842Y-50627932D01*
X107493740Y-50685000D01*
X107786260Y-50685000D01*
X108073158Y-50627932D01*
X108343411Y-50515990D01*
X108586632Y-50353475D01*
X108793475Y-50146632D01*
X108910000Y-49972240D01*
X109026525Y-50146632D01*
X109233368Y-50353475D01*
X109476589Y-50515990D01*
X109746842Y-50627932D01*
X110033740Y-50685000D01*
X110326260Y-50685000D01*
X110613158Y-50627932D01*
X110883411Y-50515990D01*
X111126632Y-50353475D01*
X111333475Y-50146632D01*
X111450000Y-49972240D01*
X111566525Y-50146632D01*
X111773368Y-50353475D01*
X112016589Y-50515990D01*
X112286842Y-50627932D01*
X112573740Y-50685000D01*
X112866260Y-50685000D01*
X113153158Y-50627932D01*
X113423411Y-50515990D01*
X113666632Y-50353475D01*
X113873475Y-50146632D01*
X113990000Y-49972240D01*
X114106525Y-50146632D01*
X114273586Y-50313693D01*
X111829280Y-52758000D01*
X105899322Y-52758000D01*
X105861999Y-52754324D01*
X105824676Y-52758000D01*
X105824667Y-52758000D01*
X105713014Y-52768997D01*
X105569753Y-52812454D01*
X105437724Y-52883026D01*
X105437722Y-52883027D01*
X105437723Y-52883027D01*
X105350996Y-52954201D01*
X105350992Y-52954205D01*
X105321999Y-52977999D01*
X105298205Y-53006992D01*
X102811003Y-55494196D01*
X102781999Y-55517999D01*
X102745070Y-55562998D01*
X102687026Y-55633724D01*
X102640763Y-55720276D01*
X102616454Y-55765754D01*
X102572997Y-55909015D01*
X102562000Y-56020668D01*
X102562000Y-56020678D01*
X102558324Y-56058000D01*
X100660000Y-56058000D01*
X100660000Y-47360000D01*
X167940001Y-47360000D01*
X167940000Y-99340000D01*
G36*
X128724001Y-92694803D02*
G01*
X128724000Y-96181821D01*
X128537368Y-96306525D01*
X128405513Y-96438380D01*
X128383502Y-96365820D01*
X128324537Y-96255506D01*
X128245185Y-96158815D01*
X128148494Y-96079463D01*
X128038180Y-96020498D01*
X127918482Y-95984188D01*
X127794000Y-95971928D01*
X127704000Y-95971928D01*
X127704000Y-93433325D01*
X127707676Y-93396000D01*
X127704000Y-93358675D01*
X127704000Y-93358667D01*
X127693003Y-93247014D01*
X127649546Y-93103753D01*
X127578974Y-92971724D01*
X127484001Y-92855999D01*
X127455003Y-92832201D01*
X125476801Y-90854000D01*
X126883199Y-90854000D01*
X128724001Y-92694803D01*
G37*
X128724001Y-92694803D02*
X128724000Y-96181821D01*
X128537368Y-96306525D01*
X128405513Y-96438380D01*
X128383502Y-96365820D01*
X128324537Y-96255506D01*
X128245185Y-96158815D01*
X128148494Y-96079463D01*
X128038180Y-96020498D01*
X127918482Y-95984188D01*
X127794000Y-95971928D01*
X127704000Y-95971928D01*
X127704000Y-93433325D01*
X127707676Y-93396000D01*
X127704000Y-93358675D01*
X127704000Y-93358667D01*
X127693003Y-93247014D01*
X127649546Y-93103753D01*
X127578974Y-92971724D01*
X127484001Y-92855999D01*
X127455003Y-92832201D01*
X125476801Y-90854000D01*
X126883199Y-90854000D01*
X128724001Y-92694803D01*
M02*
