G04 #@! TF.GenerationSoftware,KiCad,Pcbnew,(5.1.5)-2*
G04 #@! TF.CreationDate,2021-06-18T18:05:22+02:00*
G04 #@! TF.ProjectId,IMX_MULTIPROTOCOL,494d585f-4d55-44c5-9449-50524f544f43,rev?*
G04 #@! TF.SameCoordinates,Original*
G04 #@! TF.FileFunction,Soldermask,Top*
G04 #@! TF.FilePolarity,Negative*
%FSLAX46Y46*%
G04 Gerber Fmt 4.6, Leading zero omitted, Abs format (unit mm)*
G04 Created by KiCad (PCBNEW (5.1.5)-2) date 2021-06-18 18:05:22*
%MOMM*%
%LPD*%
G04 APERTURE LIST*
%ADD10C,0.050000*%
%ADD11C,0.100000*%
G04 APERTURE END LIST*
D10*
X100000000Y-46700000D02*
X168600000Y-46700000D01*
X168600000Y-100000000D02*
X168600000Y-46700000D01*
X100000000Y-100000000D02*
X100000000Y-46700000D01*
X100000000Y-100000000D02*
X168600000Y-100000000D01*
D11*
G36*
X149917512Y-96563927D02*
G01*
X150066812Y-96593624D01*
X150230784Y-96661544D01*
X150378354Y-96760147D01*
X150503853Y-96885646D01*
X150602456Y-97033216D01*
X150670376Y-97197188D01*
X150705000Y-97371259D01*
X150705000Y-97548741D01*
X150670376Y-97722812D01*
X150602456Y-97886784D01*
X150503853Y-98034354D01*
X150378354Y-98159853D01*
X150230784Y-98258456D01*
X150066812Y-98326376D01*
X149917512Y-98356073D01*
X149892742Y-98361000D01*
X149715258Y-98361000D01*
X149690488Y-98356073D01*
X149541188Y-98326376D01*
X149377216Y-98258456D01*
X149229646Y-98159853D01*
X149104147Y-98034354D01*
X149005544Y-97886784D01*
X148937624Y-97722812D01*
X148903000Y-97548741D01*
X148903000Y-97371259D01*
X148937624Y-97197188D01*
X149005544Y-97033216D01*
X149104147Y-96885646D01*
X149229646Y-96760147D01*
X149377216Y-96661544D01*
X149541188Y-96593624D01*
X149690488Y-96563927D01*
X149715258Y-96559000D01*
X149892742Y-96559000D01*
X149917512Y-96563927D01*
G37*
G36*
X127845000Y-98361000D02*
G01*
X126043000Y-98361000D01*
X126043000Y-96559000D01*
X127845000Y-96559000D01*
X127845000Y-98361000D01*
G37*
G36*
X106001000Y-98361000D02*
G01*
X104199000Y-98361000D01*
X104199000Y-96559000D01*
X106001000Y-96559000D01*
X106001000Y-98361000D01*
G37*
G36*
X107753512Y-96563927D02*
G01*
X107902812Y-96593624D01*
X108066784Y-96661544D01*
X108214354Y-96760147D01*
X108339853Y-96885646D01*
X108438456Y-97033216D01*
X108506376Y-97197188D01*
X108541000Y-97371259D01*
X108541000Y-97548741D01*
X108506376Y-97722812D01*
X108438456Y-97886784D01*
X108339853Y-98034354D01*
X108214354Y-98159853D01*
X108066784Y-98258456D01*
X107902812Y-98326376D01*
X107753512Y-98356073D01*
X107728742Y-98361000D01*
X107551258Y-98361000D01*
X107526488Y-98356073D01*
X107377188Y-98326376D01*
X107213216Y-98258456D01*
X107065646Y-98159853D01*
X106940147Y-98034354D01*
X106841544Y-97886784D01*
X106773624Y-97722812D01*
X106739000Y-97548741D01*
X106739000Y-97371259D01*
X106773624Y-97197188D01*
X106841544Y-97033216D01*
X106940147Y-96885646D01*
X107065646Y-96760147D01*
X107213216Y-96661544D01*
X107377188Y-96593624D01*
X107526488Y-96563927D01*
X107551258Y-96559000D01*
X107728742Y-96559000D01*
X107753512Y-96563927D01*
G37*
G36*
X110293512Y-96563927D02*
G01*
X110442812Y-96593624D01*
X110606784Y-96661544D01*
X110754354Y-96760147D01*
X110879853Y-96885646D01*
X110978456Y-97033216D01*
X111046376Y-97197188D01*
X111081000Y-97371259D01*
X111081000Y-97548741D01*
X111046376Y-97722812D01*
X110978456Y-97886784D01*
X110879853Y-98034354D01*
X110754354Y-98159853D01*
X110606784Y-98258456D01*
X110442812Y-98326376D01*
X110293512Y-98356073D01*
X110268742Y-98361000D01*
X110091258Y-98361000D01*
X110066488Y-98356073D01*
X109917188Y-98326376D01*
X109753216Y-98258456D01*
X109605646Y-98159853D01*
X109480147Y-98034354D01*
X109381544Y-97886784D01*
X109313624Y-97722812D01*
X109279000Y-97548741D01*
X109279000Y-97371259D01*
X109313624Y-97197188D01*
X109381544Y-97033216D01*
X109480147Y-96885646D01*
X109605646Y-96760147D01*
X109753216Y-96661544D01*
X109917188Y-96593624D01*
X110066488Y-96563927D01*
X110091258Y-96559000D01*
X110268742Y-96559000D01*
X110293512Y-96563927D01*
G37*
G36*
X112833512Y-96563927D02*
G01*
X112982812Y-96593624D01*
X113146784Y-96661544D01*
X113294354Y-96760147D01*
X113419853Y-96885646D01*
X113518456Y-97033216D01*
X113586376Y-97197188D01*
X113621000Y-97371259D01*
X113621000Y-97548741D01*
X113586376Y-97722812D01*
X113518456Y-97886784D01*
X113419853Y-98034354D01*
X113294354Y-98159853D01*
X113146784Y-98258456D01*
X112982812Y-98326376D01*
X112833512Y-98356073D01*
X112808742Y-98361000D01*
X112631258Y-98361000D01*
X112606488Y-98356073D01*
X112457188Y-98326376D01*
X112293216Y-98258456D01*
X112145646Y-98159853D01*
X112020147Y-98034354D01*
X111921544Y-97886784D01*
X111853624Y-97722812D01*
X111819000Y-97548741D01*
X111819000Y-97371259D01*
X111853624Y-97197188D01*
X111921544Y-97033216D01*
X112020147Y-96885646D01*
X112145646Y-96760147D01*
X112293216Y-96661544D01*
X112457188Y-96593624D01*
X112606488Y-96563927D01*
X112631258Y-96559000D01*
X112808742Y-96559000D01*
X112833512Y-96563927D01*
G37*
G36*
X115373512Y-96563927D02*
G01*
X115522812Y-96593624D01*
X115686784Y-96661544D01*
X115834354Y-96760147D01*
X115959853Y-96885646D01*
X116058456Y-97033216D01*
X116126376Y-97197188D01*
X116161000Y-97371259D01*
X116161000Y-97548741D01*
X116126376Y-97722812D01*
X116058456Y-97886784D01*
X115959853Y-98034354D01*
X115834354Y-98159853D01*
X115686784Y-98258456D01*
X115522812Y-98326376D01*
X115373512Y-98356073D01*
X115348742Y-98361000D01*
X115171258Y-98361000D01*
X115146488Y-98356073D01*
X114997188Y-98326376D01*
X114833216Y-98258456D01*
X114685646Y-98159853D01*
X114560147Y-98034354D01*
X114461544Y-97886784D01*
X114393624Y-97722812D01*
X114359000Y-97548741D01*
X114359000Y-97371259D01*
X114393624Y-97197188D01*
X114461544Y-97033216D01*
X114560147Y-96885646D01*
X114685646Y-96760147D01*
X114833216Y-96661544D01*
X114997188Y-96593624D01*
X115146488Y-96563927D01*
X115171258Y-96559000D01*
X115348742Y-96559000D01*
X115373512Y-96563927D01*
G37*
G36*
X117913512Y-96563927D02*
G01*
X118062812Y-96593624D01*
X118226784Y-96661544D01*
X118374354Y-96760147D01*
X118499853Y-96885646D01*
X118598456Y-97033216D01*
X118666376Y-97197188D01*
X118701000Y-97371259D01*
X118701000Y-97548741D01*
X118666376Y-97722812D01*
X118598456Y-97886784D01*
X118499853Y-98034354D01*
X118374354Y-98159853D01*
X118226784Y-98258456D01*
X118062812Y-98326376D01*
X117913512Y-98356073D01*
X117888742Y-98361000D01*
X117711258Y-98361000D01*
X117686488Y-98356073D01*
X117537188Y-98326376D01*
X117373216Y-98258456D01*
X117225646Y-98159853D01*
X117100147Y-98034354D01*
X117001544Y-97886784D01*
X116933624Y-97722812D01*
X116899000Y-97548741D01*
X116899000Y-97371259D01*
X116933624Y-97197188D01*
X117001544Y-97033216D01*
X117100147Y-96885646D01*
X117225646Y-96760147D01*
X117373216Y-96661544D01*
X117537188Y-96593624D01*
X117686488Y-96563927D01*
X117711258Y-96559000D01*
X117888742Y-96559000D01*
X117913512Y-96563927D01*
G37*
G36*
X120453512Y-96563927D02*
G01*
X120602812Y-96593624D01*
X120766784Y-96661544D01*
X120914354Y-96760147D01*
X121039853Y-96885646D01*
X121138456Y-97033216D01*
X121206376Y-97197188D01*
X121241000Y-97371259D01*
X121241000Y-97548741D01*
X121206376Y-97722812D01*
X121138456Y-97886784D01*
X121039853Y-98034354D01*
X120914354Y-98159853D01*
X120766784Y-98258456D01*
X120602812Y-98326376D01*
X120453512Y-98356073D01*
X120428742Y-98361000D01*
X120251258Y-98361000D01*
X120226488Y-98356073D01*
X120077188Y-98326376D01*
X119913216Y-98258456D01*
X119765646Y-98159853D01*
X119640147Y-98034354D01*
X119541544Y-97886784D01*
X119473624Y-97722812D01*
X119439000Y-97548741D01*
X119439000Y-97371259D01*
X119473624Y-97197188D01*
X119541544Y-97033216D01*
X119640147Y-96885646D01*
X119765646Y-96760147D01*
X119913216Y-96661544D01*
X120077188Y-96593624D01*
X120226488Y-96563927D01*
X120251258Y-96559000D01*
X120428742Y-96559000D01*
X120453512Y-96563927D01*
G37*
G36*
X122993512Y-96563927D02*
G01*
X123142812Y-96593624D01*
X123306784Y-96661544D01*
X123454354Y-96760147D01*
X123579853Y-96885646D01*
X123678456Y-97033216D01*
X123746376Y-97197188D01*
X123781000Y-97371259D01*
X123781000Y-97548741D01*
X123746376Y-97722812D01*
X123678456Y-97886784D01*
X123579853Y-98034354D01*
X123454354Y-98159853D01*
X123306784Y-98258456D01*
X123142812Y-98326376D01*
X122993512Y-98356073D01*
X122968742Y-98361000D01*
X122791258Y-98361000D01*
X122766488Y-98356073D01*
X122617188Y-98326376D01*
X122453216Y-98258456D01*
X122305646Y-98159853D01*
X122180147Y-98034354D01*
X122081544Y-97886784D01*
X122013624Y-97722812D01*
X121979000Y-97548741D01*
X121979000Y-97371259D01*
X122013624Y-97197188D01*
X122081544Y-97033216D01*
X122180147Y-96885646D01*
X122305646Y-96760147D01*
X122453216Y-96661544D01*
X122617188Y-96593624D01*
X122766488Y-96563927D01*
X122791258Y-96559000D01*
X122968742Y-96559000D01*
X122993512Y-96563927D01*
G37*
G36*
X132137512Y-96563927D02*
G01*
X132286812Y-96593624D01*
X132450784Y-96661544D01*
X132598354Y-96760147D01*
X132723853Y-96885646D01*
X132822456Y-97033216D01*
X132890376Y-97197188D01*
X132925000Y-97371259D01*
X132925000Y-97548741D01*
X132890376Y-97722812D01*
X132822456Y-97886784D01*
X132723853Y-98034354D01*
X132598354Y-98159853D01*
X132450784Y-98258456D01*
X132286812Y-98326376D01*
X132137512Y-98356073D01*
X132112742Y-98361000D01*
X131935258Y-98361000D01*
X131910488Y-98356073D01*
X131761188Y-98326376D01*
X131597216Y-98258456D01*
X131449646Y-98159853D01*
X131324147Y-98034354D01*
X131225544Y-97886784D01*
X131157624Y-97722812D01*
X131123000Y-97548741D01*
X131123000Y-97371259D01*
X131157624Y-97197188D01*
X131225544Y-97033216D01*
X131324147Y-96885646D01*
X131449646Y-96760147D01*
X131597216Y-96661544D01*
X131761188Y-96593624D01*
X131910488Y-96563927D01*
X131935258Y-96559000D01*
X132112742Y-96559000D01*
X132137512Y-96563927D01*
G37*
G36*
X129597512Y-96563927D02*
G01*
X129746812Y-96593624D01*
X129910784Y-96661544D01*
X130058354Y-96760147D01*
X130183853Y-96885646D01*
X130282456Y-97033216D01*
X130350376Y-97197188D01*
X130385000Y-97371259D01*
X130385000Y-97548741D01*
X130350376Y-97722812D01*
X130282456Y-97886784D01*
X130183853Y-98034354D01*
X130058354Y-98159853D01*
X129910784Y-98258456D01*
X129746812Y-98326376D01*
X129597512Y-98356073D01*
X129572742Y-98361000D01*
X129395258Y-98361000D01*
X129370488Y-98356073D01*
X129221188Y-98326376D01*
X129057216Y-98258456D01*
X128909646Y-98159853D01*
X128784147Y-98034354D01*
X128685544Y-97886784D01*
X128617624Y-97722812D01*
X128583000Y-97548741D01*
X128583000Y-97371259D01*
X128617624Y-97197188D01*
X128685544Y-97033216D01*
X128784147Y-96885646D01*
X128909646Y-96760147D01*
X129057216Y-96661544D01*
X129221188Y-96593624D01*
X129370488Y-96563927D01*
X129395258Y-96559000D01*
X129572742Y-96559000D01*
X129597512Y-96563927D01*
G37*
G36*
X147377512Y-96563927D02*
G01*
X147526812Y-96593624D01*
X147690784Y-96661544D01*
X147838354Y-96760147D01*
X147963853Y-96885646D01*
X148062456Y-97033216D01*
X148130376Y-97197188D01*
X148165000Y-97371259D01*
X148165000Y-97548741D01*
X148130376Y-97722812D01*
X148062456Y-97886784D01*
X147963853Y-98034354D01*
X147838354Y-98159853D01*
X147690784Y-98258456D01*
X147526812Y-98326376D01*
X147377512Y-98356073D01*
X147352742Y-98361000D01*
X147175258Y-98361000D01*
X147150488Y-98356073D01*
X147001188Y-98326376D01*
X146837216Y-98258456D01*
X146689646Y-98159853D01*
X146564147Y-98034354D01*
X146465544Y-97886784D01*
X146397624Y-97722812D01*
X146363000Y-97548741D01*
X146363000Y-97371259D01*
X146397624Y-97197188D01*
X146465544Y-97033216D01*
X146564147Y-96885646D01*
X146689646Y-96760147D01*
X146837216Y-96661544D01*
X147001188Y-96593624D01*
X147150488Y-96563927D01*
X147175258Y-96559000D01*
X147352742Y-96559000D01*
X147377512Y-96563927D01*
G37*
G36*
X144837512Y-96563927D02*
G01*
X144986812Y-96593624D01*
X145150784Y-96661544D01*
X145298354Y-96760147D01*
X145423853Y-96885646D01*
X145522456Y-97033216D01*
X145590376Y-97197188D01*
X145625000Y-97371259D01*
X145625000Y-97548741D01*
X145590376Y-97722812D01*
X145522456Y-97886784D01*
X145423853Y-98034354D01*
X145298354Y-98159853D01*
X145150784Y-98258456D01*
X144986812Y-98326376D01*
X144837512Y-98356073D01*
X144812742Y-98361000D01*
X144635258Y-98361000D01*
X144610488Y-98356073D01*
X144461188Y-98326376D01*
X144297216Y-98258456D01*
X144149646Y-98159853D01*
X144024147Y-98034354D01*
X143925544Y-97886784D01*
X143857624Y-97722812D01*
X143823000Y-97548741D01*
X143823000Y-97371259D01*
X143857624Y-97197188D01*
X143925544Y-97033216D01*
X144024147Y-96885646D01*
X144149646Y-96760147D01*
X144297216Y-96661544D01*
X144461188Y-96593624D01*
X144610488Y-96563927D01*
X144635258Y-96559000D01*
X144812742Y-96559000D01*
X144837512Y-96563927D01*
G37*
G36*
X142297512Y-96563927D02*
G01*
X142446812Y-96593624D01*
X142610784Y-96661544D01*
X142758354Y-96760147D01*
X142883853Y-96885646D01*
X142982456Y-97033216D01*
X143050376Y-97197188D01*
X143085000Y-97371259D01*
X143085000Y-97548741D01*
X143050376Y-97722812D01*
X142982456Y-97886784D01*
X142883853Y-98034354D01*
X142758354Y-98159853D01*
X142610784Y-98258456D01*
X142446812Y-98326376D01*
X142297512Y-98356073D01*
X142272742Y-98361000D01*
X142095258Y-98361000D01*
X142070488Y-98356073D01*
X141921188Y-98326376D01*
X141757216Y-98258456D01*
X141609646Y-98159853D01*
X141484147Y-98034354D01*
X141385544Y-97886784D01*
X141317624Y-97722812D01*
X141283000Y-97548741D01*
X141283000Y-97371259D01*
X141317624Y-97197188D01*
X141385544Y-97033216D01*
X141484147Y-96885646D01*
X141609646Y-96760147D01*
X141757216Y-96661544D01*
X141921188Y-96593624D01*
X142070488Y-96563927D01*
X142095258Y-96559000D01*
X142272742Y-96559000D01*
X142297512Y-96563927D01*
G37*
G36*
X139757512Y-96563927D02*
G01*
X139906812Y-96593624D01*
X140070784Y-96661544D01*
X140218354Y-96760147D01*
X140343853Y-96885646D01*
X140442456Y-97033216D01*
X140510376Y-97197188D01*
X140545000Y-97371259D01*
X140545000Y-97548741D01*
X140510376Y-97722812D01*
X140442456Y-97886784D01*
X140343853Y-98034354D01*
X140218354Y-98159853D01*
X140070784Y-98258456D01*
X139906812Y-98326376D01*
X139757512Y-98356073D01*
X139732742Y-98361000D01*
X139555258Y-98361000D01*
X139530488Y-98356073D01*
X139381188Y-98326376D01*
X139217216Y-98258456D01*
X139069646Y-98159853D01*
X138944147Y-98034354D01*
X138845544Y-97886784D01*
X138777624Y-97722812D01*
X138743000Y-97548741D01*
X138743000Y-97371259D01*
X138777624Y-97197188D01*
X138845544Y-97033216D01*
X138944147Y-96885646D01*
X139069646Y-96760147D01*
X139217216Y-96661544D01*
X139381188Y-96593624D01*
X139530488Y-96563927D01*
X139555258Y-96559000D01*
X139732742Y-96559000D01*
X139757512Y-96563927D01*
G37*
G36*
X137217512Y-96563927D02*
G01*
X137366812Y-96593624D01*
X137530784Y-96661544D01*
X137678354Y-96760147D01*
X137803853Y-96885646D01*
X137902456Y-97033216D01*
X137970376Y-97197188D01*
X138005000Y-97371259D01*
X138005000Y-97548741D01*
X137970376Y-97722812D01*
X137902456Y-97886784D01*
X137803853Y-98034354D01*
X137678354Y-98159853D01*
X137530784Y-98258456D01*
X137366812Y-98326376D01*
X137217512Y-98356073D01*
X137192742Y-98361000D01*
X137015258Y-98361000D01*
X136990488Y-98356073D01*
X136841188Y-98326376D01*
X136677216Y-98258456D01*
X136529646Y-98159853D01*
X136404147Y-98034354D01*
X136305544Y-97886784D01*
X136237624Y-97722812D01*
X136203000Y-97548741D01*
X136203000Y-97371259D01*
X136237624Y-97197188D01*
X136305544Y-97033216D01*
X136404147Y-96885646D01*
X136529646Y-96760147D01*
X136677216Y-96661544D01*
X136841188Y-96593624D01*
X136990488Y-96563927D01*
X137015258Y-96559000D01*
X137192742Y-96559000D01*
X137217512Y-96563927D01*
G37*
G36*
X134677512Y-96563927D02*
G01*
X134826812Y-96593624D01*
X134990784Y-96661544D01*
X135138354Y-96760147D01*
X135263853Y-96885646D01*
X135362456Y-97033216D01*
X135430376Y-97197188D01*
X135465000Y-97371259D01*
X135465000Y-97548741D01*
X135430376Y-97722812D01*
X135362456Y-97886784D01*
X135263853Y-98034354D01*
X135138354Y-98159853D01*
X134990784Y-98258456D01*
X134826812Y-98326376D01*
X134677512Y-98356073D01*
X134652742Y-98361000D01*
X134475258Y-98361000D01*
X134450488Y-98356073D01*
X134301188Y-98326376D01*
X134137216Y-98258456D01*
X133989646Y-98159853D01*
X133864147Y-98034354D01*
X133765544Y-97886784D01*
X133697624Y-97722812D01*
X133663000Y-97548741D01*
X133663000Y-97371259D01*
X133697624Y-97197188D01*
X133765544Y-97033216D01*
X133864147Y-96885646D01*
X133989646Y-96760147D01*
X134137216Y-96661544D01*
X134301188Y-96593624D01*
X134450488Y-96563927D01*
X134475258Y-96559000D01*
X134652742Y-96559000D01*
X134677512Y-96563927D01*
G37*
G36*
X162363512Y-90213927D02*
G01*
X162512812Y-90243624D01*
X162676784Y-90311544D01*
X162824354Y-90410147D01*
X162949853Y-90535646D01*
X163048456Y-90683216D01*
X163116376Y-90847188D01*
X163151000Y-91021259D01*
X163151000Y-91198741D01*
X163116376Y-91372812D01*
X163048456Y-91536784D01*
X162949853Y-91684354D01*
X162824354Y-91809853D01*
X162676784Y-91908456D01*
X162512812Y-91976376D01*
X162363512Y-92006073D01*
X162338742Y-92011000D01*
X162161258Y-92011000D01*
X162136488Y-92006073D01*
X161987188Y-91976376D01*
X161823216Y-91908456D01*
X161675646Y-91809853D01*
X161550147Y-91684354D01*
X161451544Y-91536784D01*
X161383624Y-91372812D01*
X161349000Y-91198741D01*
X161349000Y-91021259D01*
X161383624Y-90847188D01*
X161451544Y-90683216D01*
X161550147Y-90535646D01*
X161675646Y-90410147D01*
X161823216Y-90311544D01*
X161987188Y-90243624D01*
X162136488Y-90213927D01*
X162161258Y-90209000D01*
X162338742Y-90209000D01*
X162363512Y-90213927D01*
G37*
G36*
X156895642Y-90339781D02*
G01*
X157025248Y-90393466D01*
X157041416Y-90400163D01*
X157172608Y-90487822D01*
X157284178Y-90599392D01*
X157305413Y-90631173D01*
X157371838Y-90730586D01*
X157432219Y-90876358D01*
X157463000Y-91031107D01*
X157463000Y-91188893D01*
X157432219Y-91343642D01*
X157420136Y-91372812D01*
X157371837Y-91489416D01*
X157284178Y-91620608D01*
X157172608Y-91732178D01*
X157041416Y-91819837D01*
X157041415Y-91819838D01*
X157041414Y-91819838D01*
X156895642Y-91880219D01*
X156740893Y-91911000D01*
X156583107Y-91911000D01*
X156428358Y-91880219D01*
X156282586Y-91819838D01*
X156282585Y-91819838D01*
X156282584Y-91819837D01*
X156151392Y-91732178D01*
X156039822Y-91620608D01*
X155952163Y-91489416D01*
X155903864Y-91372812D01*
X155891781Y-91343642D01*
X155861000Y-91188893D01*
X155861000Y-91031107D01*
X155891781Y-90876358D01*
X155952162Y-90730586D01*
X156018587Y-90631173D01*
X156039822Y-90599392D01*
X156151392Y-90487822D01*
X156282584Y-90400163D01*
X156298752Y-90393466D01*
X156428358Y-90339781D01*
X156583107Y-90309000D01*
X156740893Y-90309000D01*
X156895642Y-90339781D01*
G37*
G36*
X150258674Y-90363465D02*
G01*
X150296367Y-90374899D01*
X150331103Y-90393466D01*
X150361548Y-90418452D01*
X150386534Y-90448897D01*
X150405101Y-90483633D01*
X150416535Y-90521326D01*
X150421000Y-90566661D01*
X150421000Y-91653339D01*
X150416535Y-91698674D01*
X150405101Y-91736367D01*
X150386534Y-91771103D01*
X150361548Y-91801548D01*
X150331103Y-91826534D01*
X150296367Y-91845101D01*
X150258674Y-91856535D01*
X150213339Y-91861000D01*
X149376661Y-91861000D01*
X149331326Y-91856535D01*
X149293633Y-91845101D01*
X149258897Y-91826534D01*
X149228452Y-91801548D01*
X149203466Y-91771103D01*
X149184899Y-91736367D01*
X149173465Y-91698674D01*
X149169000Y-91653339D01*
X149169000Y-90566661D01*
X149173465Y-90521326D01*
X149184899Y-90483633D01*
X149203466Y-90448897D01*
X149228452Y-90418452D01*
X149258897Y-90393466D01*
X149293633Y-90374899D01*
X149331326Y-90363465D01*
X149376661Y-90359000D01*
X150213339Y-90359000D01*
X150258674Y-90363465D01*
G37*
G36*
X152308674Y-90363465D02*
G01*
X152346367Y-90374899D01*
X152381103Y-90393466D01*
X152411548Y-90418452D01*
X152436534Y-90448897D01*
X152455101Y-90483633D01*
X152466535Y-90521326D01*
X152471000Y-90566661D01*
X152471000Y-91653339D01*
X152466535Y-91698674D01*
X152455101Y-91736367D01*
X152436534Y-91771103D01*
X152411548Y-91801548D01*
X152381103Y-91826534D01*
X152346367Y-91845101D01*
X152308674Y-91856535D01*
X152263339Y-91861000D01*
X151426661Y-91861000D01*
X151381326Y-91856535D01*
X151343633Y-91845101D01*
X151308897Y-91826534D01*
X151278452Y-91801548D01*
X151253466Y-91771103D01*
X151234899Y-91736367D01*
X151223465Y-91698674D01*
X151219000Y-91653339D01*
X151219000Y-90566661D01*
X151223465Y-90521326D01*
X151234899Y-90483633D01*
X151253466Y-90448897D01*
X151278452Y-90418452D01*
X151308897Y-90393466D01*
X151343633Y-90374899D01*
X151381326Y-90363465D01*
X151426661Y-90359000D01*
X152263339Y-90359000D01*
X152308674Y-90363465D01*
G37*
G36*
X162363512Y-87673927D02*
G01*
X162512812Y-87703624D01*
X162676784Y-87771544D01*
X162824354Y-87870147D01*
X162949853Y-87995646D01*
X163048456Y-88143216D01*
X163116376Y-88307188D01*
X163151000Y-88481259D01*
X163151000Y-88658741D01*
X163116376Y-88832812D01*
X163048456Y-88996784D01*
X162949853Y-89144354D01*
X162824354Y-89269853D01*
X162676784Y-89368456D01*
X162512812Y-89436376D01*
X162363512Y-89466073D01*
X162338742Y-89471000D01*
X162161258Y-89471000D01*
X162136488Y-89466073D01*
X161987188Y-89436376D01*
X161823216Y-89368456D01*
X161675646Y-89269853D01*
X161550147Y-89144354D01*
X161451544Y-88996784D01*
X161383624Y-88832812D01*
X161349000Y-88658741D01*
X161349000Y-88481259D01*
X161383624Y-88307188D01*
X161451544Y-88143216D01*
X161550147Y-87995646D01*
X161675646Y-87870147D01*
X161823216Y-87771544D01*
X161987188Y-87703624D01*
X162136488Y-87673927D01*
X162161258Y-87669000D01*
X162338742Y-87669000D01*
X162363512Y-87673927D01*
G37*
G36*
X156895642Y-87799781D02*
G01*
X157025248Y-87853466D01*
X157041416Y-87860163D01*
X157172608Y-87947822D01*
X157284178Y-88059392D01*
X157305413Y-88091173D01*
X157371838Y-88190586D01*
X157432219Y-88336358D01*
X157463000Y-88491107D01*
X157463000Y-88648893D01*
X157432219Y-88803642D01*
X157420136Y-88832812D01*
X157371837Y-88949416D01*
X157284178Y-89080608D01*
X157172608Y-89192178D01*
X157041416Y-89279837D01*
X157041415Y-89279838D01*
X157041414Y-89279838D01*
X156895642Y-89340219D01*
X156740893Y-89371000D01*
X156583107Y-89371000D01*
X156428358Y-89340219D01*
X156282586Y-89279838D01*
X156282585Y-89279838D01*
X156282584Y-89279837D01*
X156151392Y-89192178D01*
X156039822Y-89080608D01*
X155952163Y-88949416D01*
X155903864Y-88832812D01*
X155891781Y-88803642D01*
X155861000Y-88648893D01*
X155861000Y-88491107D01*
X155891781Y-88336358D01*
X155952162Y-88190586D01*
X156018587Y-88091173D01*
X156039822Y-88059392D01*
X156151392Y-87947822D01*
X156282584Y-87860163D01*
X156298752Y-87853466D01*
X156428358Y-87799781D01*
X156583107Y-87769000D01*
X156740893Y-87769000D01*
X156895642Y-87799781D01*
G37*
G36*
X152308674Y-87823465D02*
G01*
X152346367Y-87834899D01*
X152381103Y-87853466D01*
X152411548Y-87878452D01*
X152436534Y-87908897D01*
X152455101Y-87943633D01*
X152466535Y-87981326D01*
X152471000Y-88026661D01*
X152471000Y-89113339D01*
X152466535Y-89158674D01*
X152455101Y-89196367D01*
X152436534Y-89231103D01*
X152411548Y-89261548D01*
X152381103Y-89286534D01*
X152346367Y-89305101D01*
X152308674Y-89316535D01*
X152263339Y-89321000D01*
X151426661Y-89321000D01*
X151381326Y-89316535D01*
X151343633Y-89305101D01*
X151308897Y-89286534D01*
X151278452Y-89261548D01*
X151253466Y-89231103D01*
X151234899Y-89196367D01*
X151223465Y-89158674D01*
X151219000Y-89113339D01*
X151219000Y-88026661D01*
X151223465Y-87981326D01*
X151234899Y-87943633D01*
X151253466Y-87908897D01*
X151278452Y-87878452D01*
X151308897Y-87853466D01*
X151343633Y-87834899D01*
X151381326Y-87823465D01*
X151426661Y-87819000D01*
X152263339Y-87819000D01*
X152308674Y-87823465D01*
G37*
G36*
X150258674Y-87823465D02*
G01*
X150296367Y-87834899D01*
X150331103Y-87853466D01*
X150361548Y-87878452D01*
X150386534Y-87908897D01*
X150405101Y-87943633D01*
X150416535Y-87981326D01*
X150421000Y-88026661D01*
X150421000Y-89113339D01*
X150416535Y-89158674D01*
X150405101Y-89196367D01*
X150386534Y-89231103D01*
X150361548Y-89261548D01*
X150331103Y-89286534D01*
X150296367Y-89305101D01*
X150258674Y-89316535D01*
X150213339Y-89321000D01*
X149376661Y-89321000D01*
X149331326Y-89316535D01*
X149293633Y-89305101D01*
X149258897Y-89286534D01*
X149228452Y-89261548D01*
X149203466Y-89231103D01*
X149184899Y-89196367D01*
X149173465Y-89158674D01*
X149169000Y-89113339D01*
X149169000Y-88026661D01*
X149173465Y-87981326D01*
X149184899Y-87943633D01*
X149203466Y-87908897D01*
X149228452Y-87878452D01*
X149258897Y-87853466D01*
X149293633Y-87834899D01*
X149331326Y-87823465D01*
X149376661Y-87819000D01*
X150213339Y-87819000D01*
X150258674Y-87823465D01*
G37*
G36*
X162363512Y-85133927D02*
G01*
X162512812Y-85163624D01*
X162676784Y-85231544D01*
X162824354Y-85330147D01*
X162949853Y-85455646D01*
X163048456Y-85603216D01*
X163116376Y-85767188D01*
X163151000Y-85941259D01*
X163151000Y-86118741D01*
X163116376Y-86292812D01*
X163048456Y-86456784D01*
X162949853Y-86604354D01*
X162824354Y-86729853D01*
X162676784Y-86828456D01*
X162512812Y-86896376D01*
X162363512Y-86926073D01*
X162338742Y-86931000D01*
X162161258Y-86931000D01*
X162136488Y-86926073D01*
X161987188Y-86896376D01*
X161823216Y-86828456D01*
X161675646Y-86729853D01*
X161550147Y-86604354D01*
X161451544Y-86456784D01*
X161383624Y-86292812D01*
X161349000Y-86118741D01*
X161349000Y-85941259D01*
X161383624Y-85767188D01*
X161451544Y-85603216D01*
X161550147Y-85455646D01*
X161675646Y-85330147D01*
X161823216Y-85231544D01*
X161987188Y-85163624D01*
X162136488Y-85133927D01*
X162161258Y-85129000D01*
X162338742Y-85129000D01*
X162363512Y-85133927D01*
G37*
G36*
X156895642Y-85259781D02*
G01*
X157025248Y-85313466D01*
X157041416Y-85320163D01*
X157172608Y-85407822D01*
X157284178Y-85519392D01*
X157305413Y-85551173D01*
X157371838Y-85650586D01*
X157432219Y-85796358D01*
X157463000Y-85951107D01*
X157463000Y-86108893D01*
X157432219Y-86263642D01*
X157420136Y-86292812D01*
X157371837Y-86409416D01*
X157284178Y-86540608D01*
X157172608Y-86652178D01*
X157041416Y-86739837D01*
X157041415Y-86739838D01*
X157041414Y-86739838D01*
X156895642Y-86800219D01*
X156740893Y-86831000D01*
X156583107Y-86831000D01*
X156428358Y-86800219D01*
X156282586Y-86739838D01*
X156282585Y-86739838D01*
X156282584Y-86739837D01*
X156151392Y-86652178D01*
X156039822Y-86540608D01*
X155952163Y-86409416D01*
X155903864Y-86292812D01*
X155891781Y-86263642D01*
X155861000Y-86108893D01*
X155861000Y-85951107D01*
X155891781Y-85796358D01*
X155952162Y-85650586D01*
X156018587Y-85551173D01*
X156039822Y-85519392D01*
X156151392Y-85407822D01*
X156282584Y-85320163D01*
X156298752Y-85313466D01*
X156428358Y-85259781D01*
X156583107Y-85229000D01*
X156740893Y-85229000D01*
X156895642Y-85259781D01*
G37*
G36*
X109128674Y-85283465D02*
G01*
X109166367Y-85294899D01*
X109201103Y-85313466D01*
X109231548Y-85338452D01*
X109256534Y-85368897D01*
X109275101Y-85403633D01*
X109286535Y-85441326D01*
X109291000Y-85486661D01*
X109291000Y-86573339D01*
X109286535Y-86618674D01*
X109275101Y-86656367D01*
X109256534Y-86691103D01*
X109231548Y-86721548D01*
X109201103Y-86746534D01*
X109166367Y-86765101D01*
X109128674Y-86776535D01*
X109083339Y-86781000D01*
X108246661Y-86781000D01*
X108201326Y-86776535D01*
X108163633Y-86765101D01*
X108128897Y-86746534D01*
X108098452Y-86721548D01*
X108073466Y-86691103D01*
X108054899Y-86656367D01*
X108043465Y-86618674D01*
X108039000Y-86573339D01*
X108039000Y-85486661D01*
X108043465Y-85441326D01*
X108054899Y-85403633D01*
X108073466Y-85368897D01*
X108098452Y-85338452D01*
X108128897Y-85313466D01*
X108163633Y-85294899D01*
X108201326Y-85283465D01*
X108246661Y-85279000D01*
X109083339Y-85279000D01*
X109128674Y-85283465D01*
G37*
G36*
X116748674Y-85283465D02*
G01*
X116786367Y-85294899D01*
X116821103Y-85313466D01*
X116851548Y-85338452D01*
X116876534Y-85368897D01*
X116895101Y-85403633D01*
X116906535Y-85441326D01*
X116911000Y-85486661D01*
X116911000Y-86573339D01*
X116906535Y-86618674D01*
X116895101Y-86656367D01*
X116876534Y-86691103D01*
X116851548Y-86721548D01*
X116821103Y-86746534D01*
X116786367Y-86765101D01*
X116748674Y-86776535D01*
X116703339Y-86781000D01*
X115866661Y-86781000D01*
X115821326Y-86776535D01*
X115783633Y-86765101D01*
X115748897Y-86746534D01*
X115718452Y-86721548D01*
X115693466Y-86691103D01*
X115674899Y-86656367D01*
X115663465Y-86618674D01*
X115659000Y-86573339D01*
X115659000Y-85486661D01*
X115663465Y-85441326D01*
X115674899Y-85403633D01*
X115693466Y-85368897D01*
X115718452Y-85338452D01*
X115748897Y-85313466D01*
X115783633Y-85294899D01*
X115821326Y-85283465D01*
X115866661Y-85279000D01*
X116703339Y-85279000D01*
X116748674Y-85283465D01*
G37*
G36*
X114698674Y-85283465D02*
G01*
X114736367Y-85294899D01*
X114771103Y-85313466D01*
X114801548Y-85338452D01*
X114826534Y-85368897D01*
X114845101Y-85403633D01*
X114856535Y-85441326D01*
X114861000Y-85486661D01*
X114861000Y-86573339D01*
X114856535Y-86618674D01*
X114845101Y-86656367D01*
X114826534Y-86691103D01*
X114801548Y-86721548D01*
X114771103Y-86746534D01*
X114736367Y-86765101D01*
X114698674Y-86776535D01*
X114653339Y-86781000D01*
X113816661Y-86781000D01*
X113771326Y-86776535D01*
X113733633Y-86765101D01*
X113698897Y-86746534D01*
X113668452Y-86721548D01*
X113643466Y-86691103D01*
X113624899Y-86656367D01*
X113613465Y-86618674D01*
X113609000Y-86573339D01*
X113609000Y-85486661D01*
X113613465Y-85441326D01*
X113624899Y-85403633D01*
X113643466Y-85368897D01*
X113668452Y-85338452D01*
X113698897Y-85313466D01*
X113733633Y-85294899D01*
X113771326Y-85283465D01*
X113816661Y-85279000D01*
X114653339Y-85279000D01*
X114698674Y-85283465D01*
G37*
G36*
X152308674Y-85283465D02*
G01*
X152346367Y-85294899D01*
X152381103Y-85313466D01*
X152411548Y-85338452D01*
X152436534Y-85368897D01*
X152455101Y-85403633D01*
X152466535Y-85441326D01*
X152471000Y-85486661D01*
X152471000Y-86573339D01*
X152466535Y-86618674D01*
X152455101Y-86656367D01*
X152436534Y-86691103D01*
X152411548Y-86721548D01*
X152381103Y-86746534D01*
X152346367Y-86765101D01*
X152308674Y-86776535D01*
X152263339Y-86781000D01*
X151426661Y-86781000D01*
X151381326Y-86776535D01*
X151343633Y-86765101D01*
X151308897Y-86746534D01*
X151278452Y-86721548D01*
X151253466Y-86691103D01*
X151234899Y-86656367D01*
X151223465Y-86618674D01*
X151219000Y-86573339D01*
X151219000Y-85486661D01*
X151223465Y-85441326D01*
X151234899Y-85403633D01*
X151253466Y-85368897D01*
X151278452Y-85338452D01*
X151308897Y-85313466D01*
X151343633Y-85294899D01*
X151381326Y-85283465D01*
X151426661Y-85279000D01*
X152263339Y-85279000D01*
X152308674Y-85283465D01*
G37*
G36*
X150258674Y-85283465D02*
G01*
X150296367Y-85294899D01*
X150331103Y-85313466D01*
X150361548Y-85338452D01*
X150386534Y-85368897D01*
X150405101Y-85403633D01*
X150416535Y-85441326D01*
X150421000Y-85486661D01*
X150421000Y-86573339D01*
X150416535Y-86618674D01*
X150405101Y-86656367D01*
X150386534Y-86691103D01*
X150361548Y-86721548D01*
X150331103Y-86746534D01*
X150296367Y-86765101D01*
X150258674Y-86776535D01*
X150213339Y-86781000D01*
X149376661Y-86781000D01*
X149331326Y-86776535D01*
X149293633Y-86765101D01*
X149258897Y-86746534D01*
X149228452Y-86721548D01*
X149203466Y-86691103D01*
X149184899Y-86656367D01*
X149173465Y-86618674D01*
X149169000Y-86573339D01*
X149169000Y-85486661D01*
X149173465Y-85441326D01*
X149184899Y-85403633D01*
X149203466Y-85368897D01*
X149228452Y-85338452D01*
X149258897Y-85313466D01*
X149293633Y-85294899D01*
X149331326Y-85283465D01*
X149376661Y-85279000D01*
X150213339Y-85279000D01*
X150258674Y-85283465D01*
G37*
G36*
X107078674Y-85283465D02*
G01*
X107116367Y-85294899D01*
X107151103Y-85313466D01*
X107181548Y-85338452D01*
X107206534Y-85368897D01*
X107225101Y-85403633D01*
X107236535Y-85441326D01*
X107241000Y-85486661D01*
X107241000Y-86573339D01*
X107236535Y-86618674D01*
X107225101Y-86656367D01*
X107206534Y-86691103D01*
X107181548Y-86721548D01*
X107151103Y-86746534D01*
X107116367Y-86765101D01*
X107078674Y-86776535D01*
X107033339Y-86781000D01*
X106196661Y-86781000D01*
X106151326Y-86776535D01*
X106113633Y-86765101D01*
X106078897Y-86746534D01*
X106048452Y-86721548D01*
X106023466Y-86691103D01*
X106004899Y-86656367D01*
X105993465Y-86618674D01*
X105989000Y-86573339D01*
X105989000Y-85486661D01*
X105993465Y-85441326D01*
X106004899Y-85403633D01*
X106023466Y-85368897D01*
X106048452Y-85338452D01*
X106078897Y-85313466D01*
X106113633Y-85294899D01*
X106151326Y-85283465D01*
X106196661Y-85279000D01*
X107033339Y-85279000D01*
X107078674Y-85283465D01*
G37*
G36*
X163151000Y-84391000D02*
G01*
X161349000Y-84391000D01*
X161349000Y-82589000D01*
X163151000Y-82589000D01*
X163151000Y-84391000D01*
G37*
G36*
X156895642Y-82719781D02*
G01*
X157025248Y-82773466D01*
X157041416Y-82780163D01*
X157172608Y-82867822D01*
X157284178Y-82979392D01*
X157305413Y-83011173D01*
X157371838Y-83110586D01*
X157432219Y-83256358D01*
X157463000Y-83411107D01*
X157463000Y-83568893D01*
X157432219Y-83723642D01*
X157371838Y-83869414D01*
X157371837Y-83869416D01*
X157284178Y-84000608D01*
X157172608Y-84112178D01*
X157041416Y-84199837D01*
X157041415Y-84199838D01*
X157041414Y-84199838D01*
X156895642Y-84260219D01*
X156740893Y-84291000D01*
X156583107Y-84291000D01*
X156428358Y-84260219D01*
X156282586Y-84199838D01*
X156282585Y-84199838D01*
X156282584Y-84199837D01*
X156151392Y-84112178D01*
X156039822Y-84000608D01*
X155952163Y-83869416D01*
X155952162Y-83869414D01*
X155891781Y-83723642D01*
X155861000Y-83568893D01*
X155861000Y-83411107D01*
X155891781Y-83256358D01*
X155952162Y-83110586D01*
X156018587Y-83011173D01*
X156039822Y-82979392D01*
X156151392Y-82867822D01*
X156282584Y-82780163D01*
X156298752Y-82773466D01*
X156428358Y-82719781D01*
X156583107Y-82689000D01*
X156740893Y-82689000D01*
X156895642Y-82719781D01*
G37*
G36*
X150258674Y-82743465D02*
G01*
X150296367Y-82754899D01*
X150331103Y-82773466D01*
X150361548Y-82798452D01*
X150386534Y-82828897D01*
X150405101Y-82863633D01*
X150416535Y-82901326D01*
X150421000Y-82946661D01*
X150421000Y-84033339D01*
X150416535Y-84078674D01*
X150405101Y-84116367D01*
X150386534Y-84151103D01*
X150361548Y-84181548D01*
X150331103Y-84206534D01*
X150296367Y-84225101D01*
X150258674Y-84236535D01*
X150213339Y-84241000D01*
X149376661Y-84241000D01*
X149331326Y-84236535D01*
X149293633Y-84225101D01*
X149258897Y-84206534D01*
X149228452Y-84181548D01*
X149203466Y-84151103D01*
X149184899Y-84116367D01*
X149173465Y-84078674D01*
X149169000Y-84033339D01*
X149169000Y-82946661D01*
X149173465Y-82901326D01*
X149184899Y-82863633D01*
X149203466Y-82828897D01*
X149228452Y-82798452D01*
X149258897Y-82773466D01*
X149293633Y-82754899D01*
X149331326Y-82743465D01*
X149376661Y-82739000D01*
X150213339Y-82739000D01*
X150258674Y-82743465D01*
G37*
G36*
X152308674Y-82743465D02*
G01*
X152346367Y-82754899D01*
X152381103Y-82773466D01*
X152411548Y-82798452D01*
X152436534Y-82828897D01*
X152455101Y-82863633D01*
X152466535Y-82901326D01*
X152471000Y-82946661D01*
X152471000Y-84033339D01*
X152466535Y-84078674D01*
X152455101Y-84116367D01*
X152436534Y-84151103D01*
X152411548Y-84181548D01*
X152381103Y-84206534D01*
X152346367Y-84225101D01*
X152308674Y-84236535D01*
X152263339Y-84241000D01*
X151426661Y-84241000D01*
X151381326Y-84236535D01*
X151343633Y-84225101D01*
X151308897Y-84206534D01*
X151278452Y-84181548D01*
X151253466Y-84151103D01*
X151234899Y-84116367D01*
X151223465Y-84078674D01*
X151219000Y-84033339D01*
X151219000Y-82946661D01*
X151223465Y-82901326D01*
X151234899Y-82863633D01*
X151253466Y-82828897D01*
X151278452Y-82798452D01*
X151308897Y-82773466D01*
X151343633Y-82754899D01*
X151381326Y-82743465D01*
X151426661Y-82739000D01*
X152263339Y-82739000D01*
X152308674Y-82743465D01*
G37*
G36*
X109128674Y-80203465D02*
G01*
X109166367Y-80214899D01*
X109201103Y-80233466D01*
X109231548Y-80258452D01*
X109256534Y-80288897D01*
X109275101Y-80323633D01*
X109286535Y-80361326D01*
X109291000Y-80406661D01*
X109291000Y-81493339D01*
X109286535Y-81538674D01*
X109275101Y-81576367D01*
X109256534Y-81611103D01*
X109231548Y-81641548D01*
X109201103Y-81666534D01*
X109166367Y-81685101D01*
X109128674Y-81696535D01*
X109083339Y-81701000D01*
X108246661Y-81701000D01*
X108201326Y-81696535D01*
X108163633Y-81685101D01*
X108128897Y-81666534D01*
X108098452Y-81641548D01*
X108073466Y-81611103D01*
X108054899Y-81576367D01*
X108043465Y-81538674D01*
X108039000Y-81493339D01*
X108039000Y-80406661D01*
X108043465Y-80361326D01*
X108054899Y-80323633D01*
X108073466Y-80288897D01*
X108098452Y-80258452D01*
X108128897Y-80233466D01*
X108163633Y-80214899D01*
X108201326Y-80203465D01*
X108246661Y-80199000D01*
X109083339Y-80199000D01*
X109128674Y-80203465D01*
G37*
G36*
X114698674Y-80203465D02*
G01*
X114736367Y-80214899D01*
X114771103Y-80233466D01*
X114801548Y-80258452D01*
X114826534Y-80288897D01*
X114845101Y-80323633D01*
X114856535Y-80361326D01*
X114861000Y-80406661D01*
X114861000Y-81493339D01*
X114856535Y-81538674D01*
X114845101Y-81576367D01*
X114826534Y-81611103D01*
X114801548Y-81641548D01*
X114771103Y-81666534D01*
X114736367Y-81685101D01*
X114698674Y-81696535D01*
X114653339Y-81701000D01*
X113816661Y-81701000D01*
X113771326Y-81696535D01*
X113733633Y-81685101D01*
X113698897Y-81666534D01*
X113668452Y-81641548D01*
X113643466Y-81611103D01*
X113624899Y-81576367D01*
X113613465Y-81538674D01*
X113609000Y-81493339D01*
X113609000Y-80406661D01*
X113613465Y-80361326D01*
X113624899Y-80323633D01*
X113643466Y-80288897D01*
X113668452Y-80258452D01*
X113698897Y-80233466D01*
X113733633Y-80214899D01*
X113771326Y-80203465D01*
X113816661Y-80199000D01*
X114653339Y-80199000D01*
X114698674Y-80203465D01*
G37*
G36*
X107078674Y-80203465D02*
G01*
X107116367Y-80214899D01*
X107151103Y-80233466D01*
X107181548Y-80258452D01*
X107206534Y-80288897D01*
X107225101Y-80323633D01*
X107236535Y-80361326D01*
X107241000Y-80406661D01*
X107241000Y-81493339D01*
X107236535Y-81538674D01*
X107225101Y-81576367D01*
X107206534Y-81611103D01*
X107181548Y-81641548D01*
X107151103Y-81666534D01*
X107116367Y-81685101D01*
X107078674Y-81696535D01*
X107033339Y-81701000D01*
X106196661Y-81701000D01*
X106151326Y-81696535D01*
X106113633Y-81685101D01*
X106078897Y-81666534D01*
X106048452Y-81641548D01*
X106023466Y-81611103D01*
X106004899Y-81576367D01*
X105993465Y-81538674D01*
X105989000Y-81493339D01*
X105989000Y-80406661D01*
X105993465Y-80361326D01*
X106004899Y-80323633D01*
X106023466Y-80288897D01*
X106048452Y-80258452D01*
X106078897Y-80233466D01*
X106113633Y-80214899D01*
X106151326Y-80203465D01*
X106196661Y-80199000D01*
X107033339Y-80199000D01*
X107078674Y-80203465D01*
G37*
G36*
X116748674Y-80203465D02*
G01*
X116786367Y-80214899D01*
X116821103Y-80233466D01*
X116851548Y-80258452D01*
X116876534Y-80288897D01*
X116895101Y-80323633D01*
X116906535Y-80361326D01*
X116911000Y-80406661D01*
X116911000Y-81493339D01*
X116906535Y-81538674D01*
X116895101Y-81576367D01*
X116876534Y-81611103D01*
X116851548Y-81641548D01*
X116821103Y-81666534D01*
X116786367Y-81685101D01*
X116748674Y-81696535D01*
X116703339Y-81701000D01*
X115866661Y-81701000D01*
X115821326Y-81696535D01*
X115783633Y-81685101D01*
X115748897Y-81666534D01*
X115718452Y-81641548D01*
X115693466Y-81611103D01*
X115674899Y-81576367D01*
X115663465Y-81538674D01*
X115659000Y-81493339D01*
X115659000Y-80406661D01*
X115663465Y-80361326D01*
X115674899Y-80323633D01*
X115693466Y-80288897D01*
X115718452Y-80258452D01*
X115748897Y-80233466D01*
X115783633Y-80214899D01*
X115821326Y-80203465D01*
X115866661Y-80199000D01*
X116703339Y-80199000D01*
X116748674Y-80203465D01*
G37*
G36*
X109128674Y-75123465D02*
G01*
X109166367Y-75134899D01*
X109201103Y-75153466D01*
X109231548Y-75178452D01*
X109256534Y-75208897D01*
X109275101Y-75243633D01*
X109286535Y-75281326D01*
X109291000Y-75326661D01*
X109291000Y-76413339D01*
X109286535Y-76458674D01*
X109275101Y-76496367D01*
X109256534Y-76531103D01*
X109231548Y-76561548D01*
X109201103Y-76586534D01*
X109166367Y-76605101D01*
X109128674Y-76616535D01*
X109083339Y-76621000D01*
X108246661Y-76621000D01*
X108201326Y-76616535D01*
X108163633Y-76605101D01*
X108128897Y-76586534D01*
X108098452Y-76561548D01*
X108073466Y-76531103D01*
X108054899Y-76496367D01*
X108043465Y-76458674D01*
X108039000Y-76413339D01*
X108039000Y-75326661D01*
X108043465Y-75281326D01*
X108054899Y-75243633D01*
X108073466Y-75208897D01*
X108098452Y-75178452D01*
X108128897Y-75153466D01*
X108163633Y-75134899D01*
X108201326Y-75123465D01*
X108246661Y-75119000D01*
X109083339Y-75119000D01*
X109128674Y-75123465D01*
G37*
G36*
X114698674Y-75123465D02*
G01*
X114736367Y-75134899D01*
X114771103Y-75153466D01*
X114801548Y-75178452D01*
X114826534Y-75208897D01*
X114845101Y-75243633D01*
X114856535Y-75281326D01*
X114861000Y-75326661D01*
X114861000Y-76413339D01*
X114856535Y-76458674D01*
X114845101Y-76496367D01*
X114826534Y-76531103D01*
X114801548Y-76561548D01*
X114771103Y-76586534D01*
X114736367Y-76605101D01*
X114698674Y-76616535D01*
X114653339Y-76621000D01*
X113816661Y-76621000D01*
X113771326Y-76616535D01*
X113733633Y-76605101D01*
X113698897Y-76586534D01*
X113668452Y-76561548D01*
X113643466Y-76531103D01*
X113624899Y-76496367D01*
X113613465Y-76458674D01*
X113609000Y-76413339D01*
X113609000Y-75326661D01*
X113613465Y-75281326D01*
X113624899Y-75243633D01*
X113643466Y-75208897D01*
X113668452Y-75178452D01*
X113698897Y-75153466D01*
X113733633Y-75134899D01*
X113771326Y-75123465D01*
X113816661Y-75119000D01*
X114653339Y-75119000D01*
X114698674Y-75123465D01*
G37*
G36*
X116748674Y-75123465D02*
G01*
X116786367Y-75134899D01*
X116821103Y-75153466D01*
X116851548Y-75178452D01*
X116876534Y-75208897D01*
X116895101Y-75243633D01*
X116906535Y-75281326D01*
X116911000Y-75326661D01*
X116911000Y-76413339D01*
X116906535Y-76458674D01*
X116895101Y-76496367D01*
X116876534Y-76531103D01*
X116851548Y-76561548D01*
X116821103Y-76586534D01*
X116786367Y-76605101D01*
X116748674Y-76616535D01*
X116703339Y-76621000D01*
X115866661Y-76621000D01*
X115821326Y-76616535D01*
X115783633Y-76605101D01*
X115748897Y-76586534D01*
X115718452Y-76561548D01*
X115693466Y-76531103D01*
X115674899Y-76496367D01*
X115663465Y-76458674D01*
X115659000Y-76413339D01*
X115659000Y-75326661D01*
X115663465Y-75281326D01*
X115674899Y-75243633D01*
X115693466Y-75208897D01*
X115718452Y-75178452D01*
X115748897Y-75153466D01*
X115783633Y-75134899D01*
X115821326Y-75123465D01*
X115866661Y-75119000D01*
X116703339Y-75119000D01*
X116748674Y-75123465D01*
G37*
G36*
X107078674Y-75123465D02*
G01*
X107116367Y-75134899D01*
X107151103Y-75153466D01*
X107181548Y-75178452D01*
X107206534Y-75208897D01*
X107225101Y-75243633D01*
X107236535Y-75281326D01*
X107241000Y-75326661D01*
X107241000Y-76413339D01*
X107236535Y-76458674D01*
X107225101Y-76496367D01*
X107206534Y-76531103D01*
X107181548Y-76561548D01*
X107151103Y-76586534D01*
X107116367Y-76605101D01*
X107078674Y-76616535D01*
X107033339Y-76621000D01*
X106196661Y-76621000D01*
X106151326Y-76616535D01*
X106113633Y-76605101D01*
X106078897Y-76586534D01*
X106048452Y-76561548D01*
X106023466Y-76531103D01*
X106004899Y-76496367D01*
X105993465Y-76458674D01*
X105989000Y-76413339D01*
X105989000Y-75326661D01*
X105993465Y-75281326D01*
X106004899Y-75243633D01*
X106023466Y-75208897D01*
X106048452Y-75178452D01*
X106078897Y-75153466D01*
X106113633Y-75134899D01*
X106151326Y-75123465D01*
X106196661Y-75119000D01*
X107033339Y-75119000D01*
X107078674Y-75123465D01*
G37*
G36*
X162363512Y-73449927D02*
G01*
X162512812Y-73479624D01*
X162676784Y-73547544D01*
X162824354Y-73646147D01*
X162949853Y-73771646D01*
X163048456Y-73919216D01*
X163116376Y-74083188D01*
X163151000Y-74257259D01*
X163151000Y-74434741D01*
X163116376Y-74608812D01*
X163048456Y-74772784D01*
X162949853Y-74920354D01*
X162824354Y-75045853D01*
X162676784Y-75144456D01*
X162512812Y-75212376D01*
X162374124Y-75239962D01*
X162338742Y-75247000D01*
X162161258Y-75247000D01*
X162125876Y-75239962D01*
X161987188Y-75212376D01*
X161823216Y-75144456D01*
X161675646Y-75045853D01*
X161550147Y-74920354D01*
X161451544Y-74772784D01*
X161383624Y-74608812D01*
X161349000Y-74434741D01*
X161349000Y-74257259D01*
X161383624Y-74083188D01*
X161451544Y-73919216D01*
X161550147Y-73771646D01*
X161675646Y-73646147D01*
X161823216Y-73547544D01*
X161987188Y-73479624D01*
X162136488Y-73449927D01*
X162161258Y-73445000D01*
X162338742Y-73445000D01*
X162363512Y-73449927D01*
G37*
G36*
X156895642Y-73575781D02*
G01*
X157025248Y-73629466D01*
X157041416Y-73636163D01*
X157172608Y-73723822D01*
X157284178Y-73835392D01*
X157305413Y-73867173D01*
X157371838Y-73966586D01*
X157432219Y-74112358D01*
X157463000Y-74267107D01*
X157463000Y-74424893D01*
X157432219Y-74579642D01*
X157420136Y-74608812D01*
X157371837Y-74725416D01*
X157284178Y-74856608D01*
X157172608Y-74968178D01*
X157041416Y-75055837D01*
X157041415Y-75055838D01*
X157041414Y-75055838D01*
X156895642Y-75116219D01*
X156740893Y-75147000D01*
X156583107Y-75147000D01*
X156428358Y-75116219D01*
X156282586Y-75055838D01*
X156282585Y-75055838D01*
X156282584Y-75055837D01*
X156151392Y-74968178D01*
X156039822Y-74856608D01*
X155952163Y-74725416D01*
X155903864Y-74608812D01*
X155891781Y-74579642D01*
X155861000Y-74424893D01*
X155861000Y-74267107D01*
X155891781Y-74112358D01*
X155952162Y-73966586D01*
X156018587Y-73867173D01*
X156039822Y-73835392D01*
X156151392Y-73723822D01*
X156282584Y-73636163D01*
X156298752Y-73629466D01*
X156428358Y-73575781D01*
X156583107Y-73545000D01*
X156740893Y-73545000D01*
X156895642Y-73575781D01*
G37*
G36*
X150258674Y-73599465D02*
G01*
X150296367Y-73610899D01*
X150331103Y-73629466D01*
X150361548Y-73654452D01*
X150386534Y-73684897D01*
X150405101Y-73719633D01*
X150416535Y-73757326D01*
X150421000Y-73802661D01*
X150421000Y-74889339D01*
X150416535Y-74934674D01*
X150405101Y-74972367D01*
X150386534Y-75007103D01*
X150361548Y-75037548D01*
X150331103Y-75062534D01*
X150296367Y-75081101D01*
X150258674Y-75092535D01*
X150213339Y-75097000D01*
X149376661Y-75097000D01*
X149331326Y-75092535D01*
X149293633Y-75081101D01*
X149258897Y-75062534D01*
X149228452Y-75037548D01*
X149203466Y-75007103D01*
X149184899Y-74972367D01*
X149173465Y-74934674D01*
X149169000Y-74889339D01*
X149169000Y-73802661D01*
X149173465Y-73757326D01*
X149184899Y-73719633D01*
X149203466Y-73684897D01*
X149228452Y-73654452D01*
X149258897Y-73629466D01*
X149293633Y-73610899D01*
X149331326Y-73599465D01*
X149376661Y-73595000D01*
X150213339Y-73595000D01*
X150258674Y-73599465D01*
G37*
G36*
X152308674Y-73599465D02*
G01*
X152346367Y-73610899D01*
X152381103Y-73629466D01*
X152411548Y-73654452D01*
X152436534Y-73684897D01*
X152455101Y-73719633D01*
X152466535Y-73757326D01*
X152471000Y-73802661D01*
X152471000Y-74889339D01*
X152466535Y-74934674D01*
X152455101Y-74972367D01*
X152436534Y-75007103D01*
X152411548Y-75037548D01*
X152381103Y-75062534D01*
X152346367Y-75081101D01*
X152308674Y-75092535D01*
X152263339Y-75097000D01*
X151426661Y-75097000D01*
X151381326Y-75092535D01*
X151343633Y-75081101D01*
X151308897Y-75062534D01*
X151278452Y-75037548D01*
X151253466Y-75007103D01*
X151234899Y-74972367D01*
X151223465Y-74934674D01*
X151219000Y-74889339D01*
X151219000Y-73802661D01*
X151223465Y-73757326D01*
X151234899Y-73719633D01*
X151253466Y-73684897D01*
X151278452Y-73654452D01*
X151308897Y-73629466D01*
X151343633Y-73610899D01*
X151381326Y-73599465D01*
X151426661Y-73595000D01*
X152263339Y-73595000D01*
X152308674Y-73599465D01*
G37*
G36*
X163151000Y-72707000D02*
G01*
X161349000Y-72707000D01*
X161349000Y-70905000D01*
X163151000Y-70905000D01*
X163151000Y-72707000D01*
G37*
G36*
X156895642Y-71035781D02*
G01*
X157025248Y-71089466D01*
X157041416Y-71096163D01*
X157172608Y-71183822D01*
X157284178Y-71295392D01*
X157305413Y-71327173D01*
X157371838Y-71426586D01*
X157432219Y-71572358D01*
X157463000Y-71727107D01*
X157463000Y-71884893D01*
X157432219Y-72039642D01*
X157371838Y-72185414D01*
X157371837Y-72185416D01*
X157284178Y-72316608D01*
X157172608Y-72428178D01*
X157041416Y-72515837D01*
X157041415Y-72515838D01*
X157041414Y-72515838D01*
X156895642Y-72576219D01*
X156740893Y-72607000D01*
X156583107Y-72607000D01*
X156428358Y-72576219D01*
X156282586Y-72515838D01*
X156282585Y-72515838D01*
X156282584Y-72515837D01*
X156151392Y-72428178D01*
X156039822Y-72316608D01*
X155952163Y-72185416D01*
X155952162Y-72185414D01*
X155891781Y-72039642D01*
X155861000Y-71884893D01*
X155861000Y-71727107D01*
X155891781Y-71572358D01*
X155952162Y-71426586D01*
X156018587Y-71327173D01*
X156039822Y-71295392D01*
X156151392Y-71183822D01*
X156282584Y-71096163D01*
X156298752Y-71089466D01*
X156428358Y-71035781D01*
X156583107Y-71005000D01*
X156740893Y-71005000D01*
X156895642Y-71035781D01*
G37*
G36*
X152308674Y-71059465D02*
G01*
X152346367Y-71070899D01*
X152381103Y-71089466D01*
X152411548Y-71114452D01*
X152436534Y-71144897D01*
X152455101Y-71179633D01*
X152466535Y-71217326D01*
X152471000Y-71262661D01*
X152471000Y-72349339D01*
X152466535Y-72394674D01*
X152455101Y-72432367D01*
X152436534Y-72467103D01*
X152411548Y-72497548D01*
X152381103Y-72522534D01*
X152346367Y-72541101D01*
X152308674Y-72552535D01*
X152263339Y-72557000D01*
X151426661Y-72557000D01*
X151381326Y-72552535D01*
X151343633Y-72541101D01*
X151308897Y-72522534D01*
X151278452Y-72497548D01*
X151253466Y-72467103D01*
X151234899Y-72432367D01*
X151223465Y-72394674D01*
X151219000Y-72349339D01*
X151219000Y-71262661D01*
X151223465Y-71217326D01*
X151234899Y-71179633D01*
X151253466Y-71144897D01*
X151278452Y-71114452D01*
X151308897Y-71089466D01*
X151343633Y-71070899D01*
X151381326Y-71059465D01*
X151426661Y-71055000D01*
X152263339Y-71055000D01*
X152308674Y-71059465D01*
G37*
G36*
X150258674Y-71059465D02*
G01*
X150296367Y-71070899D01*
X150331103Y-71089466D01*
X150361548Y-71114452D01*
X150386534Y-71144897D01*
X150405101Y-71179633D01*
X150416535Y-71217326D01*
X150421000Y-71262661D01*
X150421000Y-72349339D01*
X150416535Y-72394674D01*
X150405101Y-72432367D01*
X150386534Y-72467103D01*
X150361548Y-72497548D01*
X150331103Y-72522534D01*
X150296367Y-72541101D01*
X150258674Y-72552535D01*
X150213339Y-72557000D01*
X149376661Y-72557000D01*
X149331326Y-72552535D01*
X149293633Y-72541101D01*
X149258897Y-72522534D01*
X149228452Y-72497548D01*
X149203466Y-72467103D01*
X149184899Y-72432367D01*
X149173465Y-72394674D01*
X149169000Y-72349339D01*
X149169000Y-71262661D01*
X149173465Y-71217326D01*
X149184899Y-71179633D01*
X149203466Y-71144897D01*
X149228452Y-71114452D01*
X149258897Y-71089466D01*
X149293633Y-71070899D01*
X149331326Y-71059465D01*
X149376661Y-71055000D01*
X150213339Y-71055000D01*
X150258674Y-71059465D01*
G37*
G36*
X109128674Y-61915465D02*
G01*
X109166367Y-61926899D01*
X109201103Y-61945466D01*
X109231548Y-61970452D01*
X109256534Y-62000897D01*
X109275101Y-62035633D01*
X109286535Y-62073326D01*
X109291000Y-62118661D01*
X109291000Y-63205339D01*
X109286535Y-63250674D01*
X109275101Y-63288367D01*
X109256534Y-63323103D01*
X109231548Y-63353548D01*
X109201103Y-63378534D01*
X109166367Y-63397101D01*
X109128674Y-63408535D01*
X109083339Y-63413000D01*
X108246661Y-63413000D01*
X108201326Y-63408535D01*
X108163633Y-63397101D01*
X108128897Y-63378534D01*
X108098452Y-63353548D01*
X108073466Y-63323103D01*
X108054899Y-63288367D01*
X108043465Y-63250674D01*
X108039000Y-63205339D01*
X108039000Y-62118661D01*
X108043465Y-62073326D01*
X108054899Y-62035633D01*
X108073466Y-62000897D01*
X108098452Y-61970452D01*
X108128897Y-61945466D01*
X108163633Y-61926899D01*
X108201326Y-61915465D01*
X108246661Y-61911000D01*
X109083339Y-61911000D01*
X109128674Y-61915465D01*
G37*
G36*
X107078674Y-61915465D02*
G01*
X107116367Y-61926899D01*
X107151103Y-61945466D01*
X107181548Y-61970452D01*
X107206534Y-62000897D01*
X107225101Y-62035633D01*
X107236535Y-62073326D01*
X107241000Y-62118661D01*
X107241000Y-63205339D01*
X107236535Y-63250674D01*
X107225101Y-63288367D01*
X107206534Y-63323103D01*
X107181548Y-63353548D01*
X107151103Y-63378534D01*
X107116367Y-63397101D01*
X107078674Y-63408535D01*
X107033339Y-63413000D01*
X106196661Y-63413000D01*
X106151326Y-63408535D01*
X106113633Y-63397101D01*
X106078897Y-63378534D01*
X106048452Y-63353548D01*
X106023466Y-63323103D01*
X106004899Y-63288367D01*
X105993465Y-63250674D01*
X105989000Y-63205339D01*
X105989000Y-62118661D01*
X105993465Y-62073326D01*
X106004899Y-62035633D01*
X106023466Y-62000897D01*
X106048452Y-61970452D01*
X106078897Y-61945466D01*
X106113633Y-61926899D01*
X106151326Y-61915465D01*
X106196661Y-61911000D01*
X107033339Y-61911000D01*
X107078674Y-61915465D01*
G37*
G36*
X114698674Y-61915465D02*
G01*
X114736367Y-61926899D01*
X114771103Y-61945466D01*
X114801548Y-61970452D01*
X114826534Y-62000897D01*
X114845101Y-62035633D01*
X114856535Y-62073326D01*
X114861000Y-62118661D01*
X114861000Y-63205339D01*
X114856535Y-63250674D01*
X114845101Y-63288367D01*
X114826534Y-63323103D01*
X114801548Y-63353548D01*
X114771103Y-63378534D01*
X114736367Y-63397101D01*
X114698674Y-63408535D01*
X114653339Y-63413000D01*
X113816661Y-63413000D01*
X113771326Y-63408535D01*
X113733633Y-63397101D01*
X113698897Y-63378534D01*
X113668452Y-63353548D01*
X113643466Y-63323103D01*
X113624899Y-63288367D01*
X113613465Y-63250674D01*
X113609000Y-63205339D01*
X113609000Y-62118661D01*
X113613465Y-62073326D01*
X113624899Y-62035633D01*
X113643466Y-62000897D01*
X113668452Y-61970452D01*
X113698897Y-61945466D01*
X113733633Y-61926899D01*
X113771326Y-61915465D01*
X113816661Y-61911000D01*
X114653339Y-61911000D01*
X114698674Y-61915465D01*
G37*
G36*
X116748674Y-61915465D02*
G01*
X116786367Y-61926899D01*
X116821103Y-61945466D01*
X116851548Y-61970452D01*
X116876534Y-62000897D01*
X116895101Y-62035633D01*
X116906535Y-62073326D01*
X116911000Y-62118661D01*
X116911000Y-63205339D01*
X116906535Y-63250674D01*
X116895101Y-63288367D01*
X116876534Y-63323103D01*
X116851548Y-63353548D01*
X116821103Y-63378534D01*
X116786367Y-63397101D01*
X116748674Y-63408535D01*
X116703339Y-63413000D01*
X115866661Y-63413000D01*
X115821326Y-63408535D01*
X115783633Y-63397101D01*
X115748897Y-63378534D01*
X115718452Y-63353548D01*
X115693466Y-63323103D01*
X115674899Y-63288367D01*
X115663465Y-63250674D01*
X115659000Y-63205339D01*
X115659000Y-62118661D01*
X115663465Y-62073326D01*
X115674899Y-62035633D01*
X115693466Y-62000897D01*
X115718452Y-61970452D01*
X115748897Y-61945466D01*
X115783633Y-61926899D01*
X115821326Y-61915465D01*
X115866661Y-61911000D01*
X116703339Y-61911000D01*
X116748674Y-61915465D01*
G37*
G36*
X137725512Y-61257927D02*
G01*
X137874812Y-61287624D01*
X138038784Y-61355544D01*
X138186354Y-61454147D01*
X138311853Y-61579646D01*
X138410456Y-61727216D01*
X138478376Y-61891188D01*
X138513000Y-62065259D01*
X138513000Y-62242741D01*
X138478376Y-62416812D01*
X138410456Y-62580784D01*
X138311853Y-62728354D01*
X138186354Y-62853853D01*
X138038784Y-62952456D01*
X137874812Y-63020376D01*
X137725512Y-63050073D01*
X137700742Y-63055000D01*
X137523258Y-63055000D01*
X137498488Y-63050073D01*
X137349188Y-63020376D01*
X137185216Y-62952456D01*
X137037646Y-62853853D01*
X136912147Y-62728354D01*
X136813544Y-62580784D01*
X136745624Y-62416812D01*
X136711000Y-62242741D01*
X136711000Y-62065259D01*
X136745624Y-61891188D01*
X136813544Y-61727216D01*
X136912147Y-61579646D01*
X137037646Y-61454147D01*
X137185216Y-61355544D01*
X137349188Y-61287624D01*
X137498488Y-61257927D01*
X137523258Y-61253000D01*
X137700742Y-61253000D01*
X137725512Y-61257927D01*
G37*
G36*
X141053000Y-63055000D02*
G01*
X139251000Y-63055000D01*
X139251000Y-61253000D01*
X141053000Y-61253000D01*
X141053000Y-63055000D01*
G37*
G36*
X162363512Y-59733927D02*
G01*
X162512812Y-59763624D01*
X162676784Y-59831544D01*
X162824354Y-59930147D01*
X162949853Y-60055646D01*
X163048456Y-60203216D01*
X163116376Y-60367188D01*
X163151000Y-60541259D01*
X163151000Y-60718741D01*
X163116376Y-60892812D01*
X163048456Y-61056784D01*
X162949853Y-61204354D01*
X162824354Y-61329853D01*
X162676784Y-61428456D01*
X162512812Y-61496376D01*
X162363512Y-61526073D01*
X162338742Y-61531000D01*
X162161258Y-61531000D01*
X162136488Y-61526073D01*
X161987188Y-61496376D01*
X161823216Y-61428456D01*
X161675646Y-61329853D01*
X161550147Y-61204354D01*
X161451544Y-61056784D01*
X161383624Y-60892812D01*
X161349000Y-60718741D01*
X161349000Y-60541259D01*
X161383624Y-60367188D01*
X161451544Y-60203216D01*
X161550147Y-60055646D01*
X161675646Y-59930147D01*
X161823216Y-59831544D01*
X161987188Y-59763624D01*
X162136488Y-59733927D01*
X162161258Y-59729000D01*
X162338742Y-59729000D01*
X162363512Y-59733927D01*
G37*
G36*
X156833642Y-59859781D02*
G01*
X156979414Y-59920162D01*
X156979416Y-59920163D01*
X157110608Y-60007822D01*
X157222178Y-60119392D01*
X157278187Y-60203216D01*
X157309838Y-60250586D01*
X157370219Y-60396358D01*
X157401000Y-60551107D01*
X157401000Y-60708893D01*
X157370219Y-60863642D01*
X157358136Y-60892812D01*
X157309837Y-61009416D01*
X157222178Y-61140608D01*
X157110608Y-61252178D01*
X156979416Y-61339837D01*
X156979415Y-61339838D01*
X156979414Y-61339838D01*
X156833642Y-61400219D01*
X156678893Y-61431000D01*
X156521107Y-61431000D01*
X156366358Y-61400219D01*
X156220586Y-61339838D01*
X156220585Y-61339838D01*
X156220584Y-61339837D01*
X156089392Y-61252178D01*
X155977822Y-61140608D01*
X155890163Y-61009416D01*
X155841864Y-60892812D01*
X155829781Y-60863642D01*
X155799000Y-60708893D01*
X155799000Y-60551107D01*
X155829781Y-60396358D01*
X155890162Y-60250586D01*
X155921813Y-60203216D01*
X155977822Y-60119392D01*
X156089392Y-60007822D01*
X156220584Y-59920163D01*
X156220586Y-59920162D01*
X156366358Y-59859781D01*
X156521107Y-59829000D01*
X156678893Y-59829000D01*
X156833642Y-59859781D01*
G37*
G36*
X140740674Y-58239465D02*
G01*
X140778367Y-58250899D01*
X140813103Y-58269466D01*
X140843548Y-58294452D01*
X140868534Y-58324897D01*
X140887101Y-58359633D01*
X140898535Y-58397326D01*
X140903000Y-58442661D01*
X140903000Y-59279339D01*
X140898535Y-59324674D01*
X140887101Y-59362367D01*
X140868534Y-59397103D01*
X140843548Y-59427548D01*
X140813103Y-59452534D01*
X140778367Y-59471101D01*
X140740674Y-59482535D01*
X140695339Y-59487000D01*
X139608661Y-59487000D01*
X139563326Y-59482535D01*
X139525633Y-59471101D01*
X139490897Y-59452534D01*
X139460452Y-59427548D01*
X139435466Y-59397103D01*
X139416899Y-59362367D01*
X139405465Y-59324674D01*
X139401000Y-59279339D01*
X139401000Y-58442661D01*
X139405465Y-58397326D01*
X139416899Y-58359633D01*
X139435466Y-58324897D01*
X139460452Y-58294452D01*
X139490897Y-58269466D01*
X139525633Y-58250899D01*
X139563326Y-58239465D01*
X139608661Y-58235000D01*
X140695339Y-58235000D01*
X140740674Y-58239465D01*
G37*
G36*
X138454674Y-58239465D02*
G01*
X138492367Y-58250899D01*
X138527103Y-58269466D01*
X138557548Y-58294452D01*
X138582534Y-58324897D01*
X138601101Y-58359633D01*
X138612535Y-58397326D01*
X138617000Y-58442661D01*
X138617000Y-59279339D01*
X138612535Y-59324674D01*
X138601101Y-59362367D01*
X138582534Y-59397103D01*
X138557548Y-59427548D01*
X138527103Y-59452534D01*
X138492367Y-59471101D01*
X138454674Y-59482535D01*
X138409339Y-59487000D01*
X137322661Y-59487000D01*
X137277326Y-59482535D01*
X137239633Y-59471101D01*
X137204897Y-59452534D01*
X137174452Y-59427548D01*
X137149466Y-59397103D01*
X137130899Y-59362367D01*
X137119465Y-59324674D01*
X137115000Y-59279339D01*
X137115000Y-58442661D01*
X137119465Y-58397326D01*
X137130899Y-58359633D01*
X137149466Y-58324897D01*
X137174452Y-58294452D01*
X137204897Y-58269466D01*
X137239633Y-58250899D01*
X137277326Y-58239465D01*
X137322661Y-58235000D01*
X138409339Y-58235000D01*
X138454674Y-58239465D01*
G37*
G36*
X163151000Y-58991000D02*
G01*
X161349000Y-58991000D01*
X161349000Y-57189000D01*
X163151000Y-57189000D01*
X163151000Y-58991000D01*
G37*
G36*
X156833642Y-57319781D02*
G01*
X156963248Y-57373466D01*
X156979416Y-57380163D01*
X157110608Y-57467822D01*
X157222178Y-57579392D01*
X157243413Y-57611173D01*
X157309838Y-57710586D01*
X157370219Y-57856358D01*
X157401000Y-58011107D01*
X157401000Y-58168893D01*
X157370219Y-58323642D01*
X157309838Y-58469414D01*
X157309837Y-58469416D01*
X157222178Y-58600608D01*
X157110608Y-58712178D01*
X156979416Y-58799837D01*
X156979415Y-58799838D01*
X156979414Y-58799838D01*
X156833642Y-58860219D01*
X156678893Y-58891000D01*
X156521107Y-58891000D01*
X156366358Y-58860219D01*
X156220586Y-58799838D01*
X156220585Y-58799838D01*
X156220584Y-58799837D01*
X156089392Y-58712178D01*
X155977822Y-58600608D01*
X155890163Y-58469416D01*
X155890162Y-58469414D01*
X155829781Y-58323642D01*
X155799000Y-58168893D01*
X155799000Y-58011107D01*
X155829781Y-57856358D01*
X155890162Y-57710586D01*
X155956587Y-57611173D01*
X155977822Y-57579392D01*
X156089392Y-57467822D01*
X156220584Y-57380163D01*
X156236752Y-57373466D01*
X156366358Y-57319781D01*
X156521107Y-57289000D01*
X156678893Y-57289000D01*
X156833642Y-57319781D01*
G37*
G36*
X107078674Y-57343465D02*
G01*
X107116367Y-57354899D01*
X107151103Y-57373466D01*
X107181548Y-57398452D01*
X107206534Y-57428897D01*
X107225101Y-57463633D01*
X107236535Y-57501326D01*
X107241000Y-57546661D01*
X107241000Y-58633339D01*
X107236535Y-58678674D01*
X107225101Y-58716367D01*
X107206534Y-58751103D01*
X107181548Y-58781548D01*
X107151103Y-58806534D01*
X107116367Y-58825101D01*
X107078674Y-58836535D01*
X107033339Y-58841000D01*
X106196661Y-58841000D01*
X106151326Y-58836535D01*
X106113633Y-58825101D01*
X106078897Y-58806534D01*
X106048452Y-58781548D01*
X106023466Y-58751103D01*
X106004899Y-58716367D01*
X105993465Y-58678674D01*
X105989000Y-58633339D01*
X105989000Y-57546661D01*
X105993465Y-57501326D01*
X106004899Y-57463633D01*
X106023466Y-57428897D01*
X106048452Y-57398452D01*
X106078897Y-57373466D01*
X106113633Y-57354899D01*
X106151326Y-57343465D01*
X106196661Y-57339000D01*
X107033339Y-57339000D01*
X107078674Y-57343465D01*
G37*
G36*
X109128674Y-57343465D02*
G01*
X109166367Y-57354899D01*
X109201103Y-57373466D01*
X109231548Y-57398452D01*
X109256534Y-57428897D01*
X109275101Y-57463633D01*
X109286535Y-57501326D01*
X109291000Y-57546661D01*
X109291000Y-58633339D01*
X109286535Y-58678674D01*
X109275101Y-58716367D01*
X109256534Y-58751103D01*
X109231548Y-58781548D01*
X109201103Y-58806534D01*
X109166367Y-58825101D01*
X109128674Y-58836535D01*
X109083339Y-58841000D01*
X108246661Y-58841000D01*
X108201326Y-58836535D01*
X108163633Y-58825101D01*
X108128897Y-58806534D01*
X108098452Y-58781548D01*
X108073466Y-58751103D01*
X108054899Y-58716367D01*
X108043465Y-58678674D01*
X108039000Y-58633339D01*
X108039000Y-57546661D01*
X108043465Y-57501326D01*
X108054899Y-57463633D01*
X108073466Y-57428897D01*
X108098452Y-57398452D01*
X108128897Y-57373466D01*
X108163633Y-57354899D01*
X108201326Y-57343465D01*
X108246661Y-57339000D01*
X109083339Y-57339000D01*
X109128674Y-57343465D01*
G37*
G36*
X114698674Y-57343465D02*
G01*
X114736367Y-57354899D01*
X114771103Y-57373466D01*
X114801548Y-57398452D01*
X114826534Y-57428897D01*
X114845101Y-57463633D01*
X114856535Y-57501326D01*
X114861000Y-57546661D01*
X114861000Y-58633339D01*
X114856535Y-58678674D01*
X114845101Y-58716367D01*
X114826534Y-58751103D01*
X114801548Y-58781548D01*
X114771103Y-58806534D01*
X114736367Y-58825101D01*
X114698674Y-58836535D01*
X114653339Y-58841000D01*
X113816661Y-58841000D01*
X113771326Y-58836535D01*
X113733633Y-58825101D01*
X113698897Y-58806534D01*
X113668452Y-58781548D01*
X113643466Y-58751103D01*
X113624899Y-58716367D01*
X113613465Y-58678674D01*
X113609000Y-58633339D01*
X113609000Y-57546661D01*
X113613465Y-57501326D01*
X113624899Y-57463633D01*
X113643466Y-57428897D01*
X113668452Y-57398452D01*
X113698897Y-57373466D01*
X113733633Y-57354899D01*
X113771326Y-57343465D01*
X113816661Y-57339000D01*
X114653339Y-57339000D01*
X114698674Y-57343465D01*
G37*
G36*
X116748674Y-57343465D02*
G01*
X116786367Y-57354899D01*
X116821103Y-57373466D01*
X116851548Y-57398452D01*
X116876534Y-57428897D01*
X116895101Y-57463633D01*
X116906535Y-57501326D01*
X116911000Y-57546661D01*
X116911000Y-58633339D01*
X116906535Y-58678674D01*
X116895101Y-58716367D01*
X116876534Y-58751103D01*
X116851548Y-58781548D01*
X116821103Y-58806534D01*
X116786367Y-58825101D01*
X116748674Y-58836535D01*
X116703339Y-58841000D01*
X115866661Y-58841000D01*
X115821326Y-58836535D01*
X115783633Y-58825101D01*
X115748897Y-58806534D01*
X115718452Y-58781548D01*
X115693466Y-58751103D01*
X115674899Y-58716367D01*
X115663465Y-58678674D01*
X115659000Y-58633339D01*
X115659000Y-57546661D01*
X115663465Y-57501326D01*
X115674899Y-57463633D01*
X115693466Y-57428897D01*
X115718452Y-57398452D01*
X115748897Y-57373466D01*
X115783633Y-57354899D01*
X115821326Y-57343465D01*
X115866661Y-57339000D01*
X116703339Y-57339000D01*
X116748674Y-57343465D01*
G37*
G36*
X138454674Y-56189465D02*
G01*
X138492367Y-56200899D01*
X138527103Y-56219466D01*
X138557548Y-56244452D01*
X138582534Y-56274897D01*
X138601101Y-56309633D01*
X138612535Y-56347326D01*
X138617000Y-56392661D01*
X138617000Y-57229339D01*
X138612535Y-57274674D01*
X138601101Y-57312367D01*
X138582534Y-57347103D01*
X138557548Y-57377548D01*
X138527103Y-57402534D01*
X138492367Y-57421101D01*
X138454674Y-57432535D01*
X138409339Y-57437000D01*
X137322661Y-57437000D01*
X137277326Y-57432535D01*
X137239633Y-57421101D01*
X137204897Y-57402534D01*
X137174452Y-57377548D01*
X137149466Y-57347103D01*
X137130899Y-57312367D01*
X137119465Y-57274674D01*
X137115000Y-57229339D01*
X137115000Y-56392661D01*
X137119465Y-56347326D01*
X137130899Y-56309633D01*
X137149466Y-56274897D01*
X137174452Y-56244452D01*
X137204897Y-56219466D01*
X137239633Y-56200899D01*
X137277326Y-56189465D01*
X137322661Y-56185000D01*
X138409339Y-56185000D01*
X138454674Y-56189465D01*
G37*
G36*
X140740674Y-56189465D02*
G01*
X140778367Y-56200899D01*
X140813103Y-56219466D01*
X140843548Y-56244452D01*
X140868534Y-56274897D01*
X140887101Y-56309633D01*
X140898535Y-56347326D01*
X140903000Y-56392661D01*
X140903000Y-57229339D01*
X140898535Y-57274674D01*
X140887101Y-57312367D01*
X140868534Y-57347103D01*
X140843548Y-57377548D01*
X140813103Y-57402534D01*
X140778367Y-57421101D01*
X140740674Y-57432535D01*
X140695339Y-57437000D01*
X139608661Y-57437000D01*
X139563326Y-57432535D01*
X139525633Y-57421101D01*
X139490897Y-57402534D01*
X139460452Y-57377548D01*
X139435466Y-57347103D01*
X139416899Y-57312367D01*
X139405465Y-57274674D01*
X139401000Y-57229339D01*
X139401000Y-56392661D01*
X139405465Y-56347326D01*
X139416899Y-56309633D01*
X139435466Y-56274897D01*
X139460452Y-56244452D01*
X139490897Y-56219466D01*
X139525633Y-56200899D01*
X139563326Y-56189465D01*
X139608661Y-56185000D01*
X140695339Y-56185000D01*
X140740674Y-56189465D01*
G37*
G36*
X141561000Y-50101000D02*
G01*
X139759000Y-50101000D01*
X139759000Y-48299000D01*
X141561000Y-48299000D01*
X141561000Y-50101000D01*
G37*
G36*
X122993512Y-48303927D02*
G01*
X123142812Y-48333624D01*
X123306784Y-48401544D01*
X123454354Y-48500147D01*
X123579853Y-48625646D01*
X123678456Y-48773216D01*
X123746376Y-48937188D01*
X123781000Y-49111259D01*
X123781000Y-49288741D01*
X123746376Y-49462812D01*
X123678456Y-49626784D01*
X123579853Y-49774354D01*
X123454354Y-49899853D01*
X123306784Y-49998456D01*
X123142812Y-50066376D01*
X122993512Y-50096073D01*
X122968742Y-50101000D01*
X122791258Y-50101000D01*
X122766488Y-50096073D01*
X122617188Y-50066376D01*
X122453216Y-49998456D01*
X122305646Y-49899853D01*
X122180147Y-49774354D01*
X122081544Y-49626784D01*
X122013624Y-49462812D01*
X121979000Y-49288741D01*
X121979000Y-49111259D01*
X122013624Y-48937188D01*
X122081544Y-48773216D01*
X122180147Y-48625646D01*
X122305646Y-48500147D01*
X122453216Y-48401544D01*
X122617188Y-48333624D01*
X122766488Y-48303927D01*
X122791258Y-48299000D01*
X122968742Y-48299000D01*
X122993512Y-48303927D01*
G37*
G36*
X105213512Y-48303927D02*
G01*
X105362812Y-48333624D01*
X105526784Y-48401544D01*
X105674354Y-48500147D01*
X105799853Y-48625646D01*
X105898456Y-48773216D01*
X105966376Y-48937188D01*
X106001000Y-49111259D01*
X106001000Y-49288741D01*
X105966376Y-49462812D01*
X105898456Y-49626784D01*
X105799853Y-49774354D01*
X105674354Y-49899853D01*
X105526784Y-49998456D01*
X105362812Y-50066376D01*
X105213512Y-50096073D01*
X105188742Y-50101000D01*
X105011258Y-50101000D01*
X104986488Y-50096073D01*
X104837188Y-50066376D01*
X104673216Y-49998456D01*
X104525646Y-49899853D01*
X104400147Y-49774354D01*
X104301544Y-49626784D01*
X104233624Y-49462812D01*
X104199000Y-49288741D01*
X104199000Y-49111259D01*
X104233624Y-48937188D01*
X104301544Y-48773216D01*
X104400147Y-48625646D01*
X104525646Y-48500147D01*
X104673216Y-48401544D01*
X104837188Y-48333624D01*
X104986488Y-48303927D01*
X105011258Y-48299000D01*
X105188742Y-48299000D01*
X105213512Y-48303927D01*
G37*
G36*
X107753512Y-48303927D02*
G01*
X107902812Y-48333624D01*
X108066784Y-48401544D01*
X108214354Y-48500147D01*
X108339853Y-48625646D01*
X108438456Y-48773216D01*
X108506376Y-48937188D01*
X108541000Y-49111259D01*
X108541000Y-49288741D01*
X108506376Y-49462812D01*
X108438456Y-49626784D01*
X108339853Y-49774354D01*
X108214354Y-49899853D01*
X108066784Y-49998456D01*
X107902812Y-50066376D01*
X107753512Y-50096073D01*
X107728742Y-50101000D01*
X107551258Y-50101000D01*
X107526488Y-50096073D01*
X107377188Y-50066376D01*
X107213216Y-49998456D01*
X107065646Y-49899853D01*
X106940147Y-49774354D01*
X106841544Y-49626784D01*
X106773624Y-49462812D01*
X106739000Y-49288741D01*
X106739000Y-49111259D01*
X106773624Y-48937188D01*
X106841544Y-48773216D01*
X106940147Y-48625646D01*
X107065646Y-48500147D01*
X107213216Y-48401544D01*
X107377188Y-48333624D01*
X107526488Y-48303927D01*
X107551258Y-48299000D01*
X107728742Y-48299000D01*
X107753512Y-48303927D01*
G37*
G36*
X110293512Y-48303927D02*
G01*
X110442812Y-48333624D01*
X110606784Y-48401544D01*
X110754354Y-48500147D01*
X110879853Y-48625646D01*
X110978456Y-48773216D01*
X111046376Y-48937188D01*
X111081000Y-49111259D01*
X111081000Y-49288741D01*
X111046376Y-49462812D01*
X110978456Y-49626784D01*
X110879853Y-49774354D01*
X110754354Y-49899853D01*
X110606784Y-49998456D01*
X110442812Y-50066376D01*
X110293512Y-50096073D01*
X110268742Y-50101000D01*
X110091258Y-50101000D01*
X110066488Y-50096073D01*
X109917188Y-50066376D01*
X109753216Y-49998456D01*
X109605646Y-49899853D01*
X109480147Y-49774354D01*
X109381544Y-49626784D01*
X109313624Y-49462812D01*
X109279000Y-49288741D01*
X109279000Y-49111259D01*
X109313624Y-48937188D01*
X109381544Y-48773216D01*
X109480147Y-48625646D01*
X109605646Y-48500147D01*
X109753216Y-48401544D01*
X109917188Y-48333624D01*
X110066488Y-48303927D01*
X110091258Y-48299000D01*
X110268742Y-48299000D01*
X110293512Y-48303927D01*
G37*
G36*
X112833512Y-48303927D02*
G01*
X112982812Y-48333624D01*
X113146784Y-48401544D01*
X113294354Y-48500147D01*
X113419853Y-48625646D01*
X113518456Y-48773216D01*
X113586376Y-48937188D01*
X113621000Y-49111259D01*
X113621000Y-49288741D01*
X113586376Y-49462812D01*
X113518456Y-49626784D01*
X113419853Y-49774354D01*
X113294354Y-49899853D01*
X113146784Y-49998456D01*
X112982812Y-50066376D01*
X112833512Y-50096073D01*
X112808742Y-50101000D01*
X112631258Y-50101000D01*
X112606488Y-50096073D01*
X112457188Y-50066376D01*
X112293216Y-49998456D01*
X112145646Y-49899853D01*
X112020147Y-49774354D01*
X111921544Y-49626784D01*
X111853624Y-49462812D01*
X111819000Y-49288741D01*
X111819000Y-49111259D01*
X111853624Y-48937188D01*
X111921544Y-48773216D01*
X112020147Y-48625646D01*
X112145646Y-48500147D01*
X112293216Y-48401544D01*
X112457188Y-48333624D01*
X112606488Y-48303927D01*
X112631258Y-48299000D01*
X112808742Y-48299000D01*
X112833512Y-48303927D01*
G37*
G36*
X125533512Y-48303927D02*
G01*
X125682812Y-48333624D01*
X125846784Y-48401544D01*
X125994354Y-48500147D01*
X126119853Y-48625646D01*
X126218456Y-48773216D01*
X126286376Y-48937188D01*
X126321000Y-49111259D01*
X126321000Y-49288741D01*
X126286376Y-49462812D01*
X126218456Y-49626784D01*
X126119853Y-49774354D01*
X125994354Y-49899853D01*
X125846784Y-49998456D01*
X125682812Y-50066376D01*
X125533512Y-50096073D01*
X125508742Y-50101000D01*
X125331258Y-50101000D01*
X125306488Y-50096073D01*
X125157188Y-50066376D01*
X124993216Y-49998456D01*
X124845646Y-49899853D01*
X124720147Y-49774354D01*
X124621544Y-49626784D01*
X124553624Y-49462812D01*
X124519000Y-49288741D01*
X124519000Y-49111259D01*
X124553624Y-48937188D01*
X124621544Y-48773216D01*
X124720147Y-48625646D01*
X124845646Y-48500147D01*
X124993216Y-48401544D01*
X125157188Y-48333624D01*
X125306488Y-48303927D01*
X125331258Y-48299000D01*
X125508742Y-48299000D01*
X125533512Y-48303927D01*
G37*
G36*
X128073512Y-48303927D02*
G01*
X128222812Y-48333624D01*
X128386784Y-48401544D01*
X128534354Y-48500147D01*
X128659853Y-48625646D01*
X128758456Y-48773216D01*
X128826376Y-48937188D01*
X128861000Y-49111259D01*
X128861000Y-49288741D01*
X128826376Y-49462812D01*
X128758456Y-49626784D01*
X128659853Y-49774354D01*
X128534354Y-49899853D01*
X128386784Y-49998456D01*
X128222812Y-50066376D01*
X128073512Y-50096073D01*
X128048742Y-50101000D01*
X127871258Y-50101000D01*
X127846488Y-50096073D01*
X127697188Y-50066376D01*
X127533216Y-49998456D01*
X127385646Y-49899853D01*
X127260147Y-49774354D01*
X127161544Y-49626784D01*
X127093624Y-49462812D01*
X127059000Y-49288741D01*
X127059000Y-49111259D01*
X127093624Y-48937188D01*
X127161544Y-48773216D01*
X127260147Y-48625646D01*
X127385646Y-48500147D01*
X127533216Y-48401544D01*
X127697188Y-48333624D01*
X127846488Y-48303927D01*
X127871258Y-48299000D01*
X128048742Y-48299000D01*
X128073512Y-48303927D01*
G37*
G36*
X130613512Y-48303927D02*
G01*
X130762812Y-48333624D01*
X130926784Y-48401544D01*
X131074354Y-48500147D01*
X131199853Y-48625646D01*
X131298456Y-48773216D01*
X131366376Y-48937188D01*
X131401000Y-49111259D01*
X131401000Y-49288741D01*
X131366376Y-49462812D01*
X131298456Y-49626784D01*
X131199853Y-49774354D01*
X131074354Y-49899853D01*
X130926784Y-49998456D01*
X130762812Y-50066376D01*
X130613512Y-50096073D01*
X130588742Y-50101000D01*
X130411258Y-50101000D01*
X130386488Y-50096073D01*
X130237188Y-50066376D01*
X130073216Y-49998456D01*
X129925646Y-49899853D01*
X129800147Y-49774354D01*
X129701544Y-49626784D01*
X129633624Y-49462812D01*
X129599000Y-49288741D01*
X129599000Y-49111259D01*
X129633624Y-48937188D01*
X129701544Y-48773216D01*
X129800147Y-48625646D01*
X129925646Y-48500147D01*
X130073216Y-48401544D01*
X130237188Y-48333624D01*
X130386488Y-48303927D01*
X130411258Y-48299000D01*
X130588742Y-48299000D01*
X130613512Y-48303927D01*
G37*
G36*
X133153512Y-48303927D02*
G01*
X133302812Y-48333624D01*
X133466784Y-48401544D01*
X133614354Y-48500147D01*
X133739853Y-48625646D01*
X133838456Y-48773216D01*
X133906376Y-48937188D01*
X133941000Y-49111259D01*
X133941000Y-49288741D01*
X133906376Y-49462812D01*
X133838456Y-49626784D01*
X133739853Y-49774354D01*
X133614354Y-49899853D01*
X133466784Y-49998456D01*
X133302812Y-50066376D01*
X133153512Y-50096073D01*
X133128742Y-50101000D01*
X132951258Y-50101000D01*
X132926488Y-50096073D01*
X132777188Y-50066376D01*
X132613216Y-49998456D01*
X132465646Y-49899853D01*
X132340147Y-49774354D01*
X132241544Y-49626784D01*
X132173624Y-49462812D01*
X132139000Y-49288741D01*
X132139000Y-49111259D01*
X132173624Y-48937188D01*
X132241544Y-48773216D01*
X132340147Y-48625646D01*
X132465646Y-48500147D01*
X132613216Y-48401544D01*
X132777188Y-48333624D01*
X132926488Y-48303927D01*
X132951258Y-48299000D01*
X133128742Y-48299000D01*
X133153512Y-48303927D01*
G37*
G36*
X135693512Y-48303927D02*
G01*
X135842812Y-48333624D01*
X136006784Y-48401544D01*
X136154354Y-48500147D01*
X136279853Y-48625646D01*
X136378456Y-48773216D01*
X136446376Y-48937188D01*
X136481000Y-49111259D01*
X136481000Y-49288741D01*
X136446376Y-49462812D01*
X136378456Y-49626784D01*
X136279853Y-49774354D01*
X136154354Y-49899853D01*
X136006784Y-49998456D01*
X135842812Y-50066376D01*
X135693512Y-50096073D01*
X135668742Y-50101000D01*
X135491258Y-50101000D01*
X135466488Y-50096073D01*
X135317188Y-50066376D01*
X135153216Y-49998456D01*
X135005646Y-49899853D01*
X134880147Y-49774354D01*
X134781544Y-49626784D01*
X134713624Y-49462812D01*
X134679000Y-49288741D01*
X134679000Y-49111259D01*
X134713624Y-48937188D01*
X134781544Y-48773216D01*
X134880147Y-48625646D01*
X135005646Y-48500147D01*
X135153216Y-48401544D01*
X135317188Y-48333624D01*
X135466488Y-48303927D01*
X135491258Y-48299000D01*
X135668742Y-48299000D01*
X135693512Y-48303927D01*
G37*
G36*
X115373512Y-48303927D02*
G01*
X115522812Y-48333624D01*
X115686784Y-48401544D01*
X115834354Y-48500147D01*
X115959853Y-48625646D01*
X116058456Y-48773216D01*
X116126376Y-48937188D01*
X116161000Y-49111259D01*
X116161000Y-49288741D01*
X116126376Y-49462812D01*
X116058456Y-49626784D01*
X115959853Y-49774354D01*
X115834354Y-49899853D01*
X115686784Y-49998456D01*
X115522812Y-50066376D01*
X115373512Y-50096073D01*
X115348742Y-50101000D01*
X115171258Y-50101000D01*
X115146488Y-50096073D01*
X114997188Y-50066376D01*
X114833216Y-49998456D01*
X114685646Y-49899853D01*
X114560147Y-49774354D01*
X114461544Y-49626784D01*
X114393624Y-49462812D01*
X114359000Y-49288741D01*
X114359000Y-49111259D01*
X114393624Y-48937188D01*
X114461544Y-48773216D01*
X114560147Y-48625646D01*
X114685646Y-48500147D01*
X114833216Y-48401544D01*
X114997188Y-48333624D01*
X115146488Y-48303927D01*
X115171258Y-48299000D01*
X115348742Y-48299000D01*
X115373512Y-48303927D01*
G37*
G36*
X138233512Y-48303927D02*
G01*
X138382812Y-48333624D01*
X138546784Y-48401544D01*
X138694354Y-48500147D01*
X138819853Y-48625646D01*
X138918456Y-48773216D01*
X138986376Y-48937188D01*
X139021000Y-49111259D01*
X139021000Y-49288741D01*
X138986376Y-49462812D01*
X138918456Y-49626784D01*
X138819853Y-49774354D01*
X138694354Y-49899853D01*
X138546784Y-49998456D01*
X138382812Y-50066376D01*
X138233512Y-50096073D01*
X138208742Y-50101000D01*
X138031258Y-50101000D01*
X138006488Y-50096073D01*
X137857188Y-50066376D01*
X137693216Y-49998456D01*
X137545646Y-49899853D01*
X137420147Y-49774354D01*
X137321544Y-49626784D01*
X137253624Y-49462812D01*
X137219000Y-49288741D01*
X137219000Y-49111259D01*
X137253624Y-48937188D01*
X137321544Y-48773216D01*
X137420147Y-48625646D01*
X137545646Y-48500147D01*
X137693216Y-48401544D01*
X137857188Y-48333624D01*
X138006488Y-48303927D01*
X138031258Y-48299000D01*
X138208742Y-48299000D01*
X138233512Y-48303927D01*
G37*
G36*
X118701000Y-50101000D02*
G01*
X116899000Y-50101000D01*
X116899000Y-48299000D01*
X118701000Y-48299000D01*
X118701000Y-50101000D01*
G37*
M02*
